<?xml version="1.0" encoding="UTF-8"?>
<!DOCTYPE svg PUBLIC "-//W3C//DTD SVG 1.1//EN" "http://www.w3.org/Graphics/SVG/1.1/DTD/svg11.dtd">
<!-- Creator: CorelDRAW X7 -->
<svg xmlns="http://www.w3.org/2000/svg" xml:space="preserve" width="5232px" height="2114px" version="1.1" style="shape-rendering:geometricPrecision; text-rendering:geometricPrecision; image-rendering:optimizeQuality; fill-rule:evenodd; clip-rule:evenodd"
viewBox="0 0 5232 2114"
 xmlns:xlink="http://www.w3.org/1999/xlink">
 <defs>
  <style type="text/css">
   <![CDATA[
    .fil8 {fill:#100062}
    .fil12 {fill:#13375B}
    .fil5 {fill:#184655}
    .fil13 {fill:#355389}
    .fil3 {fill:#3C8F7C}
    .fil16 {fill:#466EB6}
    .fil4 {fill:#50BFA5}
    .fil6 {fill:#86B1F2}
    .fil2 {fill:#96D9C9}
    .fil14 {fill:#9BC1F9}
    .fil18 {fill:#C98C53}
    .fil19 {fill:#E8B16B}
    .fil10 {fill:#F47458}
    .fil15 {fill:#F48C7F}
    .fil17 {fill:#F7A491}
    .fil1 {fill:#F7CC7F}
    .fil7 {fill:#FAE0B2}
    .fil11 {fill:#FF3B3B}
    .fil9 {fill:#FF4C16}
    .fil20 {fill:white}
    .fil0 {fill:url(#id0)}
   ]]>
  </style>
  <linearGradient id="id0" gradientUnits="userSpaceOnUse" x1="2643.21" y1="1409.22" x2="2790.44" y2="2363.73">
   <stop offset="0" style="stop-opacity:1; stop-color:#F2F3F3"/>
   <stop offset="1" style="stop-opacity:1; stop-color:#FEFEFE"/>
  </linearGradient>
 </defs>
 <g id="Capa_x0020_1">
  <metadata id="CorelCorpID_0Corel-Layer"/>
  <g id="_2248635266000">
   <path class="fil0" d="M2717 1666c872,0 1641,175 2093,441l-4186 0c451,-266 1220,-441 2093,-441z"/>
   <g>
    <polygon class="fil1" points="4038,1370 4020,1373 4015,1392 3994,1395 3995,1416 3971,1420 3969,1440 3947,1447 3944,1439 3961,1433 3963,1412 3985,1409 3984,1387 4008,1384 4012,1366 4030,1362 4030,1350 4039,1350 "/>
    <path class="fil2" d="M4551 1248l22 -21c-7,-37 -42,-55 -65,-58 -63,-6 -94,36 -108,105 -24,126 7,653 7,653 2,-14 171,-543 167,-689l-23 10z"/>
    <path class="fil3" d="M3754 1705l-2 17 -5 -20c-16,-5 -29,-6 -40,-4 -96,22 69,153 69,153 0,0 -52,-33 -103,-54l-1 18 -6 -20c-40,-15 -77,-23 -84,0 -7,21 7,41 31,59l28 1 -17 6c56,36 147,61 179,67 -31,-5 -104,-15 -148,-5l7 11 -18 -8c-15,5 -24,13 -23,26 2,24 108,33 108,33l390 -4 3 2c0,0 -242,-232 -368,-278z"/>
    <path class="fil4" d="M5109 1925c-9,-41 -97,-52 -209,-30 40,-14 95,-45 123,-59l-19 -13 39 2c32,-19 48,-37 37,-54 -7,-12 -25,-17 -48,-17l-12 22 3 -22c-59,4 -72,-6 -151,26 49,-26 56,-34 60,-44l-27 -12 31 0c26,-27 66,-81 49,-105 -14,-21 -74,8 -112,22l-17 37 3 -31c-122,53 -80,10 -80,10 0,0 127,-264 52,-258 -30,2 -62,20 -93,49l-1 26 -9 -17c-23,23 -46,50 -67,79 29,-61 51,-122 54,-167l-23 -2 22 -16c-2,-23 -11,-40 -29,-49 -28,-14 -57,7 -86,49l7 38 -18 -21c-104,168 -198,584 -198,584l-8 22 304 15c0,0 440,17 423,-64z"/>
    <path class="fil5" d="M5147 1991l-1578 0c-2,0 -5,-2 -5,-5 0,-3 3,-5 5,-5l1578 0c2,0 4,2 4,5 0,3 -2,5 -4,5z"/>
    <path class="fil6" d="M4662 1812l-713 0c-27,0 -50,-20 -50,-44l0 -27c0,-25 23,-45 50,-45l713 0c-33,33 -33,82 -1,115l1 1z"/>
    <path class="fil7" d="M4652 1710l-359 0c-25,0 -45,20 -45,44l0 0c0,25 20,45 45,45l359 0c-17,-27 -17,-62 0,-89z"/>
    <path class="fil8" d="M4723 1569c1,-2 -1,-5 -5,-5l-661 0c-44,0 -80,29 -80,66l0 0c0,37 36,67 80,67l661 0c4,0 6,-4 5,-6l0 0c-23,-39 -23,-83 0,-122z"/>
    <path class="fil7" d="M4718 1578l-474 0c-28,0 -51,23 -51,51l0 4c0,28 23,51 51,51l475 0c-17,-34 -17,-72 -1,-106z"/>
    <path class="fil9" d="M4385 1631l-39 0c-9,0 -15,3 -15,6l0 1 54 0 0 -7z"/>
    <path class="fil10" d="M4419 1646c0,-8 -11,-15 -23,-15l-51 0c10,0 18,5 18,11l-1 157 28 -20 29 20 0 -153z"/>
    <path class="fil11" d="M4955 1812l-1060 0c-32,0 -59,27 -59,60l0 50c0,33 27,59 59,59l1060 0 -1 0c-45,-47 -45,-122 1,-169z"/>
    <path class="fil7" d="M4936 1837l-566 0c-33,0 -60,27 -60,60l0 0c0,33 27,59 60,59l566 0c-21,-37 -21,-82 0,-119z"/>
    <path class="fil12" d="M4658 1897l-46 0c-10,0 -18,8 -18,18l0 2 64 0 0 -20z"/>
    <path class="fil13" d="M4614 1897c11,0 27,9 37,21l109 135 64 0 -104 -129c-12,-15 -34,-27 -48,-27l-58 0z"/>
    <path class="fil1" d="M4011 449c-23,15 -15,51 12,56 5,1 9,3 12,7l11 13c3,4 8,5 12,2l9 -6c4,-3 5,-8 3,-12 -9,-15 -13,-19 -11,-29 5,-27 -26,-47 -48,-31z"/>
    <path class="fil7" d="M4050 517c0,0 0,0 0,0 -1,0 -2,0 -3,-1l-21 -30 -10 -3c-2,-1 -3,-2 -2,-3 0,-2 1,-2 3,-2l12 3 22 32c1,1 0,3 -1,4z"/>
    <path class="fil7" d="M4061 511c0,0 0,0 0,0 2,-1 2,-3 1,-4l-21 -30 1 -11c0,-1 -1,-2 -2,-2 -1,-1 -3,0 -3,2l-1 13 22 31c1,1 2,2 3,1z"/>
    <path class="fil2" d="M4035 512c0,0 0,0 0,0l11 13c3,4 8,5 12,2l9 -6c4,-3 5,-8 3,-12 -4,-6 -7,-11 -9,-15l-26 18z"/>
    <path class="fil10" d="M4917 1124l-11 -16 -19 0c-2,0 -3,-2 -2,-4l11 -15 -6 -18c0,-2 2,-4 4,-3l18 6 15 -11c2,-1 4,0 4,2l0 19 15 11c2,2 1,4 -1,5l-18 5 -6 18c0,2 -3,3 -4,1z"/>
    <path class="fil10" d="M3762 1181l-19 5 -6 17c-1,2 -4,3 -5,1l-10 -16 -19 -1c-2,0 -3,-3 -2,-4l12 -15 -5 -18c0,-2 2,-4 4,-3l17 7 16 -11c2,-1 4,1 4,3l-1 19 15 11c1,2 1,4 -1,5z"/>
    <path class="fil14" d="M4862 1254l-8 -11 -14 0c-1,0 -2,-2 -1,-3l8 -11 -4 -13c-1,-2 1,-3 2,-3l13 5 12 -8c1,-1 3,0 3,1l-1 14 12 8c1,1 0,3 -1,4l-13 3 -5 14c0,1 -2,2 -3,0z"/>
    <path class="fil1" d="M4925 883l-12 -6 -12 6c-2,0 -3,-1 -3,-2l3 -14 -10 -10c-1,-1 0,-3 1,-3l14 -2 7 -12c1,-2 3,-1 3,0l6 13 14 2c1,0 2,2 1,3l-11 10 2 14c0,1 -1,2 -3,1z"/>
    <path class="fil14" d="M4023 699l-12 -6 -12 6c-2,1 -3,0 -3,-2l2 -13 -10 -10c-1,-1 0,-3 1,-3l14 -2 6 -13c1,-1 3,-1 4,0l6 13 13 2c2,0 3,2 2,3l-10 10 2 13c0,2 -1,3 -3,2z"/>
    <path class="fil14" d="M4221 470l-12 -6 -12 7c-2,0 -3,-1 -3,-2l2 -14 -10 -10c-1,-1 0,-3 1,-3l14 -2 6 -13c1,-1 3,-1 4,0l6 13 14 2c1,0 2,2 1,3l-10 10 2 13c0,2 -1,3 -3,2z"/>
    <path class="fil14" d="M3708 963l-12 -6 -12 7c-2,0 -3,-1 -3,-2l2 -14 -10 -10c-1,-1 0,-3 1,-3l14 -2 6 -13c1,-1 3,-1 3,0l7 13 13 2c2,0 3,2 1,3l-9 10 2 13c0,2 -1,3 -3,2z"/>
    <path class="fil14" d="M4571 767l-8 -12 -14 0c-2,0 -3,-1 -2,-3l9 -11 -5 -13c0,-1 1,-3 3,-2l13 4 11 -8c2,-1 3,0 3,2l0 14 11 8c1,1 1,3 0,3l-14 4 -4 13c0,2 -2,2 -3,1z"/>
    <path class="fil14" d="M4837 772l-8 -12 -14 0c-2,0 -3,-1 -2,-3l9 -11 -4 -13c-1,-2 1,-3 2,-2l13 4 11 -8c2,-1 3,0 3,2l0 13 11 9c2,1 1,3 0,3l-14 4 -4 13c0,2 -2,2 -3,1z"/>
    <polygon class="fil15" points="4663,1010 4645,1007 4635,1022 4616,1017 4610,1037 4588,1032 4580,1049 4558,1049 4558,1040 4575,1041 4583,1023 4604,1027 4610,1008 4632,1013 4642,998 4658,1001 4662,990 4670,993 "/>
    <polygon class="fil16" points="4565,446 4560,463 4573,475 4566,494 4584,502 4576,524 4592,534 4588,555 4580,554 4583,538 4566,527 4574,507 4555,498 4563,477 4550,466 4555,450 4545,444 4549,437 "/>
    <polygon class="fil4" points="4117,1129 4104,1133 4095,1113 4076,1116 4067,1103 4060,1107 4072,1126 4090,1122 4099,1143 4119,1137 "/>
    <path class="fil15" d="M3837 1349l-3 -16 13 10 -10 6zm-13 -54l-19 12 20 89c2,8 11,12 17,8l0 0c5,-3 7,-8 6,-13l-5 -21 20 -12 17 14c3,3 9,3 13,1l0 0c7,-5 8,-14 2,-19l-71 -59z"/>
    <path class="fil15" d="M4745 553l7 -15 3 17 -10 -2zm23 -50l-23 -3 -39 83c-3,7 1,15 9,16l0 0c5,1 10,-2 12,-6l9 -20 23 3 5 21c1,5 5,9 10,9l0 0c8,1 14,-6 13,-13l-19 -90z"/>
    <path class="fil16" d="M3887 1029c2,-7 8,-10 14,-9 7,2 10,8 8,14 -1,7 -7,10 -14,9 -6,-2 -9,-8 -8,-14zm8 -16c1,-3 0,-12 12,-21 6,-4 10,-7 11,-11 2,-7 -6,-10 -13,-10 -4,0 -8,-3 -8,-7l0 0c0,-4 3,-7 7,-7 4,-1 9,0 15,1 16,4 21,15 18,25 -2,9 -9,14 -15,18 -10,7 -10,14 -11,16l-16 -4z"/>
    <path class="fil2" d="M3966 1256c1,1 3,1 6,2 8,3 16,2 19,-7 2,-7 -4,-13 -13,-15l-6 -2 -6 22zm10 -35l5 2c10,3 16,0 17,-5 2,-6 -2,-11 -10,-13 -3,-1 -6,-2 -7,-2l-5 18zm-9 -35c4,1 14,3 23,5 11,3 17,6 22,11 4,5 7,11 5,18 -2,7 -8,13 -18,13l0 1c8,5 13,13 10,23 -2,7 -7,12 -13,15 -7,3 -17,2 -33,-2 -8,-3 -15,-5 -18,-7l22 -77z"/>
    <path class="fil10" d="M3856 669c2,-1 4,-1 7,-3 8,-3 14,-8 10,-16 -3,-8 -11,-8 -19,-5l-6 3 8 21zm-13 -34l6 -2c9,-3 12,-9 10,-15 -2,-5 -8,-7 -16,-4 -3,2 -5,3 -7,4l7 17zm-28 -22c4,-3 13,-7 21,-10 11,-4 17,-6 24,-5 7,1 13,5 15,11 3,7 1,15 -6,21l0 1c10,-1 19,3 23,12 2,7 1,14 -2,20 -4,6 -12,12 -27,18 -8,4 -15,5 -19,6l-29 -74z"/>
    <path class="fil1" d="M4724 1220c1,5 -1,9 -6,10 -4,1 -9,2 -15,2 -31,1 -47,-18 -48,-43 -1,-30 20,-48 47,-49 5,0 10,0 14,1 4,1 7,5 6,10l0 0c-1,4 -5,7 -9,6 -3,0 -6,0 -10,0 -16,0 -28,10 -27,30 1,18 12,29 30,28 3,0 6,0 9,-1 4,-1 8,2 9,6l0 0z"/>
    <path class="fil1" d="M3775 858c0,5 -4,8 -9,7 -4,0 -9,-1 -15,-3 -29,-11 -37,-34 -29,-58 10,-29 37,-38 62,-28 5,1 9,3 13,5 4,3 5,8 2,12l0 0c-2,4 -7,5 -11,3 -2,-2 -5,-3 -9,-4 -15,-6 -30,-1 -36,18 -6,17 0,31 17,37 3,1 6,2 9,2 4,1 7,5 6,9l0 0z"/>
    <path class="fil16" d="M4722 904l-19 -50c-2,-4 0,-9 5,-10l5 -2c4,-1 8,1 10,6l14 52 -15 4zm1 20c-2,-7 2,-14 9,-16 6,-2 12,2 15,9 2,6 -1,13 -8,15 -7,2 -14,-1 -16,-8z"/>
    <path class="fil17" d="M4288 985c1,1 -16,22 -32,37 -12,16 -24,35 -28,55 -7,32 -2,188 -7,199 -47,46 -81,161 -91,196 -1,7 -5,13 -10,18l0 0 2 40 23 21c0,0 -5,-32 5,-56 0,0 118,-179 126,-193 13,-39 62,-239 62,-239l11 -46c0,0 -61,-32 -61,-32z"/>
    <path class="fil11" d="M4094 1503c0,0 15,23 16,32 1,9 9,29 18,30 2,0 36,3 35,-1 0,-4 -12,-8 -18,-12 -10,-7 -25,-62 -25,-62 0,0 -25,6 -26,13z"/>
    <path class="fil17" d="M4389 1054c0,0 76,163 76,192 1,24 -13,162 -9,277 0,4 5,10 13,13 4,2 25,11 25,11l3 8 -72 -5 -1 -20c0,0 -28,-171 -25,-220 0,-8 4,-53 4,-53l-86 -166 54 -71 18 34z"/>
    <path class="fil1" d="M4142 694c-1,-18 6,-47 29,-74l2 2c-21,26 -29,54 -28,72l-3 0z"/>
    <path class="fil1" d="M4143 690c6,0 3,7 2,9 4,5 1,28 0,30 -3,1 -3,-4 -3,-4 -1,6 -3,0 -4,1 -2,4 -4,-2 -4,-2 -3,6 -3,-1 -3,-1 2,-20 8,-26 8,-26 -1,-5 0,-7 3,-7 0,0 0,0 1,0z"/>
    <path class="fil8" d="M4250 718c-19,12 -81,21 -81,21 25,-77 -6,-120 -6,-120 55,-1 111,-19 145,-38 -15,83 4,95 4,95 -33,22 -62,42 -62,42z"/>
    <path class="fil11" d="M4396 688c-12,-30 -42,-49 -73,-43 -10,-16 -26,-27 -44,-31 -34,-8 -81,6 -79,43 -14,24 -14,59 6,78 -7,33 24,65 64,64 14,23 41,38 67,34 7,0 16,-2 18,-2 -2,0 43,34 80,-18 39,-54 12,-119 -39,-125z"/>
    <path class="fil17" d="M4391 504c2,-5 4,-9 7,-13l3 -4c0,-1 1,-2 1,-2 1,-4 -5,-28 -5,-28l-21 18 1 10c-6,-3 -11,-25 -13,-19 -7,17 -2,23 0,43 1,7 -14,111 -18,132 -4,21 -34,79 -34,79l24 30c0,0 46,-84 49,-111 0,-3 1,-7 1,-12l5 -123z"/>
    <path class="fil8" d="M4354 664c-12,-4 -10,-25 -10,-25 9,-62 17,-119 17,-119 7,-4 34,4 34,4 -5,76 -6,119 -8,124 -2,5 -13,22 -33,16z"/>
    <path class="fil17" d="M4211 830l-32 -27c0,0 -26,43 -46,79 -21,-8 -74,-42 -77,-44 -2,-2 -8,-41 -13,-39 -4,2 4,21 -2,22 -5,2 -46,-26 -47,-22 -2,7 24,18 23,21 -1,3 -26,-14 -30,-10 -4,4 25,14 25,17 0,2 -28,-6 -28,0 1,4 26,7 24,10 -1,4 -21,4 -20,8 1,4 16,-3 26,1 9,5 18,3 31,14 14,11 79,75 99,69 18,-5 67,-99 67,-99z"/>
    <path class="fil10" d="M4214 1250c0,0 0,0 0,0 0,0 0,0 0,0z"/>
    <path class="fil8" d="M4325 784c2,-13 24,-31 62,-136 0,0 -25,-11 -43,-9 0,0 -62,114 -76,115 -14,1 -63,3 -71,9 -9,5 -68,117 -68,117 0,0 3,60 13,55 20,-9 63,-91 65,-94 2,6 33,105 33,127l0 1c29,23 70,17 92,-12l0 0c0,0 -5,-31 1,-59 11,-47 24,-60 -8,-114z"/>
    <path class="fil8" d="M4490 1268c0,0 -31,-139 -48,-199 -18,-61 -100,-247 -100,-247 -20,-32 -135,18 -135,19 8,109 0,180 -5,234 -5,62 -40,197 -39,204 100,-12 298,19 327,-11z"/>
    <path class="fil10" d="M4391 488c0,0 -3,7 -10,4 -8,-2 -12,-6 -12,-6 0,0 4,9 11,12 13,4 11,-10 11,-10z"/>
    <path class="fil18" d="M4376 388c3,45 18,107 42,163 3,11 -27,20 -30,9 -4,-41 -21,-113 -46,-163 -4,-14 31,-23 34,-9z"/>
    <path class="fil19" d="M4404 542c-4,-29 -26,-124 -35,-160 -11,-4 -30,4 -27,15 25,50 42,122 46,163 1,-11 8,-17 16,-18z"/>
    <path class="fil1" d="M4399 553c1,-9 16,-10 19,-2 -2,-10 -16,-48 -26,-84 -10,-36 -15,-73 -16,-80 -2,-6 -10,-8 -19,-7 1,2 42,173 42,173z"/>
    <path class="fil11" d="M4364 457c6,11 14,46 14,46 15,0 23,-7 23,-7 -7,-20 -12,-42 -13,-46 -9,-3 -19,-1 -24,7z"/>
    <path class="fil17" d="M4243 718c0,0 5,28 4,39 -1,12 35,75 39,74 3,-1 -5,-67 -10,-83 -3,-11 -2,-45 -2,-45l-31 15z"/>
    <path class="fil10" d="M4274 720c0,-9 0,-17 0,-17l-31 15c0,0 1,6 2,13 14,3 23,-2 29,-11z"/>
    <path class="fil17" d="M4232 640c0,0 -12,7 -16,21 -4,15 0,53 31,62 30,9 43,-21 37,-44 -6,-24 -20,-54 -52,-39z"/>
    <path class="fil17" d="M4288 670c-1,6 -4,11 -8,10 -3,0 -6,-5 -5,-12 1,-6 4,-11 8,-11 3,1 5,6 5,13z"/>
    <path class="fil17" d="M4225 694c3,5 3,12 0,14 -4,3 -10,0 -13,-5 -4,-6 -4,-12 0,-15 3,-2 9,0 13,6z"/>
    <path class="fil17" d="M4394 454c-6,-1 -26,18 -26,21 0,3 20,-9 21,-7 0,1 -23,8 -22,11 1,2 22,-3 23,-2 1,2 -17,2 -15,4 1,3 25,5 25,5 0,0 -3,-9 -3,-12 0,-1 0,-2 0,-4 0,-1 1,-3 1,-4 -1,-6 -1,-11 -4,-12z"/>
    <path class="fil17" d="M4375 462l-8 11 -3 -5c0,0 0,-1 0,-3 1,-1 10,-6 11,-3z"/>
    <path class="fil11" d="M4425 1563l90 0c4,0 5,-3 3,-4 -2,-4 -12,-6 -24,-12 -21,3 -66,-12 -70,-16 -2,9 -1,32 1,32z"/>
    <path class="fil17" d="M4364 477c0,-2 4,0 11,12 5,9 0,27 0,27l-12 -32 1 -7z"/>
    <path class="fil8" d="M4129 880c-27,-17 -67,-40 -70,-41 -3,-1 -17,23 -15,25 2,2 90,78 98,71 7,-6 -13,-55 -13,-55z"/>
    <path class="fil20" d="M4248 762c5,18 35,70 38,69 2,-1 -3,-54 -8,-77 -4,6 -16,12 -30,8z"/>
    <path class="fil1" d="M4247 745c-11,9 -15,22 -22,64 -5,30 -12,223 -40,266 44,29 89,16 89,16 -15,-157 -24,-332 -27,-346z"/>
    <path class="fil1" d="M4275 741c32,20 93,178 164,163 3,28 -37,81 -37,81 -85,-69 -124,-231 -124,-231 -2,-5 -3,-13 -3,-13z"/>
   </g>
  </g>
 </g>
</svg>
