<?xml version="1.0" encoding="UTF-8"?>
<!DOCTYPE svg PUBLIC "-//W3C//DTD SVG 1.1//EN" "http://www.w3.org/Graphics/SVG/1.1/DTD/svg11.dtd">
<!-- Creator: CorelDRAW X7 -->
<svg xmlns="http://www.w3.org/2000/svg" xml:space="preserve" width="530px" height="775px" version="1.1" style="shape-rendering:geometricPrecision; text-rendering:geometricPrecision; image-rendering:optimizeQuality; fill-rule:evenodd; clip-rule:evenodd"
viewBox="0 0 530 775"
 xmlns:xlink="http://www.w3.org/1999/xlink">
 <defs>
  <style type="text/css">
   <![CDATA[
    .fil13 {fill:none}
    .fil4 {fill:#FEFEFE}
    .fil2 {fill:#DCE9AC}
    .fil12 {fill:#CCDF7D}
    .fil8 {fill:#C2C5C5}
    .fil0 {fill:#CBDE71}
    .fil9 {fill:#B0CA90}
    .fil1 {fill:#A3CD46}
    .fil6 {fill:#93A0A4}
    .fil10 {fill:#7B7F81}
    .fil11 {fill:#86C44C}
    .fil14 {fill:#575A5B}
    .fil5 {fill:#516065}
    .fil3 {fill:#2C3C42}
    .fil7 {fill:#222124}
   ]]>
  </style>
 </defs>
 <g id="Capa_x0020_1">
  <metadata id="CorelCorpID_0Corel-Layer"/>
  <rect class="fil0" width="530" height="775"/>
  <g id="trjt-grafico.eps">
   <path class="fil1" d="M53 455c0,0 -20,84 35,158 55,74 152,102 229,128 77,25 149,-4 176,-69 28,-65 -27,-100 -39,-185 -12,-85 -3,-109 -59,-174 -56,-64 -172,-63 -250,4 -79,66 -92,138 -92,138z"/>
   <path class="fil2" d="M355 749c-5,-1 -10,-2 -16,-3l2 -11 14 14zm-19 -3c-7,-2 -13,-3 -19,-5 -13,-5 -26,-9 -39,-13 8,-7 17,-14 26,-26l33 30 -1 14zm100 -11l-12 -23 -10 -95 4 0c3,0 6,-2 6,-6l0 -8c0,-4 -3,-7 -6,-7l-6 0c2,-1 3,-3 4,-5 2,-4 3,-8 3,-14 0,-4 1,-7 1,-10 0,-1 0,-1 0,-2 0,-1 0,-1 0,-2 0,-1 0,-2 -1,-4 -1,-5 -4,-15 -7,-24 -1,-5 -3,-9 -4,-13 -1,-3 -1,-6 -1,-8 0,-2 0,-5 0,-8 0,-11 -1,-27 -5,-42 -4,-13 -15,-21 -26,-21 0,0 0,0 0,0 0,0 0,0 0,0 -7,0 -13,3 -19,9l0 0c0,0 0,0 0,1 -1,0 -1,2 -2,3 -1,1 -5,4 -9,8 -3,3 -14,20 -22,32 -2,0 -3,0 -4,0l-7 -18c0,0 0,-1 -1,-1l-110 0c-1,0 -1,0 -1,1 0,0 0,0 0,0l16 43c-1,0 -1,0 -2,0 -1,0 -2,0 -2,1 0,2 3,4 4,4 1,0 1,0 2,0l0 2c-3,1 -6,2 -6,3 -1,3 1,4 3,5l0 0c2,0 3,1 3,1 0,0 0,2 1,3l-13 0c-3,0 -5,2 -5,5 0,3 2,5 5,5l21 0c0,1 0,1 0,1l111 0c0,0 0,-1 0,-1 1,0 1,0 0,0l0 0 0 -1 0 1 0 0 -9 -27c3,-3 8,-7 13,-11 0,0 0,0 0,0 2,2 4,3 5,4 3,2 4,2 5,3 0,3 -2,24 -2,34 0,2 0,3 0,4 0,1 0,1 0,2l-2 2c0,0 -1,0 -2,1l-4 -10 -209 4 35 30 -17 85c-24,-15 -46,-34 -64,-58 -32,-43 -38,-89 -38,-121 0,-22 3,-37 3,-37 0,0 6,-31 31,-70l50 134 50 0 -65 -173 -5 0c9,-10 19,-20 31,-29 39,-34 89,-51 135,-51 45,0 87,16 115,47 56,65 47,89 59,174 9,68 47,104 47,150 0,11 -2,22 -8,35 -11,28 -32,49 -57,63zm-110 -336c-3,0 -5,1 -6,2 -3,3 -2,7 -2,7 0,0 -1,7 0,9 2,2 5,4 5,7 0,3 -2,7 -2,9 1,2 5,2 5,2 0,0 7,9 9,12 1,1 2,2 2,2 1,0 2,-1 4,-1 3,-1 7,-5 11,-8l0 0c0,0 0,0 0,-1l0 0c0,0 0,0 0,0l0 0c1,-1 2,-2 3,-3 1,-1 2,-2 2,-4l0 0c0,-6 -6,-17 -13,-25 -5,-6 -13,-8 -18,-8zm-63 324c-25,-9 -51,-19 -76,-31l28 -71 69 63c-1,3 -3,7 -5,10 -4,10 -9,19 -12,23 -1,2 -3,4 -4,6zm153 -26l-27 -54 0 -26 15 0 12 80zm-232 -7c-10,-5 -19,-11 -28,-16l19 -85 35 29 -26 72zm195 -67l-3 -6 3 0 0 6z"/>
   <path class="fil1" d="M489 519c0,0 0,-6 -8,-13 -8,-8 -13,-12 -13,-12 0,0 -3,12 4,20 7,8 17,15 17,15l0 -10z"/>
   <path class="fil1" d="M478 553c0,0 0,-5 -8,-13 -8,-8 -13,-12 -13,-12 0,0 -4,13 4,20 7,8 17,15 17,15l0 -10z"/>
   <path class="fil1" d="M488 528c0,0 1,-5 10,-12 8,-7 13,-11 13,-11 0,0 3,13 -5,20 -8,7 -19,13 -19,13l1 -10z"/>
   <path class="fil1" d="M475 569c0,0 1,-5 10,-11 9,-6 15,-10 15,-10 0,0 1,14 -7,20 -9,6 -20,11 -20,11l2 -10z"/>
   <path class="fil1" d="M477 613c0,0 0,-5 8,-13 8,-8 13,-12 13,-12 0,0 4,13 -3,20 -8,8 -18,15 -18,15l0 -10z"/>
   <path class="fil1" d="M477 624c0,0 1,-5 -5,-14 -7,-9 -11,-14 -11,-14 0,0 -6,12 0,21 6,9 15,17 15,17l1 -10z"/>
   <path class="fil1" d="M470 656c0,0 0,-5 7,-13 8,-8 13,-12 13,-12 0,0 4,13 -3,20 -7,8 -17,15 -17,15l0 -10z"/>
   <path class="fil1" d="M475 686c0,0 -2,-6 4,-15 5,-10 9,-15 9,-15 0,0 7,11 2,20 -5,10 -13,19 -13,19l-2 -9z"/>
   <path class="fil3" d="M489 517c0,6 -1,12 -2,18 -3,15 -10,25 -14,40 0,2 0,4 0,7 0,11 4,24 4,37 0,2 0,5 0,7 -2,16 -8,26 -8,36 0,2 0,3 0,5 2,12 13,45 13,45 0,0 0,0 1,0 0,0 0,0 0,0 0,0 -1,-2 -2,-6 -3,-9 -9,-30 -11,-39 0,-2 0,-3 0,-5 0,-10 5,-20 7,-36 1,-2 1,-5 1,-7 0,-13 -5,-26 -5,-37 0,-3 1,-5 1,-7 3,-14 11,-24 14,-40 1,-5 2,-12 2,-17 0,-1 0,-1 0,-1 -1,0 -1,0 -1,0z"/>
   <path class="fil3" d="M489 532l8 -6c0,0 0,0 0,-1 0,0 0,0 -1,0l-8 7c0,0 0,0 0,0 0,0 0,0 1,0z"/>
   <path class="fil3" d="M489 524l-3 -6c-1,0 -1,0 -1,0 0,0 0,0 0,1l3 6c1,0 1,0 1,0 0,0 0,0 0,-1z"/>
   <path class="fil3" d="M474 574c0,0 2,-1 5,-3 2,-2 6,-4 10,-7 0,0 0,0 0,0 0,-1 -1,-1 -1,-1 -7,6 -14,11 -14,11 0,0 0,0 0,0 0,1 0,1 0,0z"/>
   <path class="fil3" d="M478 563c0,0 -6,-11 -12,-19 -1,0 -1,0 -1,0 0,0 0,0 0,1 3,3 6,8 9,12 1,2 2,3 2,5 1,1 1,1 1,1 0,1 1,1 1,1 0,0 0,-1 0,-1z"/>
   <path class="fil3" d="M478 621c0,0 0,0 0,0 1,-2 7,-11 15,-19 0,-1 0,-1 0,-1 0,0 0,0 -1,0 -9,9 -15,20 -15,20 0,0 0,1 1,1 0,0 0,0 0,-1z"/>
   <path class="fil3" d="M477 629c0,0 -4,-8 -8,-14 -4,-6 -5,-7 -5,-7 0,0 0,0 0,0 0,0 0,0 0,0 0,0 0,0 0,0 0,1 1,2 5,7 2,3 3,6 5,9 0,2 1,3 1,4 1,1 1,1 1,1 0,0 0,0 0,0 1,0 1,0 1,0z"/>
   <path class="fil3" d="M470 667c0,0 0,-1 0,-1 1,-3 4,-8 6,-12 2,-3 4,-5 6,-7 0,-1 1,-2 2,-3 0,0 0,-1 0,-1 0,0 0,0 0,0 0,0 0,0 0,0 0,0 -5,5 -8,11 -4,5 -7,12 -7,12 0,1 0,1 1,1 0,0 0,0 0,0z"/>
   <path class="fil3" d="M478 695c0,0 0,0 0,0 0,-1 0,-1 0,-2 0,-2 0,-6 2,-10 3,-6 6,-13 7,-16 0,0 0,0 0,0 0,0 0,0 0,0 -2,3 -5,10 -8,16 -2,3 -2,8 -2,10 0,1 0,2 0,2 0,0 0,1 0,0 1,0 1,0 1,0z"/>
   <path class="fil1" d="M438 593c0,0 0,-4 4,-9 4,-6 6,-9 6,-9 0,0 4,7 0,13 -3,5 -9,11 -9,11l-1 -6z"/>
   <path class="fil1" d="M449 613c0,0 -1,-3 3,-9 4,-6 7,-9 7,-9 0,0 4,7 0,13 -3,6 -9,11 -9,11l-1 -6z"/>
   <path class="fil1" d="M440 599c0,0 -1,-4 -7,-7 -6,-4 -10,-5 -10,-5 0,0 0,8 5,11 6,4 13,7 13,7l-1 -6z"/>
   <path class="fil1" d="M453 623c0,0 -2,-4 -8,-6 -7,-3 -11,-5 -11,-5 0,0 1,9 7,12 6,3 14,4 14,4l-2 -5z"/>
   <path class="fil1" d="M456 651c0,0 -1,-4 -7,-8 -5,-4 -9,-6 -9,-6 0,0 -1,8 4,12 6,5 13,8 13,8l-1 -6z"/>
   <path class="fil1" d="M457 658c0,0 -1,-4 2,-10 3,-6 5,-10 5,-10 0,0 5,7 2,13 -2,6 -7,13 -7,13l-2 -6z"/>
   <path class="fil1" d="M467 685c0,0 0,-3 6,-7 5,-5 8,-7 8,-7 0,0 2,8 -3,13 -5,4 -12,8 -12,8l1 -7z"/>
   <path class="fil1" d="M465 677c0,0 0,-4 -6,-8 -6,-4 -9,-6 -9,-6 0,0 -1,9 4,13 5,4 12,7 12,7l-1 -6z"/>
   <path class="fil1" d="M465 696c0,0 1,-4 -4,-9 -4,-5 -7,-9 -7,-9 0,0 -4,8 1,14 4,5 10,10 10,10l0 -6z"/>
   <path class="fil3" d="M437 592c1,4 2,7 4,11 3,9 9,15 13,23 1,4 1,9 1,14 0,1 0,2 0,3 0,5 0,10 2,16 2,5 4,9 6,13 2,4 3,7 3,11l0 0c0,4 -1,12 -1,18 -1,3 -1,6 -2,8 0,3 0,4 0,4 0,0 0,0 0,0 0,0 1,0 1,0 0,0 3,-22 3,-30l0 0c0,-4 -2,-7 -4,-11 -1,-4 -4,-8 -5,-14 -2,-5 -2,-10 -2,-15 0,-1 0,-2 0,-3 0,-5 0,-10 -2,-14 -3,-9 -9,-14 -13,-24 -1,-3 -2,-7 -3,-10 0,0 0,0 0,0 -1,0 -1,0 -1,0z"/>
   <path class="fil3" d="M440 601l-6 -4c0,0 0,0 0,1 0,0 0,0 0,0l6 3c0,0 0,0 0,0 0,0 0,0 0,0z"/>
   <path class="fil3" d="M439 596l2 -4c0,0 0,0 0,0 -1,0 -1,0 -1,0l-1 4c0,0 0,0 0,1 0,0 0,0 0,-1z"/>
   <path class="fil3" d="M454 625c0,0 -5,-2 -10,-5 0,0 -1,0 -1,1 0,0 0,0 0,0 3,1 5,3 7,4 2,0 3,1 3,1 1,0 1,0 1,0 0,0 0,0 0,-1z"/>
   <path class="fil3" d="M450 619c0,0 1,0 1,-1 1,-2 3,-8 5,-12 0,0 0,0 0,0 0,0 0,0 0,0 -4,5 -6,13 -6,13 0,0 0,1 0,1 0,0 0,0 0,-1z"/>
   <path class="fil3" d="M457 655c0,0 -5,-6 -12,-10 0,-1 0,-1 0,0 0,0 0,0 0,0 3,2 6,5 8,7 1,1 2,2 2,3 1,0 1,0 1,1 0,0 0,0 0,0 0,0 1,0 1,0 0,0 0,0 0,-1z"/>
   <path class="fil3" d="M458 660c0,0 1,0 1,0 0,-2 1,-6 3,-9 1,-2 1,-4 1,-4 1,-1 1,-1 1,-1l0 0c0,0 0,0 0,0 -1,-1 -1,0 -1,0 0,0 0,0 -2,4 -2,5 -3,10 -3,10 0,1 0,1 0,1 0,0 0,0 0,-1z"/>
   <path class="fil3" d="M466 689c0,0 1,0 1,0 1,-2 4,-5 6,-6 2,-2 4,-4 4,-4 0,0 0,0 0,0 0,0 0,0 -1,0 0,0 0,0 0,0 0,1 -2,2 -4,3 -2,2 -6,7 -6,7 0,0 0,0 0,0 0,1 0,1 0,0z"/>
   <path class="fil3" d="M467 683c0,0 -3,-4 -6,-7 -2,-3 -6,-6 -6,-6 0,0 0,0 0,0 -1,0 -1,0 0,0 0,0 0,1 0,1 1,1 4,3 6,5 1,2 3,3 4,5 0,1 0,1 1,2 0,0 0,0 0,0 0,1 0,1 1,0 0,0 0,0 0,0z"/>
   <path class="fil3" d="M465 702c0,0 0,-4 -3,-8 -2,-3 -5,-7 -6,-9 0,0 0,0 -1,0 0,0 0,0 0,1 1,1 4,5 7,9 1,1 2,3 2,5 0,0 0,1 0,1 0,1 0,1 0,1l0 0c0,0 1,0 1,0 0,0 0,0 0,0z"/>
   <path class="fil3" d="M494 751l-42 0c-3,0 -4,-2 -4,-4l0 -38 50 0 0 38c0,2 -2,4 -4,4z"/>
   <path class="fil3" d="M498 716l-50 0c-3,0 -4,-2 -4,-4 0,-2 1,-4 4,-4l50 0c2,0 4,2 4,4 0,2 -2,4 -4,4z"/>
   <path class="fil3" d="M446 318c0,-24 -20,-45 -45,-45 -24,0 -44,21 -44,45 0,25 20,45 44,45 25,0 45,-20 45,-45z"/>
   <path class="fil4" d="M440 318c0,-21 -17,-39 -39,-39 -21,0 -38,18 -38,39 0,22 17,39 38,39 22,0 39,-17 39,-39z"/>
   <polygon class="fil3" points="377,327 403,319 403,283 400,283 400,317 376,324 "/>
   <polygon class="fil3" points="184,519 134,519 70,346 119,346 "/>
   <path class="fil5" d="M184 519l-50 0 -64 -173 49 0 65 173zm-54 -44c-4,0 -6,3 -5,6 1,3 5,5 9,5 4,0 7,-2 6,-5 -1,-3 -6,-6 -10,-6z"/>
   <path class="fil3" d="M106 388l-13 0c-1,0 -3,-1 -4,-3l-5 -13c0,-1 1,-3 2,-3l13 0c1,0 3,2 4,3l5 13c0,2 -1,3 -2,3z"/>
   <polygon class="fil3" points="122,355 73,355 70,346 119,346 "/>
   <path class="fil3" d="M89 356l2 4c0,0 0,1 1,0 0,0 0,0 0,0l-2 -4c0,-1 0,-1 0,-1 -1,1 -1,1 -1,1z"/>
   <path class="fil3" d="M91 356l2 4c0,0 0,1 0,0 1,0 1,0 1,0l-2 -4c0,-1 0,-1 0,-1 -1,1 -1,1 -1,1z"/>
   <path class="fil3" d="M93 356l1 4c1,0 1,1 1,0 1,0 1,0 1,0l-2 -4c0,-1 0,-1 -1,-1 0,1 0,1 0,1z"/>
   <path class="fil3" d="M95 356l1 4c0,0 1,1 1,0 1,0 1,0 1,0l-2 -4c0,-1 0,-1 -1,-1 0,1 0,1 0,1z"/>
   <path class="fil3" d="M97 356l1 4c0,0 1,1 1,0 0,0 1,0 1,0l-2 -4c0,-1 0,-1 -1,-1 0,1 0,1 0,1z"/>
   <path class="fil3" d="M99 356l1 4c0,0 1,1 1,0 0,0 1,0 0,0l-1 -4c0,-1 -1,-1 -1,-1 0,1 0,1 0,1z"/>
   <path class="fil3" d="M101 356l1 4c0,0 1,1 1,0 0,0 0,0 0,0l-1 -4c0,-1 -1,-1 -1,-1 0,1 0,1 0,1z"/>
   <path class="fil3" d="M103 356l1 4c0,0 0,1 1,0 0,0 0,0 0,0l-1 -4c0,-1 -1,-1 -1,-1 0,1 -1,1 0,1z"/>
   <path class="fil3" d="M104 356l2 4c0,0 0,1 1,0 0,0 0,0 0,0l-1 -4c0,-1 -1,-1 -1,-1 0,1 -1,1 -1,1z"/>
   <path class="fil3" d="M106 356l2 4c0,0 0,1 1,0 0,0 0,0 0,0l-1 -4c-1,-1 -1,-1 -1,-1 -1,1 -1,1 -1,1z"/>
   <path class="fil4" d="M102 380l-12 -8c0,0 -1,0 -1,0 0,0 0,1 0,1l5 12c1,0 1,0 1,0l0 0c1,0 1,0 1,0l1 -4 5 0c0,0 0,0 0,0 0,-1 0,-1 0,-1z"/>
   <polygon class="fil3" points="102,380 90,373 95,385 96,381 "/>
   <polygon class="fil4" points="124,380 112,373 117,385 119,381 "/>
   <polygon class="fil4" points="130,387 129,385 127,387 "/>
   <polygon class="fil4" points="159,465 158,462 156,464 "/>
   <polygon class="fil4" points="168,488 167,486 165,488 "/>
   <polygon class="fil4" points="177,513 176,510 174,512 "/>
   <polygon class="fil4" points="126,437 125,435 123,437 "/>
   <polygon class="fil4" points="136,465 135,462 134,464 "/>
   <polygon class="fil4" points="145,488 144,486 143,488 "/>
   <polygon class="fil4" points="154,513 153,510 152,512 "/>
   <polygon class="fil4" points="102,413 104,415 110,403 107,401 "/>
   <path class="fil4" d="M104 402c-3,-3 -3,-3 -2,-6 -2,2 -2,2 -5,1 3,2 3,2 2,5 2,-2 2,-2 5,0z"/>
   <path class="fil4" d="M114 403c-2,-2 -2,-2 -1,-4 -1,2 -1,2 -4,1 2,1 2,1 2,3 1,-1 1,-1 3,0z"/>
   <path class="fil4" d="M114 408c-2,-1 -2,-1 -1,-2 -1,1 -1,1 -3,0 2,1 2,1 1,3 1,-1 1,-1 3,-1z"/>
   <polygon class="fil4" points="144,461 145,462 151,450 149,449 "/>
   <polygon class="fil4" points="139,410 128,404 133,414 134,410 "/>
   <path class="fil4" d="M127 401c-3,0 -5,2 -4,5 1,2 4,4 8,4 3,0 5,-2 4,-4 0,-3 -4,-5 -8,-5zm4 10c-4,0 -8,-2 -9,-5 -1,-3 1,-5 5,-5 4,0 8,2 9,5 1,3 -1,5 -5,5z"/>
   <path class="fil4" d="M125 407c0,0 -1,0 0,1 0,1 0,1 1,1 1,0 1,0 1,-1 0,-1 -1,-1 -2,-1zm1 3c-1,0 -2,-1 -2,-2 0,-1 0,-2 1,-2 1,0 2,1 2,2 1,1 0,2 -1,2z"/>
   <path class="fil4" d="M126 412l0 -1c1,0 1,-1 1,-1 0,-1 0,-2 0,-2l0 0c0,0 1,1 1,2 0,1 -1,1 -2,2z"/>
   <polygon class="fil4" points="120,429 113,423 111,426 118,431 "/>
   <path class="fil4" d="M108 436l1 1 3 -5c0,0 0,0 0,-1 0,0 1,0 1,0 0,1 1,1 0,1 0,1 0,1 -1,1l-2 4 1 1 7 -2 0 -4 -7 -5 -4 1 1 8z"/>
   <path class="fil3" d="M101 420l43 0c0,0 0,-1 0,-1 0,0 0,-1 0,-1l-43 0c0,0 0,1 0,1 0,0 0,1 0,1z"/>
   <polygon class="fil4" points="138,423 137,426 144,431 145,429 "/>
   <path class="fil4" d="M133 428l1 8 1 1 3 -5c-1,0 -1,0 -1,-1 1,0 1,0 1,0 1,1 1,1 1,1 0,1 -1,1 -1,1l-3 4 1 1 7 -2 0 -4 -7 -5 -3 1z"/>
   <path class="fil4" d="M131 431c0,-1 0,-2 0,-2 0,-1 0,-3 -1,-3 -1,-2 -3,-2 -3,-2 0,-1 0,0 0,0 0,0 0,0 0,0 0,0 2,1 3,2 0,1 1,2 1,3 -1,0 -1,1 -1,1 0,3 0,4 4,7l0 0 1 0c0,0 0,0 -1,0 -3,-3 -3,-4 -3,-6z"/>
   <path class="fil4" d="M112 448l1 1c0,0 0,2 1,3l1 0c0,-1 -1,-2 -1,-2l5 0 5 11 -2 0 0 2 6 0 -1 -2 -2 0 -4 -11 5 0c0,0 1,1 1,2l1 0c0,-1 -1,-3 -1,-3l0 -1 -15 0z"/>
   <path class="fil6" d="M134 486c-4,0 -8,-2 -9,-5 -1,-3 1,-6 5,-6 4,0 9,3 10,6 1,3 -2,5 -6,5z"/>
   <path class="fil4" d="M140 481l-1 0c0,1 0,1 0,1 0,1 0,2 -1,3 -1,0 -2,1 -4,1 -2,0 -4,-1 -5,-2 -2,-1 -3,-2 -4,-3 0,-1 0,-1 0,-2 0,-1 0,-1 1,-2 1,-1 3,-1 4,-1 2,0 4,1 6,2 1,0 3,2 3,3l1 0 0 0c0,-2 -2,-4 -3,-5 -2,-1 -5,-1 -7,-1 -2,0 -3,0 -4,1 -2,1 -2,2 -2,3 0,1 0,2 0,2 1,2 2,3 4,4 2,1 4,2 6,2 2,0 4,0 5,-1 1,-1 2,-2 2,-4 0,0 0,-1 -1,-1l0 0z"/>
   <path class="fil4" d="M155 481l5 -9c1,0 1,0 2,0 0,0 1,1 1,1l-3 10 -5 -2z"/>
   <path class="fil4" d="M155 482c2,0 5,1 6,4 0,0 -1,1 -1,1 -2,1 -4,1 -6,1 1,0 1,-1 1,-2 -1,0 -1,-1 -1,-2 -1,-1 0,-2 1,-2z"/>
   <path class="fil4" d="M144 502c0,-2 -1,-2 -2,-3l-1 3c1,0 1,1 2,2 1,2 1,3 2,3l1 -2c0,-1 -1,-2 -2,-3z"/>
   <path class="fil4" d="M143 504c-1,-1 -2,-2 -2,-2l-2 2c1,1 2,2 2,3 1,1 1,2 2,3l1 -2c0,-1 -1,-2 -1,-4z"/>
   <path class="fil4" d="M145 502c0,1 1,2 1,2l2 -3 -4 -4 -1 2c0,0 1,1 2,3z"/>
   <path class="fil4" d="M139 510l0 -2 2 1 -2 1zm2 -3c-1,-1 -1,-2 -2,-2l-1 2 0 4c0,1 0,1 1,1l4 -2c-1,0 -2,-1 -2,-3z"/>
   <path class="fil4" d="M166 511l-6 -5 1 -1 6 4 -1 2zm-6 -7l-2 2 9 7 1 -3 1 0 4 -6 -10 -7 -4 6 1 1z"/>
   <polygon class="fil4" points="79,348 80,349 78,350 81,352 81,353 77,350 "/>
   <polygon class="fil4" points="76,348 77,349 75,350 78,352 78,353 74,350 "/>
   <polygon class="fil3" points="279,450 177,450 146,363 248,363 "/>
   <polygon class="fil1" points="272,445 181,445 153,368 244,368 "/>
   <polygon class="fil4" points="255,397 240,386 228,417 197,408 181,445 272,445 "/>
   <path class="fil4" d="M192 384c-2,-6 -9,-11 -15,-11 -5,0 -9,5 -6,11 2,6 8,11 14,11 6,0 9,-5 7,-11z"/>
   <polygon class="fil3" points="290,435 188,435 157,348 258,348 "/>
   <polygon class="fil1" points="282,430 192,430 164,353 255,353 "/>
   <polygon class="fil4" points="265,382 250,371 238,402 207,393 192,430 282,430 "/>
   <path class="fil4" d="M203 369c-3,-6 -9,-10 -15,-10 -6,0 -9,4 -7,10 2,6 9,11 15,11 6,0 9,-5 7,-11z"/>
   <path class="fil7" d="M290 334l3 6 -1 0c-1,-1 -1,-2 -2,-2 0,-1 -1,-1 -2,-2 0,0 -1,0 -2,0l-4 0 7 19c1,2 1,3 2,3 0,1 1,1 2,1l1 0 0 1 -10 0 -1 -1 1 0c1,0 2,0 2,-1 0,-1 0,-1 0,-3l-8 -19 -3 0c-1,0 -2,0 -2,0 -1,0 -1,1 -1,1 0,1 0,2 0,3l-1 0 -2 -6 21 0z"/>
   <polygon class="fil3" points="306,346 313,346 313,346 306,346 "/>
   <polygon class="fil3" points="313,367 313,366 274,366 260,327 298,327 313,367 313,367 313,366 313,367 313,367 299,327 259,327 274,367 314,367 313,367 "/>
   <polygon class="fil4" points="268,348 266,348 264,345 267,345 "/>
   <polygon class="fil3" points="268,348 268,347 266,347 265,345 267,345 268,348 268,348 268,347 268,348 269,347 268,344 264,344 265,348 269,348 269,347 "/>
   <polygon class="fil4" points="308,348 305,348 304,345 306,345 "/>
   <polygon class="fil3" points="308,348 308,347 305,347 304,345 306,345 307,348 308,348 308,347 308,348 308,347 307,344 303,344 304,348 308,348 308,347 "/>
   <polygon class="fil4" points="262,329 259,329 258,326 261,326 "/>
   <polygon class="fil3" points="262,329 262,329 259,329 258,326 260,326 261,329 262,329 262,329 262,329 262,329 261,326 257,326 258,329 262,329 262,329 "/>
   <polygon class="fil4" points="301,329 298,329 297,326 300,326 "/>
   <polygon class="fil3" points="301,329 301,329 298,329 297,326 299,326 300,329 301,329 301,329 301,329 301,329 300,326 296,326 298,329 301,329 301,329 "/>
   <polygon class="fil4" points="281,329 278,329 277,326 280,326 "/>
   <polygon class="fil3" points="281,329 281,329 278,329 278,326 280,326 281,329 281,329 281,329 281,329 281,329 280,326 277,326 278,329 282,329 281,329 "/>
   <polygon class="fil4" points="276,368 273,368 272,365 275,365 "/>
   <polygon class="fil3" points="276,368 276,368 273,368 272,365 275,365 276,368 276,368 276,368 276,368 276,368 275,365 271,365 273,368 276,368 276,368 "/>
   <polygon class="fil4" points="315,368 312,368 311,365 314,365 "/>
   <polygon class="fil3" points="315,368 315,368 312,368 311,365 314,365 315,368 315,368 315,368 315,368 315,368 314,365 311,365 312,368 315,368 315,368 "/>
   <polygon class="fil3" points="293,368 296,375 297,375 294,367 "/>
   <polygon class="fil4" points="295,368 293,368 291,365 294,365 "/>
   <polygon class="fil3" points="295,368 295,368 293,368 292,365 294,365 295,368 295,368 295,368 295,368 296,368 295,365 291,365 292,368 296,368 296,368 "/>
   <polygon class="fil3" points="299,377 296,377 295,374 298,374 "/>
   <polygon class="fil3" points="272,360 304,360 304,359 272,359 "/>
   <path class="fil3" d="M315 346c0,-1 -1,-1 -2,-1 -1,0 -2,0 -1,1 0,1 1,2 2,2 1,0 1,-1 1,-2z"/>
   <path class="fil8" d="M138 751l-2 0 16 -80c1,1 2,2 4,3l-18 77zm23 0l23 -61c1,0 2,1 3,2l-23 58 -3 1zm283 -1l-17 0c1,0 1,0 1,-1l0 0 0 0 -1 -10c3,-2 6,-3 9,-4l8 15zm-19 0l-36 0c0,0 0,0 0,-1l0 0 0 0 0 0c12,-2 23,-5 34,-9l1 9c0,1 1,1 1,1zm-39 0l-29 0 -2 -1c6,0 11,1 16,1 5,0 10,-1 15,-1l0 0 0 0c0,1 0,1 0,1z"/>
   <path class="fil9" d="M371 750c-5,0 -10,-1 -16,-1l-14 -14 17 -109c4,-2 10,-5 16,-9l2 0 3 6 7 126c-5,0 -10,1 -15,1zm18 -1l0 -106 27 54 7 43c-11,4 -22,7 -34,9zm38 -10l-3 -27 12 23c-3,1 -6,2 -9,4zm-90 -7l-33 -30c2,-3 3,-6 5,-10 6,-10 8,-18 11,-24 2,-6 4,-10 8,-14 6,-6 12,-15 19,-21l-10 99zm-150 -40c-1,-1 -2,-2 -3,-2l26 -72 -35 -29 -19 85c-2,-1 -3,-2 -4,-3l17 -85 -35 -30 209 -4 4 10c-3,0 -10,2 -18,5 -12,4 -26,9 -34,15 -11,8 -18,14 -21,19 -4,5 -5,9 -5,13 0,3 1,6 1,7 0,1 1,1 1,1 0,0 0,0 0,0 0,0 1,-1 1,-1l19 0c0,0 0,0 0,0 0,0 0,0 1,0 0,0 0,0 0,0 7,0 17,-4 26,-8 -1,1 -2,3 -3,4 -10,17 -17,35 -23,49 -2,5 -5,11 -8,18l-69 -63 -28 71z"/>
   <polygon class="fil3" points="138,751 136,751 132,553 141,553 "/>
   <path class="fil3" d="M138 751l0 -1 -2 0 -3 -196 8 0 -4 197 1 0 0 -1 0 1 0 0 4 -198c0,0 0,0 0,0 0,-1 -1,-1 -1,-1l-9 0c0,0 0,0 0,1 0,0 -1,0 -1,0l4 198c0,0 0,1 1,1l2 0c0,0 0,-1 0,-1l0 0z"/>
   <polygon class="fil3" points="334,751 332,751 329,553 338,553 "/>
   <path class="fil3" d="M334 751l0 -1 -1 0 -4 -196 8 0 -3 197 0 0 0 -1 0 1 1 0 3 -198c0,0 0,0 0,0 0,-1 0,-1 0,-1l-9 0c0,0 -1,0 -1,1 0,0 0,0 0,0l3 198c0,0 1,1 1,1l2 0c1,0 1,-1 1,-1l-1 0z"/>
   <polygon class="fil4" points="348,555 129,555 129,550 348,550 "/>
   <path class="fil3" d="M348 555l0 -1 -219 0 0 -3 219 0 0 4 0 0 0 -1 0 1 1 0 0 -5c0,0 0,0 0,-1 0,0 -1,0 -1,0l-219 0c-1,0 -1,0 -1,0 0,1 0,1 0,1l0 5c0,0 0,0 0,1 0,0 0,0 1,0l219 0c0,0 1,0 1,0 0,-1 0,-1 0,-1l-1 0z"/>
   <path class="fil4" d="M79 656l-4 9c0,0 5,5 7,5 2,0 3,-2 6,-3 3,-1 7,-9 7,-9 0,0 -3,-5 -5,-5 -3,-1 -7,-2 -9,-2 -2,-1 -2,5 -2,5z"/>
   <path class="fil3" d="M79 656l-1 0 -4 8c0,1 0,1 1,1 0,0 1,2 2,3 1,1 2,1 3,2 1,0 1,1 2,1 1,0 1,0 2,-1 1,0 1,-1 2,-1 1,-1 1,-1 2,-1 1,-1 2,-2 3,-2 2,-3 5,-8 5,-8 0,0 0,-1 0,-1 0,0 -1,-1 -2,-2 -1,-1 -1,-1 -2,-2 -1,0 -1,-1 -2,-1 -3,0 -7,-2 -9,-2l0 0c-1,0 -2,0 -2,1 0,0 0,1 -1,2 0,1 0,1 0,2 0,1 0,1 0,1l1 0 -1 0 1 0 1 0c0,0 0,0 0,0 0,0 0,-1 0,-1 0,-1 0,-2 0,-3 0,0 0,0 0,-1 0,0 0,0 1,0l0 0c2,1 6,2 9,2 0,0 1,1 1,1 1,1 2,2 2,3 1,0 1,0 1,1 0,0 0,0 0,0l0 0 1 0 -1 -1c0,0 0,0 0,1 0,0 -1,3 -3,4 0,1 -1,2 -2,3 0,1 -1,1 -1,1 -2,1 -3,2 -4,2 0,1 0,1 -1,1 0,0 0,0 -1,0 0,0 -1,0 -2,0 -1,-1 -2,-2 -3,-3 0,-1 -1,-1 -1,-1 0,-1 -1,-1 -1,-1l0 1 1 0 4 -8 0 -1 -1 0z"/>
   <path class="fil3" d="M78 657l3 4 0 4c0,0 0,0 0,0 0,0 1,0 1,1 1,0 1,0 2,0 0,0 1,0 1,0 0,0 1,-1 1,-1 0,0 0,-1 1,-1 1,-1 2,-2 2,-3 1,-1 2,-2 2,-2 0,0 0,0 0,0l-2 -4c0,-1 -1,-1 -1,-1 0,1 0,1 0,1l1 4 1 0 0 0c0,0 -1,1 -3,2 0,1 -1,1 -1,2 -1,0 -1,1 -1,1 0,0 0,1 -1,1 0,0 0,0 0,0 0,0 -1,0 -1,-1 -1,0 -1,0 -1,0l0 0 0 0 0 1 0 0 0 -4 0 -1 -2 -4c-1,0 -1,0 -1,0 -1,0 -1,0 -1,1z"/>
   <path class="fil3" d="M82 664l-5 -1c0,0 -1,0 -1,1 0,0 0,0 1,0l5 1c0,0 0,0 0,0 0,-1 0,-1 0,-1z"/>
   <path class="fil4" d="M155 736l-8 3c0,0 -1,7 0,9 2,1 4,0 6,2 3,1 12,-1 12,-1 0,0 2,-5 0,-7 -1,-3 -3,-6 -4,-8 -1,-2 -6,2 -6,2z"/>
   <path class="fil3" d="M155 736l0 0 -9 2c0,0 0,0 0,1 0,0 0,2 0,4 0,1 0,2 0,3 0,1 0,1 1,2 0,0 1,1 1,1 1,0 2,0 3,1 0,0 1,0 2,0 1,1 2,1 3,1 4,0 9,-1 9,-1 0,0 1,-1 1,-1 0,0 0,-2 0,-5 0,-1 0,-2 0,-3 -1,-1 -2,-2 -2,-4 -1,-1 -2,-3 -2,-4 -1,0 -1,0 -1,0 0,0 -1,-1 -1,-1 -1,1 -1,1 -2,1 -1,1 -3,3 -3,3l0 0 0 0 0 0 1 1 0 -1c0,0 1,0 2,-1 0,0 1,-1 1,-1 1,0 1,0 1,0l0 0 0 0c1,1 2,2 2,4 1,1 2,3 3,4 0,1 0,2 0,2 0,2 0,3 0,3 0,1 0,1 0,1 -1,1 -1,1 -1,1l0 0 1 0 0 -1c0,0 0,0 -1,1 -2,0 -5,1 -8,1 -1,0 -2,-1 -2,-1 -2,-1 -3,-1 -4,-1 0,0 -1,0 -1,0 -1,0 -1,-1 -1,-1 -1,0 -1,-1 -1,-2 0,0 0,-1 0,-2 0,-1 0,-2 0,-3 0,-1 0,-1 0,-1l0 0 0 0 9 -2 0 0 -1 -1z"/>
   <path class="fil3" d="M155 736l-2 5 -3 2c0,0 0,1 0,1 0,0 0,1 1,1 0,1 0,1 1,1 0,1 1,1 1,1l0 0c1,0 2,0 3,0 1,0 2,0 3,0 1,0 2,0 2,0 0,0 0,0 0,0l2 -4c0,-1 0,-1 0,-1 0,0 -1,0 -1,0l-2 4 1 0 0 0c0,0 -1,0 -2,0 -1,0 -2,0 -3,0 -1,0 -2,0 -3,0l0 0c0,0 0,0 0,-1 -1,0 -1,0 -1,-1 0,0 0,0 0,0l0 0 0 0 -1 0 0 0 3 -2 1 -1 1 -5c0,0 0,0 0,0 -1,-1 -1,0 -1,0z"/>
   <path class="fil3" d="M151 743l-2 -4c0,0 -1,0 -1,0 0,0 0,0 0,1l2 4c1,0 1,0 1,0 1,0 1,0 0,-1z"/>
   <path class="fil4" d="M65 655c0,0 -8,4 -6,7 1,3 2,5 3,5 1,1 5,3 7,2 1,-1 4,-3 5,-7 0,-3 1,-4 0,-6 -1,-1 -9,-1 -9,-1z"/>
   <path class="fil3" d="M65 655l-1 -1c0,0 -1,1 -3,2 -1,1 -1,2 -2,3 -1,1 -1,1 -1,2 0,1 0,1 0,1l0 0c1,2 1,3 2,4 0,1 1,1 2,2l0 0c0,0 1,1 2,1 1,0 3,1 4,1 0,0 1,0 1,-1l0 0c1,0 2,-1 3,-2 1,-1 2,-3 2,-5 0,-1 1,-2 1,-2 0,-1 0,-2 0,-2 0,-1 0,-1 0,-2l0 0c-1,0 -1,-1 -1,-1 -1,0 -2,0 -3,-1 -3,0 -6,0 -6,0 0,0 0,0 -1,0l1 1 0 0c0,0 0,0 1,0 1,0 3,0 4,1 1,0 2,0 3,0 0,0 0,1 1,1l0 0c0,0 0,0 0,1 0,0 0,0 0,1 -1,1 -1,2 -1,3 0,2 -1,3 -2,4 -1,1 -2,2 -3,2l0 0c0,0 0,0 0,0 -1,0 -2,0 -3,0 -1,0 -2,-1 -2,-1l0 0c-1,-1 -2,-1 -2,-2 -1,-1 -1,-2 -2,-3l0 0c0,0 0,0 0,-1 0,0 0,-1 1,-1 1,-2 2,-3 3,-4 1,0 1,0 2,-1 0,0 0,0 0,0l0 0 0 0 0 0 0 0z"/>
   <path class="fil3" d="M58 663l6 3c0,0 0,0 0,0l4 0c1,0 1,0 1,-1l2 -4 0 -1c0,0 0,-1 -1,-1 0,-1 0,-1 -1,-2 0,0 -1,0 -2,0 -2,0 -4,1 -4,1 0,1 0,1 0,1l1 3c0,0 0,0 1,0 0,0 0,0 0,-1l-1 -2 -1 0 1 0 0 0c0,0 1,-1 3,-1 1,0 1,0 2,1 0,0 0,0 0,1 0,0 0,0 0,0l0 0 0 0 0 0 1 0 0 0 -2 5 -4 0 -5 -3c0,-1 -1,-1 -1,0 0,0 0,0 0,1z"/>
   <path class="fil4" d="M98 648c0,0 -7,7 -6,11 1,4 9,8 9,8l10 -6 -3 -8 -6 -3 -4 -2z"/>
   <path class="fil3" d="M98 648l-1 0c0,0 -1,1 -3,3 -1,2 -3,5 -3,7 0,0 0,1 0,1l0 0c0,1 1,3 2,4 3,3 8,5 8,5 0,0 0,0 1,0l10 -6c0,0 0,-1 0,-1l-3 -8c0,0 0,0 0,0l-7 -4 0 0 -4 -1c0,0 -1,0 -1,0l1 0 -1 1 4 1 7 4 3 7 -10 5 0 1 0 -1c0,0 0,0 0,0 -1,0 -3,-1 -5,-2 -1,-1 -1,-2 -2,-3 -1,-1 -1,-1 -1,-2l0 0c-1,0 -1,-1 -1,-1 0,-2 2,-4 3,-6 1,-1 2,-2 2,-2 0,-1 1,-1 1,-1 0,0 0,0 0,0l0 -1 -1 1 1 -1z"/>
   <path class="fil3" d="M92 660l7 2c0,0 0,0 0,0l8 -2c0,0 0,-1 1,-1 0,0 0,0 0,0l-4 -7c0,-1 0,-1 0,-1 -1,0 -1,1 -1,1l3 7 -7 2 -7 -3c0,0 -1,0 -1,1 0,0 0,0 1,1z"/>
   <path class="fil3" d="M97 648l0 10c0,0 0,0 0,0l5 2c1,0 1,0 1,0 0,-1 0,-1 0,-1l-5 -2 0 -9c0,0 0,0 0,0 -1,0 -1,0 -1,0z"/>
   <path class="fil4" d="M118 732c0,0 -7,6 -6,10 1,5 9,8 9,8l10 -5 -3 -8 -6 -4 -4 -1z"/>
   <path class="fil3" d="M118 732l-1 -1c0,0 -1,2 -3,4 -1,2 -3,4 -3,7 0,0 0,0 0,1 0,1 1,2 2,3 3,3 8,5 8,5 0,0 0,0 0,0l11 -6c0,0 0,0 0,-1l-3 -8c0,0 0,0 0,0l-7 -4 0 0 -4 -1c0,0 -1,0 -1,0l1 1 -1 0 4 2 7 3 3 7 -10 6 0 0 0 0c0,0 0,0 0,0 -1,-1 -3,-2 -5,-3 -1,-1 -1,-1 -2,-2 -1,-1 -1,-2 -2,-3 0,0 0,0 0,0 0,-2 2,-5 3,-7 1,-1 2,-1 2,-2 0,0 1,0 1,-1 0,0 0,0 0,0l0 0 -1 0 1 0z"/>
   <path class="fil3" d="M112 743l7 3c0,0 0,0 0,0l8 -3c0,0 0,0 1,0 0,-1 0,-1 0,-1l-4 -7c0,0 0,0 0,0 -1,0 -1,0 -1,1l3 6 -7 2 -7 -2c0,0 -1,0 -1,0 0,0 0,1 1,1z"/>
   <path class="fil3" d="M117 732l0 9c-1,0 0,1 0,1l5 1c1,1 1,0 1,0 0,0 0,-1 0,-1l-5 -1 0 -9c0,-1 0,-1 0,-1 -1,0 -1,0 -1,1z"/>
   <path class="fil4" d="M73 642c0,0 -6,6 -6,10 1,5 10,8 10,8l10 -5 -3 -8 -7 -4 -4 -1z"/>
   <path class="fil3" d="M73 642l0 -1c0,0 -2,2 -3,4 -2,1 -3,4 -3,6 0,1 0,1 0,1 0,2 1,3 2,4 3,3 7,5 8,5 0,0 0,0 0,0l10 -6c1,0 1,0 1,-1l-3 -8c-1,0 -1,0 -1,0l-6 -4 -1 0 -4 -1c0,0 0,0 0,0l0 1 0 0 4 2 6 3 3 7 -10 6 1 0 0 0c0,0 0,0 0,0 -1,-1 -3,-2 -5,-3 -1,-1 -2,-2 -3,-2 0,-1 -1,-2 -1,-3 0,0 0,0 0,-1 0,-1 1,-4 3,-6 1,-1 1,-1 2,-2 0,0 0,0 0,-1 1,0 1,0 1,0l-1 0 0 0 0 0z"/>
   <path class="fil3" d="M67 653l7 3c0,0 1,0 1,0l8 -3c0,0 0,0 0,0 0,-1 0,-1 0,-1l-3 -7c0,0 0,-1 -1,0 0,0 0,0 0,0l3 7 -7 2 -7 -2c-1,0 -1,0 -1,0 0,0 0,1 0,1z"/>
   <path class="fil3" d="M73 642l-1 9c0,0 0,1 1,1l5 1c0,0 1,0 1,0 0,0 0,-1 -1,-1l-5 -1 1 -9c0,-1 0,-1 -1,-1 0,0 0,0 0,1z"/>
   <polygon class="fil3" points="110,751 58,751 50,664 118,664 "/>
   <path class="fil3" d="M110 751l0 -1 -52 0 -7 -86 67 0 -8 87 0 0 0 -1 0 1 1 0 8 -87c0,0 0,-1 0,-1 0,0 0,0 -1,0l-68 0c0,0 0,0 -1,0 0,0 0,1 0,1l8 87c0,1 0,1 1,1l52 0c1,0 1,0 1,-1l-1 0z"/>
   <path class="fil4" d="M75 737c0,0 -7,5 -6,7 2,3 2,5 4,5 1,1 5,3 6,2 2,-1 5,-3 5,-7 1,-3 2,-4 1,-6 -2,-1 -10,-1 -10,-1z"/>
   <path class="fil3" d="M75 737l0 -1c0,0 -2,1 -3,3 -1,0 -2,1 -2,2 -1,1 -2,2 -2,2 0,1 0,1 1,1 0,2 1,3 1,4 1,1 2,2 2,2l0 0c1,0 2,1 3,1 1,1 2,1 3,1 1,0 1,0 2,-1 0,0 2,-1 3,-2 1,-1 2,-3 2,-5 0,-1 0,-2 1,-2 0,-1 0,-2 0,-2 0,-1 0,-1 -1,-2 0,0 0,-1 -1,-1 0,0 -1,0 -2,-1 -3,0 -7,0 -7,0 0,0 0,0 0,0l0 1 0 0c0,0 1,0 2,0 1,0 3,0 4,1 1,0 2,0 2,0 1,0 1,1 1,1 1,0 1,1 1,1 0,0 0,1 -1,1 0,1 0,2 0,3 -1,2 -1,3 -2,4 -1,1 -2,2 -3,2 0,0 0,0 -1,0 -1,0 -2,0 -3,0 -1,0 -1,-1 -2,-1l0 0c0,0 -1,-1 -1,-2 -1,-1 -2,-2 -2,-3 0,0 0,0 0,-1 0,0 0,-1 1,-1 0,-1 2,-3 3,-3 0,-1 1,-1 1,-1 0,-1 1,-1 1,-1l0 0 -1 0 0 0 0 0z"/>
   <path class="fil3" d="M69 745l5 3c0,0 0,0 1,0l4 0c0,0 1,0 1,-1l1 -4 0 -1c0,0 0,0 0,-1 0,-1 0,-1 -1,-1 0,-1 -1,-1 -2,-1 -3,0 -4,2 -4,2 -1,0 -1,0 -1,0l1 3c1,0 1,0 1,0 1,0 1,0 1,0l-1 -3 -1 0 1 1 0 0c0,-1 1,-2 3,-2 1,0 1,1 1,1 1,0 1,0 1,1 0,0 0,0 0,0l0 0 0 0 0 0 1 0 -1 0 -1 5 -4 0 -5 -3c-1,-1 -1,-1 -1,0 -1,0 0,1 0,1z"/>
   <path class="fil10" d="M215 490c0,1 -1,2 -3,2 -1,0 -3,-1 -3,-2 0,-2 2,-3 3,-3 2,0 3,1 3,3z"/>
   <path class="fil3" d="M215 490l-1 0c0,0 0,0 0,1 -1,0 -1,0 -2,0 0,0 -1,0 -1,0 -1,-1 -1,-1 -1,-1 0,-1 0,-1 1,-2 0,0 1,0 1,0 1,0 1,0 2,0 0,1 0,1 0,2l1 0 1 0c0,-1 -1,-2 -1,-3 -1,0 -2,-1 -3,-1 -1,0 -2,1 -2,1 -1,1 -1,2 -1,3 0,0 0,1 1,2 0,0 1,1 2,1 1,0 2,-1 3,-1 0,-1 1,-2 1,-2l-1 0z"/>
   <path class="fil10" d="M218 497c0,2 -1,3 -3,3 -2,0 -3,-1 -3,-3 0,-1 1,-2 3,-2 2,0 3,1 3,2z"/>
   <path class="fil3" d="M218 497l-1 0c0,1 0,1 0,1 -1,1 -1,1 -2,1 -1,0 -1,0 -2,-1 0,0 0,0 0,-1 0,0 0,-1 0,-1 1,0 1,-1 2,-1 1,0 1,1 2,1 0,0 0,1 0,1l1 0 1 0c0,-1 -1,-2 -2,-2 0,-1 -1,-1 -2,-1 -1,0 -2,0 -3,1 0,0 -1,1 -1,2 0,1 1,2 1,2 1,1 2,1 3,1 1,0 2,0 2,-1 1,0 2,-1 2,-2l-1 0z"/>
   <path class="fil10" d="M221 505c0,1 -2,2 -3,2 -2,0 -3,-1 -3,-2 0,-2 1,-3 3,-3 1,0 3,1 3,3z"/>
   <path class="fil3" d="M221 505l-1 0c0,0 0,1 -1,1 0,0 -1,1 -1,1 -1,0 -1,-1 -2,-1 0,0 0,-1 0,-1 0,-1 0,-1 0,-1 1,-1 1,-1 2,-1 0,0 1,0 1,1 1,0 1,0 1,1l1 0 0 0c0,-1 0,-2 -1,-2 0,-1 -1,-1 -2,-1 -1,0 -2,0 -3,1 0,0 -1,1 -1,2 0,1 1,1 1,2 1,1 2,1 3,1 1,0 2,0 2,-1 1,-1 1,-1 1,-2l0 0z"/>
   <path class="fil10" d="M224 512c0,2 -2,3 -3,3 -2,0 -3,-1 -3,-3 0,-1 1,-2 3,-2 1,0 3,1 3,2z"/>
   <path class="fil3" d="M224 512l-1 0c0,1 0,1 -1,2 0,0 -1,0 -1,0 -1,0 -2,0 -2,0 0,-1 -1,-1 -1,-2 0,0 1,-1 1,-1 0,0 1,0 2,0 0,0 1,0 1,0 1,0 1,1 1,1l1 0 0 0c0,-1 0,-1 -1,-2 -1,0 -1,-1 -2,-1 -1,0 -2,1 -3,1 -1,1 -1,1 -1,2 0,1 0,2 1,3 1,0 2,1 3,1 1,0 1,-1 2,-1 1,-1 1,-2 1,-3l0 0z"/>
   <polygon class="fil3" points="184,549 164,549 161,516 187,516 "/>
   <path class="fil3" d="M184 549l0 0 -19 0 -3 -32 24 0 -3 32 1 0 0 0 0 0 1 1 3 -34c0,0 0,0 -1,0 0,0 0,0 0,0l-26 0c0,0 0,0 -1,0 0,0 0,0 0,0l3 34c0,0 1,0 1,0l20 0c0,0 1,0 1,0l-1 -1z"/>
   <polygon class="fil1" points="186,527 163,539 164,549 175,549 185,538 "/>
   <path class="fil3" d="M186 527l0 0 -23 11c-1,0 -1,1 -1,1l1 11c0,0 1,0 1,0l11 0c0,0 0,0 0,0l11 -12c0,0 0,0 0,0l1 -11c0,0 0,0 -1,0 0,0 0,-1 0,0l0 0 -1 0 -1 10 -10 12 -9 0 -1 -10 22 -11 0 -1 -1 0 1 0z"/>
   <polygon class="fil1" points="189,520 159,520 159,512 189,512 "/>
   <path class="fil3" d="M189 520l0 -1 -30 0 0 -6 30 0 0 7 0 0 0 -1 0 1 1 0 0 -8c0,0 0,0 0,0 0,0 -1,0 -1,0l-30 0c-1,0 -1,0 -1,0 0,0 0,0 0,0l0 8c0,0 0,0 0,0 0,0 0,0 1,0l30 0c0,0 1,0 1,0 0,0 0,0 0,0l-1 0z"/>
   <path class="fil3" d="M243 550l-36 0c-2,0 -4,-2 -4,-5 0,-2 2,-4 4,-4l36 0c3,0 5,2 5,4 0,3 -2,5 -5,5z"/>
   <path class="fil3" d="M243 550l0 -1 -36 0c-2,0 -4,-2 -4,-4 0,-2 2,-4 4,-4l36 0c2,0 4,2 4,4 0,2 -2,4 -4,4l0 1 0 0c3,0 5,-2 5,-5 0,-3 -2,-5 -5,-5l-36 0c-3,0 -5,2 -5,5 0,3 2,5 5,5l36 0 0 0z"/>
   <polygon class="fil3" points="339,550 228,550 202,478 312,478 "/>
   <path class="fil3" d="M339 550l0 -1 -110 0 -26 -70 109 0 26 71 1 0 0 -1 0 1 0 0 -26 -72c0,0 0,-1 -1,-1l-110 0c-1,0 -1,0 -1,1 0,0 0,0 0,0l26 72c1,0 1,1 1,1l111 0c0,0 0,-1 0,-1 1,0 1,0 0,0l0 0z"/>
   <polygon class="fil10" points="332,542 237,542 215,481 309,481 "/>
   <path class="fil3" d="M332 542l0 0 -94 0 -22 -60 93 0 22 61 1 -1 0 0 0 0 0 0 -22 -61c0,0 0,-1 -1,-1l-94 0c-1,0 -1,0 -1,1 0,0 0,0 0,0l23 62c0,0 0,0 0,0l95 0c0,0 0,0 0,0 0,0 1,-1 0,-1l0 0z"/>
   <path class="fil3" d="M350 576c0,0 -4,7 -8,10 -4,4 -16,15 -26,32 -10,17 -17,34 -24,49 -6,15 -18,42 -24,50 -6,9 -10,13 -10,13 0,0 -10,0 -21,-1 -12,-1 -17,-3 -17,0 0,3 8,12 14,13 5,2 13,4 14,6 2,1 5,3 7,2 3,-1 12,-13 22,-22 10,-8 21,-17 32,-36 10,-20 11,-31 18,-38 8,-8 15,-19 25,-25 9,-7 37,-18 46,-30 9,-11 5,-26 -4,-31 -9,-5 -37,-7 -44,8z"/>
   <path class="fil3" d="M350 576l0 -1c0,0 0,1 -1,1 -1,3 -5,7 -8,10 -4,3 -16,14 -26,31 -10,17 -17,35 -23,49 -3,8 -8,18 -13,28 -4,10 -9,19 -12,23 -3,4 -5,7 -7,10 -1,1 -1,1 -2,2 0,1 -1,1 -1,1l1 0 0 0c0,0 -1,0 -3,0 -3,0 -10,0 -18,-1 -4,-1 -7,-1 -9,-1 -3,-1 -4,-1 -6,-1 -1,0 -1,0 -2,1 0,0 0,0 -1,0 0,1 0,1 0,1l0 0c0,1 0,2 1,2 1,2 3,5 5,7 3,2 6,4 8,5 3,1 7,1 9,2 2,1 3,1 4,2 1,0 2,1 2,1 1,1 2,1 2,2 1,1 2,1 4,1 0,0 1,0 2,0 0,-1 1,-1 1,-1 2,-2 5,-6 8,-9 4,-4 8,-9 12,-12 10,-9 22,-17 32,-37 6,-10 8,-18 11,-24 2,-6 4,-10 8,-14 7,-7 15,-19 24,-25 5,-3 14,-7 24,-12 9,-5 18,-11 23,-17 3,-5 5,-10 5,-14 0,-8 -4,-15 -10,-18 -2,-1 -4,-2 -8,-3 -3,-1 -7,-1 -10,-1 -6,0 -11,1 -16,2 -4,2 -8,5 -10,9l0 1 0 -1 0 1 1 0c2,-4 5,-7 10,-8 4,-2 9,-3 15,-3 3,0 7,1 10,1 3,1 6,2 8,3 5,3 9,9 9,17 0,4 -2,9 -5,13 -4,6 -14,12 -23,17 -9,5 -19,9 -24,12 -9,6 -17,18 -24,25 -4,4 -6,9 -8,15 -3,6 -6,14 -11,23 -10,20 -22,28 -32,37 -5,4 -9,9 -13,13 -2,2 -4,4 -5,6 -1,1 -1,1 -2,2 0,0 -1,0 -1,0 0,1 -1,1 -1,1 -1,0 -2,-1 -3,-1 -1,-1 -1,-1 -2,-2 -1,0 -1,-1 -3,-1 -3,-2 -8,-3 -12,-4 -3,-1 -6,-3 -9,-6 -1,-1 -2,-3 -3,-4 -1,0 -1,-1 -1,-1 0,-1 0,-1 0,-2l0 0c0,0 0,0 0,0 0,0 0,0 0,0 0,0 1,-1 1,-1 1,0 3,1 6,1 2,0 5,1 8,1 9,1 16,1 19,1 2,0 3,0 3,0 0,0 0,0 0,0 1,0 4,-5 11,-13 3,-4 7,-13 12,-23 4,-10 9,-21 12,-28 7,-15 14,-32 23,-49 10,-17 22,-28 26,-31 2,-2 4,-5 6,-7 2,-2 3,-4 3,-4l0 0 -1 0z"/>
   <path class="fil4" d="M275 705c-3,5 -5,10 -7,12 -6,9 -10,13 -10,13 0,0 -10,0 -21,-1 -12,-1 -17,-3 -17,0 0,3 8,12 14,13 5,2 13,4 14,6 2,1 5,3 7,2 3,-1 12,-13 22,-22 4,-4 9,-8 14,-13 -8,-2 -13,-6 -16,-10z"/>
   <path class="fil3" d="M275 705l-1 0c-2,5 -5,9 -7,12 -3,4 -5,7 -7,10 -1,1 -1,1 -2,2 0,1 -1,1 -1,1l1 0 0 0c0,0 -1,0 -3,0 -3,0 -10,0 -18,-1 -4,-1 -7,-1 -9,-1 -3,-1 -4,-1 -6,-1 -1,0 -1,0 -2,1 0,0 0,0 -1,0 0,1 0,1 0,1l0 0c0,1 0,2 1,2 1,2 3,5 5,7 3,2 6,4 8,5 3,1 7,1 9,2 2,1 3,1 4,2 1,0 2,1 2,1 1,1 2,1 2,2 1,1 2,1 4,1 0,0 1,0 2,0 0,-1 1,-1 1,-1 2,-2 5,-6 8,-9 4,-4 8,-9 12,-12 5,-4 10,-8 15,-13 0,0 0,-1 0,-1 0,0 0,0 0,0 -8,-2 -14,-7 -17,-10 0,-1 0,-1 0,-1 0,0 -1,1 -1,1l1 0 -1 0c4,4 9,9 17,11l0 -1 0 0c-5,5 -10,9 -15,13 -5,4 -9,9 -13,13 -2,2 -4,4 -5,6 -1,1 -1,1 -2,2 0,0 -1,0 -1,0 0,1 -1,1 -1,1 -1,0 -2,-1 -3,-1 -1,-1 -1,-1 -2,-2 -1,0 -1,-1 -3,-1 -3,-2 -8,-3 -12,-4 -3,-1 -6,-3 -9,-6 -1,-1 -2,-3 -3,-4 -1,0 -1,-1 -1,-1 0,-1 0,-1 0,-2l0 0c0,0 0,0 0,0 0,0 0,0 0,0 0,0 1,-1 1,-1 1,0 3,1 6,1 2,0 5,1 8,1 9,1 16,1 19,1 2,0 3,0 3,0 0,0 0,0 0,0 1,0 4,-5 11,-13 1,-3 4,-7 7,-13l-1 0 -1 0 1 0z"/>
   <path class="fil1" d="M255 750c1,0 3,-2 5,-4 -8,-1 -12,-5 -16,-6 -5,-2 -9,-5 -9,-5l4 -5c-1,0 -2,0 -2,-1 -12,-1 -17,-3 -17,0 0,3 8,12 14,13 5,2 13,4 14,6 2,1 5,3 7,2z"/>
   <path class="fil3" d="M255 750l1 1c0,-1 1,-1 2,-2 0,0 1,-1 2,-2 0,-1 0,-1 0,-1 0,0 0,0 0,0 -4,-1 -7,-3 -10,-4 -2,-1 -4,-2 -6,-3 -2,-1 -5,-2 -6,-3 -1,0 -2,0 -2,-1 -1,0 -1,0 -1,0 0,0 0,0 0,0l0 0 0 1 4 -6c0,0 0,0 0,-1 0,0 0,0 0,0 -1,0 -2,0 -2,0l0 0c-4,-1 -7,-1 -9,-1 -3,-1 -4,-1 -6,-1 -1,0 -1,0 -2,1 0,0 0,0 -1,0 0,1 0,1 0,1l0 0c0,1 0,2 1,2 1,2 3,5 5,7 3,2 6,4 8,5 3,1 7,1 9,2 2,1 3,1 4,2 1,0 2,1 2,1 1,1 2,1 2,2 1,1 2,1 4,1 0,0 1,0 2,0l-1 -1 0 -1c0,1 -1,1 -1,1 -1,0 -2,-1 -3,-1 -1,-1 -1,-1 -2,-2 -1,0 -1,-1 -3,-1 -3,-2 -8,-3 -12,-4 -3,-1 -6,-3 -9,-6 -1,-1 -2,-3 -3,-4 -1,0 -1,-1 -1,-1 0,-1 0,-1 0,-2l0 0c0,0 0,0 0,0 0,0 0,0 0,0 0,0 1,-1 1,-1 1,0 3,1 6,1 2,0 5,1 8,1l0 0c1,0 2,0 2,0l1 0 -1 -1 -4 6c0,0 0,0 0,1 0,0 0,0 0,0 0,0 5,3 10,4 1,1 3,2 6,3 2,2 5,3 9,4l1 -1 -1 0c-1,1 -2,2 -2,2 -1,1 -2,1 -2,1l0 1z"/>
   <path class="fil3" d="M269 613c0,0 2,10 7,19 5,9 15,19 22,25 8,5 32,27 44,44 1,2 -4,9 -11,16 -7,6 -10,8 -7,9 4,2 13,1 22,-6 9,-8 14,-13 17,-19 2,-3 -6,-7 -11,-11 -4,-4 -22,-30 -27,-42 -5,-12 -19,-29 -29,-35l-27 0z"/>
   <path class="fil3" d="M268 613c0,0 3,10 7,19 5,10 15,20 23,25 7,6 31,27 43,44 0,0 0,1 0,1 0,0 0,1 0,2 -2,3 -6,8 -11,12 -2,2 -4,4 -6,5 0,1 -1,2 -1,2 -1,1 -1,1 -1,2 0,0 0,1 1,1 0,1 0,1 1,1 1,0 2,1 4,1 5,0 11,-2 18,-8 9,-7 15,-12 18,-19 0,0 0,0 0,-1 0,-1 0,-1 -1,-2 -1,-2 -3,-3 -5,-4 -2,-1 -4,-3 -5,-4 -1,-1 -3,-3 -6,-7 -7,-9 -17,-26 -21,-35 -3,-6 -8,-14 -13,-20 -6,-7 -12,-13 -17,-16 0,0 0,0 -1,0 0,1 0,1 1,1 5,3 10,9 16,15 5,7 10,14 12,20 3,7 9,16 14,25 3,4 6,8 8,11 3,3 5,6 6,7 2,2 5,4 7,5 1,1 2,2 3,3 0,0 1,1 1,1 0,1 0,1 0,1 -3,6 -9,11 -18,18 -6,6 -13,7 -17,7 -1,0 -3,0 -4,0 0,0 0,-1 -1,-1 0,0 0,0 0,0 0,0 0,0 1,-1 0,-1 1,-2 2,-3 2,-1 3,-2 5,-4 3,-3 6,-6 8,-8 1,-2 2,-3 3,-4 0,-1 1,-2 1,-3 0,-1 0,-1 -1,-1 -12,-18 -36,-39 -43,-45 -8,-5 -18,-15 -23,-24 -2,-5 -4,-10 -5,-13 0,-2 -1,-4 -1,-5 0,0 0,-1 0,-1 0,0 0,0 0,0 0,-1 -1,-1 -1,-1 0,0 -1,1 -1,1z"/>
   <path class="fil4" d="M363 701c2,-3 -6,-7 -11,-11 -4,-3 -16,-22 -24,-35l-16 14c10,9 22,21 30,32 1,2 -4,9 -11,16 -7,6 -10,8 -7,9 4,2 13,1 22,-6 9,-8 14,-13 17,-19z"/>
   <path class="fil3" d="M363 701l1 0c0,0 0,0 0,-1 0,-1 0,-1 -1,-2 -1,-2 -3,-3 -5,-4 -2,-1 -4,-3 -5,-4 -1,-1 -3,-3 -5,-5 -5,-7 -14,-21 -19,-30 0,-1 0,-1 -1,-1 0,0 0,0 0,0l-16 14c0,1 0,1 0,1 0,0 0,0 0,0 10,10 22,22 29,32 0,0 0,1 0,1 0,0 0,1 0,2 -2,3 -6,8 -11,12 -2,2 -4,4 -6,5 0,1 -1,2 -1,2 -1,1 -1,1 -1,2 0,0 0,1 1,1 0,1 0,1 1,1 1,0 2,1 4,1 5,0 11,-2 18,-8 9,-7 15,-12 18,-19l-1 0 0 0c-3,6 -9,11 -18,18 -6,6 -13,7 -17,7 -1,0 -3,0 -4,0 0,0 0,-1 -1,-1 0,0 0,0 0,0 0,0 0,0 1,-1 0,-1 1,-2 2,-3 2,-1 3,-2 5,-4 3,-3 6,-6 8,-8 1,-2 2,-3 3,-4 0,-1 1,-2 1,-3 0,-1 0,-1 -1,-1 -7,-11 -19,-23 -29,-33l-1 1 1 0 16 -14 -1 0 0 0c3,7 8,15 13,22 2,3 4,6 6,9 2,2 4,4 5,5 2,2 5,4 7,5 1,1 2,2 3,3 0,0 1,1 1,1 0,1 0,1 0,1l0 0z"/>
   <path class="fil1" d="M358 695c-1,2 -2,4 -4,8 -5,7 -17,17 -19,15 0,-1 -1,-3 -2,-4 -1,1 -2,2 -2,3 -7,6 -10,8 -7,9 4,2 13,1 22,-6 9,-8 14,-13 17,-19 1,-2 -1,-4 -5,-6z"/>
   <path class="fil3" d="M358 695l0 0c-1,1 -3,4 -5,7 -2,4 -6,7 -9,10 -2,2 -3,3 -5,4 -1,1 -1,1 -2,1 0,0 -1,1 -1,1l0 -1 0 1 0 -1 0 0 0 1 0 -1 0 1 0 0 0 -1 0 1 0 0c-1,-1 -2,-3 -2,-4 -1,0 -1,0 -1,0 0,0 0,0 0,0 -1,1 -2,1 -3,2 -2,2 -4,4 -6,5 0,1 -1,2 -1,2 -1,1 -1,1 -1,2 0,0 0,1 1,1 0,1 0,1 1,1 1,0 2,1 4,1 5,0 11,-2 18,-8 9,-7 15,-12 18,-19 0,0 0,0 0,-1 0,0 0,-1 0,-1 -1,-2 -3,-3 -5,-5 0,0 0,0 -1,0 0,0 0,0 0,1l0 0 0 0c1,1 3,2 4,3 0,1 0,1 0,1 1,1 1,1 1,1 0,1 0,1 0,1 -3,6 -9,11 -18,18 -6,6 -13,7 -17,7 -1,0 -3,0 -4,0 0,0 0,-1 -1,-1 0,0 0,0 0,0 0,0 0,0 1,-1 0,-1 1,-2 2,-3 2,-1 3,-2 5,-4 1,-1 2,-1 2,-2l0 -1 -1 1c1,1 2,2 3,3 0,1 1,1 1,1 1,0 1,0 2,-1 2,-1 5,-3 8,-6 3,-3 6,-6 8,-9 2,-3 4,-6 5,-8l-1 0 0 0 0 0z"/>
   <polygon class="fil4" points="422,720 342,720 342,716 422,716 "/>
   <path class="fil3" d="M422 720l0 -1 -79 0 0 -2 78 0 0 3 1 0 0 -1 0 1 1 0 0 -4c0,0 0,0 -1,0 0,0 0,0 0,0l-80 0c0,0 0,0 0,0 0,0 0,0 0,0l0 4c0,0 0,0 0,1 0,0 0,0 0,0l80 0c0,0 0,0 0,0 1,-1 1,-1 1,-1l-1 0z"/>
   <path class="fil4" d="M350 616l-14 133c0,1 0,1 1,1 0,0 1,0 1,-1l21 -133 -9 0z"/>
   <path class="fil3" d="M350 616l-1 0 -14 133 0 0 0 0c0,1 1,2 2,2 1,0 1,-1 2,-2l0 0 20 -133c0,0 0,0 0,0 0,0 0,-1 0,-1l-9 0c-1,0 -1,1 -1,1l1 0 0 1 8 0 -21 132 0 0c0,0 0,1 0,1 0,0 -1,-1 -1,-1l0 0 0 0 14 -133 0 0 0 1 0 -1z"/>
   <path class="fil4" d="M413 616l14 133c0,1 0,1 -1,1 0,0 -1,0 -1,-1l-21 -133 9 0z"/>
   <path class="fil3" d="M413 616l0 0 14 133 0 0 0 0c0,0 -1,1 -1,1 0,0 0,-1 0,-1l0 0 -21 -132 8 0 0 -1 0 0 0 0 0 -1 -9 0c0,0 0,1 0,1 0,0 0,0 0,0l20 133 1 0 -1 0c1,1 1,2 2,2 1,0 2,-1 2,-2l0 0 0 0 -14 -133c0,0 0,-1 -1,-1l0 1z"/>
   <path class="fil4" d="M388 616l1 133c0,1 -1,1 -1,1l0 0c-1,0 -1,0 -1,-1l-8 -133 9 0z"/>
   <path class="fil3" d="M388 616l-1 0 1 133 0 0 0 0c0,0 0,1 0,1l0 0c-1,0 -1,-1 -1,-1l0 0 -7 -132 8 0 0 -1 -1 0 1 0 0 -1 -9 0c0,0 0,0 0,1 0,0 -1,0 0,0l7 133 0 0c0,1 1,2 2,2l0 0c1,0 1,-1 1,-2l0 0 0 0 0 -133c0,0 -1,-1 -1,-1l0 1z"/>
   <path class="fil1" d="M418 617l-74 0c-3,0 -6,-2 -6,-6l0 -8c0,-4 3,-7 6,-7l74 0c3,0 6,3 6,7l0 8c0,4 -3,6 -6,6z"/>
   <path class="fil11" d="M418 617l-4 0 -1 0 -8 0 -1 0 -15 0 -2 0 -7 0 -1 0 -5 0 -3 0 -12 0 -1 0 -8 0 -1 0 -4 0 -4 0c-1,-1 -1,-1 -2,-2 13,0 49,-1 59,-1 13,0 12,-5 12,-9 0,-2 -20,-3 -38,-4 6,0 12,0 18,0 7,-1 13,-2 17,-3 2,-1 3,-1 5,-2l6 0 0 0 0 0 0 0 0 0 0 0c0,0 0,0 0,0l0 0 0 0 0 0c1,0 1,0 2,0l0 0c0,0 0,0 0,0l0 0c0,1 0,1 1,1l0 0c0,0 0,0 1,0l0 0 0 0 0 0c0,0 0,0 0,1l0 0 0 0 0 0 0 0 0 0c0,0 0,0 0,0l0 0 1 0 0 0 0 0 0 0 0 0 0 0 0 0 0 0c0,1 0,1 0,1l0 0 0 0 0 0 0 0 0 0 0 0 0 0 0 0 0 0 0 0 0 0 1 1 0 0 0 0 0 0 0 0 0 0 0 0 0 0 0 0 0 0 0 0 0 0c0,0 0,0 0,0l0 0 0 0 0 1 0 0 0 0 0 0 0 0 0 0 0 0 0 0 0 0 0 0 0 0 0 0 0 1 0 0 0 0 0 0 0 0 0 0 0 0 0 0 0 0 0 0 0 0 0 0 0 1 0 8c0,4 -3,6 -6,6zm-72 -16c-2,-1 -2,-1 -2,-1l0 0c0,0 1,0 2,1z"/>
   <path class="fil3" d="M418 617l0 0 -74 0c-2,0 -3,-1 -4,-2 -1,-1 -2,-2 -2,-4l0 -8c0,-2 1,-4 2,-5 1,-1 2,-1 4,-1l74 0c1,0 3,0 4,1 1,1 2,3 2,5l0 8c0,2 -1,3 -2,4 -1,1 -3,2 -4,2l0 0 0 1c4,0 7,-3 7,-7l0 -8c0,-4 -3,-8 -7,-8l-74 0c-4,0 -7,4 -7,8l0 8c0,4 3,7 7,7l74 0 0 -1z"/>
   <path class="fil3" d="M271 621c-2,-5 -8,-16 24,-38 17,-12 54,-21 54,-21l4 -4c0,0 10,10 30,9 19,0 31,-9 34,-8 2,1 2,7 1,18 -1,12 -2,17 -11,20 -9,3 -29,4 -43,4 -15,-1 -22,-2 -22,-2 0,0 -31,20 -50,22l-21 0z"/>
   <path class="fil3" d="M272 621c-1,-2 -2,-4 -2,-7 0,-3 1,-7 5,-12 3,-5 10,-11 20,-19 9,-6 22,-11 34,-15 6,-2 11,-3 15,-4 1,-1 3,-1 4,-1 1,-1 2,-1 2,-1 0,0 0,0 0,0l3 -4 0 0 0 0c0,0 9,10 28,10 0,0 1,0 2,0 9,0 17,-2 23,-5 3,-1 5,-2 7,-2 1,-1 2,-1 2,-1 1,0 1,-1 1,-1l1 0c0,1 0,1 0,1 1,0 1,1 1,2 0,2 0,3 0,5 0,3 0,6 0,10 -1,6 -1,10 -3,13 -1,3 -4,5 -8,7 -4,1 -10,2 -17,2 -7,1 -15,1 -22,1 -2,0 -3,0 -4,0 -8,0 -13,0 -17,-1 -1,0 -3,0 -4,0 0,0 0,0 -1,0 0,0 0,0 0,0 0,0 0,0 0,0 0,0 -1,0 -2,1 -3,2 -11,6 -20,11 -10,4 -20,8 -29,9 0,0 0,0 0,1 0,0 0,0 1,0 9,-1 22,-6 32,-11 11,-5 18,-10 18,-10l0 -1 0 1c0,0 7,1 21,1 2,0 3,0 5,0 7,0 15,0 22,0 7,-1 13,-2 17,-3 5,-2 8,-4 9,-7 2,-4 3,-8 3,-14 0,-4 1,-7 1,-10 0,-3 -1,-5 -1,-6 0,-1 0,-1 -1,-2 0,0 0,-1 -1,-1 0,0 0,0 -1,0 0,0 -1,0 -1,1 -3,0 -7,2 -12,4 -5,2 -12,4 -20,4 -1,0 -2,0 -2,0 -9,0 -16,-3 -21,-5 -2,-1 -4,-2 -5,-3 0,-1 -1,-1 -1,-1 0,-1 0,-1 0,-1l-1 0 0 0c0,0 0,0 0,0 0,0 0,0 -1,0l-3 4 0 1 0 -1c0,0 -9,2 -20,6 -12,4 -26,9 -34,15 -11,8 -18,14 -21,19 -4,5 -5,9 -5,13 0,3 1,6 1,7 0,1 1,1 1,1 0,0 1,-1 1,-1z"/>
   <path class="fil4" d="M343 492c-1,1 -44,9 -48,9 -4,-1 -14,-9 -17,-9 -4,0 -11,1 -11,3 -1,2 1,8 1,8 0,0 -2,4 -1,5 1,2 8,-2 8,-2 0,0 8,6 11,4 4,-1 8,-2 8,-2 0,0 55,3 55,3 1,1 8,2 8,-8 1,-10 -6,-13 -14,-11z"/>
   <path class="fil3" d="M343 492l0 0c0,0 -1,0 -1,0 -3,1 -13,3 -23,4 -5,1 -10,2 -14,3 -5,1 -8,1 -9,1 -1,0 -1,0 -1,0 -1,0 -2,-1 -3,-2 -3,-1 -5,-3 -8,-4 -1,-1 -2,-2 -3,-2 -1,-1 -2,-1 -3,-1l0 0c-2,0 -5,1 -7,1 -1,0 -2,1 -3,1 0,0 -1,1 -1,1 0,0 -1,0 -1,1 0,0 0,1 0,1 0,1 0,3 1,5 0,1 1,2 1,2l0 0 0 0c0,0 -1,0 -1,1 0,1 -1,2 -1,3 0,1 0,1 1,2 0,0 0,0 0,0 1,0 1,0 1,0 1,0 2,0 2,0 3,-1 5,-2 5,-2l0 -1 0 1c0,0 1,1 3,2 2,0 3,1 4,1 1,1 2,1 3,1 1,0 1,0 2,0 3,-1 7,-3 7,-3l0 0 0 1c0,0 0,0 2,0 5,0 18,1 30,2 6,0 12,0 16,1 2,0 4,0 5,0 1,0 1,0 2,0 0,0 0,0 0,0l0 0 0 0 0 0 0 0 0 0 0 0 0 0c0,0 1,0 2,0 1,0 3,0 4,-1 2,-2 3,-4 3,-8 0,0 0,-1 0,-1 0,-4 -1,-6 -3,-8 -2,-2 -4,-3 -7,-3 -2,0 -3,0 -5,1l0 0 0 1c2,0 3,-1 5,-1 3,0 5,1 6,3 2,1 3,4 3,7 0,0 0,1 0,1 0,4 -2,6 -3,7 -1,1 -2,1 -3,1 -1,0 -1,0 -2,0l0 0c0,0 -1,0 -3,-1 -12,0 -52,-3 -52,-3l-1 0c0,0 -1,1 -2,1 -1,1 -3,1 -5,2 0,0 0,0 -1,0 -1,0 -2,0 -3,-1 -1,0 -3,-1 -4,-2 -1,-1 -1,-1 -2,-1 0,0 0,0 0,0l0 -1c-1,0 -1,0 -1,0 0,0 0,0 0,1 -1,0 -2,0 -3,1 -1,0 -2,1 -2,1 -1,0 -1,0 -2,0 0,0 0,0 0,0l0 0c0,0 0,0 0,-1 0,-1 0,-1 0,-2 0,-1 1,-1 1,-1l0 0 0 0c0,-1 0,-1 0,-1 0,0 0,0 0,-1 -1,-1 -1,-2 -1,-3 0,-1 -1,-2 -1,-3 0,0 0,-1 0,-1 0,0 0,0 1,0 0,0 1,-1 2,-1 2,-1 6,-1 8,-2l0 0 0 0c1,0 2,1 3,2 3,1 5,3 8,4 1,1 2,2 3,2 1,1 2,1 3,1 0,0 0,0 1,0 1,0 5,0 10,-1 7,-1 16,-3 23,-4 4,-1 7,-1 10,-2 1,0 2,0 3,-1 0,0 0,0 1,0 0,0 0,0 0,0l0 -1z"/>
   <path class="fil3" d="M269 504l9 -8c1,0 1,-1 0,-1 0,0 0,0 0,0l-10 8c0,0 0,0 0,1 0,0 1,0 1,0z"/>
   <polygon class="fil3" points="272,500 277,484 279,484 277,496 "/>
   <path class="fil4" d="M310 510c0,0 -57,15 -66,14 -10,-1 -12,-5 -14,-5 -3,0 -8,3 -11,2 -3,0 -6,-1 -6,1 0,2 3,4 4,4 2,0 7,0 7,0 0,0 -11,3 -11,5 -1,3 1,4 3,5 2,0 3,1 3,1 0,0 1,4 2,5 2,2 6,3 10,2 5,-1 13,-5 15,-6 2,-2 59,-7 63,-8 4,-1 9,-1 11,-3 2,-3 -10,-17 -10,-17z"/>
   <path class="fil1" d="M241 535c-10,0 -8,-9 -11,-8 -3,2 -14,3 -17,7 0,1 1,1 2,2l0 0 0 0 0 0 0 0 0 0 0 0 0 0 0 0 1 0 0 0 0 0 0 0 0 0 0 0 0 0 0 0c2,0 3,1 3,1 0,0 1,4 2,5 2,2 6,3 10,2 5,-1 13,-5 15,-6 2,-2 59,-7 63,-8l0 0 0 0 0 0 0 0 1 0 0 0 0 0 0 0 0 0 0 0 0 0 0 0 0 0 0 0 0 0 1 0 0 0 0 0 0 0 0 0 0 0 0 0 0 0 0 0 0 0 0 0 1 0 0 0 0 0 0 0 0 0 0 0 0 0 0 0 0 0 0 0 1 0 0 0 0 0 0 0 0 0 0 0 0 0 0 0 0 0 0 0 0 0c2,-1 4,-1 6,-2 1,-1 1,-1 1,-1l-6 -6c0,0 -63,14 -73,14z"/>
   <g>
    <path class="fil12" d="M227 544l0 0 0 0 0 0 0 0 0 0 0 0 0 0 0 0 0 0 0 0 0 0 0 0 0 0 0 0 0 0 0 0 0 0 0 0 0 0 0 0 0 0 0 0 0 0 0 0 0 0 0 0 0 0 0 0 0 0 0 0 0 0 0 0 0 0 0 0 0 0 0 0 0 0 0 0 0 0 0 0 0 0 0 0 0 0 0 0 0 0 0 0 0 0 0 0 0 0 0 0 0 0 0 0 0 0 0 0 0 0 0 0 0 0 0 0 0 0 0 0 0 0 0 0 0 0 0 0 0 0 0 0 0 0 -1 0 0 0 0 0 0 0 0 0 0 0 0 0 0 0 0 0 0 0 0 0 0 0 0 0 0 0 0 0 0 0 0 0 0 0 0 0 0 0 0 0 0 0 0 0 0 0 0 0 0 0 0 0 0 0 0 0 0 0 0 0 -1 0 0 0 0 0 0 0 0 0 0 0 0 0 0 0 0 0 0 0 0 0 0 0 0 0 0 0 0 0 0 0 0 0 0 0 0 0 0 0 0 0 0 0 0 0 -1 0 0 0 0 0 0 0 0 0 0 0 0 0 0 0 0 0 0 0 0 0 0 0 0 0 0 0 0 0 0 0 -1 0 0 0 0 0 0 0 0 0 0 0 0 0 0 0 0 0 0 0 0 0 0 0 0 0 0 0 0 0 0 0 0 -1 0 0 0 0 0 0 0 0 -1 0 0 0 0 0 0 0 0 0 0 0 0 0 0 0 0 0 0 0 0 0 0 0 0 0 0 0 0 0 0 0 0 0 0 0 0 0 0 0 0 0 0 0 0 0 0 0 0 0 0 0 0 0 0 0 0 0 -1 0 0 0 0 0 0 0 0 0 0 0 0 0 0 0 0 0 0 0 0 0 0 -1 0 0 0 0 0 0 0 0 0 0 0 0 0 0 0 0 0 0 0 0 0 0 0 0 0 0 0 0 0 0 0 0 0 0 0 0 0 0 0 0 0 0 0 0 0 0 0 0 0 0 0 0 0 0 0 0 0 0 0 0 0 0 0 0 0 0 0 0 0 0 0 0 0 0 0 0 0 0 0 0 0 0 0 0 0 0 0 0 0 0 0 0 0 0 0 0 0 0 0 0 0 0 0 0 0 0 0 0 0 0 0 0 0 0 0 0 0 -1 -1 0 0 0 0 0 0 0 0 0 0 0 0 0 0 0 0 0 0 0 0 0 0 0 0 0 0 0 0 0 0 0 0 0 0 0 0 0 0 0 0 0 0 0 0 0 0 0 0 0 0 0 0 0 0 0 0 0 0 0 0 0 0 0 0 0 0 0 0 0 0 0 0 0 0 0 0 0 0 0 0 0 0 0 0 0 0 0 0 0 0 0 0 -1 0 0 0 0 0 0 0 0 0 0 0 0 0 0 0 0 0 0 0 0 0 0 0 0 0 0c0,0 0,-1 -1,-1l0 0 0 0 0 0 0 0 0 0 0 0 0 0 0 0 0 0 0 0 0 -1 0 0 0 0 0 0 0 0 0 0 0 0 0 0 0 0 0 0 0 0 0 0 0 0 0 0 0 0 0 0 0 0 0 0 0 0 0 0 0 0 0 0 0 0 0 0 0 0 0 0 0 0 0 -1 0 0 0 0 0 0 0 0 0 0 0 0 0 0 0 0 0 0 0 0 0 0 0 0 0 0 0 0 0 0 0 0 0 0 0 0 0 0 0 0 0 0 0 0c0,0 -1,-1 -3,-1l0 0 0 0 0 0 0 0 -1 0 0 0 0 0 0 0 0 0 0 0c-1,-1 -2,-1 -2,-2 3,-4 14,-5 17,-7 0,0 0,0 1,0 2,0 1,8 10,8 10,0 73,-14 73,-14l6 6c0,0 0,0 -1,1 -1,1 -3,1 -5,1l0 0 0 0 -1 1 0 0 0 0 0 0 0 0 0 0 0 0 0 0 0 0 0 0 0 0 0 0 -1 0 0 0 0 0 0 0 0 0 0 0 0 0 0 0 0 0 0 0 -1 0 0 0 0 0 0 0 0 0 0 0 0 0 0 0 0 0 0 0 0 0 0 0 -1 0 0 0 0 0 0 0 0 0 0 0 0 0 0 0 0 0 0 0 0 0 0 0 0 0 0 0 0 0 0 0 0 0 0 0 0 0 0 0 0 0 0 0 0 0 0 0 0 0 0 0 0 0 0 0 0 0 0 0 -1 0 0 0 0 0 0 0 0 0 0 0 0 0 0 0 0 0 0 0 0 0 0 0 0 0 0 0 0 0 0 0 0 0 0 0 0 0 0 0 0 0 0 0 0 0 0 0 0 0 0 0 0 0 0 0 0 0 0 0 0 0 0 0 0 0 0 0 0 0 0 0 0 0 0 0 0 0 0 0 0 0 0 0 0 0 0 0 0 0 0 0 0 0 0 0 0 0c0,0 0,0 0,0l0 0 0 0 0 0 -1 0 0 0 0 1 0 0 -1 0 0 0 0 0 0 0 -1 0 0 0 -1 0 0 0 -1 0 0 0 0 0 -1 0 0 0 -1 0 0 0 -1 0 0 0 -1 0 -1 1 0 0 -1 0 0 0 -1 0 0 0 -2 0 0 0 -1 0 -1 0 -1 0 -2 0 -1 1 0 0 -1 0 0 0 -2 0 -1 0 -1 0 -2 0 -1 0 0 0 -1 1 -2 0 -1 0 0 0 -2 0 -1 0 -1 0 -2 0 -1 1 0 0 -2 0 -1 0 -1 0 -2 0 -1 0 0 0 -1 0 -1 1 -1 0 -2 0 -1 0 -1 0 -1 0 -1 0 -1 0 -1 1 -1 0 0 0 -1 0 -1 0 0 0 -1 0c0,0 0,0 0,0 -1,0 -1,0 -1,0 0,0 0,0 0,0 0,0 0,0 0,0 -1,0 -1,0 -1,0 0,1 0,1 0,1l0 0 0 0 0 0 0 0 0 0 0 0 0 0 0 0 0 0 0 0 -1 0 0 0 0 0 0 0 0 0 0 0 0 0 0 0 0 0 0 0 0 0 0 0 0 0 0 0 -1 1 0 0 0 0 0 0 0 0 0 0 0 0 0 0 -1 0 0 0 0 0 0 0 0 0 0 0 0 0 -1 1 0 0 0 0 0 0 0 0 0 0 0 0 -1 0 0 0 0 0 0 0 -1 1 0 0 0 0 0 0 0 0 0 0 -1 0 0 0 0 0 0 0 0 0 -1 0 0 1 0 0 0 0 0 0c-1,0 -2,1 -3,1l0 0 0 0 -1 0 0 0c0,0 0,0 -1,0l0 0c0,0 0,1 -1,1l0 0c0,0 0,0 0,0l0 0 0 0 0 0 0 0 0 0 0 0 0 0 0 0 0 0 0 0 -1 0 0 0 0 0 0 0 0 0 0 0 0 0 0 0 0 0 0 0 0 0 0 0 0 0 0 0 0 0 0 0 0 0 0 0 0 0 0 0 0 0 0 0 0 0 0 0 0 0 0 0 0 0 -1 0 0 0 0 0 0 0 0 0 0 0 0 0 0 0 0 0 0 0 0 0 0 0 0 0 0 0 0 0 0 0 0 0 0 0 -1 0 0 0 0 0 0 0 0 0 0 0 0 0 0 0 0 0 0 0 0 0 0 0 0 0 0 0 0 0 0 0 0 0 0 0 0 0 0 0 -1 0 0 0 0 0 0 0 0 0 0 0 0 0 0 0 0 0 0 0 0 0 0 0 0 0 0 0 0 0 0 0 0 0 0 0 0 0 0 0 0 0 -1 0 0 0 0 0 0 0zm82 -14l0 0 0 0zm-63 8l0 0 0 0z"/>
   </g>
   <path class="fil3" d="M310 510l-1 -1c0,0 0,0 -2,0 -5,2 -18,5 -31,8 -7,2 -13,4 -19,5 -5,1 -10,1 -12,1 -1,0 -1,0 -1,0 -5,0 -8,-1 -10,-3 -1,0 -2,-1 -2,-1 -1,0 -2,-1 -2,-1 -1,0 -2,0 -3,1 -1,0 -2,1 -4,1 -1,0 -3,1 -4,1l0 0c-1,0 -3,-1 -4,-1 0,0 -1,0 -1,1 -1,0 -1,0 -1,0 0,1 0,1 0,1 0,1 0,1 0,2 1,1 1,1 2,2 1,1 1,1 2,1 2,0 7,0 7,0l0 -1 0 -1c0,0 -3,1 -6,2 -1,1 -2,2 -4,2 0,0 -1,1 -1,1 0,0 -1,1 -1,1 0,1 0,1 0,1 0,2 2,4 4,5l0 0c1,0 1,0 2,0 0,0 0,1 0,1l0 0 0 0 0 0 0 0 0 0 0 0 0 0 1 -1 -1 0c0,1 0,1 1,3 0,1 1,2 2,3 0,1 1,1 2,1 2,1 3,1 4,1 2,0 3,0 5,0 2,-1 5,-2 8,-4 3,-1 6,-2 7,-3l-1 0 1 0 0 0 -1 0 1 0c0,0 0,0 0,0 0,0 2,0 4,-1 7,-1 21,-2 33,-3 6,-1 12,-1 16,-2 3,0 5,0 6,-1 2,0 3,0 3,0 2,-1 5,-1 7,-1 1,0 2,-1 3,-1 0,-1 1,-1 2,-2 0,0 0,-1 0,-1 0,-1 0,-1 -1,-2 -1,-3 -3,-6 -6,-9 -2,-4 -4,-6 -4,-6 0,0 0,0 -1,0l1 1 -1 0c0,0 0,0 0,0 1,2 4,5 6,8 1,2 3,3 3,5 1,0 1,1 1,2 0,0 1,1 1,1 0,0 -1,0 -1,0 0,1 0,1 -1,2 -1,0 -3,1 -4,1 -2,0 -3,0 -5,1 -1,0 -2,0 -4,0 -7,1 -21,2 -34,4 -6,0 -12,1 -17,2 -2,0 -4,0 -5,0 -1,0 -2,1 -2,1 0,0 -1,0 -1,0 0,0 0,0 0,0 -1,1 -4,2 -6,3 -3,1 -6,3 -9,3 -1,0 -2,1 -4,1 -1,0 -2,-1 -3,-1 -1,0 -2,-1 -2,-1 -1,-1 -2,-2 -2,-3 0,0 0,-1 0,-1 0,0 0,-1 0,-1l-1 0 0 0c0,0 -1,-1 -3,-2l0 0c-2,0 -3,-1 -3,-3 0,0 0,0 0,0 0,0 1,-1 1,-1 0,0 1,-1 2,-1 2,-1 4,-2 6,-2 0,-1 1,-1 2,-1 0,0 0,0 0,0 1,0 1,-1 1,-1 0,0 0,-1 -1,-1 0,0 -1,0 -3,1 -1,0 -3,0 -4,0 0,0 0,0 -1,-1 0,0 -1,-1 -1,-1 -1,-1 -1,-1 -1,-2l0 0c0,0 0,0 0,0 1,0 1,0 1,0 1,0 3,0 4,0 0,0 0,0 0,0 2,0 4,-1 6,-1 1,-1 2,-1 3,-1 1,0 1,0 2,0 0,0 0,0 1,0 1,1 2,2 4,2 2,1 5,2 9,3 0,0 0,0 1,0 3,0 8,-1 15,-3 20,-4 50,-12 50,-12l0 0 -1 0 1 0z"/>
   <path class="fil1" d="M357 452c0,0 -5,14 -11,24 -7,9 -10,19 -5,29 4,11 13,13 13,13 0,0 -3,31 -2,39 1,8 13,18 32,19 19,0 35,-6 35,-13 0,-7 -13,-41 -13,-49 0,-7 1,-30 -5,-50 -6,-20 -29,-27 -44,-12z"/>
   <path class="fil11" d="M387 575c0,0 0,0 0,0 -1,0 -2,0 -3,0 -6,0 -12,-1 -17,-3 8,-1 19,-1 25,-3 10,-2 -22,-21 -29,-33 -1,-3 -1,-4 -1,-4 3,0 15,12 18,12 4,0 -8,-14 -12,-23 -1,-1 -1,-2 -1,-2 2,0 15,12 21,14 0,0 0,0 0,0 5,0 -19,-23 -24,-29 -1,-1 -1,-1 0,-1 1,0 4,1 7,2 3,1 6,2 8,2 0,0 0,0 1,0 1,-1 -10,-4 -23,-7 1,-1 1,-1 2,-1 1,0 3,0 5,0 3,0 7,0 11,-1 1,0 1,0 1,0 0,-1 0,-1 -1,-1 0,0 0,0 0,0 -4,0 -8,1 -11,1 -2,0 -3,0 -4,-1 0,0 1,0 1,-1 0,0 0,0 0,0 0,1 1,1 1,1 0,0 0,0 0,0 0,0 4,-2 9,-4 4,-2 10,-5 13,-7 0,-1 0,-1 0,-1 0,-1 0,-1 0,-1 0,0 -1,0 -1,0 -3,3 -8,5 -13,8 -2,1 -4,2 -6,2 0,1 -1,1 -1,1 4,-4 8,-7 9,-8 3,-4 5,-9 5,-13l0 0c0,-1 0,-2 0,-2l-20 -16c0,-2 1,-3 1,-3 2,-2 3,-3 5,-4 4,-1 11,-3 16,-4 9,1 18,8 21,19 5,15 5,31 5,42 0,3 0,6 0,8 0,1 1,3 1,4 1,6 4,16 7,25 2,5 3,9 4,12 1,2 1,4 1,5 1,1 1,2 1,3 0,1 -1,3 -3,4 -2,2 -6,4 -11,6 -5,1 -12,2 -18,2z"/>
   <path class="fil3" d="M357 452l0 0c0,0 0,0 0,1 -1,2 -6,14 -12,22 -4,7 -7,13 -7,20 0,4 1,7 2,11 2,5 6,8 8,10 3,2 6,3 6,3l0 -1 -1 0c0,0 -2,24 -2,35 0,2 0,3 0,4 0,5 4,9 10,13 5,3 13,6 23,6 1,0 2,0 3,0 9,0 17,-1 23,-4 3,-1 5,-2 7,-4 2,-1 3,-3 3,-5 0,-1 0,-2 -1,-4 -1,-5 -4,-15 -7,-24 -1,-5 -3,-9 -4,-13 -1,-3 -1,-6 -1,-8 0,-2 0,-5 0,-8 0,-11 -1,-27 -5,-42 -4,-13 -15,-21 -26,-21 -7,0 -13,3 -19,9l0 0 0 0 1 1c5,-6 12,-8 18,-8 10,0 20,7 24,19 5,15 5,31 5,42 0,3 0,6 0,8 0,1 1,3 1,4 1,6 4,16 7,25 2,5 3,9 4,12 1,2 1,4 1,5 1,1 1,2 1,3 0,1 -1,3 -3,4 -2,2 -6,4 -11,6 -5,1 -12,2 -18,2 -1,0 -2,0 -3,0 -9,0 -17,-3 -23,-6 -5,-4 -8,-8 -9,-12 0,-1 0,-2 0,-4 0,-5 1,-14 1,-22 1,-3 1,-7 1,-9 0,-2 1,-4 1,-4 0,0 -1,0 -1,0l0 -1c0,0 -3,0 -5,-2 -3,-2 -6,-5 -8,-10 -1,-3 -2,-7 -2,-10 0,-6 3,-13 7,-19 7,-9 12,-24 12,-24l-1 0 1 1 -1 -1z"/>
   <path class="fil3" d="M360 509c0,0 4,7 12,15 7,8 18,17 30,21 1,0 1,0 1,0 0,-1 0,-1 0,-1 -13,-4 -23,-13 -30,-21 -4,-4 -7,-7 -9,-10 -1,-1 -2,-2 -2,-3 -1,-1 -1,-1 -1,-1 0,0 0,0 0,0 0,-1 -1,-1 -1,-1 0,1 0,1 0,1z"/>
   <path class="fil3" d="M358 514c0,0 1,5 5,12 4,7 10,15 19,20 0,1 0,1 1,0 0,0 0,0 -1,-1 -8,-5 -14,-13 -18,-20 -2,-3 -3,-6 -4,-8 0,-1 -1,-2 -1,-3 0,0 0,0 0,0 0,-1 0,-1 0,-1 0,0 -1,0 -1,0 0,0 0,0 0,1z"/>
   <path class="fil3" d="M362 497c0,0 4,-2 9,-4 4,-2 10,-5 13,-7 0,-1 0,-1 0,-1 0,-1 0,-1 -1,-1 -3,3 -8,5 -13,8 -2,1 -4,2 -6,2 -1,1 -2,2 -2,2 -1,0 -1,0 -1,0 0,1 1,1 1,1z"/>
   <path class="fil3" d="M355 498c0,0 3,1 9,1 3,0 7,0 11,-1 1,0 1,0 1,0 0,-1 0,-1 -1,-1 -4,0 -8,1 -11,1 -3,0 -5,-1 -6,-1 -1,0 -2,0 -2,0 0,0 0,0 0,0l0 0c-1,0 -1,0 -1,1 0,0 0,0 0,0l0 0z"/>
   <path class="fil1" d="M356 456c0,0 -4,2 -10,8 -5,6 -31,45 -31,45 0,0 8,16 10,16 2,1 43,-34 47,-38 3,-4 6,-12 5,-15l-21 -16z"/>
   <path class="fil13" d="M325 525l0 0 0 0c0,0 0,0 0,0l0 0 -1 0 0 0 0 0 0 0 0 0 0 0 0 0 0 0c0,0 0,0 0,-1 -1,-2 -1,-5 -1,-6 0,-4 5,-5 11,-6 7,-1 1,-3 3,-11 1,-9 6,-9 17,-15 10,-6 10,-18 10,-18l3 -3 10 7c0,0 0,0 0,0l0 0 0 0c0,0 0,0 0,0l0 0 0 0 0 0 0 0 0 0 0 1 0 0 0 0 0 0 0 0 0 0 0 0 0 0 0 0 0 0 0 0 0 0 0 0 0 0 0 0 0 0 0 0 0 0 0 0 0 0 0 0 0 0 0 0 0 1 0 0 0 0 0 0 0 0 0 0 0 0c0,0 0,0 0,0l0 0c0,1 0,1 0,1l0 0 0 0 0 0 0 0 0 0 0 0 0 1 0 0 0 0c0,0 0,0 0,0l0 0 0 0 0 0 0 1 0 0 0 0 0 0 -1 0 0 0 0 0 0 0 0 1 0 0 0 0c0,0 0,0 0,0l0 0c0,1 0,1 0,1l0 0c-1,2 -2,4 -3,5l0 0c0,1 0,1 0,1l0 0 0 0 0 0 0 1 0 0 0 0 0 0c-1,0 -1,0 -1,0l0 0 0 0 0 0 0 1 0 0 0 0 0 0m-1 0l0 0c0,1 0,1 0,1l0 0 0 0 -1 0 0 0 0 0 0 1 0 0 -1 0 0 0 0 0 0 1 0 0 0 0 -1 0 0 0 0 1 0 0 0 0 -1 0 0 0 0 0 0 0 0 1 0 0 -1 0 0 0 0 0 0 0 0 0 0 1 -1 0 0 0 0 0 0 0 0 0 0 0 0 0 -1 1 0 0 0 0 0 0 0 0 0 0 -1 0 0 1 0 0 0 0 0 0 0 0 0 0 0 0 0 0 0 0 0 0 0 0 0 0 0 0 0 0 -1 0 0 0 0 0 0 0 0 0 0 0 0 0 0 0 0 0 0 0 0 0 0 1 0 0 -1 1 0 0 0 0 0 0 0 0 0 0 0 0 0 0 0 0 0 0 0 0 0 0 0 0 0 0 0 0 0 0 0 0 0 0 0 0 0 0 0 0 0 0 0 0 0 0 0 0 -1 0 0 0 0 0 0 0 0 0 0 0 0 0 0 0 0 0 0 0 0 0 0 0 0 0 0 0 0 0 0 0 0 0 0 0 0 0 0 0 0 0 0 0 0 0 0 0 0 0 0 0 0 1 0 0 0 0 0 0 0 0 0 0 0 0 0 0 0 0 0 0 0 0 0 0 0 0 0 0 0 0 0 0 0 0 0 0 0 0 -1 0 0 0 0 0 0 0 0 0 0 0 0 0 0 0 0 0 0 0 0 0 0 0 0 0 0 0 0 0 0 0 0 0 0 0 0 0 0 0 0 0 0 0 0 0 0 0 0 0 0 1 0 0 0 0 0 0 0 0 -1 0 0 0 0 0 0 0 0 0 0 0 0 0 0 0 0 0 0 0 0 0 0 0 0 0 0 0 0 0 0 0 0 0 0 0 0 0 0 0 0 0 0 0 0 0 0 0 0 0 0 0 0 0 0 0 0 0 0 0 0 0 0 0 0 0 0 0 0 0 0 0 0 0 0 0 0 0 0 0 0 0 0 0 0 0 0 0 0 0 0 0 0 0 0 0 0 0 0 0 0 1 0 0 0 0 0 0 0 0 0 0 0 0 -1 0 0 0 0 0 0 0 0 0 0 0 0 0 0 0 0 0 0 0 -1 1 0 0 -2 1 0 0 -2 2 0 0 0 0 0 0 0 0 0 1 -1 0 0 0 0 0 0 0 0 1 -1 0 0 0 0 0 0 0 0 0 0 0 -1 1 0 0 0 0 0 0 -1 0 0 1 0 0 0 0 0 0 0 0 -1 0 0 0 0 1 0 0 0 0 -1 0 0 0 0 0 0 0 0 1 0 0 -1 0 0 0 0 0 0 0 0 0 0 1 -1 0 0 0 0 0 0 0 0 0 0 0 0 0 0 0 0 0 0 0 0 0 0 0 0 0 0 0 0 0 0 0 0 0 0 0 0 0 0 0 0 0 0 0 0 0 0 0 0 0 0 0 0 0 0 0 0 0 0 0 0 0 0 0 0 0 0 0 0 0 0 0 0 0 0 0 0 0 0 0 0 0 0 0 0 0 0 0 0 0 0 0 0 0 0 0 0 0 0 0 0 0 0 0 0 0 -1 0 0 0 0 1 0 0 0 0 0 0 0 0 0 0 0 0 0 0 0 0 0 0 0 0 0 0c-1,0 -1,1 -2,2l0 0 -1 0 0 1 0 0 -1 0 0 0 -1 1 0 0 0 0 -1 1 0 0 0 0 -1 0 0 1m-5 4l-1 0 0 0 0 0 0 0 -1 1 0 0 0 0 0 0 0 0 0 0 0 0 0 0 0 0 0 0 0 0 0 0 0 0 0 0 0 0 0 0 -1 0 0 0 0 1 0 0 0 0 0 0 0 0 -1 0 0 0 0 0 0 0 0 0 0 0 0 0 0 1 0 0c-1,0 -1,0 -1,0l0 0 0 0c0,0 0,0 0,0l0 0 0 0c0,0 0,0 0,0l0 0c-1,0 -1,0 -1,0l0 0m0 0c0,0 0,0 0,0"/>
   <path class="fil3" d="M356 455c0,0 -5,3 -10,8 -2,2 -4,5 -7,10 -10,13 -25,35 -25,35 0,1 0,1 0,1 0,0 2,4 4,8 2,2 3,4 4,6 0,1 1,1 1,2 1,0 1,0 1,1 0,0 1,0 1,0l0 0c0,0 0,0 1,0 0,0 1,-1 3,-2 5,-4 15,-12 24,-20 5,-4 9,-8 13,-11 1,-1 3,-2 4,-3 1,-1 2,-2 2,-3 2,-2 3,-4 4,-6 1,-3 2,-5 2,-7 0,-1 -1,-2 -1,-3 0,0 0,0 -1,0 0,0 0,1 0,1 0,0 0,1 0,2 0,2 0,4 -1,6 -1,2 -2,5 -4,6 0,1 -1,2 -3,3 -5,5 -15,14 -24,22 -5,3 -10,7 -13,10 -2,1 -3,2 -4,3 -1,0 -1,0 -2,1 0,0 0,0 0,0l0 0 0 0 0 0 0 0 0 0 0 0 0 0 0 0 0 0 0 0 0 0 0 0 0 0c0,0 0,-1 -1,-1 -1,-1 -1,-2 -2,-4 -2,-2 -3,-5 -5,-8 0,-1 -1,-2 -1,-2 0,-1 -1,-1 -1,-1l0 0 0 0c0,0 1,0 2,-2 2,-3 8,-13 15,-22 3,-5 6,-9 9,-13 2,-4 5,-6 6,-8 2,-2 5,-4 7,-6 0,0 1,-1 2,-1 0,0 0,0 0,-1 0,0 0,0 0,0 1,0 1,0 1,-1 -1,0 -1,0 -1,0z"/>
   <path class="fil4" d="M306 511c0,0 7,17 9,19 2,2 10,1 13,-1 3,-2 2,-6 2,-6 0,0 -10,-19 -12,-20 -1,-1 -1,1 -6,3 -5,1 -7,2 -6,5z"/>
   <path class="fil3" d="M306 511l-1 0c0,0 2,5 4,9 1,3 2,5 3,7 1,1 1,2 1,2 1,1 1,1 1,2 1,0 1,0 2,1 1,0 2,0 3,0 1,0 3,0 5,-1 2,0 3,-1 4,-2 2,0 2,-2 3,-3 0,-1 0,-2 0,-3 0,0 0,0 0,0l0 -1c0,0 -3,-4 -6,-9 -1,-3 -3,-5 -4,-7 0,-1 -1,-2 -1,-3 0,0 -1,0 -1,0 0,-1 0,-1 0,-1 0,0 -1,0 -1,0 -1,0 -1,0 -1,0 -1,1 -1,1 -2,1 -1,1 -2,1 -3,2 -2,1 -4,1 -5,2 -1,0 -1,1 -1,1 -1,0 -1,1 -1,2 0,0 0,1 0,1l0 0 1 0 1 0c0,-1 -1,-1 -1,-1 0,-1 1,-1 1,-1 0,-1 1,-1 1,-2 1,0 3,0 4,-1 2,-1 4,-1 4,-2 1,0 1,-1 1,-1 1,0 1,0 1,0 0,0 0,0 0,0l0 0 0 0 0 0 0 0 0 0 0 0c0,0 0,1 1,1 1,3 4,7 6,11 2,2 3,4 3,6 1,1 2,2 2,2l0 0 0 0 0 0c0,0 0,0 0,0 0,1 0,2 -1,3 0,1 -1,2 -1,2 -1,1 -3,2 -4,2 -2,0 -4,1 -5,1 -1,0 -2,0 -3,-1 0,0 0,0 -1,0 0,0 0,-1 0,-1 -2,-3 -4,-7 -5,-11 -1,-2 -2,-4 -2,-5 -1,-1 -1,-2 -1,-2l-1 0 1 0 -1 0z"/>
   <path class="fil4" d="M318 408c0,0 -1,7 0,9 2,2 5,4 5,7 0,3 -2,7 -2,9 1,2 5,2 5,2 0,0 7,9 9,12 2,3 3,2 6,1 3,-1 10,-7 14,-12 4,-5 -2,-19 -11,-29 -9,-9 -21,-9 -24,-6 -3,3 -2,7 -2,7z"/>
   <path class="fil1" d="M336 402c-1,5 -2,14 1,20 5,9 9,14 6,22 0,1 -1,2 -1,3 2,0 4,-2 7,-5l0 0 0 0 0 0 0 0 0 0 1 0 0 0 0 -1 0 0 0 0 0 0 0 0 0 0 1 0 0 0 0 0 0 -1 0 0 0 0 0 0 0 0 0 0 1 0 0 0 0 0 0 0 0 -1 0 0 0 0 0 0 1 0 0 0 0 0 0 0 0 -1 0 0 0 0 0 0 0 0 0 0 1 0 0 0 0 -1 0 0 0 0 0 0 0 0 0 0 1 0 0 0 0 0 0 0 0 -1 0 0 0 0 0 0 0 0c4,-5 -2,-19 -11,-29 0,0 0,0 0,0l0 0c0,0 -1,0 -1,0l0 -1 0 0 0 0 0 0 0 0c-2,-2 -5,-3 -7,-4z"/>
   <g>
    <path class="fil12" d="M342 447c0,-1 1,-2 1,-3 1,-2 1,-4 1,-5 0,-5 -3,-10 -7,-17 -1,-3 -2,-7 -2,-11 0,-3 1,-7 1,-9 2,1 5,2 7,4l0 0 0 0 0 0 0 0 0 1c0,0 1,0 1,0l0 0c0,0 0,0 0,0l0 0 0 0c0,1 0,1 0,1l1 0 0 0 0 0 0 1 0 0 1 0 0 0 0 0 0 0 0 1 0 0 0 0 1 0 0 1 0 0c0,0 0,0 1,1l0 0 0 0 0 0 0 1 0 0 1 0 0 0 0 0 0 1 0 0 0 0 0 0 1 1 0 0 0 0 0 0 0 0 0 1 0 0 1 0 0 0 0 1 0 0 0 0 0 0 0 0 1 1 0 0 0 0 0 0c0,1 0,1 0,1l1 0 0 1 0 0 0 0 0 0 0 1 0 0 1 0 0 1 0 0 0 0 0 0 0 0 0 1 0 0 0 0 0 0 1 1 0 0 0 0 0 0 0 1 0 0c0,0 0,0 0,0l0 0 0 0 0 0 0 1 0 0 0 0 0 0 1 0 0 0 0 1 0 0 0 0 0 0 0 0 0 1 0 0 0 0 0 0c0,0 0,1 0,1l0 0 0 0 0 0 0 0 0 1 0 0 0 0 0 0 0 1 0 0 0 0 0 0 1 0 0 0c0,1 0,1 0,1l0 0 0 0c0,0 0,0 0,0l0 0c0,0 -1,1 -1,1l0 0c0,0 0,0 0,0l0 0c0,0 0,0 0,0l0 0c0,1 0,1 0,1l0 0 0 0c0,0 0,0 0,0l0 0 0 0 0 0 -14 13zm2 -40l0 0c0,0 0,0 0,0 0,0 0,0 0,0 0,0 0,0 0,0 0,0 0,0 0,0l0 0zm0 0l0 0zm12 27l0 0c0,1 0,1 0,1l0 0c0,0 0,0 0,0l0 0c0,0 0,0 0,0l0 0c0,1 0,1 0,1l0 0 0 0c-1,0 -1,0 -1,0l0 0 0 0 0 0 0 0 0 0 0 0 0 0 0 0 0 0 0 0 0 0 0 0 0 0 0 1 0 0 0 0 0 0 0 0 0 0 0 0 0 0 -1 0 0 0 0 0 0 0 0 0 0 0 0 0 0 0 0 0 0 0 0 0 0 0 0 0 0 1 0 0 0 0 0 0 0 0 0 0 0 0 -1 0 0 0 0 0 0 0 0 0 0 0 0 0 0 0 0 0 0 0 0 0 0 0 0 0 0 1 0 0 0 0 0 0 0 0 0 0 0 0 0 0 0 0 0 0 -1 0 0 0 0 0 0 0 0 0 0 0 0 0 0 0 0 0 0 0 0 0 0 0 0 0 0 0 0 1 0 0 0 0 0 0 0 0 0 0 -1 0 0 0 0 0 0 0 0 0 0 0 0 0 0 1 0 0 0 0 -1 0 0 0 0 0 0 0 0 0 0 0 0 0 0 1 0 0 0 0 -1 0 0 0 0 0 0 0 0 0 0 0 0 0 0 0 -1 1 0 0 0 0 0 0c-3,2 -5,4 -6,4l14 -13z"/>
   </g>
   <path class="fil3" d="M324 418l0 0c-1,0 0,0 0,-1 0,0 0,0 0,0 0,0 0,0 1,0 0,0 1,0 2,1 0,0 0,0 1,-1 0,0 0,0 -1,-1 -1,0 -2,-1 -2,-1 -1,0 -1,1 -2,1 0,0 -1,1 -1,1 0,1 0,1 0,1 0,0 0,1 1,1 0,0 1,-1 1,-1z"/>
   <path class="fil3" d="M325 421l1 4c0,0 0,0 0,0 0,0 1,0 1,0 1,0 1,0 2,0 1,-1 2,-1 2,-3 1,0 0,0 0,0 0,-1 -1,0 -1,0 0,1 -1,1 -1,2 -1,0 -1,0 -2,0 0,0 0,0 0,0l0 0 0 0 0 0 0 0 0 0 0 0 0 0 -1 1 1 -1 -1 -3c0,0 0,0 0,0 -1,0 -1,0 -1,0z"/>
   <path class="fil3" d="M318 408l-1 0c0,0 0,1 0,3 0,1 0,2 0,3 0,2 0,3 1,3 0,1 2,3 3,4 0,0 0,1 1,1 0,1 0,1 0,2 0,1 0,2 -1,4 0,1 -1,2 -1,4 0,0 0,0 1,1 0,1 0,1 1,1 1,1 2,1 2,1 1,1 2,1 2,1l0 -1 -1 0c0,0 1,1 1,2 2,2 7,8 8,10 1,1 1,1 2,2 0,0 1,0 1,0 2,0 3,0 4,-1 1,0 2,-1 3,-1 4,-3 9,-7 12,-11 1,-1 1,-2 1,-4 0,-3 -1,-8 -4,-12 -2,-5 -5,-9 -8,-13 -6,-6 -13,-9 -19,-9 -1,0 -3,1 -4,1 -1,0 -2,1 -3,1 -2,2 -2,5 -2,7 0,1 0,1 0,1l1 0 -1 0 1 0 0 0 0 0c0,0 0,-1 0,-1 0,-2 1,-4 2,-6 1,0 1,0 2,-1 1,0 3,0 4,0 5,0 12,2 18,8 3,4 6,8 8,12 3,5 4,9 4,12 0,1 0,3 -1,3 -2,3 -5,5 -7,8 -2,1 -3,2 -4,2 -1,1 -2,2 -3,2 -2,0 -3,1 -4,1 0,0 0,0 0,0 -1,-1 -1,-1 -2,-2 -1,-1 -3,-4 -5,-7 -2,-2 -4,-4 -4,-4 0,-1 0,-1 0,-1l0 0c-1,0 -2,0 -2,0 -1,0 -1,-1 -2,-1 0,0 0,0 0,-1 0,0 0,0 0,0 0,-1 0,-2 1,-4 0,-1 0,-3 1,-4 0,-1 -1,-2 -1,-2 -1,-1 -1,-2 -2,-3 -1,-1 -2,-2 -2,-2 0,-1 0,-2 -1,-3 0,-1 0,-2 0,-3 0,-1 0,-1 0,-2 0,-1 0,-1 0,-1l0 0 0 0z"/>
   <path class="fil3" d="M310 398l0 1 0 11 13 2 2 -5 0 5c0,0 6,0 12,2 6,2 14,19 13,26 0,6 -6,8 -5,18 0,10 16,21 28,14 12,-6 14,-15 19,-13 4,1 12,11 17,-3 4,-14 2,-23 -9,-35 -11,-12 -19,-11 -21,-20 -1,-9 -4,-22 -14,-29 -10,-7 -25,-7 -37,-2 -13,5 -18,22 -18,28z"/>
   <path class="fil14" d="M317 403l0 0c-1,0 -1,-3 -1,-8 0,-2 -1,-3 -1,-4 0,-1 0,-1 0,-1 -1,2 -3,7 -5,12l0 -3 0 -1c0,0 0,0 0,-1 4,-9 5,-8 6,-8 1,0 1,1 1,1 0,2 0,3 0,5 0,2 0,6 1,7 0,0 0,-1 1,-3 1,-2 3,-4 4,-3 1,0 2,2 3,3 0,1 0,1 0,1 1,0 3,-2 4,-3 0,0 1,0 1,-1 1,0 1,-1 2,-1 1,0 1,1 1,2 1,0 1,1 2,2 0,0 0,0 1,0 1,0 2,-3 3,-6 0,0 1,-1 1,-2 0,-1 1,-2 2,-2 1,0 2,2 3,5 0,3 1,5 2,7 1,0 1,1 1,0 1,0 3,-3 3,-5 1,-1 1,-2 1,-2 1,-1 1,-1 1,-1 1,0 2,1 3,3 1,1 2,3 2,4 1,0 1,0 1,0 0,-1 1,-2 1,-4 0,-1 1,-3 2,-4 0,-1 1,-1 1,-1 2,-1 4,1 5,2 0,-1 0,-2 0,-2 -1,-5 -1,-7 0,-8 1,0 1,0 2,1 1,1 2,2 3,3 1,1 2,2 3,3 0,1 0,2 0,3 -1,-2 -2,-3 -4,-5 -1,-1 -2,-2 -3,-3 0,0 0,0 0,0 0,0 0,4 0,5 1,3 1,4 0,5 0,0 0,0 -1,0 0,-1 0,-1 0,-1 -1,-1 -3,-2 -4,-2 -1,0 -1,0 -1,1 -1,1 -1,2 -2,4 0,2 -1,3 -2,4 0,0 0,0 -1,0 -1,-1 -2,-2 -3,-4 -1,-1 -1,-2 -2,-3l0 0c0,1 0,2 -1,3 -1,2 -2,5 -3,6 -1,0 -2,-1 -3,-1 -1,-2 -2,-5 -3,-7 0,-2 -1,-4 -1,-4 0,0 0,0 -1,1 0,0 0,1 -1,2 -1,4 -3,6 -4,6 -1,1 -1,0 -2,0 -1,-1 -1,-2 -2,-3 0,0 0,0 0,0 0,0 -1,0 -1,0 0,0 -1,1 -1,1 -2,2 -4,4 -5,4 0,0 -1,-1 -1,-1 0,0 0,-1 0,-1 -1,-1 -2,-3 -2,-3 0,0 -1,0 -3,3 -1,2 -2,3 -3,3z"/>
   <path class="fil14" d="M345 456c0,-1 0,-3 1,-5 1,-1 1,-2 2,-2 0,-1 0,-1 0,-1 1,0 1,0 1,0 0,0 0,0 1,0 1,1 2,2 3,3 0,1 1,1 2,1 1,0 1,0 1,-1 1,0 1,-1 1,-1 0,-1 0,-3 0,-4 0,0 0,-1 0,-1l1 0 -1 0 1 0 0 0 -1 0 1 0 -1 0 0 0 1 0 -1 0 0 0 0 0 0 0 0 0 0 0 0 0c0,0 1,0 1,0 0,1 1,1 1,1 1,2 3,3 4,5 2,1 4,1 5,1 1,0 2,0 3,-1 1,0 1,-1 1,-3 0,-3 1,-6 1,-8 0,-1 1,-2 1,-3 0,0 0,0 0,-1 1,0 1,0 1,0 0,0 0,0 0,0 1,1 1,1 1,1 2,2 3,4 4,5 1,1 1,1 2,1 0,1 1,1 2,1 0,0 0,0 0,0 1,-1 1,-1 1,-1 0,-1 0,-2 1,-2 0,-1 0,-1 1,-1 0,0 0,0 0,0 0,0 1,1 1,1 0,1 0,2 1,2 0,1 0,1 0,1 0,0 0,0 1,0 0,1 0,1 0,1 0,0 0,0 1,0 0,-1 0,-1 0,-1 0,-1 1,-2 1,-4 0,-1 0,-2 0,-2 0,-2 0,-4 0,-6 -1,-1 -1,-3 -1,-3 0,-1 0,-1 0,-1l0 0 0 0c1,0 1,0 1,0 2,1 3,2 4,3 1,1 1,1 2,2 0,0 0,0 0,0 0,0 0,0 1,0 0,0 0,0 0,0 1,0 1,0 1,0 0,-1 0,-1 0,-1 0,-2 -1,-3 -2,-4 0,0 0,-1 -1,-1 0,0 0,-1 0,-1l0 0 0 0 0 0 0 0 0 0 0 0 0 0 0 0 0 0 0 0 0 0 0 0 0 0 0 0 0 0 0 0 0 0 0 0 0 0 0 0 0 0 0 0 0 0c0,0 1,0 1,1 2,0 3,1 4,1 0,1 1,1 1,1 0,0 0,0 0,0 1,0 1,0 1,0 0,0 0,0 0,0 1,0 1,0 1,0 0,0 0,0 0,-1 0,0 0,0 0,0 0,-1 0,-1 0,-1 -1,-1 -1,-2 -2,-3 0,1 0,2 0,2 1,1 1,1 1,2 0,0 0,0 0,0l0 0 0 0 0 0 0 0 0 0 0 0 0 0 0 1 0 -1 0 0 0 1 0 -1 0 0 0 0 0 0 0 0 0 0 0 0 0 0 0 0 0 0c0,0 0,0 0,0 -1,-1 -3,-2 -5,-3 -1,0 -1,0 -2,0 0,0 0,0 -1,0 0,0 0,0 0,1 0,0 0,0 0,0 0,0 0,1 0,1 0,0 1,1 1,2 1,1 1,2 1,3 0,0 0,0 0,0l0 0 1 1 -1 -1 0 0 1 1 -1 -1 1 1 0 -1 -1 0 1 1 0 -1 0 0 0 0 0 0 0 0 0 0 0 0c0,0 0,0 -1,-1 -1,-1 -3,-3 -5,-4 -1,0 -1,-1 -2,-1 0,0 0,0 0,1 -1,0 -1,0 -1,0 0,1 0,1 0,2 0,1 0,2 0,4 1,1 1,3 1,5 0,0 0,1 0,2 -1,1 -1,2 -1,3 0,0 0,0 0,0l0 0 0 1 0 -1 0 0 0 1 0 -1 0 1 0 -1 0 0 0 1 0 -1 0 1 0 -1 0 0 0 1 0 -1 0 0 0 0 0 0 0 0 0 0c0,0 0,0 0,0 0,0 -1,-1 -1,-2 0,-1 -1,-2 -1,-2 0,0 -1,0 -1,0 -1,0 -2,0 -2,1 -1,1 -1,1 -1,2 0,1 -1,1 -1,1l1 0 -1 0 0 0 1 0 -1 0 1 0 0 0 -1 0 1 0 0 0 0 0 0 0 0 0 0 0 0 0c-1,0 -1,0 -1,-1 -2,0 -4,-3 -6,-6 0,0 -1,0 -1,-1 0,0 -1,0 -1,0 -1,0 -1,0 -1,0 -1,1 -1,2 -2,3 -1,2 -1,6 -1,10 0,1 -1,2 -1,2 -1,1 -1,1 -2,1 -1,0 -2,-1 -4,-2 -2,-1 -3,-2 -4,-3 0,-1 -1,-1 -1,-2 -1,0 -1,0 -2,0 0,0 0,0 0,0 -1,0 -1,1 -1,1 0,1 0,1 0,2 0,1 0,2 0,3 0,0 -1,1 -1,1 0,0 0,0 0,0 0,0 -1,0 -2,-1 0,-1 -1,-1 -2,-3 -1,0 -1,-1 -2,-1 -1,0 -1,1 -1,1 -1,0 -1,0 -1,1 -1,2 -2,4 -2,8z"/>
   <path class="fil3" d="M310 398l0 0 0 1 0 0 -1 11c0,0 1,1 1,1l13 1c0,0 0,0 0,0l2 -3 0 3c0,0 0,1 0,1 0,0 0,0 0,0l1 0c0,0 1,0 1,0 2,0 6,0 10,2 1,0 2,1 4,3 2,3 4,7 6,11 2,4 3,8 3,10 0,0 0,0 0,1 -1,3 -2,4 -3,7 -2,2 -3,5 -3,9 0,1 0,2 0,2 0,4 3,9 7,12 4,3 9,5 14,5 3,0 5,-1 8,-2 6,-3 9,-7 12,-9 1,-2 2,-3 3,-4 1,0 2,-1 2,-1 1,0 1,0 1,0 2,1 3,2 5,3 2,1 4,2 6,2 1,0 3,0 4,-1 1,-2 2,-4 3,-7 2,-4 3,-8 3,-12 0,-9 -4,-15 -11,-23 -6,-6 -11,-9 -15,-11 -1,-2 -3,-3 -4,-4 -1,-1 -2,-3 -2,-5 -1,-5 -2,-10 -4,-16 -2,-5 -6,-10 -11,-13 -6,-4 -13,-6 -20,-6 -6,0 -12,1 -18,3 -6,3 -10,9 -13,14 -3,6 -4,12 -4,15l0 0 0 0 0 0 1 0c0,-3 1,-9 4,-14 3,-6 7,-11 13,-13 5,-3 11,-4 17,-4 7,0 14,2 19,6 5,3 8,8 11,13 2,5 3,11 4,15 0,3 1,4 2,6 2,2 5,4 8,6 3,2 7,4 11,9 7,7 10,14 10,22 0,3 0,7 -2,12 -1,3 -2,5 -3,6 -1,1 -2,1 -3,1 -2,0 -3,-1 -5,-2 -2,-1 -4,-2 -5,-3 -1,0 -1,0 -2,0 -1,0 -2,0 -3,1 -2,2 -3,4 -5,6 -3,2 -5,4 -9,7 -3,1 -6,2 -8,2 -5,0 -10,-2 -13,-5 -4,-3 -7,-7 -7,-11 0,-1 0,-1 0,-2 0,-4 1,-6 3,-9 1,-2 3,-4 3,-7 0,-1 0,-1 0,-1 0,-2 -1,-4 -1,-7 -2,-4 -4,-8 -6,-11 -1,-2 -2,-4 -3,-5 -1,-1 -3,-2 -4,-3 -4,-1 -7,-1 -10,-1 -1,0 -2,0 -2,0l0 0 1 0 0 -5c0,0 0,-1 0,-1 -1,0 -1,0 -1,1l-3 4 -11 -1 0 -11 0 0 0 -1 0 0 -1 0z"/>
   <polygon class="fil3" points="38,752 521,752 521,750 38,750 "/>
  </g>
 </g>
</svg>
