<?xml version="1.0" encoding="UTF-8"?>
<!DOCTYPE svg PUBLIC "-//W3C//DTD SVG 1.1//EN" "http://www.w3.org/Graphics/SVG/1.1/DTD/svg11.dtd">
<!-- Creator: CorelDRAW X7 -->
<svg xmlns="http://www.w3.org/2000/svg" xml:space="preserve" width="1475px" height="1688px" version="1.1" style="shape-rendering:geometricPrecision; text-rendering:geometricPrecision; image-rendering:optimizeQuality; fill-rule:evenodd; clip-rule:evenodd"
viewBox="0 0 1475 1688"
 xmlns:xlink="http://www.w3.org/1999/xlink">
 <defs>
  <style type="text/css">
   <![CDATA[
    .fil240 {fill:#0A0F47}
    .fil7 {fill:#0A114E}
    .fil8 {fill:#142184}
    .fil6 {fill:#17237F}
    .fil11 {fill:#231F20}
    .fil2 {fill:#2897D8}
    .fil1 {fill:#35A8E0}
    .fil241 {fill:#3D00C7}
    .fil0 {fill:#42B8E8}
    .fil229 {fill:#6F10C2}
    .fil228 {fill:#7110C2}
    .fil227 {fill:#7311C1}
    .fil226 {fill:#7411C1}
    .fil225 {fill:#7611C1}
    .fil224 {fill:#7712C1}
    .fil223 {fill:#7912C1}
    .fil222 {fill:#7A13C1}
    .fil221 {fill:#7C13C1}
    .fil220 {fill:#7E14C0}
    .fil219 {fill:#7F14C0}
    .fil218 {fill:#8115C0}
    .fil217 {fill:#8215C0}
    .fil216 {fill:#8416C0}
    .fil215 {fill:#8516C0}
    .fil214 {fill:#8717C0}
    .fil213 {fill:#8817BF}
    .fil212 {fill:#8A18BF}
    .fil211 {fill:#8C18BF}
    .fil210 {fill:#8D19BF}
    .fil209 {fill:#8F19BF}
    .fil208 {fill:#901ABF}
    .fil207 {fill:#921ABF}
    .fil206 {fill:#931BBE}
    .fil205 {fill:#951BBE}
    .fil204 {fill:#961CBE}
    .fil203 {fill:#981CBE}
    .fil202 {fill:#991DBE}
    .fil201 {fill:#9B1DBE}
    .fil200 {fill:#9C1EBE}
    .fil199 {fill:#9E1EBD}
    .fil198 {fill:#9F1FBD}
    .fil197 {fill:#A11FBD}
    .fil196 {fill:#A320BD}
    .fil195 {fill:#A420BD}
    .fil194 {fill:#A621BD}
    .fil10 {fill:#A6A8A8}
    .fil193 {fill:#A721BD}
    .fil192 {fill:#A921BC}
    .fil191 {fill:#AA22BC}
    .fil190 {fill:#AC22BC}
    .fil189 {fill:#AD23BC}
    .fil188 {fill:#AF23BC}
    .fil187 {fill:#B024BC}
    .fil186 {fill:#B224BC}
    .fil185 {fill:#B325BB}
    .fil184 {fill:#B525BB}
    .fil183 {fill:#B626BB}
    .fil182 {fill:#B826BB}
    .fil181 {fill:#B927BB}
    .fil180 {fill:#BB27BB}
    .fil179 {fill:#BC28BB}
    .fil178 {fill:#BE28BB}
    .fil177 {fill:#BF29BA}
    .fil176 {fill:#C129BA}
    .fil175 {fill:#C229BA}
    .fil174 {fill:#C32ABA}
    .fil173 {fill:#C52ABA}
    .fil172 {fill:#C62BBA}
    .fil171 {fill:#C82BBA}
    .fil170 {fill:#C92CB9}
    .fil169 {fill:#CB2CB9}
    .fil168 {fill:#CC2DB9}
    .fil167 {fill:#CE2DB9}
    .fil166 {fill:#CF2EB9}
    .fil165 {fill:#D12EB9}
    .fil164 {fill:#D22FB9}
    .fil163 {fill:#D32FB8}
    .fil162 {fill:#D52FB8}
    .fil161 {fill:#D630B8}
    .fil160 {fill:#D830B8}
    .fil159 {fill:#D931B8}
    .fil233 {fill:#DB067A}
    .fil158 {fill:#DB31B8}
    .fil157 {fill:#DC32B8}
    .fil156 {fill:#DD32B8}
    .fil155 {fill:#DF33B7}
    .fil154 {fill:#E033B7}
    .fil153 {fill:#E233B7}
    .fil152 {fill:#E334B7}
    .fil151 {fill:#E434B7}
    .fil150 {fill:#E635B7}
    .fil149 {fill:#E735B7}
    .fil148 {fill:#E836B7}
    .fil147 {fill:#EA36B6}
    .fil146 {fill:#EB36B6}
    .fil145 {fill:#ED37B6}
    .fil239 {fill:#ED87B3}
    .fil144 {fill:#EE37B6}
    .fil143 {fill:#EF38B6}
    .fil238 {fill:#F093BC}
    .fil142 {fill:#F138B6}
    .fil141 {fill:#F239B6}
    .fil234 {fill:#F29FC5}
    .fil140 {fill:#F339B6}
    .fil139 {fill:#F439B5}
    .fil138 {fill:#F63AB5}
    .fil137 {fill:#F73AB5}
    .fil136 {fill:#F83BB5}
    .fil135 {fill:#F93BB5}
    .fil134 {fill:#FB3BB5}
    .fil133 {fill:#FC3CB5}
    .fil132 {fill:#FD3CB5}
    .fil235 {fill:#FDFEFF}
    .fil131 {fill:#FE3CB5}
    .fil9 {fill:#FEFEFE}
    .fil130 {fill:#FF3DB4}
    .fil242 {fill:#FF3DB5}
    .fil128 {fill:#FF3EB2}
    .fil129 {fill:#FF3EB3}
    .fil127 {fill:#FF3FB1}
    .fil126 {fill:#FF40B0}
    .fil125 {fill:#FF41AF}
    .fil124 {fill:#FF42AE}
    .fil231 {fill:#FF43AC}
    .fil123 {fill:#FF43AD}
    .fil121 {fill:#FF44AB}
    .fil122 {fill:#FF44AC}
    .fil120 {fill:#FF45AA}
    .fil119 {fill:#FF46A9}
    .fil117 {fill:#FF47A7}
    .fil118 {fill:#FF47A8}
    .fil116 {fill:#FF48A6}
    .fil230 {fill:#FF48A7}
    .fil115 {fill:#FF49A5}
    .fil113 {fill:#FF4AA3}
    .fil114 {fill:#FF4AA4}
    .fil112 {fill:#FF4BA3}
    .fil111 {fill:#FF4CA2}
    .fil109 {fill:#FF4DA0}
    .fil110 {fill:#FF4DA1}
    .fil108 {fill:#FF4E9F}
    .fil107 {fill:#FF4F9E}
    .fil105 {fill:#FF509C}
    .fil106 {fill:#FF509D}
    .fil104 {fill:#FF519B}
    .fil103 {fill:#FF529A}
    .fil101 {fill:#FF5398}
    .fil102 {fill:#FF5399}
    .fil100 {fill:#FF5497}
    .fil99 {fill:#FF5597}
    .fil97 {fill:#FF5695}
    .fil98 {fill:#FF5696}
    .fil96 {fill:#FF5794}
    .fil95 {fill:#FF5893}
    .fil93 {fill:#FF5991}
    .fil94 {fill:#FF5992}
    .fil92 {fill:#FF5A90}
    .fil91 {fill:#FF5B8F}
    .fil89 {fill:#FF5C8D}
    .fil90 {fill:#FF5C8E}
    .fil88 {fill:#FF5D8C}
    .fil87 {fill:#FF5E8B}
    .fil85 {fill:#FF5F8A}
    .fil86 {fill:#FF5F8B}
    .fil84 {fill:#FF6089}
    .fil83 {fill:#FF6188}
    .fil81 {fill:#FF6286}
    .fil82 {fill:#FF6287}
    .fil80 {fill:#FF6385}
    .fil79 {fill:#FF6484}
    .fil77 {fill:#FF6582}
    .fil78 {fill:#FF6583}
    .fil76 {fill:#FF6681}
    .fil75 {fill:#FF6780}
    .fil73 {fill:#FF687F}
    .fil74 {fill:#FF6880}
    .fil72 {fill:#FF697E}
    .fil71 {fill:#FF6A7D}
    .fil69 {fill:#FF6B7B}
    .fil70 {fill:#FF6B7C}
    .fil68 {fill:#FF6C7A}
    .fil67 {fill:#FF6D79}
    .fil65 {fill:#FF6E77}
    .fil66 {fill:#FF6E78}
    .fil64 {fill:#FF6F76}
    .fil63 {fill:#FF7075}
    .fil62 {fill:#FF7174}
    .fil61 {fill:#FF7273}
    .fil60 {fill:#FF7372}
    .fil58 {fill:#FF7470}
    .fil59 {fill:#FF7471}
    .fil57 {fill:#FF756F}
    .fil56 {fill:#FF766E}
    .fil54 {fill:#FF776C}
    .fil55 {fill:#FF776D}
    .fil53 {fill:#FF786B}
    .fil52 {fill:#FF796A}
    .fil50 {fill:#FF7A68}
    .fil51 {fill:#FF7A69}
    .fil49 {fill:#FF7B68}
    .fil48 {fill:#FF7C67}
    .fil46 {fill:#FF7D65}
    .fil47 {fill:#FF7D66}
    .fil45 {fill:#FF7E64}
    .fil44 {fill:#FF7F63}
    .fil42 {fill:#FF8061}
    .fil43 {fill:#FF8062}
    .fil41 {fill:#FF8160}
    .fil40 {fill:#FF825F}
    .fil38 {fill:#FF835D}
    .fil39 {fill:#FF835E}
    .fil37 {fill:#FF845C}
    .fil36 {fill:#FF855C}
    .fil34 {fill:#FF865A}
    .fil35 {fill:#FF865B}
    .fil33 {fill:#FF8759}
    .fil32 {fill:#FF8858}
    .fil30 {fill:#FF8956}
    .fil31 {fill:#FF8957}
    .fil29 {fill:#FF8A55}
    .fil28 {fill:#FF8B54}
    .fil26 {fill:#FF8C52}
    .fil27 {fill:#FF8C53}
    .fil25 {fill:#FF8D51}
    .fil24 {fill:#FF8E50}
    .fil22 {fill:#FF8F4F}
    .fil23 {fill:#FF8F50}
    .fil21 {fill:#FF904E}
    .fil20 {fill:#FF914D}
    .fil18 {fill:#FF924B}
    .fil19 {fill:#FF924C}
    .fil17 {fill:#FF934A}
    .fil16 {fill:#FF9449}
    .fil14 {fill:#FF9547}
    .fil15 {fill:#FF9548}
    .fil13 {fill:#FF9646}
    .fil12 {fill:#FF9745}
    .fil3 {fill:#FF9845}
    .fil4 {fill:#FFB070}
    .fil5 {fill:#FFC291}
    .fil236 {fill:#FFFCFD}
    .fil237 {fill:#FFFEFE}
    .fil232 {fill:white}
   ]]>
  </style>
 </defs>
 <g id="Capa_x0020_1">
  <metadata id="CorelCorpID_0Corel-Layer"/>
  <g id="_2283816397856">
   <path class="fil0" d="M1232 1267c-6,-6 -9,-19 -3,-25 3,-3 9,-3 15,-6 4,0 10,0 13,-3 -9,12 -16,25 -25,34l0 0zm-641 -87c0,-3 -3,-10 -6,-13 -3,-12 -6,-25 -6,-37 -3,-13 -6,-22 -9,-35 -4,-9 -7,-18 -16,-25 -3,0 -6,-3 -13,-3 -6,0 -15,6 -21,10 -10,-4 -16,-7 -25,-7 -7,0 -13,3 -19,7 -6,3 -13,12 -22,15 -3,3 -9,3 -13,3 -6,0 -12,0 -15,-6 -3,-3 -3,-9 -3,-16 0,-31 -3,-62 -13,-90 -6,-16 -12,-35 -28,-38 -3,-3 -6,-3 -9,-3 -10,0 -19,6 -28,13 -10,9 -19,18 -32,25 -6,0 -12,3 -15,3 -13,0 -25,-6 -35,-13 3,0 3,0 7,0 12,-3 21,-6 34,-12 6,0 12,-3 19,-3l6 -3 9 -7 10 -6 6 -9 3 -10c3,-6 6,-9 9,-15 4,-7 7,-13 7,-16l18 41 63 -10 50 -6 3 -81 0 -41c0,-19 -9,-37 -25,-40 -3,0 -12,0 -22,0 10,-13 16,-22 22,-32 0,-3 3,-6 3,-6 6,-9 10,-16 13,-25 3,-3 3,-3 6,-3 3,-3 3,-6 6,-13 0,-3 0,-3 0,-6 0,-3 -3,-6 -3,-9 0,0 -3,-3 -3,-3 0,-13 -3,-22 -6,-32 -10,-37 -35,-68 -72,-74 -6,0 -10,0 -13,0 -28,0 -62,15 -72,43 -3,-3 -6,-3 -9,-3 -19,0 -34,22 -37,41 -4,18 9,37 -4,53 -15,19 -34,28 -59,28 -28,3 -59,9 -62,44 -7,34 18,75 50,87 15,6 31,10 50,10 18,0 37,-4 53,-7 6,-3 12,-3 15,-6 0,6 0,9 -3,16 -3,9 -6,22 -9,34 -3,3 -3,9 -6,16l-4 6 0 3 0 0 -9 6c-6,3 -9,3 -16,7 -12,6 -21,12 -31,15 -3,3 -6,3 -9,3 -3,3 -6,3 -10,3 0,0 0,0 0,0 -12,-12 -18,-31 -28,-46 -9,-19 -22,-38 -31,-54 -12,-15 -25,-31 -44,-34 -3,0 -3,0 -6,0 -19,0 -37,13 -47,28 16,-328 297,-590 644,-590 56,0 109,9 162,22l-218 0c-44,0 -82,34 -82,78l0 828 0 0zm-453 -53c-12,-29 -25,-57 -31,-88 0,3 3,6 3,9 13,13 22,29 28,44 3,10 3,22 0,35l0 0zm1185 -7c-4,-3 -7,-9 -10,-12 -12,-19 -6,-47 6,-66 13,-15 29,-28 41,-40 -6,40 -19,81 -37,118zm-135 -175l0 -506c110,106 178,250 188,409 -10,0 -16,0 -22,0 -22,0 -47,7 -66,16 -34,13 -59,34 -84,63 -3,6 -10,12 -16,18l0 0z"/>
   <path class="fil1" d="M1288 1408c0,34 -250,59 -559,59 -309,0 -559,-25 -559,-59 0,-31 250,-56 559,-56 309,0 559,25 559,56z"/>
   <path class="fil2" d="M729 1467c-309,0 -559,-25 -559,-59 0,-10 31,-22 84,-31 37,18 78,25 116,25 12,0 25,0 37,0 13,-4 25,-7 34,-13 13,-6 22,-19 22,-31l3 9c0,0 4,0 7,0 6,0 9,-3 15,-6 3,3 3,6 7,9 21,28 56,50 93,60 7,0 10,0 16,0 0,0 3,0 6,0 6,-3 13,-7 16,-13l0 6c3,0 3,0 6,0 3,0 6,0 13,-3 0,0 3,-3 6,-3 6,0 12,3 22,3l437 0c25,0 44,-12 59,-28 10,-3 16,-3 25,-6 7,-3 13,-3 16,-6 50,9 78,18 78,28 0,34 -250,59 -559,59l0 0z"/>
   <path class="fil3" d="M463 1358c0,12 -9,25 -22,31 -9,6 -21,9 -34,13 -69,6 -137,-10 -194,-47 -56,-38 -100,-97 -115,-163 -7,-12 -7,-31 3,-40 6,-7 15,-7 25,-13 15,-9 19,-31 12,-47 -6,-15 -15,-31 -28,-44 -19,-28 -34,-59 -44,-93 -6,-35 -3,-69 13,-100 9,-25 34,-44 59,-41 19,3 32,19 44,34 9,16 22,35 31,54 13,18 22,40 38,59 15,16 40,28 62,19 13,-7 22,-16 32,-25 9,-7 25,-13 37,-10 16,3 22,22 28,38 10,28 13,59 13,90 0,7 0,13 3,16 6,9 19,9 28,3 9,-3 16,-12 22,-15 22,-13 47,-4 62,15 13,16 19,41 19,63 6,72 -16,143 -62,200 -10,9 -19,15 -29,12l-3 -9 0 0z"/>
   <path class="fil4" d="M401 1339c-3,0 -3,0 -3,-3 -7,-3 -10,-6 -16,-13 0,0 3,4 3,4 0,0 0,-4 3,-4 0,0 3,0 3,-3 4,3 7,7 13,10 3,3 0,9 -3,9l0 0zm-19 -16c-16,-15 -34,-31 -50,-50 3,0 3,0 3,0 3,-3 0,-9 -3,-9 0,0 0,3 0,3 -3,0 -3,0 -3,3 -19,-22 -34,-40 -53,-62 3,3 3,3 3,3 3,0 3,0 3,-3 0,0 3,0 3,-3 31,40 63,78 100,109 0,3 0,3 -3,3 0,3 0,6 0,6l0 0zm-106 -115c-75,-97 -131,-206 -166,-325 0,-3 3,-6 6,-6 0,0 4,0 4,3 31,115 87,225 159,318 0,4 0,4 -3,4 0,3 0,3 0,6l0 0z"/>
   <path class="fil4" d="M276 1208c0,0 0,0 0,0 0,0 0,0 0,0zm9 -3c-3,0 -3,-3 -6,-7 44,-43 69,-109 69,-171 0,0 3,-4 6,-4 0,0 3,4 3,4 0,65 -28,131 -72,178z"/>
   <path class="fil5" d="M279 1211c0,0 0,0 -3,-3 0,0 0,0 0,0 0,-3 0,-3 0,-6 3,0 3,0 3,-4 3,4 3,7 6,7 0,3 -3,3 -3,3 0,3 0,3 -3,3z"/>
   <path class="fil4" d="M382 1323c0,0 0,0 0,0 0,0 0,0 0,0zm9 -3c-3,0 -3,-3 -6,-6 47,-34 81,-84 97,-144 3,0 3,0 6,0 3,0 3,0 3,3 -18,60 -50,110 -100,147z"/>
   <path class="fil5" d="M385 1327c0,0 -3,-4 -3,-4 0,0 0,0 0,0 0,0 0,-3 0,-6 3,0 3,0 3,-3 3,3 3,6 6,6 0,3 -3,3 -3,3 -3,0 -3,4 -3,4z"/>
   <path class="fil4" d="M295 1286c-13,0 -25,-3 -35,-6 -37,-7 -69,-22 -90,-53 -4,-4 0,-4 3,-4 0,0 3,0 3,0 19,29 47,41 81,47 9,3 25,7 38,7 12,0 25,-4 34,-7 0,0 3,3 3,3 -9,10 -22,13 -37,13l0 0z"/>
   <path class="fil5" d="M332 1273c0,0 -3,-3 -3,-3 0,-3 0,-3 3,-3 0,0 0,-3 0,-3 3,0 6,6 3,9 0,0 0,0 -3,0z"/>
   <path class="fil3" d="M973 1336c-13,0 -25,-6 -32,-16 -9,-9 -15,-22 -18,-31 -22,-66 -22,-137 3,-200 25,-62 72,-116 134,-147 13,-6 28,-12 41,-3 6,3 9,13 18,19 13,12 32,12 47,3 16,-9 28,-22 38,-34 25,-29 50,-50 84,-63 31,-16 66,-22 100,-12 25,6 50,25 50,53 0,15 -9,34 -22,47 -15,15 -31,31 -47,43 -15,16 -37,28 -50,47 -12,19 -18,47 -6,66 10,12 19,19 31,28 10,6 19,19 19,31 -3,16 -15,28 -31,38 -28,12 -56,25 -88,31 -6,3 -12,3 -15,6 -6,10 -3,19 3,28 6,7 16,13 22,19 15,19 9,44 -3,63 -13,18 -35,28 -57,34 -68,19 -146,12 -209,-22 -9,-6 -22,-12 -19,-25l7 -3 0 0z"/>
   <path class="fil4" d="M1188 1023l0 -9c56,-47 116,-91 178,-122 0,-3 3,-3 3,-3 4,0 7,6 4,9 -66,35 -129,79 -185,125l0 0z"/>
   <path class="fil4" d="M1226 1167c-13,0 -25,0 -38,-3l0 -9c13,3 25,3 38,3 18,0 34,0 47,-3 3,0 3,0 3,0 3,0 6,6 0,6 -16,3 -32,6 -50,6l0 0z"/>
   <path class="fil6" d="M585 667l16 0c3,0 6,0 6,-3l0 -194c0,0 -3,-3 -6,-3l-16 0c-3,0 -3,3 -3,3l0 194c0,3 0,3 3,3z"/>
   <path class="fil6" d="M585 773l16 0c3,0 6,0 6,-3l0 -75c0,0 -3,-3 -6,-3l-16 0c-3,0 -3,3 -3,3l0 75c0,3 0,3 3,3z"/>
   <path class="fil7" d="M673 1420l437 0c44,0 78,-37 78,-81l0 -987c0,-44 -34,-78 -78,-78l-437 0c-44,0 -82,34 -82,78l0 987c0,44 38,81 82,81z"/>
   <path class="fil8" d="M1182 370c0,-43 -34,-81 -78,-81l-425 0c-44,0 -78,38 -78,81l0 -12c0,-44 34,-78 78,-78l425 0c44,0 78,34 78,78l0 12z"/>
   <path class="fil8" d="M1104 1414l-425 0c-6,0 -16,-3 -22,-3 6,-3 9,-6 13,-9 3,0 6,0 9,0l425 0c44,0 78,-35 78,-79l0 10c0,44 -34,81 -78,81z"/>
   <path class="fil9" d="M666 1380c-25,0 -46,-22 -46,-47l0 -975c0,-22 18,-41 40,-44l0 -3 0 0c3,0 3,0 6,0l75 0c0,0 4,3 4,3 0,19 12,31 28,31l234 0c16,0 31,-12 31,-31 0,0 0,-3 3,-3l72 0c28,0 47,22 47,47l0 975c0,25 -19,47 -47,47l-447 0 0 0z"/>
   <path class="fil10" d="M713 355l-9 0 -3 -6c0,0 0,0 0,0l-19 0c-3,0 -3,0 -3,0l0 6 -9 0c0,0 -4,0 -4,3l0 25c0,0 4,0 4,0l43 0c0,0 3,0 3,0l0 -25c0,-3 -3,-3 -3,-3l0 0z"/>
   <path class="fil9" d="M698 370c0,4 -3,7 -7,7 -3,0 -9,-3 -9,-7 0,-3 6,-6 9,-6 4,0 7,3 7,6z"/>
   <path class="fil10" d="M695 370c0,4 -4,4 -4,4 -3,0 -3,0 -3,-4 0,-3 0,-3 3,-3 0,0 4,0 4,3z"/>
   <polygon class="fil10" points="620,408 1160,408 "/>
   <polygon class="fil11" points="620,408 1160,408 1160,405 620,405 "/>
   <polygon class="fil10" points="620,1267 1160,1267 "/>
   <polygon class="fil11" points="620,1267 1160,1267 1160,1267 "/>
   <path class="fil10" d="M888 1308l-3 0 0 -3c0,-3 -3,-3 -3,-3l-12 0c-4,0 -7,0 -7,3l0 3 0 0c-6,0 -9,3 -9,9l0 16c0,3 3,9 9,9l25 0c3,0 7,-6 7,-9l0 -16c0,-6 -4,-9 -7,-9z"/>
   <path class="fil10" d="M1001 1311c0,-9 -7,-13 -13,-13 -3,0 -9,0 -9,4 -3,-4 -6,-4 -13,-4 -6,0 -12,4 -12,13 0,3 3,9 6,9l0 0 19 19 15 -19 0 0c4,0 7,-6 7,-9l0 0z"/>
   <path class="fil10" d="M701 1330l15 -13 -37 0 16 13c3,0 3,0 6,0z"/>
   <path class="fil10" d="M701 1298l15 16 -37 0 16 -16c3,0 3,0 6,0z"/>
   <polygon class="fil10" points="716,1339 716,1317 704,1330 "/>
   <polygon class="fil10" points="691,1330 679,1317 679,1339 "/>
   <path class="fil10" d="M716 1342l-12 -12 -3 0c0,3 -3,3 -3,3 0,0 -3,0 -3,-3l-4 0 -12 12 37 0z"/>
   <line class="fil10" x1="676" y1="1314" x2="676" y2= "1314" />
   <line class="fil10" x1="720" y1="1314" x2="720" y2= "1314" />
   <path class="fil10" d="M720 1314l0 0 -4 3 0 25 4 0 0 0c0,0 0,0 -4,0l-40 0c0,0 0,0 0,0l0 0 0 0 0 -25 0 -3 0 0 0 0 0 28c0,0 0,0 0,0l40 0c4,0 4,0 4,0l0 -28 0 0z"/>
   <polygon class="fil10" points="679,1317 676,1317 676,1342 679,1339 "/>
   <polygon class="fil10" points="716,1339 716,1342 716,1317 716,1317 "/>
   <polygon class="fil10" points="716,1314 720,1314 "/>
   <polygon class="fil10" points="720,1314 720,1314 "/>
   <line class="fil10" x1="676" y1="1314" x2="676" y2= "1314" />
   <polygon class="fil10" points="676,1314 676,1314 "/>
   <path class="fil10" d="M691 1330l0 0c4,0 4,0 0,0l0 0 4 0c0,3 3,3 3,3 0,0 3,0 3,-3l3 0 -3 0c0,0 0,0 0,0 3,-3 3,-3 3,0l0 0 12 -13 0 0 0 0 -15 13c-3,0 -3,0 -6,0l-16 -13 0 0 0 0 12 13 0 0z"/>
   <polygon class="fil10" points="676,1314 676,1317 676,1314 716,1314 716,1317 720,1314 720,1314 720,1314 720,1314 716,1314 676,1314 676,1314 676,1314 "/>
   <polygon class="fil10" points="676,1314 676,1317 679,1317 679,1317 679,1317 716,1317 716,1317 716,1317 716,1317 716,1314 "/>
   <polygon class="fil10" points="704,1330 716,1342 679,1342 691,1330 691,1330 679,1339 679,1342 716,1342 716,1339 "/>
   <path class="fil10" d="M676 1342l0 0 0 0 0 0c0,0 0,0 0,0l40 0c4,0 4,0 4,0l0 0 -4 0 0 0 -40 0z"/>
   <polygon class="fil10" points="716,1342 679,1342 679,1339 676,1342 676,1342 716,1342 716,1342 716,1339 "/>
   <path class="fil10" d="M704 1330c0,-3 0,-3 -3,0 0,0 0,0 0,0l3 0 0 0 0 0z"/>
   <path class="fil10" d="M691 1330c4,0 4,0 0,0l0 0 0 0 0 0 0 0z"/>
   <path class="fil10" d="M801 1314c0,9 -10,19 -19,19 -12,0 -19,-10 -19,-19 0,-9 7,-19 19,-19 9,0 19,10 19,19z"/>
   <polygon class="fil10" points="798,1342 779,1320 782,1317 801,1342 "/>
   <path class="fil10" d="M1085 1342l0 -3c0,-9 -6,-16 -16,-16 -9,0 -18,7 -18,16l0 3 34 0z"/>
   <path class="fil10" d="M1079 1308c0,6 -6,9 -10,9 -6,0 -9,-3 -9,-9 0,-6 3,-10 9,-10 4,0 10,4 10,10z"/>
   <polygon class="fil3" points="620,936 635,961 620,961 "/>
   <polygon class="fil3" points="620,930 638,961 635,961 620,936 "/>
   <polygon class="fil3" points="620,923 645,961 638,961 620,930 "/>
   <polygon class="fil3" points="620,917 648,961 645,961 620,923 "/>
   <polygon class="fil12" points="620,911 651,961 648,961 620,917 "/>
   <polygon class="fil13" points="620,905 657,961 651,961 620,911 "/>
   <polygon class="fil14" points="620,898 660,961 657,961 620,905 "/>
   <polygon class="fil15" points="620,892 663,961 660,961 620,898 "/>
   <polygon class="fil16" points="620,886 666,961 663,961 620,892 "/>
   <polygon class="fil17" points="620,880 673,961 666,961 620,886 "/>
   <polygon class="fil18" points="620,873 676,961 673,961 620,880 "/>
   <polygon class="fil19" points="620,867 679,961 676,961 620,873 "/>
   <polygon class="fil20" points="620,861 682,961 679,961 620,867 "/>
   <polygon class="fil21" points="620,855 688,961 682,961 620,861 "/>
   <polygon class="fil22" points="620,848 691,961 688,961 620,855 "/>
   <polygon class="fil23" points="620,842 695,961 691,961 620,848 "/>
   <polygon class="fil24" points="620,836 701,961 695,961 620,842 "/>
   <polygon class="fil25" points="620,830 704,961 701,961 620,836 "/>
   <polygon class="fil26" points="620,823 673,905 673,908 673,908 707,961 704,961 620,830 "/>
   <path class="fil27" d="M620 817l53 81 0 7 -53 -82 0 -6zm59 91l31 53 -3 0 -34 -53 6 0z"/>
   <path class="fil28" d="M620 811l53 81 0 6 -53 -81 0 -6zm62 97l34 53 -6 0 -31 -53 3 0z"/>
   <path class="fil29" d="M620 805l53 81 0 6 -53 -81 0 -6zm65 103l35 53 -4 0 -34 -53 3 0z"/>
   <path class="fil30" d="M620 798l53 82 0 6 -53 -81 0 -7zm71 110l32 53 -3 0 -35 -53 6 0z"/>
   <path class="fil31" d="M620 792l53 81 0 7 -53 -82 0 -6zm75 116l31 53 -3 0 -32 -53 4 0z"/>
   <path class="fil32" d="M620 786l53 81 0 6 -53 -81 0 -6zm78 122l34 53 -6 0 -31 -53 3 0z"/>
   <path class="fil33" d="M620 780l53 81 0 6 -53 -81 0 -6zm81 128l34 53 -3 0 -34 -53 3 0 0 0z"/>
   <path class="fil34" d="M620 773l53 82 0 6 -53 -81 0 -7zm87 135l31 53 -3 0 -34 -53 6 0z"/>
   <path class="fil35" d="M620 767l53 81 0 7 -53 -82 0 -6zm90 141l35 53 -7 0 -31 -53 3 0z"/>
   <path class="fil36" d="M620 761l53 81 0 6 -53 -81 0 -6zm93 147l35 53 -3 0 -35 -53 3 0z"/>
   <path class="fil37" d="M620 755l53 81 0 6 -53 -81 0 -6zm96 153l35 53 -3 0 -35 -53 3 0z"/>
   <path class="fil38" d="M620 748l53 82 0 6 -53 -81 0 -7zm103 160l31 53 -3 0 -35 -53 7 0z"/>
   <path class="fil39" d="M620 742l53 81 0 7 -53 -82 0 -6zm106 166l34 53 -6 0 -31 -53 3 0z"/>
   <path class="fil40" d="M620 736l53 81 0 6 -53 -81 0 -6zm109 172l34 53 -3 0 -34 -53 3 0z"/>
   <path class="fil41" d="M620 730l53 84 0 0 0 3 -53 -81 0 -6zm115 178l31 53 -3 0 -34 -53 6 0z"/>
   <path class="fil42" d="M620 723l56 91 -3 0 -53 -84 0 -7 0 0zm118 185l35 53 -7 0 -31 -53 3 0z"/>
   <path class="fil43" d="M620 717l62 97 -6 0 -56 -91 0 -6zm121 191l35 53 -3 0 -35 -53 3 0z"/>
   <path class="fil44" d="M620 711l65 103 -3 0 -62 -97 0 -6zm125 197l34 53 -3 0 -35 -53 4 0 0 0z"/>
   <path class="fil45" d="M620 705l68 109 -3 0 -65 -103 0 -6 0 0zm125 197l37 59 -3 0 -34 -53 0 -6z"/>
   <path class="fil46" d="M620 698l75 116 -7 0 -68 -109 0 -7zm125 197l43 66 -6 0 -37 -59 0 -7z"/>
   <path class="fil47" d="M620 692l78 122 -3 0 -75 -116 0 -6zm125 197l46 72 -3 0 -43 -66 0 -6 0 0z"/>
   <path class="fil48" d="M620 686l81 128 -3 0 -78 -122 0 -6 0 0zm125 197l50 78 -4 0 -46 -72 0 -6 0 0z"/>
   <path class="fil49" d="M620 680l84 134 -3 0 -81 -128 0 -6zm125 197l53 84 -3 0 -50 -78 0 -6z"/>
   <path class="fil50" d="M620 673l90 141 -6 0 -84 -134 0 -7 0 0zm125 197l59 91 -6 0 -53 -84 0 -7 0 0z"/>
   <path class="fil51" d="M620 667l93 147 -3 0 -90 -141 0 -6 0 0zm125 197l62 97 -3 0 -59 -91 0 -6z"/>
   <path class="fil52" d="M620 661l96 153 -3 0 -93 -147 0 -6zm125 197l65 103 -3 0 -62 -97 0 -6z"/>
   <path class="fil53" d="M620 655l100 159 -4 0 -96 -153 0 -6zm125 197l37 56 0 0 0 0 34 53 -6 0 -65 -103 0 -6 0 0z"/>
   <path class="fil54" d="M620 648l106 166 -6 0 -100 -159 0 -7 0 0zm125 197l37 57 0 6 -37 -56 0 -7zm40 63l35 53 -4 0 -34 -53 3 0z"/>
   <path class="fil55" d="M620 642l109 172 -3 0 -106 -166 0 -6zm125 197l37 56 0 7 -37 -57 0 -6zm43 69l35 53 -3 0 -35 -53 3 0z"/>
   <path class="fil56" d="M620 636l112 178 -3 0 -109 -172 0 -6zm125 197l37 56 0 6 -37 -56 0 -6zm50 75l31 53 -3 0 -35 -53 7 0z"/>
   <path class="fil57" d="M620 630l118 184 -6 0 -112 -178 0 -6 0 0zm125 197l37 56 0 6 -37 -56 0 -6zm53 81l34 53 -6 0 -31 -53 3 0z"/>
   <path class="fil58" d="M620 624l121 190 -3 0 -118 -184 0 -6zm125 196l37 57 0 6 -37 -56 0 -7zm56 88l34 53 -3 0 -34 -53 3 0z"/>
   <path class="fil59" d="M620 617l125 197 -4 0 -121 -190 0 -7 0 0zm125 197l37 56 0 7 -37 -57 0 -6zm59 94l34 53 -3 0 -34 -53 3 0z"/>
   <path class="fil60" d="M620 611l162 253 0 6 -37 -56 0 0 0 0 -125 -197 0 -6zm190 297l31 53 -3 0 -34 -53 6 0 0 0z"/>
   <path class="fil61" d="M620 605l162 253 0 6 -162 -253 0 -6zm193 303l35 53 -7 0 -31 -53 3 0z"/>
   <path class="fil62" d="M620 599l162 253 0 6 -162 -253 0 -6zm196 309l35 53 -3 0 -35 -53 3 0z"/>
   <path class="fil62" d="M620 592l162 253 0 7 -162 -253 0 -7zm203 316l31 53 -3 0 -35 -53 7 0z"/>
   <path class="fil63" d="M620 586l162 253 0 6 -162 -253 0 -6zm206 322l34 53 -6 0 -31 -53 3 0z"/>
   <path class="fil64" d="M620 580l162 253 0 6 -162 -253 0 -6zm209 328l34 53 -3 0 -34 -53 3 0z"/>
   <path class="fil65" d="M620 574l162 253 0 6 -162 -253 0 -6zm212 334l34 53 -3 0 -34 -53 3 0z"/>
   <path class="fil66" d="M620 567l162 253 0 7 -162 -253 0 -7zm218 341l32 53 -4 0 -34 -53 6 0z"/>
   <path class="fil67" d="M620 561l162 253 0 6 -162 -253 0 -6zm221 347l35 53 -6 0 -32 -53 3 0z"/>
   <path class="fil68" d="M620 555l162 253 0 6 -162 -253 0 -6zm225 353l34 53 -3 0 -35 -53 4 0z"/>
   <path class="fil69" d="M620 549l162 253 0 6 -162 -253 0 -6zm228 359l34 53 -3 0 -34 -53 3 0z"/>
   <path class="fil70" d="M620 542l162 253 0 7 -162 -253 0 -7zm234 366l31 53 -3 0 -34 -53 6 0z"/>
   <path class="fil71" d="M620 536l162 253 0 6 -162 -253 0 -6zm234 369l37 56 -6 0 -31 -53 0 0 0 -3z"/>
   <path class="fil72" d="M620 530l162 253 0 6 -162 -253 0 -6zm234 368l41 63 -4 0 -37 -56 0 -7z"/>
   <path class="fil73" d="M620 524l162 253 0 6 -162 -253 0 -6zm234 368l44 69 -3 0 -41 -63 0 -6 0 0z"/>
   <path class="fil74" d="M620 517l162 253 0 7 -162 -253 0 -7zm234 369l50 75 -6 0 -44 -69 0 -6 0 0z"/>
   <path class="fil75" d="M620 511l162 253 0 6 -162 -253 0 -6zm234 369l53 81 -3 0 -50 -75 0 -6z"/>
   <path class="fil76" d="M620 505l162 253 0 6 -162 -253 0 -6zm234 368l56 88 -3 0 -53 -81 0 -7 0 0z"/>
   <path class="fil77" d="M620 499l162 253 0 6 -162 -253 0 -6zm234 368l59 94 -3 0 -56 -88 0 -6z"/>
   <path class="fil78" d="M620 492l165 256 -3 0 0 4 -162 -253 0 -7 0 0zm234 369l66 100 -7 0 -59 -94 0 -6z"/>
   <path class="fil79" d="M620 486l168 262 -3 0 -165 -256 0 -6zm234 369l69 106 -3 0 -66 -100 0 -6 0 0z"/>
   <path class="fil80" d="M620 480l171 268 -3 0 -168 -262 0 -6zm234 365l34 60 0 3 3 0 35 53 -3 0 -69 -106 0 -10z"/>
   <path class="fil81" d="M620 474l178 274 -7 0 -171 -268 0 -6 0 0zm234 365l34 59 0 7 -34 -60 0 -6zm44 69l31 53 -3 0 -35 -53 7 0z"/>
   <path class="fil82" d="M620 464l181 284 -3 0 -178 -274 0 -10 0 0zm234 369l34 59 0 6 -34 -59 0 -6zm47 75l34 53 -6 0 -31 -53 3 0z"/>
   <path class="fil83" d="M620 458l184 290 -3 0 -181 -284 0 -6zm234 369l34 59 0 6 -34 -59 0 -6zm50 81l34 53 -3 0 -34 -53 3 0z"/>
   <path class="fil84" d="M620 452l187 296 -3 0 -184 -290 0 -6 0 0zm234 368l34 60 0 6 -34 -59 0 -7zm56 88l31 53 -3 0 -34 -53 6 0z"/>
   <path class="fil85" d="M620 445l193 303 -6 0 -187 -296 0 -7zm234 369l34 59 0 7 -34 -60 0 -6zm59 94l35 53 -7 0 -31 -53 3 0z"/>
   <path class="fil86" d="M620 439l196 309 -3 0 -193 -303 0 -6zm234 369l34 59 0 6 -34 -59 0 -6zm62 100l35 53 -3 0 -35 -53 3 0z"/>
   <path class="fil87" d="M620 433l200 315 -4 0 -196 -309 0 -6 0 0zm234 369l34 59 0 6 -34 -59 0 -6zm66 106l34 53 -3 0 -35 -53 0 0 4 0z"/>
   <path class="fil88" d="M620 427l203 321 -3 0 -200 -315 0 -6zm234 368l34 60 0 6 -34 -59 0 -7zm72 113l31 53 -3 0 -34 -53 6 0z"/>
   <path class="fil89" d="M620 420l209 328 -6 0 -203 -321 0 -7zm234 369l34 56 0 10 -34 -60 0 -6zm75 119l34 53 -6 0 -31 -53 3 0z"/>
   <path class="fil90" d="M620 414l212 334 -3 0 -209 -328 0 -6 0 0zm234 369l34 56 0 6 -34 -56 0 -6zm78 125l34 53 -3 0 -34 -53 3 0z"/>
   <path class="fil91" d="M620 408l215 340 -3 0 -212 -334 0 -6zm234 369l34 56 0 6 -34 -56 0 -6zm81 131l34 53 -3 0 -34 -53 3 0z"/>
   <path class="fil92" d="M623 408l218 340 -6 0 -215 -340 0 0 3 0 0 0zm231 362l34 57 0 6 -34 -56 0 -7zm87 138l32 53 -4 0 -34 -53 6 0z"/>
   <path class="fil93" d="M626 408l219 340 -4 0 -218 -340 3 0zm228 356l34 56 0 7 -34 -57 0 -6zm91 144l34 53 -6 0 -32 -53 4 0z"/>
   <path class="fil94" d="M632 408l216 340 -3 0 -219 -340 6 0 0 0zm222 350l34 56 0 6 -34 -56 0 -6zm94 150l34 53 -3 0 -34 -53 3 0z"/>
   <path class="fil95" d="M635 408l216 340 -3 0 -216 -340 3 0zm219 344l34 56 0 6 -34 -56 0 -6zm100 156l31 53 -3 0 -34 -53 6 0z"/>
   <path class="fil96" d="M638 408l250 394 0 6 -34 -56 0 -4 -3 0 -216 -340 3 0zm319 500l34 53 -6 0 -31 -53 3 0z"/>
   <path class="fil97" d="M641 408l247 387 0 7 -250 -394 3 0zm319 500l34 53 -3 0 -34 -53 3 0z"/>
   <path class="fil98" d="M648 408l240 381 0 6 -247 -387 7 0 0 0zm315 497l35 56 -4 0 -34 -53 3 0 0 -3z"/>
   <path class="fil99" d="M651 408l237 375 0 6 -240 -381 3 0zm312 490l38 63 -3 0 -35 -56 0 -7z"/>
   <path class="fil100" d="M654 408l234 369 0 6 -237 -375 3 0 0 0zm309 484l44 69 -6 0 -38 -63 0 -6 0 0z"/>
   <path class="fil101" d="M660 408l228 362 0 7 -234 -369 6 0 0 0zm303 478l47 75 -3 0 -44 -69 0 -6z"/>
   <path class="fil102" d="M663 408l225 356 0 6 -228 -362 3 0zm300 472l50 81 -3 0 -47 -75 0 -6 0 0z"/>
   <path class="fil103" d="M666 408l222 350 0 6 -225 -356 3 0zm297 465l53 88 -3 0 -50 -81 0 -7 0 0z"/>
   <path class="fil104" d="M670 408l218 344 0 6 -222 -350 4 0 0 0zm293 459l60 94 -7 0 -53 -88 0 -6z"/>
   <path class="fil105" d="M676 408l212 337 0 7 -218 -344 6 0 0 0zm287 453l63 100 -3 0 -60 -94 0 -6z"/>
   <path class="fil106" d="M679 408l209 331 0 6 -212 -337 3 0zm284 447l66 106 -3 0 -63 -100 0 -6 0 0z"/>
   <path class="fil107" d="M682 408l206 325 0 6 -209 -331 3 0 0 0zm281 440l35 57 0 3 3 0 34 53 -6 0 -66 -106 0 -7 0 0z"/>
   <path class="fil108" d="M685 408l203 319 0 6 -206 -325 3 0zm278 434l35 56 0 7 -35 -57 0 -6zm41 66l34 53 -3 0 -34 -53 3 0z"/>
   <path class="fil109" d="M691 408l197 312 0 7 -203 -319 6 0 0 0zm272 428l35 56 0 6 -35 -56 0 -6zm44 72l34 53 -3 0 -34 -53 3 0z"/>
   <path class="fil110" d="M695 408l193 306 0 6 -197 -312 4 0 0 0zm268 422l35 56 0 6 -35 -56 0 -6zm50 78l31 53 -3 0 -34 -53 6 0z"/>
   <path class="fil111" d="M698 408l190 300 0 6 -193 -306 3 0zm265 415l35 57 0 6 -35 -56 0 -7zm53 85l35 53 -7 0 -31 -53 3 0z"/>
   <path class="fil112" d="M704 408l184 294 0 6 -190 -300 6 0zm259 409l35 56 0 7 -35 -57 0 -6zm56 91l35 53 -3 0 -35 -53 3 0z"/>
   <path class="fil113" d="M707 408l181 287 0 7 -184 -294 3 0 0 0zm256 403l35 56 0 6 -35 -56 0 -6zm60 97l34 53 -3 0 -35 -53 4 0z"/>
   <path class="fil114" d="M710 408l178 281 0 6 -181 -287 3 0 0 0zm253 397l35 56 0 6 -35 -56 0 -6zm66 103l31 53 -3 0 -34 -53 3 0 3 0z"/>
   <path class="fil115" d="M713 408l175 275 0 6 -178 -281 3 0zm250 390l35 57 0 6 -35 -56 0 -7zm69 110l34 53 -6 0 -31 -53 3 0z"/>
   <path class="fil116" d="M720 408l168 269 0 6 -175 -275 7 0 0 0zm243 384l35 56 0 7 -35 -57 0 -6zm72 116l34 53 -3 0 -34 -53 3 0z"/>
   <path class="fil117" d="M723 408l165 262 0 0 0 7 -168 -269 3 0zm240 378l35 56 0 6 -35 -56 0 -6zm78 122l32 53 -4 0 -34 -53 6 0z"/>
   <path class="fil118" d="M726 408l169 262 -7 0 -165 -262 3 0zm237 372l35 56 0 6 -35 -56 0 -6zm81 128l35 53 -6 0 -32 -53 3 0z"/>
   <path class="fil119" d="M729 408l169 262 -3 0 -169 -262 3 0zm234 365l35 57 0 6 -35 -56 0 -7zm85 135l34 53 -3 0 -35 -53 4 0z"/>
   <path class="fil120" d="M735 408l166 262 -3 0 -169 -262 6 0zm228 359l35 56 0 7 -35 -57 0 -6zm88 141l34 53 -3 0 -34 -53 3 0z"/>
   <path class="fil121" d="M738 408l169 262 -6 0 -166 -262 3 0zm225 353l35 56 0 6 -35 -56 0 -6zm94 147l31 53 -3 0 -34 -53 6 0z"/>
   <path class="fil122" d="M741 408l169 262 -3 0 -169 -262 3 0zm222 347l35 56 0 6 -35 -56 0 -6zm97 153l34 53 -6 0 -31 -53 3 0z"/>
   <path class="fil123" d="M748 408l165 262 -3 0 -169 -262 7 0zm215 340l35 57 0 6 -35 -56 0 -7zm100 160l35 53 -4 0 -34 -53 3 0z"/>
   <path class="fil124" d="M751 408l165 262 -3 0 -165 -262 3 0zm212 334l35 56 0 7 -35 -57 0 -6zm103 166l35 53 -3 0 -35 -53 3 0z"/>
   <path class="fil125" d="M754 408l169 262 -7 0 0 0 -165 -262 3 0zm209 328l35 56 0 6 -35 -56 0 -6zm106 172l35 53 -3 0 -35 -53 3 0 0 0z"/>
   <path class="fil125" d="M757 408l169 262 -3 0 -169 -262 3 0zm206 322l35 56 0 6 -35 -56 0 -6zm106 172l41 59 -6 0 -35 -53 0 -6z"/>
   <path class="fil126" d="M763 408l166 262 -3 0 -169 -262 6 0zm200 315l35 57 0 6 -35 -56 0 -7zm106 172l44 66 -3 0 -41 -59 0 -7z"/>
   <path class="fil127" d="M766 408l166 262 -3 0 -166 -262 3 0zm197 309l35 56 0 7 -35 -57 0 -6zm106 172l47 72 -3 0 -44 -66 0 -6 0 0z"/>
   <path class="fil128" d="M770 408l168 262 -6 0 -166 -262 4 0zm193 303l35 56 0 6 -35 -56 0 -6zm106 172l54 78 -7 0 -47 -72 0 -6 0 0z"/>
   <path class="fil129" d="M773 408l168 262 -3 0 -168 -262 3 0zm190 297l35 56 0 6 -35 -56 0 -6zm106 172l57 84 -3 0 -54 -78 0 -6z"/>
   <path class="fil130" d="M779 408l166 262 -4 0 -168 -262 6 0zm184 290l35 57 0 6 -35 -56 0 -7zm106 172l60 91 -3 0 -57 -84 0 -7 0 0z"/>
   <path class="fil131" d="M782 408l169 262 -6 0 -166 -262 3 0zm181 284l35 56 0 7 -35 -57 0 -6zm106 172l63 97 -3 0 -60 -91 0 -6z"/>
   <path class="fil132" d="M785 408l169 262 -3 0 -169 -262 3 0zm178 278l35 56 0 6 -35 -56 0 -6zm106 172l69 103 -6 0 -63 -97 0 -6 0 0z"/>
   <path class="fil133" d="M791 408l166 262 -3 0 -169 -262 6 0zm172 272l35 56 0 6 -35 -56 0 -6zm106 172l72 109 -3 0 -69 -103 0 -6 0 0z"/>
   <path class="fil134" d="M795 408l165 262 -3 0 -166 -262 4 0zm168 265l35 57 0 6 -35 -56 0 -7zm106 172l75 116 -3 0 -72 -109 0 -7z"/>
   <path class="fil135" d="M798 408l200 315 0 7 -35 -57 0 -3 -3 0 -165 -262 3 0zm271 431l79 122 -4 0 -75 -116 0 -6z"/>
   <path class="fil136" d="M801 408l197 309 0 6 -200 -315 3 0 0 0zm268 425l85 128 -6 0 -79 -122 0 -6 0 0z"/>
   <path class="fil137" d="M807 408l191 303 0 6 -197 -309 6 0zm262 419l88 134 -3 0 -85 -128 0 -6 0 0z"/>
   <path class="fil138" d="M810 408l188 297 0 6 -191 -303 3 0zm259 412l91 141 0 0 0 0 -3 0 -88 -134 0 -7z"/>
   <path class="fil139" d="M813 408l185 290 0 7 -188 -297 3 0 0 0zm256 406l91 141 0 6 -91 -141 0 -6z"/>
   <path class="fil140" d="M816 408l182 284 0 6 -185 -290 3 0zm253 400l91 140 0 7 -91 -141 0 -6z"/>
   <path class="fil141" d="M823 408l175 278 0 6 -182 -284 7 0 0 0zm246 394l91 140 0 6 -91 -140 0 -6z"/>
   <path class="fil142" d="M826 408l172 272 0 6 -175 -278 3 0 0 0zm243 387l91 141 0 6 -91 -140 0 -7z"/>
   <path class="fil143" d="M829 408l169 265 0 7 -172 -272 3 0zm240 381l91 141 0 6 -91 -141 0 -6z"/>
   <path class="fil144" d="M835 408l163 259 0 6 -169 -265 6 0zm234 372l91 143 0 7 -91 -141 0 -9 0 0z"/>
   <path class="fil145" d="M838 408l160 253 0 6 -163 -259 3 0 0 0zm231 365l91 144 0 6 -91 -143 0 -7z"/>
   <path class="fil146" d="M841 408l157 247 0 6 -160 -253 3 0zm228 359l91 144 0 6 -91 -144 0 -6z"/>
   <path class="fil147" d="M845 408l153 240 0 7 -157 -247 4 0zm224 353l91 144 0 6 -91 -144 0 -6z"/>
   <path class="fil148" d="M851 408l147 234 0 7 -153 -241 6 0 0 0zm218 347l91 143 0 7 -91 -144 0 -6z"/>
   <path class="fil149" d="M854 408l144 228 0 6 -147 -234 3 0zm215 340l91 144 0 6 -91 -143 0 -7z"/>
   <path class="fil150" d="M857 408l141 222 0 6 -144 -228 3 0 0 0zm212 334l91 144 0 6 -91 -144 0 -6z"/>
   <path class="fil151" d="M860 408l138 216 0 6 -141 -222 3 0 0 0zm209 328l91 144 0 6 -91 -144 0 -6z"/>
   <path class="fil152" d="M866 408l132 209 0 7 -138 -216 6 0zm203 322l91 143 0 7 -91 -144 0 -6z"/>
   <path class="fil153" d="M870 408l128 203 0 6 -132 -209 4 0zm199 315l91 144 0 6 -91 -143 0 -7z"/>
   <path class="fil154" d="M873 408l125 197 0 6 -128 -203 3 0 0 0zm196 309l91 144 0 6 -91 -144 0 -6z"/>
   <path class="fil155" d="M879 408l119 191 0 6 -125 -197 6 0 0 0zm190 303l91 144 0 6 -91 -144 0 -6z"/>
   <path class="fil156" d="M882 408l116 184 0 7 -119 -191 3 0zm187 297l91 143 0 7 -91 -144 0 -6z"/>
   <path class="fil157" d="M885 408l113 178 0 6 -116 -184 3 0 0 0zm184 290l91 144 0 6 -91 -143 0 -7z"/>
   <path class="fil158" d="M888 408l110 172 0 6 -113 -178 3 0zm181 284l91 144 0 6 -91 -144 0 -6z"/>
   <path class="fil159" d="M895 408l103 166 0 6 -110 -172 7 0 0 0zm174 278l91 144 0 6 -91 -144 0 -6z"/>
   <path class="fil160" d="M898 408l100 159 0 7 -103 -166 3 0 0 0zm171 272l91 143 0 7 -91 -144 0 -6z"/>
   <path class="fil161" d="M901 408l97 153 0 6 -100 -159 3 0zm168 265l91 144 0 6 -91 -143 0 -7z"/>
   <path class="fil162" d="M907 408l91 147 0 6 -97 -153 6 0zm162 259l91 144 0 6 -91 -144 0 -6z"/>
   <path class="fil163" d="M910 408l88 141 0 6 -91 -147 3 0 0 0zm159 253l91 144 0 6 -91 -144 0 -6z"/>
   <path class="fil164" d="M913 408l85 134 0 7 -88 -141 3 0 0 0zm156 247l91 143 0 7 -91 -144 0 -6z"/>
   <path class="fil165" d="M916 408l82 125 0 9 -85 -134 3 0zm153 240l91 144 0 6 -91 -143 0 -7z"/>
   <path class="fil166" d="M923 408l75 119 0 6 -82 -125 7 0 0 0zm146 234l91 144 0 6 -91 -144 0 -6z"/>
   <path class="fil167" d="M926 408l72 112 0 7 -75 -119 3 0zm143 228l91 144 0 6 -91 -144 0 -6z"/>
   <path class="fil168" d="M929 408l69 106 0 6 -72 -112 3 0zm140 222l91 143 0 7 -91 -144 0 -6z"/>
   <path class="fil169" d="M932 408l66 100 0 6 -69 -106 3 0 0 0zm137 216l91 143 0 6 -91 -143 0 -6z"/>
   <path class="fil170" d="M938 408l60 94 0 6 -66 -100 6 0zm131 209l91 144 0 6 -91 -143 0 -7z"/>
   <path class="fil171" d="M941 408l60 94 -3 0 0 0 -60 -94 3 0zm128 203l91 144 0 6 -91 -144 0 -6z"/>
   <path class="fil172" d="M945 408l59 94 -3 0 -60 -94 4 0zm124 197l91 143 0 7 -91 -144 0 -6z"/>
   <path class="fil173" d="M951 408l56 94 -3 0 -59 -94 6 0zm118 191l91 143 0 6 -91 -143 0 -6z"/>
   <path class="fil174" d="M954 408l59 94 -6 0 -56 -94 3 0zm115 184l91 144 0 6 -91 -143 0 -7z"/>
   <path class="fil175" d="M957 408l59 94 -3 0 -59 -94 3 0zm112 178l91 144 0 6 -91 -144 0 -6z"/>
   <path class="fil176" d="M960 408l59 94 -3 0 -59 -94 3 0zm109 172l91 143 0 7 -91 -144 0 -6z"/>
   <path class="fil177" d="M966 408l60 94 -7 0 -59 -94 6 0zm103 166l91 143 0 6 -91 -143 0 -6z"/>
   <path class="fil178" d="M969 408l60 94 -3 0 -60 -94 3 0zm100 159l91 144 0 6 -91 -143 0 -7z"/>
   <path class="fil179" d="M973 408l59 94 -3 0 -60 -94 4 0zm96 153l91 144 0 6 -91 -144 0 -6z"/>
   <path class="fil180" d="M976 408l59 94 -3 0 -59 -94 3 0zm93 147l91 143 0 7 -91 -144 0 -6z"/>
   <path class="fil181" d="M982 408l59 94 -6 0 -59 -94 6 0zm87 141l91 143 0 6 -91 -143 0 -6z"/>
   <path class="fil182" d="M985 408l59 94 -3 0 -59 -94 3 0zm84 134l91 144 0 6 -91 -143 0 -7z"/>
   <path class="fil183" d="M988 408l60 94 -4 0 -59 -94 3 0zm81 128l91 144 0 6 -91 -144 0 -6z"/>
   <path class="fil184" d="M994 408l57 94 -3 0 -60 -94 6 0zm75 122l91 143 0 7 -91 -144 0 -6z"/>
   <path class="fil185" d="M998 408l59 94 -6 0 -57 -94 4 0zm71 116l91 140 0 9 -91 -143 0 -6 0 0z"/>
   <path class="fil186" d="M1001 408l59 94 -3 0 -59 -94 3 0zm68 109l91 141 0 6 -91 -140 0 -7z"/>
   <path class="fil187" d="M1004 408l59 94 -3 0 -59 -94 3 0zm65 103l91 141 0 6 -91 -141 0 -6z"/>
   <path class="fil188" d="M1010 408l59 94 -6 0 -59 -94 6 0zm59 97l91 140 0 7 -91 -141 0 -6z"/>
   <polygon class="fil189" points="1013,408 1160,639 1160,645 1069,505 1069,502 1069,502 1010,408 "/>
   <polygon class="fil190" points="1016,408 1160,633 1160,639 1013,408 "/>
   <polygon class="fil191" points="1019,408 1160,627 1160,633 1016,408 "/>
   <polygon class="fil192" points="1026,408 1160,620 1160,627 1019,408 "/>
   <polygon class="fil193" points="1029,408 1160,614 1160,620 1026,408 "/>
   <polygon class="fil194" points="1032,408 1160,608 1160,614 1029,408 "/>
   <polygon class="fil195" points="1038,408 1160,602 1160,608 1032,408 "/>
   <polygon class="fil196" points="1041,408 1160,595 1160,602 1038,408 "/>
   <polygon class="fil197" points="1044,408 1160,589 1160,595 1041,408 "/>
   <polygon class="fil198" points="1048,408 1160,583 1160,589 1044,408 "/>
   <polygon class="fil199" points="1054,408 1160,577 1160,583 1048,408 "/>
   <polygon class="fil200" points="1057,408 1160,570 1160,577 1054,408 "/>
   <polygon class="fil201" points="1060,408 1160,564 1160,570 1057,408 "/>
   <polygon class="fil202" points="1063,408 1160,558 1160,564 1060,408 "/>
   <polygon class="fil203" points="1069,408 1160,552 1160,558 1063,408 "/>
   <polygon class="fil204" points="1073,408 1160,545 1160,552 1069,408 "/>
   <polygon class="fil205" points="1076,408 1160,539 1160,545 1073,408 "/>
   <polygon class="fil206" points="1082,408 1160,533 1160,539 1076,408 "/>
   <polygon class="fil207" points="1085,408 1160,527 1160,533 1082,408 "/>
   <polygon class="fil208" points="1088,408 1160,520 1160,527 1085,408 "/>
   <polygon class="fil209" points="1091,408 1160,514 1160,520 1088,408 "/>
   <polygon class="fil210" points="1098,408 1160,508 1160,514 1091,408 "/>
   <polygon class="fil211" points="1101,408 1160,502 1160,508 1098,408 "/>
   <polygon class="fil212" points="1104,408 1160,495 1160,502 1101,408 "/>
   <polygon class="fil213" points="1107,408 1160,489 1160,495 1104,408 "/>
   <polygon class="fil214" points="1113,408 1160,483 1160,489 1107,408 "/>
   <polygon class="fil215" points="1116,408 1160,477 1160,483 1113,408 "/>
   <polygon class="fil216" points="1119,408 1160,470 1160,477 1116,408 "/>
   <polygon class="fil217" points="1126,408 1160,464 1160,470 1119,408 "/>
   <polygon class="fil218" points="1129,408 1160,458 1160,464 1126,408 "/>
   <polygon class="fil219" points="1132,408 1160,452 1160,458 1129,408 "/>
   <polygon class="fil220" points="1135,408 1160,445 1160,452 1132,408 "/>
   <polygon class="fil221" points="1141,408 1160,439 1160,445 1135,408 "/>
   <polygon class="fil222" points="1144,408 1160,433 1160,439 1141,408 "/>
   <polygon class="fil223" points="1148,408 1160,427 1160,433 1144,408 "/>
   <polygon class="fil224" points="1151,408 1160,420 1160,427 1148,408 "/>
   <polygon class="fil225" points="1157,408 1160,414 1160,420 1151,408 "/>
   <polygon class="fil226" points="1160,408 1160,408 1160,414 1157,408 "/>
   <polygon class="fil227" points="1160,408 1160,408 "/>
   <path class="fil10" d="M838 995l3 0 -25 -15 0 12 4 0 0 -3c-13,3 -19,13 -19,25l0 0 0 6 3 -6c3,-6 9,-12 16,-12l0 0 -4 0 0 12 25 -19 0 0 -3 0 0 0 -18 13 0 -10 0 0c-10,0 -16,7 -19,16l0 0 3 0 0 0c0,-12 6,-19 16,-22l0 0 0 -6 18 12 0 -3 0 0 0 0 0 0z"/>
   <path class="fil10" d="M754 983l0 0c-9,0 -16,6 -16,15 0,4 0,7 3,10l0 0 0 0 -6 9 13 -6 0 0 -3 0c3,3 6,3 9,3 9,0 16,-6 16,-16 0,-9 -7,-15 -16,-15l0 0 0 3c6,0 12,6 12,12 0,4 -3,7 -3,10 -3,0 -6,3 -9,3 -3,0 -6,0 -6,-3l0 0 -3 3 0 -3 0 0 0 -3c-4,0 -4,-3 -4,-7 0,-3 0,-6 4,-9 3,-3 6,-3 9,-3l0 -3 0 0z"/>
   <path class="fil10" d="M707 992l0 0c0,-6 -6,-9 -9,-9 -7,0 -10,0 -10,3l0 0 3 0c-3,-3 -6,-3 -9,-3 -6,0 -12,3 -12,9 0,6 3,10 6,10l0 0 0 -4 0 0 -3 4 15 15 16 -15 -3 -4 0 4 0 0c3,0 6,-4 6,-10l0 0 -3 0c0,3 0,6 -3,6l-3 4 0 0 -10 9 -9 -13 -3 4 3 0 0 0 0 0 0 -4c-3,0 -6,-3 -6,-6 0,-3 3,-6 9,-6 3,0 3,0 6,3l0 0 3 0c0,-3 4,-3 7,-3 3,0 6,3 6,6l3 0 0 0z"/>
   <path class="fil10" d="M691 1042c0,-3 -3,-6 -6,-6 0,0 -3,0 -3,3 0,-3 -3,-3 -3,-3 -3,0 -6,3 -6,6 0,3 0,3 3,3l0 3 6 7 6 -7 0 -3c3,0 3,0 3,-3z"/>
   <polygon class="fil10" points="704,1039 704,1042 707,1042 707,1055 710,1055 710,1039 "/>
   <polygon class="fil10" points="723,1039 716,1048 716,1052 723,1052 723,1055 726,1055 726,1052 729,1052 729,1048 726,1048 726,1045 723,1045 723,1048 720,1048 "/>
   <path class="fil10" d="M732 1052c-3,0 -3,0 -3,0 0,3 0,3 0,3l0 0 3 0 0 0c0,0 0,0 0,-3 0,0 0,0 0,0l0 0z"/>
   <path class="fil10" d="M741 1045l-6 7 0 3 10 0 0 -3 -7 0 3 -4c4,-3 4,-3 4,-6 0,0 -4,-3 -7,-3 0,0 -3,0 -3,3l0 0c0,0 3,0 3,0 3,0 3,0 3,0 0,3 0,3 0,3l0 0z"/>
   <polygon class="fil10" points="748,1039 748,1042 751,1042 751,1042 757,1042 751,1055 754,1055 760,1042 760,1039 "/>
   <path class="fil10" d="M766 1039c-3,0 -6,3 -6,3 0,3 3,3 3,3 -3,3 -3,3 -3,7 0,0 3,3 6,3 4,0 7,-3 7,-3 0,-4 -3,-4 -3,-7 0,0 0,0 0,-3 0,0 0,-3 -4,-3l0 0zm0 3c0,0 4,0 4,0 0,3 -4,3 -4,3 -3,0 -3,0 -3,-3 0,0 0,0 3,0l0 0zm0 6c4,0 4,0 4,0 0,4 0,4 -4,4 -3,0 -3,0 -3,-4 0,0 0,0 3,0l0 0z"/>
   <polygon class="fil10" points="782,1039 782,1055 782,1055 "/>
   <path class="fil10" d="M788 1039c0,0 -3,0 -3,0 0,0 3,3 3,3 0,0 0,-3 0,-3 0,0 0,0 0,0l0 0zm0 3l0 13 0 0 0 -13 0 0z"/>
   <polygon class="fil10" points="801,1055 804,1055 798,1048 804,1042 801,1042 795,1048 795,1039 795,1039 795,1055 795,1055 795,1052 798,1048 "/>
   <path class="fil10" d="M810 1042c-3,0 -6,3 -6,6 0,4 3,7 6,7 0,0 3,0 3,-3l0 0c0,0 -3,0 -3,0 -3,0 -3,0 -3,-4l9 0c0,-3 -3,-6 -6,-6l0 0zm-3 6c0,-3 0,-3 3,-3 0,0 3,0 3,3l-6 0z"/>
   <path class="fil10" d="M823 1045l3 0c-3,-3 -3,-3 -6,-3 0,0 -4,3 -4,3 0,7 7,3 7,7 0,0 0,0 -3,0 0,0 0,0 -4,0l0 0c0,3 4,3 4,3 3,0 6,0 6,-3 0,-4 -6,-4 -6,-7 0,0 0,0 0,0 3,0 3,0 3,0l0 0z"/>
   <path class="fil68" d="M657 1264l0 3 0 0c0,0 0,-3 0,-3z"/>
   <path class="fil69" d="M657 1261l3 6 -3 0 0 -3c0,0 0,-3 0,-3z"/>
   <path class="fil70" d="M657 1255l9 12 -6 0 -3 -6 0 0c0,-3 0,-3 0,-6l0 0z"/>
   <path class="fil71" d="M660 1252l10 15 -4 0 -9 -12c3,0 3,0 3,-3z"/>
   <path class="fil72" d="M620 1186l3 3c0,0 0,0 -3,0l0 -3zm40 62l13 19 -3 0 -10 -15c0,0 0,-4 0,-4l0 0z"/>
   <path class="fil73" d="M620 1180l6 6c0,3 -3,3 -3,3l-3 -3 0 -6zm40 62l16 25 -3 0 -13 -19c0,-3 0,-3 0,-6z"/>
   <path class="fil74" d="M620 1173l9 13c0,0 -3,0 -3,0l-6 -6 0 -7 0 0zm43 66l16 28 -3 0 -16 -25c3,0 3,-3 3,-3z"/>
   <path class="fil75" d="M620 1167l12 19c0,0 -3,0 -3,0l-9 -13 0 -6 0 0zm43 69l22 31 -6 0 -16 -28c0,0 0,-3 0,-3l0 0z"/>
   <path class="fil76" d="M620 1161l15 22c0,0 -3,3 -3,3l-12 -19 0 -6zm43 69l25 37 -3 0 -22 -31c0,-3 0,-3 0,-6z"/>
   <path class="fil77" d="M620 1155l18 28c0,0 0,0 -3,0 0,0 0,0 0,0l-15 -22 0 -6zm46 68l25 44 -3 0 -25 -37c0,0 0,-3 3,-7z"/>
   <path class="fil78" d="M620 1148l21 35c0,0 -3,0 -3,0l-18 -28 0 -7 0 0zm46 72l29 47 -4 0 -25 -44c0,0 0,-3 0,-3z"/>
   <path class="fil79" d="M620 1142l25 38c0,3 -4,3 -4,3l-21 -35 0 -6zm46 72l32 53 -3 0 -29 -47c0,-3 0,-3 0,-6l0 0z"/>
   <path class="fil80" d="M620 1136l28 44 0 0c0,0 -3,0 -3,0l-25 -38 0 -6zm46 72l38 59 -6 0 -32 -53c0,0 0,-3 0,-6z"/>
   <path class="fil81" d="M620 1130l34 53c-3,-3 -3,-3 -6,-3l-28 -44 0 -6 0 0zm46 75l41 62 -3 0 -38 -59 0 0c0,0 0,-3 0,-3z"/>
   <path class="fil82" d="M620 1123l37 60c0,0 -3,0 -3,0l-34 -53 0 -7zm46 72l44 72 -3 0 -41 -62c0,-3 0,-7 0,-10l0 0z"/>
   <path class="fil83" d="M620 1117l93 150 -3 0 -44 -72c-3,-3 -3,-9 -9,-12 0,0 0,0 0,0l-37 -60 0 -6 0 0z"/>
   <polygon class="fil84" points="620,1114 716,1267 713,1267 620,1117 "/>
   <polygon class="fil85" points="620,1108 723,1267 716,1267 620,1114 "/>
   <polygon class="fil86" points="620,1102 726,1267 723,1267 620,1108 "/>
   <polygon class="fil87" points="620,1095 620,1095 620,1095 729,1267 726,1267 620,1102 "/>
   <polygon class="fil88" points="626,1095 732,1267 729,1267 620,1095 "/>
   <polygon class="fil89" points="629,1095 738,1267 732,1267 626,1095 "/>
   <polygon class="fil90" points="632,1095 741,1267 738,1267 629,1095 "/>
   <polygon class="fil91" points="635,1095 745,1267 741,1267 632,1095 "/>
   <polygon class="fil92" points="641,1095 748,1267 745,1267 635,1095 "/>
   <polygon class="fil93" points="645,1095 751,1267 748,1267 641,1095 "/>
   <polygon class="fil94" points="648,1095 757,1267 751,1267 645,1095 "/>
   <polygon class="fil95" points="651,1095 760,1267 757,1267 648,1095 "/>
   <polygon class="fil96" points="654,1095 763,1267 760,1267 651,1095 "/>
   <polygon class="fil97" points="660,1095 766,1267 763,1267 654,1095 "/>
   <polygon class="fil98" points="663,1095 770,1267 766,1267 660,1095 "/>
   <polygon class="fil99" points="666,1095 776,1267 770,1267 663,1095 "/>
   <polygon class="fil100" points="670,1095 779,1267 776,1267 666,1095 "/>
   <polygon class="fil101" points="673,1095 782,1267 779,1267 670,1095 "/>
   <polygon class="fil102" points="679,1095 785,1267 782,1267 673,1095 "/>
   <polygon class="fil103" points="682,1095 788,1267 785,1267 679,1095 "/>
   <polygon class="fil104" points="685,1095 795,1267 788,1267 682,1095 "/>
   <polygon class="fil105" points="688,1095 798,1267 795,1267 685,1095 "/>
   <polygon class="fil106" points="691,1095 801,1267 798,1267 688,1095 "/>
   <polygon class="fil107" points="698,1095 804,1267 801,1267 691,1095 "/>
   <polygon class="fil108" points="701,1095 810,1267 804,1267 698,1095 "/>
   <polygon class="fil109" points="704,1095 813,1267 810,1267 701,1095 "/>
   <polygon class="fil110" points="707,1095 816,1267 813,1267 704,1095 "/>
   <polygon class="fil111" points="713,1095 820,1267 816,1267 707,1095 "/>
   <polygon class="fil112" points="716,1095 823,1267 820,1267 713,1095 "/>
   <polygon class="fil113" points="720,1095 829,1267 823,1267 716,1095 "/>
   <polygon class="fil114" points="723,1095 832,1267 829,1267 720,1095 "/>
   <polygon class="fil115" points="726,1095 835,1267 832,1267 723,1095 "/>
   <polygon class="fil116" points="732,1095 838,1267 835,1267 726,1095 "/>
   <polygon class="fil117" points="735,1095 841,1267 838,1267 732,1095 "/>
   <polygon class="fil118" points="738,1095 848,1267 841,1267 735,1095 "/>
   <polygon class="fil119" points="741,1095 851,1267 848,1267 738,1095 "/>
   <polygon class="fil120" points="745,1095 854,1267 851,1267 741,1095 "/>
   <polygon class="fil121" points="751,1095 857,1267 854,1267 745,1095 "/>
   <polygon class="fil122" points="754,1095 860,1267 857,1267 751,1095 "/>
   <polygon class="fil123" points="757,1095 866,1267 860,1267 754,1095 "/>
   <polygon class="fil124" points="760,1095 870,1267 866,1267 757,1095 "/>
   <polygon class="fil125" points="763,1095 873,1267 870,1267 760,1095 "/>
   <polygon class="fil125" points="770,1095 876,1267 873,1267 763,1095 "/>
   <polygon class="fil126" points="773,1095 882,1267 876,1267 770,1095 "/>
   <polygon class="fil127" points="776,1095 885,1267 882,1267 773,1095 "/>
   <polygon class="fil128" points="779,1095 888,1267 885,1267 776,1095 "/>
   <polygon class="fil129" points="785,1095 891,1267 888,1267 779,1095 "/>
   <polygon class="fil130" points="788,1095 895,1267 891,1267 785,1095 "/>
   <polygon class="fil131" points="791,1095 901,1267 895,1267 788,1095 "/>
   <polygon class="fil132" points="795,1095 904,1267 901,1267 791,1095 "/>
   <polygon class="fil133" points="798,1095 907,1267 904,1267 795,1095 "/>
   <polygon class="fil134" points="804,1095 910,1267 907,1267 798,1095 "/>
   <polygon class="fil135" points="807,1095 913,1267 910,1267 804,1095 "/>
   <polygon class="fil136" points="810,1095 920,1267 913,1267 807,1095 "/>
   <polygon class="fil137" points="813,1095 923,1267 920,1267 810,1095 "/>
   <polygon class="fil138" points="816,1095 926,1267 923,1267 813,1095 "/>
   <polygon class="fil139" points="823,1095 929,1267 926,1267 816,1095 "/>
   <polygon class="fil140" points="826,1095 935,1267 929,1267 823,1095 "/>
   <polygon class="fil141" points="829,1095 938,1267 935,1267 826,1095 "/>
   <polygon class="fil142" points="832,1095 941,1267 938,1267 829,1095 "/>
   <polygon class="fil143" points="835,1095 945,1267 941,1267 832,1095 "/>
   <polygon class="fil144" points="841,1095 948,1267 945,1267 835,1095 "/>
   <polygon class="fil145" points="845,1095 954,1267 948,1267 841,1095 "/>
   <polygon class="fil146" points="848,1095 957,1267 954,1267 845,1095 "/>
   <polygon class="fil147" points="851,1095 960,1267 957,1267 848,1095 "/>
   <polygon class="fil148" points="857,1095 963,1267 960,1267 851,1095 "/>
   <polygon class="fil149" points="860,1095 966,1267 963,1267 857,1095 "/>
   <polygon class="fil150" points="863,1095 973,1267 966,1267 860,1095 "/>
   <polygon class="fil151" points="866,1095 976,1267 973,1267 863,1095 "/>
   <polygon class="fil152" points="870,1095 979,1267 976,1267 866,1095 "/>
   <polygon class="fil153" points="876,1095 982,1267 979,1267 870,1095 "/>
   <polygon class="fil154" points="879,1095 985,1267 982,1267 876,1095 "/>
   <polygon class="fil155" points="882,1095 991,1267 985,1267 879,1095 "/>
   <polygon class="fil156" points="885,1095 994,1267 991,1267 882,1095 "/>
   <polygon class="fil157" points="888,1095 998,1267 994,1267 885,1095 "/>
   <polygon class="fil158" points="895,1095 1001,1267 998,1267 888,1095 "/>
   <polygon class="fil159" points="898,1095 1007,1267 1001,1267 895,1095 "/>
   <polygon class="fil160" points="901,1095 1010,1267 1007,1267 898,1095 "/>
   <polygon class="fil161" points="904,1095 1013,1267 1010,1267 901,1095 "/>
   <polygon class="fil162" points="907,1095 1016,1267 1013,1267 904,1095 "/>
   <polygon class="fil163" points="913,1095 1019,1267 1016,1267 907,1095 "/>
   <polygon class="fil164" points="916,1095 1026,1267 1019,1267 913,1095 "/>
   <polygon class="fil165" points="920,1095 1029,1267 1026,1267 916,1095 "/>
   <polygon class="fil166" points="923,1095 1032,1267 1029,1267 920,1095 "/>
   <polygon class="fil167" points="929,1095 1035,1267 1032,1267 923,1095 "/>
   <polygon class="fil168" points="932,1095 1038,1267 1035,1267 929,1095 "/>
   <polygon class="fil169" points="935,1095 1044,1267 1038,1267 932,1095 "/>
   <polygon class="fil170" points="938,1095 1048,1267 1044,1267 935,1095 "/>
   <polygon class="fil171" points="941,1095 1051,1267 1048,1267 938,1095 "/>
   <polygon class="fil172" points="948,1095 1054,1267 1051,1267 941,1095 "/>
   <polygon class="fil173" points="951,1095 1057,1267 1054,1267 948,1095 "/>
   <polygon class="fil174" points="954,1095 1063,1267 1057,1267 951,1095 "/>
   <polygon class="fil175" points="957,1095 1066,1267 1063,1267 954,1095 "/>
   <polygon class="fil176" points="960,1095 1069,1267 1066,1267 957,1095 "/>
   <polygon class="fil177" points="966,1095 1073,1267 1069,1267 960,1095 "/>
   <polygon class="fil178" points="969,1095 1079,1267 1073,1267 966,1095 "/>
   <polygon class="fil179" points="973,1095 1082,1267 1079,1267 969,1095 "/>
   <polygon class="fil180" points="976,1095 1085,1267 1082,1267 973,1095 "/>
   <polygon class="fil181" points="982,1095 1088,1267 1085,1267 976,1095 "/>
   <polygon class="fil182" points="985,1095 1091,1267 1088,1267 982,1095 "/>
   <polygon class="fil183" points="988,1095 1098,1267 1091,1267 985,1095 "/>
   <polygon class="fil184" points="991,1095 1101,1267 1098,1267 988,1095 "/>
   <polygon class="fil185" points="994,1095 1104,1267 1101,1267 991,1095 "/>
   <polygon class="fil186" points="1001,1095 1107,1267 1104,1267 994,1095 "/>
   <polygon class="fil187" points="1004,1095 1110,1267 1107,1267 1001,1095 "/>
   <polygon class="fil188" points="1007,1095 1116,1267 1110,1267 1004,1095 "/>
   <polygon class="fil189" points="1010,1095 1119,1267 1116,1267 1007,1095 "/>
   <polygon class="fil190" points="1013,1095 1123,1267 1119,1267 1010,1095 "/>
   <polygon class="fil191" points="1019,1095 1126,1267 1123,1267 1013,1095 "/>
   <polygon class="fil192" points="1023,1095 1129,1267 1126,1267 1019,1095 "/>
   <polygon class="fil193" points="1026,1095 1135,1267 1129,1267 1023,1095 "/>
   <polygon class="fil194" points="1029,1095 1138,1267 1135,1267 1026,1095 "/>
   <polygon class="fil195" points="1032,1095 1141,1267 1138,1267 1029,1095 "/>
   <polygon class="fil196" points="1038,1095 1144,1267 1141,1267 1032,1095 "/>
   <polygon class="fil197" points="1041,1095 1151,1267 1144,1267 1038,1095 "/>
   <polygon class="fil198" points="1044,1095 1154,1267 1151,1267 1041,1095 "/>
   <polygon class="fil199" points="1048,1095 1157,1267 1154,1267 1044,1095 "/>
   <polygon class="fil200" points="1054,1095 1160,1267 1157,1267 1048,1095 "/>
   <polygon class="fil201" points="1057,1095 1160,1261 1160,1267 1160,1267 1054,1095 "/>
   <polygon class="fil202" points="1060,1095 1160,1255 1160,1261 1057,1095 "/>
   <polygon class="fil203" points="1063,1095 1160,1248 1160,1255 1060,1095 "/>
   <polygon class="fil204" points="1066,1095 1160,1242 1160,1248 1063,1095 "/>
   <polygon class="fil205" points="1073,1095 1160,1236 1160,1242 1066,1095 "/>
   <polygon class="fil206" points="1076,1095 1160,1230 1160,1236 1073,1095 "/>
   <polygon class="fil207" points="1079,1095 1160,1227 1160,1230 1076,1095 "/>
   <polygon class="fil208" points="1082,1095 1160,1220 1160,1227 1079,1095 "/>
   <polygon class="fil209" points="1085,1095 1160,1214 1160,1220 1082,1095 "/>
   <polygon class="fil210" points="1091,1095 1160,1208 1160,1214 1085,1095 "/>
   <polygon class="fil211" points="1094,1095 1160,1202 1160,1208 1091,1095 "/>
   <polygon class="fil212" points="1098,1095 1160,1195 1160,1202 1094,1095 "/>
   <polygon class="fil213" points="1101,1095 1160,1189 1160,1195 1098,1095 "/>
   <polygon class="fil214" points="1104,1095 1160,1183 1160,1189 1101,1095 "/>
   <polygon class="fil215" points="1110,1095 1160,1177 1160,1183 1104,1095 "/>
   <polygon class="fil216" points="1113,1095 1160,1170 1160,1177 1110,1095 "/>
   <polygon class="fil217" points="1116,1095 1160,1164 1160,1170 1113,1095 "/>
   <polygon class="fil218" points="1119,1095 1160,1158 1160,1164 1116,1095 "/>
   <polygon class="fil219" points="1126,1095 1160,1155 1160,1158 1119,1095 "/>
   <polygon class="fil220" points="1129,1095 1160,1148 1160,1155 1126,1095 "/>
   <polygon class="fil221" points="1132,1095 1160,1142 1160,1148 1129,1095 "/>
   <polygon class="fil222" points="1135,1095 1160,1136 1160,1142 1132,1095 "/>
   <polygon class="fil223" points="1138,1095 1160,1130 1160,1136 1135,1095 "/>
   <polygon class="fil224" points="1144,1095 1160,1123 1160,1130 1138,1095 "/>
   <polygon class="fil225" points="1148,1095 1160,1117 1160,1123 1144,1095 "/>
   <polygon class="fil226" points="1151,1095 1160,1111 1160,1117 1148,1095 "/>
   <polygon class="fil227" points="1154,1095 1160,1105 1160,1111 1151,1095 "/>
   <polygon class="fil228" points="1157,1095 1160,1098 1160,1105 1154,1095 "/>
   <polygon class="fil229" points="1160,1098 1157,1095 1160,1095 "/>
   <polygon class="fil1" points="998,502 1069,502 1069,908 998,908 "/>
   <polygon class="fil1" points="1026,908 998,908 998,502 1026,502 "/>
   <polygon class="fil1" points="888,670 963,670 963,908 888,908 "/>
   <line class="fil230" x1="888" y1="670" x2="888" y2= "670" />
   <polygon class="fil119" points="895,670 888,670 "/>
   <polygon class="fil119" points="898,670 895,670 "/>
   <polygon class="fil120" points="901,670 898,670 "/>
   <polygon class="fil121" points="907,670 901,670 "/>
   <polygon class="fil231" points="910,670 907,670 "/>
   <polygon class="fil123" points="913,670 910,670 "/>
   <polygon class="fil124" points="916,670 913,670 "/>
   <line class="fil125" x1="916" y1="670" x2="916" y2= "670" />
   <polygon class="fil1" points="916,908 888,908 888,670 916,670 "/>
   <polygon class="fil1" points="782,748 854,748 854,908 782,908 "/>
   <polygon class="fil1" points="810,908 782,908 782,748 810,748 "/>
   <polygon class="fil1" points="673,814 745,814 745,908 673,908 "/>
   <polygon class="fil1" points="701,908 673,908 673,814 701,814 "/>
   <polygon class="fil232" points="713,783 798,855 848,761 910,833 1135,536 1126,530 910,817 845,745 795,839 720,773 "/>
   <path class="fil232" d="M1129 608c-3,0 -6,0 -6,-3l6 -72 -66 25c-3,3 -3,0 -6,-3 0,0 0,-3 3,-3l72 -28c3,0 3,0 6,0 0,0 0,3 0,3l-6 78c0,0 0,3 0,3 0,0 -3,0 -3,0l0 0z"/>
   <path class="fil232" d="M807 848c0,7 -6,10 -12,10 -7,0 -10,-3 -10,-10 0,-6 3,-12 10,-12 6,0 12,6 12,12z"/>
   <path class="fil232" d="M807 848l-6 0c0,4 -3,7 -6,7 -4,0 -7,-3 -7,-7 0,-3 3,-6 7,-6 3,0 6,3 6,6l6 0 6 0c0,-9 -9,-15 -18,-15 -7,0 -16,6 -16,15 0,10 9,16 16,16 9,0 18,-6 18,-16l-6 0z"/>
   <path class="fil232" d="M857 755c0,3 -6,9 -12,9 -7,0 -10,-6 -10,-9 0,-7 3,-13 10,-13 6,0 12,6 12,13z"/>
   <path class="fil232" d="M857 755l-6 0c0,3 -3,3 -6,3 -4,0 -7,0 -7,-3 0,-7 3,-7 7,-7 3,0 6,0 6,7l6 0 3 0c0,-10 -6,-19 -15,-19 -10,0 -16,9 -16,19 0,6 6,15 16,15 9,0 15,-9 15,-15l-3 0z"/>
   <path class="fil232" d="M923 827c0,6 -7,9 -13,9 -6,0 -9,-3 -9,-9 0,-7 3,-13 9,-13 6,0 13,6 13,13z"/>
   <path class="fil232" d="M923 827l-7 0c0,3 -3,6 -6,6 -3,0 -6,-3 -6,-6 0,-4 3,-7 6,-7 3,0 6,3 6,7l7 0 3 0c0,-10 -6,-19 -16,-19 -9,0 -15,9 -15,19 0,6 6,15 15,15 10,0 16,-9 16,-15l-3 0z"/>
   <path class="fil6" d="M969 314l-159 0c0,0 -3,0 -3,-3 0,0 3,-3 3,-3l159 0c4,0 4,3 4,3 0,3 0,3 -4,3z"/>
   <path class="fil6" d="M785 317c3,0 6,-3 6,-6 0,-3 -3,-6 -6,-6 -3,0 -6,3 -6,6 0,3 3,6 6,6z"/>
   <path class="fil6" d="M994 317c7,0 7,-3 7,-6 0,-3 0,-6 -7,-6 -3,0 -6,3 -6,6 0,3 3,6 6,6z"/>
   <path class="fil3" d="M626 1417c-3,6 -10,10 -16,13 -6,0 -15,0 -22,0 -37,-10 -72,-32 -93,-60 -22,-31 -35,-68 -32,-106 0,-9 3,-19 10,-22 6,-3 9,0 15,-3 10,0 16,-12 16,-22 0,-9 -3,-19 -6,-28 -7,-19 -10,-37 -7,-56 0,-19 10,-38 22,-53 13,-10 28,-16 41,-10 9,7 12,16 16,25 3,13 6,22 9,35 0,12 3,25 6,37 6,13 19,22 31,22 7,0 13,-3 19,-6 10,-3 16,-3 22,0 9,6 9,15 9,25 0,19 -3,34 -9,53 0,3 -3,6 0,6 0,6 6,10 13,6 6,0 9,-3 15,-3 13,-3 25,7 28,19 7,13 3,25 0,38 -9,37 -34,75 -68,93 -7,3 -13,7 -19,3l0 -6 0 0z"/>
   <path class="fil4" d="M598 1395c-3,0 -3,0 -3,0 -10,-15 -16,-28 -22,-43 0,0 0,0 3,0 3,-4 3,-10 0,-10 -3,0 -3,0 -3,0 0,0 -3,0 -3,0 -7,-12 -13,-25 -16,-37 0,3 3,3 3,3 0,0 3,0 3,0 0,-3 0,-3 3,-3 10,25 19,50 32,72 0,3 -4,3 -4,3 -6,0 -3,6 0,6 0,0 0,0 4,0 0,0 3,0 3,0 0,0 3,3 3,3 3,3 0,6 -3,6zm-44 -93c-22,-63 -31,-132 -28,-200 0,-4 3,-4 3,-4 3,0 3,0 3,4 -3,65 6,134 28,196 -3,0 -3,0 -6,0 0,4 0,4 0,4l0 0z"/>
   <path class="fil4" d="M554 1305c0,0 0,0 0,-3 0,3 0,3 0,3zm9 0c-3,-3 -3,-7 -3,-7 28,-18 53,-46 66,-78 0,0 0,-3 3,-3 3,0 3,3 3,6 -12,35 -37,63 -69,82l0 0z"/>
   <path class="fil5" d="M557 1308c0,0 -3,0 -3,-3 0,0 0,0 0,-3 0,0 0,0 0,-4 3,0 3,0 6,0 0,0 0,4 3,7 -3,0 -3,0 -3,3 0,0 -3,0 -3,0z"/>
   <path class="fil4" d="M598 1386c0,-3 -3,-6 -3,-9 31,-10 56,-29 75,-57 0,0 3,0 3,0 3,0 6,3 3,7 -19,25 -47,46 -78,59z"/>
   <path class="fil5" d="M591 1386c-3,0 -6,-6 0,-6 0,0 4,0 4,-3 0,3 3,6 3,9 0,0 -3,0 -3,0 -4,0 -4,0 -4,0z"/>
   <path class="fil4" d="M566 1352c-12,0 -25,-7 -37,-13 -16,-9 -31,-25 -38,-44 0,-3 4,-6 7,-6 0,0 3,3 3,3 6,19 19,31 34,41 6,3 19,9 31,9 0,0 0,0 4,0 0,3 0,6 3,10 -3,0 -3,0 -7,0l0 0z"/>
   <path class="fil5" d="M573 1352c-3,-4 -3,-7 -3,-10 0,0 3,0 3,0 0,0 0,0 3,0 3,0 3,6 0,10 -3,0 -3,0 -3,0z"/>
   <path class="fil233" d="M348 599c-3,-7 -10,-7 -16,-7 -9,0 -12,3 -19,10 -9,6 -12,15 -15,28 -3,12 3,28 3,40 -3,13 -19,25 -28,35 -22,18 -57,3 -82,18 -12,10 -18,22 -18,38 -3,12 3,28 9,41 6,12 13,21 25,31 13,9 31,12 50,15 78,4 159,-37 203,-103 13,-18 41,-50 41,-100 -3,-31 -22,-68 -47,-84 -28,-16 -66,-12 -91,6 -9,10 -18,19 -18,32l3 0 0 0z"/>
   <path class="fil233" d="M351 595c-25,-21 -50,10 -56,35 -4,18 9,37 -4,53 -15,19 -34,28 -59,28 -28,3 -59,9 -62,44 -7,34 18,75 50,87 31,13 71,10 103,3 37,-9 72,-28 100,-53 22,-19 43,-47 59,-72 19,-31 25,-65 16,-96 -10,-38 -35,-69 -72,-75 -35,-4 -81,12 -85,50 0,3 4,3 7,0 3,-38 56,-50 87,-41 35,9 53,44 60,75 6,31 -4,62 -19,87 -16,22 -31,44 -50,60 -44,43 -106,68 -169,65 -19,-3 -41,-6 -53,-18 -13,-13 -25,-32 -28,-47 -3,-22 0,-47 22,-57 12,-6 31,-3 47,-6 21,-3 46,-19 56,-37 6,-10 3,-22 0,-32 0,-12 0,-21 3,-31 6,-12 25,-31 41,-15 3,3 9,-3 6,-7l0 0z"/>
   <path class="fil234" d="M573 752c0,-7 -13,-47 -7,-50 7,0 7,15 10,15 6,3 6,-15 9,-19 0,-6 3,-15 13,-15 9,3 15,9 15,15 3,19 -6,50 -22,60l-18 -6z"/>
   <path class="fil234" d="M591 739l0 9 4 10c0,6 0,12 0,19 0,6 0,12 -4,18 0,7 0,13 0,16 0,6 0,12 -3,19 0,6 0,12 -3,18 0,13 -3,25 -6,38l-34 6c-7,-9 -16,-15 -22,-25l-25 -25c-7,-6 -16,-15 -25,-25 -3,-3 -7,-9 -10,-12 -3,-3 -6,-7 -6,-7 -3,-3 -3,-6 -6,-9l47 -31c0,3 3,6 3,6 3,3 3,6 6,9 0,4 3,7 6,13 7,9 13,16 22,25l19 28c6,9 16,19 22,28l-35 6c4,-12 10,-21 13,-34 0,-3 3,-9 3,-16 3,-6 3,-9 6,-15 0,-6 3,-13 3,-16 0,-6 4,-12 4,-19 0,-6 0,-9 3,-15l0 -10 0 -9 18 0 0 0z"/>
   <polygon class="fil233" points="591,670 607,755 591,761 560,680 "/>
   <path class="fil234" d="M579 655c3,15 -6,34 -22,37 -19,3 -34,-6 -41,-22 -3,-15 7,-34 22,-37 19,-6 35,3 41,22z"/>
   <path class="fil1" d="M726 614c3,10 -3,19 -13,22 -9,3 -18,-3 -22,-12 -3,-10 4,-19 13,-22 9,-3 19,3 22,12z"/>
   <path class="fil7" d="M566 689c19,-6 107,-12 166,13l-44 -166c-40,50 -118,88 -137,94l15 59 0 0z"/>
   <polygon class="fil233" points="560,620 538,627 557,698 579,692 "/>
   <path class="fil234" d="M595 705c-4,6 -4,12 3,15 3,3 9,3 12,-3 3,-6 0,-25 -9,-28 -3,0 -6,0 -10,3 -3,6 -3,13 0,19 0,6 4,16 7,19 6,3 12,-3 12,-10 3,-9 3,-34 -12,-34 -16,0 -7,25 -3,34 6,10 18,0 15,-9 -3,-3 -3,-6 -3,-9 -3,0 -3,-4 -3,-4 0,-3 0,-3 -3,0 -6,0 -6,0 -6,4 0,3 0,6 0,9 0,3 0,6 0,9 3,0 9,-3 12,-6 3,3 3,3 0,0 0,-3 0,-3 0,-6 0,-3 0,-6 0,-10 -3,4 -3,4 -3,7l0 0c-3,0 -6,0 -6,0 -3,0 -3,0 -3,3 0,0 0,3 0,3 3,-3 9,-3 12,-3l0 0c0,0 0,3 3,3 0,0 0,-3 0,-6 0,-10 -15,-10 -15,0l0 0z"/>
   <path class="fil234" d="M232 977c-3,3 -34,34 -41,28 -3,-7 10,-13 10,-13 0,-9 -16,-3 -19,0 -9,0 -19,3 -22,-6 -3,-6 3,-19 10,-22 12,-12 46,-16 62,-6l0 19 0 0z"/>
   <path class="fil234" d="M191 967l10 -3c3,0 6,-3 9,-3 3,0 3,0 6,-3 4,0 7,0 10,-3 6,0 12,-3 15,-7 4,0 7,0 10,-3 3,0 6,0 9,-3 10,-3 19,-9 31,-15 7,-4 10,-4 16,-7l9 -6 7 -3 -10 9 3 -9 4 -6c3,-7 3,-13 6,-16 3,-12 6,-25 9,-34 3,-13 6,-22 6,-32 4,-3 4,-6 4,-9 0,-3 0,-6 0,-6 0,-3 0,-6 0,-6l0 -4 0 -3 53 -6 0 6 0 7c0,3 0,6 0,9 0,3 0,9 -3,12 0,4 0,7 0,10 -4,12 -10,25 -13,37 -6,13 -9,22 -16,35 -3,6 -6,9 -9,15l-3 10 -6 9 -10 6 -9 7 -6 3c-7,0 -13,3 -19,3 -13,6 -22,9 -34,12 -4,0 -7,0 -10,3 -3,0 -6,0 -9,0 -6,4 -13,4 -19,7 -3,0 -6,0 -9,0 -3,3 -7,3 -10,3 -3,0 -6,0 -9,0l-9 3 -4 -19 0 0z"/>
   <path class="fil235" d="M391 930l-18 -41c3,-6 6,-12 9,-19 3,-12 9,-25 13,-37 0,-3 0,-6 0,-10 3,-3 3,-9 3,-12 0,0 0,0 0,0 9,-6 15,-9 25,-19 3,-3 9,-9 15,-12l16 140 -63 10 0 0z"/>
   <path class="fil236" d="M398 805c0,-3 0,-3 0,-3l0 -7 0 -6 -53 6c0,-12 9,-22 21,-28 10,-3 32,-9 47,-12l0 6c3,9 10,16 19,16 -3,0 -3,3 -6,3 -10,9 -16,15 -28,25z"/>
   <path class="fil236" d="M398 811c0,-3 0,-3 0,-6 12,-10 18,-16 28,-25 3,0 3,-3 6,-3 0,0 0,0 3,0 0,0 0,0 0,0l3 3c-6,3 -12,9 -15,12 -10,10 -16,13 -25,19l0 0z"/>
   <path class="fil236" d="M345 811c-4,-6 -4,-13 0,-16l0 3 0 4c0,0 0,3 0,6 0,0 0,3 0,3l0 0z"/>
   <path class="fil237" d="M373 889l-13 -37 -15 -41c0,0 0,0 0,0 0,0 0,-3 0,-3 0,-3 0,-6 0,-6l0 -4 0 -3c0,0 0,0 0,0l53 -6 0 6 0 7c0,0 0,0 0,3 0,3 0,3 0,6 0,0 0,0 0,0 0,3 0,9 -3,12 0,4 0,7 0,10 -4,12 -10,25 -13,37 -3,7 -6,13 -9,19z"/>
   <path class="fil7" d="M388 914c0,0 -9,6 -12,16 -13,18 -31,50 -31,103 0,72 109,0 109,0l0 -119 -66 0z"/>
   <path class="fil232" d="M432 748c0,0 38,4 50,4 16,3 25,21 25,40l0 41 -3 81 -50 6 -22 -172 0 0z"/>
   <path class="fil7" d="M504 914c0,0 6,6 9,16 7,18 22,50 22,103 0,72 -81,0 -81,0l0 -119 50 0z"/>
   <polygon class="fil234" points="441,1389 454,1342 423,1333 410,1380 "/>
   <path class="fil7" d="M413 1361l3 -13 0 -12c4,-9 7,-16 7,-25 6,-16 9,-31 15,-47 3,-19 7,-34 13,-50l12 -47 -3 13 0 -10 0 -12c0,-6 -3,-13 -3,-19 0,-16 -3,-28 -6,-41 -3,-12 -3,-25 -10,-37 0,-6 -3,-9 -3,-16 -3,0 -3,-3 -3,-3 -3,0 -3,0 -3,0l88 -62c6,9 9,15 9,18 3,7 6,13 6,16 3,13 3,19 3,28 3,19 3,35 3,50 0,16 0,28 -3,44 0,9 0,16 0,22l-3 12 0 13 -3 12 -22 44c-6,13 -15,28 -22,44 -6,15 -15,28 -22,44 -3,6 -6,15 -9,21l-6 13 -3 9 -35 -9 0 0z"/>
   <path class="fil233" d="M445 1380c0,0 28,22 43,40 0,0 3,3 0,3 0,4 -3,0 -3,0 -22,-6 -44,-12 -65,-18 3,-7 0,-13 -4,-16 -3,3 -3,6 -6,9 -3,0 -3,4 -3,4l-12 -7c0,0 0,-6 3,-12 3,-3 9,-13 12,-13 0,0 0,0 3,0 10,3 32,10 32,10l0 0z"/>
   <polygon class="fil234" points="145,1080 188,1102 204,1073 160,1052 "/>
   <path class="fil7" d="M179 1058l12 3 10 6c9,3 15,6 25,10 15,6 28,15 44,21 15,7 31,13 46,22l44 22 -53 16 6 -22c3,-6 7,-13 10,-19 3,-12 6,-25 9,-40 6,-13 9,-25 9,-38 4,-3 4,-6 4,-9 0,-3 0,-7 0,-7 0,-3 0,-6 0,-9 0,0 0,0 0,0 0,0 0,0 0,-3l0 0 106 0 0 6c0,0 0,3 0,3 0,3 0,7 0,10 -3,6 -3,9 -6,12 0,6 0,10 -4,16 0,3 -3,6 -3,9 -6,16 -12,31 -22,44 -6,12 -12,28 -18,41 -7,6 -10,12 -13,18l-6 10 -6 9 -50 16 -41 -32c-12,-9 -28,-18 -41,-28 -12,-9 -25,-18 -40,-28 -6,-6 -13,-9 -19,-15l-9 -7 -10 -6 16 -31 0 0z"/>
   <path class="fil233" d="M154 1086c0,0 -28,22 -47,34 0,0 -3,3 -6,0 0,0 0,-3 3,-3 9,-19 19,-40 28,-59 6,3 13,3 19,0 -3,-3 -6,-6 -10,-10 0,-3 -3,-3 -3,-3l7 -12c0,0 9,3 12,6 3,3 13,13 13,13 0,3 0,3 0,3 -7,9 -16,31 -16,31l0 0z"/>
   <path class="fil1" d="M445 914c3,25 3,47 3,72 0,0 3,3 3,0 6,-9 12,-13 12,-22 3,-16 0,-34 -3,-50 0,-3 -3,-3 -3,0 3,13 3,28 3,41 0,9 -3,12 -6,22 -3,3 -6,3 -6,6 0,0 3,3 3,3 0,-25 0,-47 0,-72 0,0 -6,0 -6,0l0 0z"/>
   <path class="fil1" d="M413 914c-3,25 -25,50 -53,44 -3,-3 -3,3 0,3 31,9 53,-19 60,-47 0,-3 -4,-3 -7,0z"/>
   <path class="fil1" d="M491 914c0,16 10,59 35,47 3,-3 0,-6 -3,-3 -19,9 -28,-31 -28,-44 0,-3 -4,-3 -4,0l0 0z"/>
   <path class="fil233" d="M438 742l-12 3c-44,10 -85,-18 -94,-62l-3 -16c-9,-47 22,-90 69,-100l0 0c43,-9 90,22 100,69l3 12c9,44 -19,88 -63,94l0 0z"/>
   <path class="fil234" d="M466 664l0 0c4,-3 7,-6 7,-9l0 0c6,-3 9,-3 15,-7l0 0c-3,0 -6,0 -9,4 -3,0 -3,0 -6,3 -3,3 -7,9 -7,15 0,3 4,10 7,16 3,3 9,6 15,6 0,-3 3,-3 7,-3 3,0 6,-3 9,-3 3,-3 3,-6 6,-13 0,-3 0,-3 0,-6 0,-3 -3,-6 -3,-9 -3,-3 -9,-10 -12,-10 -7,0 -13,0 -16,4 -3,0 -3,0 -6,3 -3,3 -3,6 -7,9l0 0z"/>
   <path class="fil7" d="M501 664c-3,-9 -19,-9 -22,3 0,0 3,3 6,3 0,-3 3,0 3,0 0,3 0,7 -3,7 -3,0 -3,6 0,6 6,-3 10,-6 10,-13 -4,-6 -7,-9 -13,-6 0,0 3,3 3,3 0,-6 10,-6 13,-3 0,3 6,3 3,0l0 0z"/>
   <path class="fil234" d="M329 702l0 0c0,6 6,12 9,12 7,3 13,6 16,3 6,0 12,-3 12,-9 4,-6 7,-10 4,-16l0 0c0,-6 -7,-12 -10,-12 -3,-3 -12,-7 -15,-3 -7,0 -13,3 -13,9 -3,6 -3,9 -3,16z"/>
   <path class="fil7" d="M341 695c0,-3 7,-6 10,-3 0,0 3,-3 3,-3 -6,0 -9,6 -9,9 3,7 6,10 12,10 3,0 3,-6 0,-6 -3,0 -6,0 -6,-4 0,-3 0,-3 3,-3 3,0 3,-3 3,-6 -6,-9 -22,-3 -22,6 0,3 6,3 6,0z"/>
   <path class="fil234" d="M407 730l6 31c3,9 13,16 25,16 10,-4 16,-13 16,-25l-6 -29c-3,-12 -13,-18 -25,-15 -10,3 -16,12 -16,22l0 0z"/>
   <path class="fil238" d="M435 777c-9,0 -19,-7 -22,-16l0 -13 -3 -6c3,0 6,0 10,0 3,0 6,0 12,0l0 0c6,-3 13,-3 19,-6l3 16c0,3 0,3 0,6 0,9 -6,15 -16,19 0,0 0,0 -3,0 0,0 0,0 0,0z"/>
   <path class="fil234" d="M432 742l0 0c34,-6 56,-40 50,-75l-9 -40c-7,-35 -41,-57 -75,-50 -35,6 -57,40 -50,75l6 40c9,35 41,56 78,50z"/>
   <path class="fil7" d="M429 673c0,7 0,16 6,22 0,3 6,0 3,-3 -3,-6 -6,-12 -3,-19 0,-3 -6,-3 -6,0z"/>
   <path class="fil7" d="M438 695c0,-3 3,-6 7,-3 0,3 0,6 -4,6 -3,4 -3,7 0,7 7,-3 13,-10 7,-16 -7,-6 -16,-3 -13,6 0,3 3,3 3,0l0 0z"/>
   <path class="fil7" d="M426 723c3,0 12,-6 9,-9 -6,-6 -12,0 -15,3 3,0 3,0 6,0 0,-6 -6,-9 -13,-9 -3,0 -3,0 -3,3 0,3 0,6 3,9 3,3 10,7 13,3 0,-3 -3,-6 -6,-3 3,-3 0,-3 -4,-3 0,-3 -3,-3 0,-6 -3,0 -3,3 -3,3 3,0 7,0 7,3 0,3 3,6 6,3 0,0 3,-6 3,-3 0,0 -3,0 -6,3 -3,0 0,3 3,3l0 0z"/>
   <path class="fil7" d="M426 714c0,3 0,3 0,3 0,0 3,3 3,3 0,0 0,0 3,0 0,-3 0,-6 -3,-6 -3,3 -9,3 -9,0 -4,-3 -7,0 -7,3 3,0 3,3 7,3 3,0 6,-3 3,-3 -3,-3 -3,-3 -3,-3 0,-3 -7,0 -4,3 0,0 0,0 4,3 0,-3 0,-3 3,-6 -3,0 -3,0 -3,0 -4,0 -4,0 -7,3 7,3 13,6 19,3 -3,-3 -3,-3 -3,-6 -3,0 -3,3 -3,3 -3,3 0,6 3,3 3,0 3,-3 3,-3 0,-3 -3,-6 -6,-3l0 0z"/>
   <path class="fil239" d="M482 689c0,-3 0,-6 0,-9 0,0 0,0 0,0 0,0 3,3 3,3 0,0 0,0 0,0 0,0 0,3 -3,6z"/>
   <path class="fil240" d="M485 683c0,0 -3,-3 -3,-3 3,0 3,0 3,3 0,0 0,0 0,0 0,0 0,0 0,0z"/>
   <path class="fil239" d="M463 695c-3,0 -6,0 -6,-3 -3,-3 3,-9 13,-12 3,0 6,0 9,0 0,0 3,0 3,0 0,3 0,6 0,9 -3,3 -3,3 -9,6 -3,0 -7,0 -10,0l0 0z"/>
   <path class="fil7" d="M466 686c4,-3 7,-6 4,-9 0,-4 -4,-7 -7,-7 -3,0 -3,3 -3,10 0,3 3,6 6,6z"/>
   <path class="fil233" d="M470 661c0,-3 -4,-6 -10,-6 -3,0 -6,3 -6,6 -3,0 0,3 0,3 3,0 3,0 3,-3 3,0 6,0 6,0 3,3 10,3 7,0z"/>
   <path class="fil239" d="M401 708c-10,0 -16,-3 -16,-6 0,-4 6,-7 16,-7 0,0 0,0 0,0 9,0 15,3 15,7 0,3 -9,6 -15,6 0,0 0,0 0,0z"/>
   <path class="fil7" d="M404 698c-3,0 -6,-3 -9,-6 0,-6 3,-9 6,-9 3,0 6,3 6,6 0,3 0,6 -3,9z"/>
   <path class="fil233" d="M398 677c-3,-4 3,-7 6,-4 0,4 6,0 3,-3 -6,-6 -19,-3 -16,7 0,3 7,3 7,0l0 0z"/>
   <path class="fil233" d="M351 680l0 3c40,-10 69,-50 59,-94l-3 0c-41,13 -66,50 -56,91z"/>
   <path class="fil233" d="M445 583l-35 6 13 63c25,-3 43,-25 50,-50l-28 -19 0 0z"/>
   <path class="fil233" d="M351 680c0,0 28,-41 31,-44 0,-3 28,-47 28,-47l41 3 -3 -15 -47 -7 -44 22 -9 22 -7 34 10 32 0 0z"/>
   <path class="fil241" d="M1329 1236l6 12c3,4 3,4 6,4l13 3c6,0 6,6 3,9l-9 9c0,4 -4,7 0,7l0 15c3,3 -4,7 -7,7l-12 -7c-3,-3 -6,-3 -6,0l-13 7c-6,0 -9,-4 -9,-7l3 -15c0,0 0,-3 -3,-7l-10 -9c-3,-3 -3,-9 3,-9l13 -3c3,0 6,0 6,-4l6 -12c4,-3 10,-3 10,0z"/>
   <path class="fil3" d="M138 639c0,3 3,6 7,6 6,0 9,-3 9,-6 0,-25 -22,-44 -44,-44 -6,0 -9,4 -9,7 0,3 3,6 9,6 16,0 28,16 28,31l0 0z"/>
   <path class="fil3" d="M173 645c3,0 6,-3 6,-6 0,-40 -31,-72 -69,-72 -6,0 -9,3 -9,7 0,3 3,6 9,6 31,0 56,28 56,59 0,3 4,6 7,6l0 0z"/>
   <path class="fil3" d="M101 633c0,9 6,15 12,15 7,0 13,-6 13,-15 0,-6 -6,-13 -13,-13 -6,0 -12,7 -12,13z"/>
   <path class="fil241" d="M857 380l-81 0c-22,0 -38,19 -38,40l0 57c0,22 16,40 38,40l25 0 15 28 16 -28 25 0c22,0 41,-18 41,-40l0 -57c0,-21 -19,-40 -41,-40z"/>
   <path class="fil232" d="M798 464c0,-3 0,-3 3,-6 0,0 0,0 3,0 3,0 3,0 3,0 3,3 3,3 3,6 0,0 0,3 -3,3 0,3 0,3 -3,3 -3,0 -3,0 -3,-3 -3,0 -3,-3 -3,-3zm0 -31c0,0 0,-3 3,-3 0,0 0,-3 3,-3 3,0 3,3 3,3 3,0 3,3 3,3 0,3 0,3 -3,6 0,0 0,0 -3,0 -3,0 -3,0 -3,0 -3,-3 -3,-3 -3,-6z"/>
   <path class="fil232" d="M835 449c0,6 0,12 -3,18 0,3 -3,10 -6,13l-10 0c4,-3 7,-10 7,-16 3,-3 3,-9 3,-15 0,-7 0,-13 -3,-16 0,-6 -3,-13 -7,-16l10 0c3,3 6,10 6,13 3,6 3,12 3,19z"/>
   <polygon class="fil241" points="479,242 516,289 557,242 532,242 532,217 501,217 501,242 "/>
   <path class="fil7" d="M1173 983l-116 0c-31,0 -59,25 -59,59l0 81c0,32 28,57 59,57l34 0 25 40 22 -40 35 0c34,0 59,-25 59,-57l0 -81c0,-34 -25,-59 -59,-59z"/>
   <path class="fil232" d="M1119 1117c0,3 4,10 7,10 6,0 9,-7 9,-10 0,-31 -25,-56 -56,-56 -3,0 -6,3 -6,9 0,3 3,10 6,10 22,0 40,15 40,37l0 0z"/>
   <path class="fil232" d="M1163 1127c3,0 6,-7 6,-10 0,-50 -40,-90 -90,-90 -3,0 -6,3 -6,9 0,3 3,9 6,9 40,0 75,32 75,72 0,3 3,10 9,10l0 0z"/>
   <path class="fil232" d="M1069 1111c0,9 7,19 16,19 9,0 19,-10 19,-19 0,-9 -10,-16 -19,-16 -9,0 -16,7 -16,16z"/>
   <path class="fil234" d="M1044 186c0,-3 0,-6 0,-9 0,-16 -12,-28 -28,-28 -12,0 -22,6 -25,15 -3,0 -6,0 -9,0 -13,0 -22,10 -22,19 0,0 0,3 0,3 -12,0 -22,9 -22,22 0,12 13,25 25,25l78 0c13,0 25,-13 25,-25 0,-13 -9,-22 -22,-22l0 0z"/>
   <path class="fil242" d="M1323 589l-66 0c-16,0 -31,13 -31,31l0 44c0,19 15,31 31,31l19 0 12 22 13 -22 22 0c15,0 31,-12 31,-31l0 -44c0,-18 -16,-31 -31,-31l0 0z"/>
   <path class="fil232" d="M1323 620c-4,-3 -7,-6 -13,-9 -6,-3 -9,-3 -16,-3 -9,0 -15,0 -21,3 -7,3 -10,9 -13,16 -3,6 -6,12 -6,18 0,10 3,19 9,25 6,3 16,7 28,7 7,0 13,0 19,-4l0 -9c-3,3 -6,3 -9,3 -7,3 -10,3 -13,3 -6,0 -12,-3 -19,-6 -3,-6 -6,-12 -6,-19 0,-6 3,-12 6,-15 0,-6 4,-10 10,-13 3,0 9,-3 15,-3 4,0 7,3 10,3 6,3 6,7 9,10 3,3 3,6 3,12 0,3 0,6 -3,10 0,3 0,3 -3,3 -3,0 -3,0 -3,-3l0 -22c0,0 -3,-3 -6,-3 -3,0 -7,0 -10,0 -6,0 -9,3 -15,6 -3,3 -3,9 -3,12 0,7 0,13 3,13 3,3 6,6 12,6 3,0 10,-3 13,-6l0 0c0,3 3,3 3,3 3,3 3,3 6,3 3,0 6,0 9,-3 0,-3 4,-3 4,-10 3,-3 3,-6 3,-9 0,-6 0,-12 -3,-19l0 0 0 0zm-38 16c0,-3 3,-6 6,-6 3,0 7,3 7,3l0 9c0,3 -4,7 -4,10 0,0 -3,0 -6,0 -3,0 -6,-3 -6,-7 0,-6 0,-9 3,-9l0 0z"/>
   <path class="fil242" d="M332 1336c0,34 -25,59 -56,59 -31,0 -60,-25 -60,-59 0,-31 29,-56 60,-56 31,0 56,25 56,56z"/>
   <path class="fil232" d="M257 1352c3,9 9,15 19,15 9,0 15,-6 19,-15l-38 0z"/>
   <path class="fil232" d="M260 1333c0,3 -3,6 -6,6 -3,0 -6,-3 -6,-6 0,-3 3,-6 6,-6 3,0 6,3 6,6z"/>
   <path class="fil232" d="M304 1333c0,3 -3,6 -6,6 -3,0 -7,-3 -7,-6 0,-3 4,-6 7,-6 3,0 6,3 6,6z"/>
   <path class="fil234" d="M388 358l-134 0c-19,0 -38,19 -38,37l0 54c0,21 19,40 38,40l56 0 16 25 12 -25 50 0c22,0 41,-19 41,-40l0 -54c0,-18 -19,-37 -41,-37l0 0z"/>
   <path class="fil232" d="M351 402l-6 0 -16 9 6 6c3,-3 6,-6 6,-6 0,0 0,0 0,-3 0,3 0,6 0,9l0 28 10 0 0 -43 0 0z"/>
   <path class="fil232" d="M391 408c-3,-6 -6,-6 -12,-6 -3,0 -9,0 -9,6 -4,3 -7,9 -7,16 0,9 3,12 7,18 0,3 6,7 9,7 6,0 9,-4 12,-7 4,-3 4,-9 4,-18 0,-7 0,-13 -4,-16l0 0zm-18 3c3,-3 3,-3 6,-3 3,0 6,0 6,3 3,3 3,6 3,13 0,6 0,12 -3,12 0,3 -3,6 -6,6 -3,0 -3,-3 -6,-6 0,0 0,-6 0,-12 0,-7 0,-10 0,-13l0 0z"/>
   <path class="fil232" d="M307 405c0,9 -9,19 -22,19 -9,0 -19,-10 -19,-19 0,-13 10,-22 19,-22 13,0 22,9 22,22z"/>
   <path class="fil232" d="M285 433c-12,0 -25,6 -31,12 -3,7 0,10 3,10l56 0c3,0 7,-3 7,-10 -7,-6 -19,-12 -35,-12l0 0z"/>
   <polygon class="fil232" points="504,477 504,517 510,517 510,477 "/>
   <polygon class="fil232" points="529,495 488,495 488,502 529,502 "/>
   <polygon class="fil232" points="960,1183 960,1227 966,1227 966,1183 "/>
   <polygon class="fil232" points="982,1202 941,1202 941,1208 982,1208 "/>
   <polygon class="fil232" points="1263,780 1263,820 1269,820 1269,780 "/>
   <polygon class="fil232" points="1288,795 1248,795 1248,802 1288,802 "/>
   <polygon class="fil232" points="563,1498 563,1539 573,1539 573,1498 "/>
   <polygon class="fil232" points="588,1514 548,1514 548,1520 588,1520 "/>
   <polygon class="fil232" points="876,1205 685,1205 685,1148 876,1148 "/>
   <polygon class="fil7" points="735,1205 685,1205 685,1148 735,1148 "/>
   <path class="fil232" d="M701 1177c0,-7 3,-10 9,-10 6,0 10,3 10,10 0,3 -4,6 -10,6 -6,0 -9,-3 -9,-6zm25 15l-6 -6c3,-3 6,-6 6,-9 0,-10 -6,-16 -16,-16 -9,0 -15,6 -15,16 0,6 6,12 15,12 3,0 3,0 6,0l7 6 3 -3 0 0z"/>
   <path class="fil232" d="M941 1505c7,0 7,-10 0,-10 -6,0 -6,10 0,10z"/>
   <path class="fil232" d="M51 1061c6,0 6,-9 0,-9 -6,0 -6,9 0,9z"/>
   <path class="fil232" d="M1407 1036c6,0 6,-9 0,-9 -6,0 -6,9 0,9z"/>
   <path class="fil232" d="M1301 439c6,0 6,-6 0,-6 -7,0 -7,6 0,6z"/>
   <path class="fil232" d="M351 274c6,0 6,-7 0,-7 -6,0 -6,7 0,7z"/>
   <path class="fil232" d="M795 208c6,0 6,-6 0,-6 -4,0 -4,6 0,6z"/>
   <path class="fil232" d="M41 758c4,0 4,-6 0,-6 -6,0 -6,6 0,6z"/>
   <path class="fil232" d="M807 661c6,0 6,-6 0,-6 -6,0 -6,6 0,6z"/>
   <path class="fil232" d="M901 617c3,-3 6,-3 6,-3 3,-3 3,-3 3,-6 0,0 0,-3 -3,-3 0,-3 -3,-3 -6,-3l0 15 0 0zm-6 -43c0,3 -4,3 -4,3 -3,3 -3,3 -3,6 0,0 0,0 3,3 0,0 0,0 4,3l0 -15 0 0zm0 40l0 -15c-7,0 -10,-4 -13,-7 -3,-3 -6,-6 -6,-9 0,-6 3,-9 6,-13 3,-3 6,-3 13,-3l0 -3 6 0 0 3c6,0 9,0 12,3 3,4 7,7 7,10l-13 0c0,-3 -3,-3 -6,-6l0 15c9,3 12,6 15,6 4,4 4,7 4,13 0,3 0,6 -4,9 -3,3 -9,7 -15,7l0 9 -6 0 0 -9c-7,0 -10,0 -13,-4 -3,-3 -6,-6 -6,-12l12 0c0,0 0,3 3,3 0,3 4,3 4,3l0 0z"/>
  </g>
 </g>
</svg>
