<?xml version="1.0" encoding="UTF-8"?>
<!DOCTYPE svg PUBLIC "-//W3C//DTD SVG 1.1//EN" "http://www.w3.org/Graphics/SVG/1.1/DTD/svg11.dtd">
<!-- Creator: CorelDRAW X7 -->
<svg xmlns="http://www.w3.org/2000/svg" xml:space="preserve" width="1594px" height="1886px" version="1.1" style="shape-rendering:geometricPrecision; text-rendering:geometricPrecision; image-rendering:optimizeQuality; fill-rule:evenodd; clip-rule:evenodd"
viewBox="0 0 1594 1886"
 xmlns:xlink="http://www.w3.org/1999/xlink">
 <defs>
  <style type="text/css">
   <![CDATA[
    .fil12 {fill:none}
    .fil6 {fill:#222124}
    .fil2 {fill:#2C3C42}
    .fil4 {fill:#516065}
    .fil13 {fill:#575A5B}
    .fil9 {fill:#7B7F81}
    .fil10 {fill:#86C44C}
    .fil5 {fill:#93A0A4}
    .fil0 {fill:#A3CD46}
    .fil8 {fill:#B0CA90}
    .fil7 {fill:#C2C5C5}
    .fil11 {fill:#CCDF7D}
    .fil1 {fill:#DCE9AC}
    .fil3 {fill:#FEFEFE}
   ]]>
  </style>
 </defs>
 <g id="Capa_x0020_1">
  <metadata id="CorelCorpID_0Corel-Layer"/>
  <g id="trjt-grafico.eps">
   <path class="fil0" d="M89 774c0,0 -62,263 110,494 171,231 475,319 715,400 241,78 466,-12 550,-215 88,-204 -84,-313 -122,-579 -37,-265 -9,-340 -184,-543 -175,-200 -538,-197 -781,12 -247,206 -288,431 -288,431z"/>
   <path class="fil1" d="M1033 1693c-16,-3 -31,-6 -50,-9l6 -35 44 44 0 0zm-59 -9c-22,-6 -41,-10 -60,-16 -40,-15 -81,-28 -122,-40 25,-22 53,-44 82,-82l103 94 -3 44zm312 -35l-37 -71 -32 -297 13 0c9,0 19,-7 19,-19l0 -25c0,-13 -10,-22 -19,-22l-19 0c6,-3 9,-9 13,-16 6,-12 9,-25 9,-43 0,-13 3,-22 3,-32 0,-3 0,-3 0,-6 0,-3 0,-3 0,-6 0,-3 0,-6 -3,-13 -3,-15 -13,-46 -22,-75 -3,-15 -9,-28 -12,-40 -4,-10 -4,-19 -4,-25 0,-6 0,-16 0,-25 0,-35 -3,-85 -15,-131 -13,-41 -47,-66 -81,-66 0,0 0,0 0,0 0,0 0,0 0,0 -22,0 -41,9 -60,28l0 0c0,0 0,0 0,3 -3,0 -3,6 -6,10 -3,3 -16,12 -28,25 -10,9 -44,62 -69,100 -6,0 -9,0 -12,0l-22 -57c0,0 0,-3 -3,-3l-344 0c-3,0 -3,0 -3,3 0,0 0,0 0,0l50 135c-3,0 -3,0 -7,0 -3,0 -6,0 -6,3 0,6 10,12 13,12 3,0 3,0 6,0l0 7c-9,3 -19,6 -19,9 -3,9 3,12 10,16l0 0c6,0 9,3 9,3 0,0 0,6 3,9l-41 0c-9,0 -15,6 -15,16 0,9 6,15 15,15l66 0c0,3 0,3 0,3l347 0c0,0 0,-3 0,-3 3,0 3,0 0,0l0 0 0 -3 0 3 0 0 -28 -84c9,-9 25,-22 40,-34 0,0 0,0 0,0 7,6 13,9 16,12 9,6 13,6 16,9 0,10 -7,75 -7,107 0,6 0,9 0,12 0,3 0,3 0,6l-6 7c0,0 -3,0 -6,3l-13 -31 -653 12 110 94 -53 265c-75,-46 -144,-106 -200,-181 -100,-134 -119,-278 -119,-378 0,-69 9,-116 9,-116 0,0 19,-96 97,-218l156 418 157 0 -204 -540 -15 0c28,-31 59,-63 97,-91 122,-106 278,-159 422,-159 140,0 271,50 359,147 175,203 147,278 184,543 28,213 147,325 147,469 0,35 -6,69 -25,110 -34,87 -100,153 -178,196l0 0zm-344 -1050c-9,0 -15,4 -18,7 -10,9 -7,22 -7,22 0,0 -3,21 0,28 7,6 16,12 16,22 0,9 -6,21 -6,28 3,6 15,6 15,6 0,0 22,28 28,37 4,4 7,7 7,7 3,0 6,-3 12,-3 10,-4 22,-16 35,-25l0 0c0,0 0,0 0,-4l0 0c0,0 0,0 0,0l0 0c3,-3 6,-6 9,-9 3,-3 6,-6 6,-12l0 0c0,-19 -19,-54 -40,-79 -16,-18 -41,-25 -57,-25l0 0zm-197 1013c-78,-28 -159,-59 -237,-97l87 -222 216 197c-3,9 -9,22 -16,31 -12,32 -28,60 -37,72 -3,6 -9,13 -13,19l0 0zm479 -81l-85 -169 0 -81 47 0 38 250zm-725 -22c-32,-16 -60,-35 -88,-50l59 -266 110 91 -81 225zm609 -210l-9 -18 9 0 0 18z"/>
   <path class="fil0" d="M1452 974c0,0 0,-18 -25,-40 -25,-25 -41,-38 -41,-38 0,0 -9,38 13,63 21,25 53,47 53,47l0 -32 0 0z"/>
   <path class="fil0" d="M1417 1081c0,0 0,-16 -25,-41 -25,-25 -40,-37 -40,-37 0,0 -13,40 12,62 22,25 53,47 53,47l0 -31 0 0z"/>
   <path class="fil0" d="M1449 1003c0,0 3,-16 31,-38 25,-22 40,-34 40,-34 0,0 10,40 -15,62 -25,22 -60,41 -60,41l4 -31 0 0z"/>
   <path class="fil0" d="M1408 1131c0,0 3,-16 31,-35 28,-18 47,-31 47,-31 0,0 3,44 -22,63 -28,18 -62,34 -62,34l6 -31 0 0z"/>
   <path class="fil0" d="M1414 1268c0,0 0,-15 25,-40 25,-25 41,-38 41,-38 0,0 12,41 -10,63 -25,25 -56,46 -56,46l0 -31 0 0z"/>
   <path class="fil0" d="M1414 1303c0,0 3,-16 -15,-44 -22,-28 -35,-44 -35,-44 0,0 -19,38 0,66 19,28 47,53 47,53l3 -31 0 0z"/>
   <path class="fil0" d="M1392 1403c0,0 0,-16 22,-41 25,-25 41,-38 41,-38 0,0 12,41 -10,63 -21,25 -53,47 -53,47l0 -31 0 0z"/>
   <path class="fil0" d="M1408 1496c0,0 -6,-18 12,-47 16,-31 29,-46 29,-46 0,0 21,34 6,62 -16,31 -41,59 -41,59l-6 -28 0 0z"/>
   <path class="fil2" d="M1452 968c0,19 -3,38 -7,56 -9,47 -31,79 -43,125 0,7 0,13 0,22 0,35 12,75 12,116 0,6 0,16 0,22 -6,50 -25,81 -25,112 0,7 0,10 0,16 6,37 41,141 41,141 0,0 0,0 3,0 0,0 0,0 0,0 0,0 -3,-7 -6,-19 -10,-28 -28,-94 -35,-122 0,-6 0,-9 0,-16 0,-31 16,-62 22,-112 3,-6 3,-16 3,-22 0,-41 -15,-81 -15,-116 0,-9 3,-15 3,-22 9,-43 34,-75 44,-125 3,-15 6,-37 6,-53 0,-3 0,-3 0,-3 -3,0 -3,0 -3,0z"/>
   <path class="fil2" d="M1452 1015l25 -19c0,0 0,0 0,-3 0,0 0,0 -3,0l-25 22c0,0 0,0 0,0 0,0 0,0 3,0z"/>
   <path class="fil2" d="M1452 990l-10 -19c-3,0 -3,0 -3,0 0,0 0,0 0,3l10 19c3,0 3,0 3,0 0,0 0,0 0,-3z"/>
   <path class="fil2" d="M1405 1146c0,0 6,-3 15,-9 7,-6 19,-13 32,-22 0,0 0,0 0,0 0,-3 -3,-3 -3,-3 -22,19 -44,34 -44,34 0,0 0,0 0,0 0,3 0,3 0,0l0 0z"/>
   <path class="fil2" d="M1417 1112c0,0 -18,-34 -37,-59 -3,0 -3,0 -3,0 0,0 0,0 0,3 9,9 18,25 28,37 3,6 6,10 6,16 3,3 3,3 3,3 0,3 3,3 3,3 0,0 0,-3 0,-3l0 0z"/>
   <path class="fil2" d="M1417 1293c0,0 0,0 0,0 3,-6 22,-34 47,-59 0,-3 0,-3 0,-3 0,0 0,0 -3,0 -28,28 -47,62 -47,62 0,0 0,3 3,3 0,0 0,0 0,-3z"/>
   <path class="fil2" d="M1414 1318c0,0 -12,-25 -25,-44 -12,-18 -15,-21 -15,-21 0,0 0,0 0,0 0,0 0,0 0,0 0,0 0,0 0,0 0,3 3,6 15,21 6,10 10,19 16,29 0,6 3,9 3,12 3,3 3,3 3,3 0,0 0,0 0,0 3,0 3,0 3,0z"/>
   <path class="fil2" d="M1392 1437c0,0 0,-3 0,-3 3,-10 13,-25 19,-38 6,-9 13,-15 19,-22 0,-3 3,-6 6,-9 0,0 0,-3 0,-3 0,0 0,0 0,0 0,0 0,0 0,0 0,0 -16,16 -25,34 -12,16 -22,38 -22,38 0,3 0,3 3,3 0,0 0,0 0,0l0 0z"/>
   <path class="fil2" d="M1417 1524c0,0 0,0 0,0 0,-3 0,-3 0,-6 0,-6 0,-19 7,-31 9,-19 18,-41 21,-50 0,0 0,0 0,0 0,0 0,0 0,0 -6,9 -15,31 -25,50 -6,9 -6,25 -6,31 0,3 0,6 0,6 0,0 0,4 0,0 3,0 3,0 3,0z"/>
   <path class="fil0" d="M1292 1206c0,0 0,-13 13,-28 12,-19 19,-29 19,-29 0,0 12,22 0,41 -10,16 -29,34 -29,34l-3 -18 0 0z"/>
   <path class="fil0" d="M1327 1268c0,0 -3,-9 9,-28 13,-19 22,-28 22,-28 0,0 12,22 0,41 -9,18 -28,34 -28,34l-3 -19 0 0z"/>
   <path class="fil0" d="M1299 1224c0,0 -4,-12 -22,-21 -19,-13 -32,-16 -32,-16 0,0 0,25 16,34 19,13 41,22 41,22l-3 -19z"/>
   <path class="fil0" d="M1339 1299c0,0 -6,-12 -25,-18 -22,-10 -34,-16 -34,-16 0,0 3,28 22,38 18,9 43,12 43,12l-6 -16z"/>
   <path class="fil0" d="M1349 1387c0,0 -4,-13 -22,-25 -16,-13 -28,-19 -28,-19 0,0 -4,25 12,38 19,15 41,25 41,25l-3 -19 0 0z"/>
   <path class="fil0" d="M1352 1409c0,0 -3,-13 6,-31 9,-19 16,-32 16,-32 0,0 15,22 6,41 -6,19 -22,41 -22,41l-6 -19 0 0z"/>
   <path class="fil0" d="M1383 1493c0,0 0,-9 19,-22 15,-15 25,-22 25,-22 0,0 6,25 -10,41 -15,13 -37,25 -37,25l3 -22z"/>
   <path class="fil0" d="M1377 1468c0,0 0,-12 -19,-25 -19,-12 -28,-19 -28,-19 0,0 -3,29 12,41 16,13 38,22 38,22l-3 -19 0 0z"/>
   <path class="fil0" d="M1377 1528c0,0 3,-13 -13,-29 -12,-15 -22,-28 -22,-28 0,0 -12,25 3,44 13,16 32,31 32,31l0 -18 0 0z"/>
   <path class="fil2" d="M1289 1203c3,12 6,21 13,34 9,28 28,47 40,72 3,12 3,28 3,44 0,3 0,6 0,9 0,16 0,31 7,50 6,16 12,28 18,41 7,12 10,21 10,34l0 0c0,12 -3,37 -3,56 -3,10 -3,19 -7,25 0,10 0,13 0,13 0,0 0,0 0,0 0,0 4,0 4,0 0,0 9,-69 9,-94l0 0c0,-13 -6,-22 -13,-34 -3,-13 -12,-25 -15,-44 -6,-16 -6,-31 -6,-47 0,-3 0,-6 0,-9 0,-16 0,-32 -7,-44 -9,-28 -28,-44 -40,-75 -3,-10 -7,-22 -10,-31 0,0 0,0 0,0 -3,0 -3,0 -3,0l0 0z"/>
   <path class="fil2" d="M1299 1231l-19 -13c0,0 0,0 0,3 0,0 0,0 0,0l19 10c0,0 0,0 0,0 0,0 0,0 0,0l0 0z"/>
   <path class="fil2" d="M1295 1215l7 -12c0,0 0,0 0,0 -3,0 -3,0 -3,0l-4 12c0,0 0,0 0,3 0,0 0,0 0,-3z"/>
   <path class="fil2" d="M1342 1306c0,0 -15,-7 -31,-16 0,0 -3,0 -3,3 0,0 0,0 0,0 9,3 16,10 22,13 6,0 9,3 9,3 3,0 3,0 3,0 0,0 0,0 0,-3l0 0z"/>
   <path class="fil2" d="M1330 1287c0,0 3,0 3,-3 3,-6 9,-25 16,-38 0,0 0,0 0,0 0,0 0,0 0,0 -13,16 -19,41 -19,41 0,0 0,3 0,3 0,0 0,0 0,-3z"/>
   <path class="fil2" d="M1352 1399c0,0 -16,-18 -38,-31 0,-3 0,-3 0,0 0,0 0,0 0,0 10,6 19,16 25,22 3,3 6,6 6,9 4,0 4,0 4,4 0,0 0,0 0,0 0,0 3,0 3,0 0,0 0,0 0,-4l0 0z"/>
   <path class="fil2" d="M1355 1415c0,0 3,0 3,0 0,-6 3,-19 9,-28 3,-6 3,-13 3,-13 4,-3 4,-3 4,-3l0 0c0,0 0,0 0,0 -4,-3 -4,0 -4,0 0,0 0,0 -6,13 -6,15 -9,31 -9,31 0,3 0,3 0,3 0,0 0,0 0,-3l0 0z"/>
   <path class="fil2" d="M1380 1506c0,0 3,0 3,0 3,-7 12,-16 19,-19 6,-6 12,-13 12,-13 0,0 0,0 0,0 0,0 0,0 -3,0 0,0 0,0 0,0 0,4 -6,7 -12,10 -7,6 -19,22 -19,22 0,0 0,0 0,0 0,3 0,3 0,0l0 0z"/>
   <path class="fil2" d="M1383 1487c0,0 -9,-13 -19,-22 -6,-9 -19,-19 -19,-19 0,0 0,0 0,0 -3,0 -3,0 0,0 0,0 0,3 0,3 4,4 13,10 19,16 3,6 10,9 13,16 0,3 0,3 3,6 0,0 0,0 0,0 0,3 0,3 3,0 0,0 0,0 0,0z"/>
   <path class="fil2" d="M1377 1546c0,0 0,-12 -10,-25 -6,-9 -15,-22 -18,-28 0,0 0,0 -4,0 0,0 0,0 0,3 4,3 13,16 22,28 3,4 7,10 7,16 0,0 0,3 0,3 0,3 0,3 0,3l0 0c0,0 3,0 3,0 0,0 0,0 0,0z"/>
   <path class="fil2" d="M1467 1699l-131 0c-9,0 -12,-6 -12,-12l0 -119 156 0 0 119c0,6 -6,12 -13,12l0 0z"/>
   <path class="fil2" d="M1480 1590l-156 0c-10,0 -13,-6 -13,-12 0,-7 3,-13 13,-13l156 0c6,0 12,6 12,13 0,6 -6,12 -12,12z"/>
   <path class="fil2" d="M1317 346c0,-75 -62,-140 -140,-140 -75,0 -138,65 -138,140 0,78 63,141 138,141 78,0 140,-63 140,-141z"/>
   <path class="fil3" d="M1299 346c0,-65 -54,-122 -122,-122 -66,0 -119,57 -119,122 0,69 53,122 119,122 68,0 122,-53 122,-122z"/>
   <polygon class="fil2" points="1102,374 1183,349 1183,237 1174,237 1174,343 1099,365 "/>
   <polygon class="fil2" points="499,974 342,974 142,434 295,434 "/>
   <path class="fil4" d="M499 974l-157 0 -200 -540 153 0 204 540zm-169 -137c-13,0 -19,9 -16,19 3,9 16,15 28,15 13,0 22,-6 19,-15 -3,-10 -19,-19 -31,-19l0 0z"/>
   <path class="fil2" d="M255 565l-41 0c-3,0 -9,-3 -12,-9l-16 -41c0,-3 3,-9 6,-9l41 0c3,0 9,6 12,9l16 41c0,6 -3,9 -6,9z"/>
   <polygon class="fil2" points="305,462 152,462 142,434 295,434 "/>
   <path class="fil2" d="M202 465l6 13c0,0 0,3 3,0 0,0 0,0 0,0l-6 -13c0,-3 0,-3 0,-3 -3,3 -3,3 -3,3z"/>
   <path class="fil2" d="M208 465l6 13c0,0 0,3 0,0 3,0 3,0 3,0l-6 -13c0,-3 0,-3 0,-3 -3,3 -3,3 -3,3z"/>
   <path class="fil2" d="M214 465l3 13c3,0 3,3 3,0 4,0 4,0 4,0l-7 -13c0,-3 0,-3 -3,-3 0,3 0,3 0,3z"/>
   <path class="fil2" d="M220 465l4 13c0,0 3,3 3,0 3,0 3,0 3,0l-6 -13c0,-3 0,-3 -4,-3 0,3 0,3 0,3z"/>
   <path class="fil2" d="M227 465l3 13c0,0 3,3 3,0 0,0 3,0 3,0l-6 -13c0,-3 0,-3 -3,-3 0,3 0,3 0,3z"/>
   <path class="fil2" d="M233 465l3 13c0,0 3,3 3,0 0,0 3,0 0,0l-3 -13c0,-3 -3,-3 -3,-3 0,3 0,3 0,3z"/>
   <path class="fil2" d="M239 465l3 13c0,0 3,3 3,0 0,0 0,0 0,0l-3 -13c0,-3 -3,-3 -3,-3 0,3 0,3 0,3z"/>
   <path class="fil2" d="M245 465l4 13c0,0 0,3 3,0 0,0 0,0 0,0l-3 -13c0,-3 -4,-3 -4,-3 0,3 -3,3 0,3z"/>
   <path class="fil2" d="M249 465l6 13c0,0 0,3 3,0 0,0 0,0 0,0l-3 -13c0,-3 -3,-3 -3,-3 0,3 -3,3 -3,3z"/>
   <path class="fil2" d="M255 465l6 13c0,0 0,3 3,0 0,0 0,0 0,0l-3 -13c-3,-3 -3,-3 -3,-3 -3,3 -3,3 -3,3z"/>
   <path class="fil3" d="M242 540l-37 -25c0,0 -3,0 -3,0 0,0 0,3 0,3l15 38c3,0 3,0 3,0l0 0c4,0 4,0 4,0l3 -13 15 0c0,0 0,0 0,0 0,-3 0,-3 0,-3z"/>
   <polygon class="fil2" points="242,540 205,518 220,556 224,543 "/>
   <polygon class="fil3" points="311,540 274,518 289,556 295,543 "/>
   <polygon class="fil3" points="330,562 327,556 320,562 "/>
   <polygon class="fil3" points="420,806 417,796 411,803 "/>
   <polygon class="fil3" points="449,878 445,871 439,878 "/>
   <polygon class="fil3" points="477,956 474,946 467,953 "/>
   <polygon class="fil3" points="317,718 314,712 308,718 "/>
   <polygon class="fil3" points="349,806 345,796 342,803 "/>
   <polygon class="fil3" points="377,878 374,871 370,878 "/>
   <polygon class="fil3" points="405,956 402,946 399,953 "/>
   <polygon class="fil3" points="242,643 249,649 267,612 258,606 "/>
   <path class="fil3" d="M249 609c-10,-10 -10,-10 -7,-19 -6,6 -6,6 -15,3 9,6 9,6 6,16 6,-6 6,-6 16,0z"/>
   <path class="fil3" d="M280 612c-6,-6 -6,-6 -3,-13 -3,7 -3,7 -13,4 6,3 6,3 6,9 4,-3 4,-3 10,0l0 0z"/>
   <path class="fil3" d="M280 628c-6,-4 -6,-4 -3,-7 -3,3 -3,3 -10,0 7,3 7,3 3,10 4,-3 4,-3 10,-3z"/>
   <polygon class="fil3" points="374,793 377,796 395,759 389,756 "/>
   <polygon class="fil3" points="358,634 324,615 339,646 342,634 "/>
   <path class="fil3" d="M320 606c-9,0 -15,6 -12,15 3,7 12,13 25,13 9,0 16,-6 12,-13 0,-9 -12,-15 -25,-15zm13 31c-13,0 -25,-6 -28,-16 -3,-9 3,-15 15,-15 13,0 25,6 29,15 3,10 -4,16 -16,16z"/>
   <path class="fil3" d="M314 624c0,0 -3,0 0,4 0,3 0,3 3,3 3,0 3,0 3,-3 0,-4 -3,-4 -6,-4zm3 10c-3,0 -6,-3 -6,-6 0,-4 0,-7 3,-7 3,0 6,3 6,7 4,3 0,6 -3,6z"/>
   <path class="fil3" d="M317 640l0 -3c3,0 3,-3 3,-3 0,-3 0,-6 0,-6l0 0c0,0 4,3 4,6 0,3 -4,3 -7,6z"/>
   <polygon class="fil3" points="299,693 277,674 270,684 292,699 "/>
   <path class="fil3" d="M261 715l3 3 10 -15c0,0 0,0 0,-4 0,0 3,0 3,0 0,4 3,4 0,4 0,3 0,3 -3,3l-7 12 3 3 22 -6 0 -12 -22 -16 -12 3 3 25 0 0z"/>
   <path class="fil2" d="M239 665l135 0c0,0 0,-3 0,-3 0,0 0,-3 0,-3l-135 0c0,0 0,3 0,3 0,0 0,3 0,3z"/>
   <polygon class="fil3" points="355,674 352,684 374,699 377,693 "/>
   <path class="fil3" d="M339 690l3 25 3 3 10 -15c-3,0 -3,0 -3,-4 3,0 3,0 3,0 3,4 3,4 3,4 0,3 -3,3 -3,3l-10 12 4 3 21 -6 0 -12 -21 -16 -10 3 0 0z"/>
   <path class="fil3" d="M333 699c0,-3 0,-6 0,-6 0,-3 0,-9 -3,-9 -3,-6 -10,-6 -10,-6 0,-4 0,0 0,0 0,0 0,0 0,0 0,0 7,3 10,6 0,3 3,6 3,9 -3,0 -3,3 -3,3 0,10 0,13 12,22l0 0 3 0c0,0 0,0 -3,0 -9,-9 -9,-12 -9,-19l0 0z"/>
   <path class="fil3" d="M274 753l3 3c0,0 0,6 3,9l3 0c0,-3 -3,-6 -3,-6l15 0 16 34 -6 0 0 6 19 0 -4 -6 -6 0 -12 -34 15 0c0,0 3,3 3,6l4 0c0,-3 -4,-9 -4,-9l0 -3 -46 0 0 0z"/>
   <path class="fil5" d="M342 871c-12,0 -25,-6 -28,-15 -3,-10 3,-19 16,-19 12,0 28,9 31,19 3,9 -6,15 -19,15l0 0z"/>
   <path class="fil3" d="M361 856l-3 0c0,3 0,3 0,3 0,3 0,6 -3,9 -3,0 -6,3 -13,3 -6,0 -12,-3 -15,-6 -7,-3 -10,-6 -13,-9 0,-3 0,-3 0,-7 0,-3 0,-3 3,-6 3,-3 10,-3 13,-3 6,0 12,3 19,6 3,0 9,7 9,10l3 0 0 0c0,-7 -6,-13 -9,-16 -7,-3 -16,-3 -22,-3 -6,0 -10,0 -13,3 -6,3 -6,6 -6,9 0,4 0,7 0,7 3,6 6,9 13,12 6,3 12,6 18,6 7,0 13,0 16,-3 3,-3 6,-6 6,-12 0,0 0,-3 -3,-3l0 0 0 0z"/>
   <path class="fil3" d="M408 856l16 -28c3,0 3,0 6,0 0,0 3,3 3,3l-9 31 -16 -6 0 0z"/>
   <path class="fil3" d="M408 859c6,0 16,3 19,12 0,0 -3,3 -3,3 -7,4 -13,4 -19,4 3,0 3,-4 3,-7 -3,0 -3,-3 -3,-6 -3,-3 0,-6 3,-6l0 0z"/>
   <path class="fil3" d="M374 921c0,-6 -4,-6 -7,-9l-3 9c3,0 3,3 6,7 4,6 4,9 7,9l3 -6c0,-3 -3,-7 -6,-10z"/>
   <path class="fil3" d="M370 928c-3,-4 -6,-7 -6,-7l-6 7c3,3 6,6 6,9 3,3 3,6 6,9l4 -6c0,-3 -4,-6 -4,-12l0 0z"/>
   <path class="fil3" d="M377 921c0,3 3,7 3,7l6 -10 -12 -12 -4 6c0,0 4,3 7,9l0 0z"/>
   <path class="fil3" d="M358 946l0 -6 6 3 -6 3zm6 -9c-3,-3 -3,-6 -6,-6l-3 6 0 12c0,4 0,4 3,4l12 -7c-3,0 -6,-3 -6,-9l0 0z"/>
   <path class="fil3" d="M442 949l-18 -15 3 -3 18 12 -3 6zm-18 -21l-7 6 28 22 4 -10 3 0 12 -18 -31 -22 -13 18 4 4 0 0z"/>
   <polygon class="fil3" points="170,440 174,443 167,446 177,453 177,456 164,446 "/>
   <polygon class="fil3" points="161,440 164,443 158,446 167,453 167,456 155,446 "/>
   <polygon class="fil2" points="795,759 477,759 380,487 699,487 "/>
   <polygon class="fil0" points="774,743 489,743 402,503 686,503 "/>
   <polygon class="fil3" points="720,593 674,559 636,656 539,628 489,743 774,743 "/>
   <path class="fil3" d="M524 553c-7,-19 -29,-35 -47,-35 -16,0 -28,16 -19,35 6,18 25,34 44,34 18,0 28,-16 22,-34z"/>
   <polygon class="fil2" points="830,712 511,712 414,440 730,440 "/>
   <polygon class="fil0" points="805,696 524,696 436,456 720,456 "/>
   <polygon class="fil3" points="752,546 705,512 667,609 570,581 524,696 805,696 "/>
   <path class="fil3" d="M558 506c-9,-19 -28,-32 -47,-32 -19,0 -28,13 -22,32 6,18 28,34 47,34 19,0 28,-16 22,-34z"/>
   <path class="fil6" d="M830 396l9 19 -3 0c-3,-3 -3,-6 -6,-6 0,-3 -3,-3 -6,-6 0,0 -4,0 -7,0l-12 0 22 59c3,6 3,9 6,9 0,3 3,3 6,3l3 0 0 4 -31 0 -3 -4 3 0c3,0 6,0 6,-3 0,-3 0,-3 0,-9l-25 -59 -9 0c-3,0 -6,0 -6,0 -3,0 -3,3 -3,3 0,3 0,6 0,9l-4 0 -6 -19 66 0z"/>
   <polygon class="fil2" points="880,434 902,434 902,434 "/>
   <polygon class="fil2" points="902,499 902,496 780,496 736,374 855,374 902,499 902,499 902,496 902,499 902,499 858,374 733,374 780,499 905,499 "/>
   <polygon class="fil3" points="761,440 755,440 749,431 758,431 "/>
   <polygon class="fil2" points="761,440 761,437 755,437 752,431 758,431 761,440 761,440 761,437 761,440 764,437 761,428 749,428 752,440 764,440 764,437 "/>
   <polygon class="fil3" points="886,440 877,440 874,431 880,431 "/>
   <polygon class="fil2" points="886,440 886,437 877,437 874,431 880,431 883,440 886,440 886,437 886,440 886,437 883,428 870,428 874,440 886,440 886,437 "/>
   <polygon class="fil3" points="742,381 733,381 730,371 739,371 "/>
   <polygon class="fil2" points="742,381 742,381 733,381 730,371 736,371 739,381 742,381 742,381 742,381 742,381 739,371 727,371 730,381 742,381 "/>
   <polygon class="fil3" points="864,381 855,381 852,371 861,371 "/>
   <polygon class="fil2" points="864,381 864,381 855,381 852,371 858,371 861,381 864,381 864,381 864,381 864,381 861,371 849,371 855,381 864,381 "/>
   <polygon class="fil3" points="802,381 792,381 789,371 799,371 "/>
   <polygon class="fil2" points="802,381 802,381 792,381 792,371 799,371 802,381 802,381 802,381 802,381 802,381 799,371 789,371 792,381 805,381 "/>
   <polygon class="fil3" points="786,503 777,503 774,493 783,493 "/>
   <polygon class="fil2" points="786,503 786,503 777,503 774,493 783,493 786,503 786,503 786,503 786,503 786,503 783,493 770,493 777,503 786,503 "/>
   <polygon class="fil3" points="908,503 899,503 895,493 905,493 "/>
   <polygon class="fil2" points="908,503 908,503 899,503 895,493 905,493 908,503 908,503 908,503 908,503 908,503 905,493 895,493 899,503 908,503 "/>
   <polygon class="fil2" points="839,503 849,524 852,524 842,499 "/>
   <polygon class="fil3" points="845,503 839,503 833,493 842,493 "/>
   <polygon class="fil2" points="845,503 845,503 839,503 836,493 842,493 845,503 845,503 845,503 845,503 849,503 845,493 833,493 836,503 849,503 849,503 "/>
   <polygon class="fil2" points="858,531 849,531 845,521 855,521 "/>
   <polygon class="fil2" points="774,478 874,478 874,474 774,474 "/>
   <path class="fil2" d="M908 434c0,-3 -3,-3 -6,-3 -3,0 -7,0 -3,3 0,3 3,6 6,6 3,0 3,-3 3,-6z"/>
   <path class="fil7" d="M355 1699l-6 0 50 -250c3,4 6,7 12,10l-56 240 0 0zm72 0l72 -190c3,0 6,3 9,6l-72 181 -9 3zm884 -3l-53 0c3,0 3,0 3,-3l0 0 0 0 -3 -31c9,-6 19,-9 28,-13l25 47 0 0zm-59 0l-113 0c0,0 0,0 0,-3l0 0 0 0 0 0c38,-6 72,-15 106,-28l4 28c0,3 3,3 3,3zm-122 0l-91 0 -6 -3c19,0 34,3 50,3 16,0 31,-3 47,-3l0 0 0 0c0,3 0,3 0,3z"/>
   <path class="fil8" d="M1083 1696c-16,0 -31,-3 -50,-3l-44 -44 53 -340c13,-6 32,-16 50,-28l7 0 9 18 22 394c-16,0 -31,3 -47,3l0 0zm56 -3l0 -331 85 169 21 134c-34,13 -68,22 -106,28l0 0zm119 -31l-9 -84 37 71c-9,4 -19,7 -28,13l0 0zm-281 -22l-103 -94c6,-9 9,-18 15,-31 19,-31 25,-56 35,-75 6,-19 12,-31 25,-44 18,-18 37,-47 59,-65l-31 309zm-469 -125c-3,-3 -6,-6 -9,-6l81 -225 -110 -91 -59 266c-6,-3 -9,-6 -12,-10l53 -265 -110 -94 653 -12 13 31c-9,0 -31,6 -56,15 -38,13 -82,29 -107,47 -34,25 -56,44 -65,60 -13,15 -16,28 -16,40 0,10 3,19 3,22 0,3 3,3 3,3 0,0 0,0 0,0 0,0 4,-3 4,-3l59 0c0,0 0,0 0,0 0,0 0,0 3,0 0,0 0,0 0,0 22,0 53,-12 81,-25 -3,3 -6,10 -9,13 -31,53 -53,109 -72,153 -6,15 -16,34 -25,56l-216 -197 -87 222 0 0z"/>
   <polygon class="fil2" points="355,1699 349,1699 336,1081 364,1081 "/>
   <path class="fil2" d="M355 1699l0 -3 -6 0 -10 -612 25 0 -12 615 3 0 0 -3 0 3 0 0 12 -618c0,0 0,0 0,0 0,-3 -3,-3 -3,-3l-28 0c0,0 0,0 0,3 0,0 -3,0 -3,0l12 618c0,0 0,4 4,4l6 0c0,0 0,-4 0,-4l0 0 0 0z"/>
   <polygon class="fil2" points="967,1699 961,1699 952,1081 980,1081 "/>
   <path class="fil2" d="M967 1699l0 -3 -3 0 -12 -612 25 0 -10 615 0 0 0 -3 0 3 3 0 10 -618c0,0 0,0 0,0 0,-3 0,-3 0,-3l-28 0c0,0 -3,0 -3,3 0,0 0,0 0,0l9 618c0,0 3,4 3,4l6 0c3,0 3,-4 3,-4l-3 0 0 0z"/>
   <polygon class="fil3" points="1011,1087 327,1087 327,1071 1011,1071 "/>
   <path class="fil2" d="M1011 1087l0 -3 -684 0 0 -10 684 0 0 13 0 0 0 -3 0 3 3 0 0 -16c0,0 0,0 0,-3 0,0 -3,0 -3,0l-684 0c-3,0 -3,0 -3,0 0,3 0,3 0,3l0 16c0,0 0,0 0,3 0,0 0,0 3,0l684 0c0,0 3,0 3,0 0,-3 0,-3 0,-3l-3 0 0 0z"/>
   <path class="fil3" d="M170 1403l-12 28c0,0 16,15 22,15 6,0 9,-6 19,-9 9,-3 21,-28 21,-28 0,0 -9,-16 -15,-16 -10,-3 -22,-6 -28,-6 -7,-3 -7,16 -7,16l0 0z"/>
   <path class="fil2" d="M170 1403l-3 0 -12 25c0,3 0,3 3,3 0,0 3,6 6,9 3,3 6,3 10,6 3,0 3,3 6,3 3,0 3,0 6,-3 3,0 3,-3 6,-3 3,-3 3,-3 7,-3 3,-3 6,-6 9,-6 6,-10 16,-25 16,-25 0,0 0,-3 0,-3 0,0 -4,-3 -7,-7 -3,-3 -3,-3 -6,-6 -3,0 -3,-3 -6,-3 -10,0 -22,-6 -28,-6l0 0c-3,0 -7,0 -7,3 0,0 0,3 -3,6 0,3 0,3 0,6 0,4 0,4 0,4l3 0 -3 0 3 0 4 0c0,0 0,0 0,0 0,0 0,-4 0,-4 0,-3 0,-6 0,-9 0,0 0,0 0,-3 0,0 0,0 3,0l0 0c6,3 18,6 28,6 0,0 3,3 3,3 3,3 6,7 6,10 3,0 3,0 3,3 0,0 0,0 0,0l0 0 3 0 -3 -3c0,0 0,0 0,3 0,0 -3,9 -9,12 0,3 -3,7 -6,10 0,3 -3,3 -3,3 -7,3 -10,6 -13,6 0,3 0,3 -3,3 0,0 0,0 -3,0 0,0 -3,0 -6,0 -4,-3 -7,-6 -10,-9 0,-3 -3,-3 -3,-3 0,-3 -3,-3 -3,-3l0 3 3 0 13 -25 0 -3 -4 0z"/>
   <path class="fil2" d="M167 1406l10 12 0 13c0,0 0,0 0,0 0,0 3,0 3,3 3,0 3,0 6,0 0,0 3,0 3,0 0,0 3,-3 3,-3 0,0 0,-3 3,-3 4,-4 7,-7 7,-10 3,-3 6,-6 6,-6 0,0 0,0 0,0l-6 -13c0,-3 -3,-3 -3,-3 0,3 0,3 0,3l3 13 3 0 0 0c0,0 -3,3 -10,6 0,3 -3,3 -3,6 -3,0 -3,4 -3,4 0,0 0,3 -3,3 0,0 0,0 0,0 0,0 -3,0 -3,-3 -3,0 -3,0 -3,0l0 0 0 0 0 3 0 0 0 -13 0 -3 -6 -12c-4,0 -4,0 -4,0 -3,0 -3,0 -3,3z"/>
   <path class="fil2" d="M180 1428l-16 -4c0,0 -3,0 -3,4 0,0 0,0 3,0l16 3c0,0 0,0 0,0 0,-3 0,-3 0,-3z"/>
   <path class="fil3" d="M408 1653l-25 9c0,0 -3,22 0,28 6,3 12,0 19,6 9,3 37,-3 37,-3 0,0 6,-15 0,-22 -3,-9 -9,-18 -12,-25 -3,-6 -19,7 -19,7l0 0z"/>
   <path class="fil2" d="M408 1653l0 0 -28 6c0,0 0,0 0,3 0,0 0,6 0,12 0,4 0,7 0,10 0,3 0,3 3,6 0,0 3,3 3,3 3,0 6,0 9,3 0,0 4,0 7,0 3,3 6,3 9,3 13,0 28,-3 28,-3 0,0 3,-3 3,-3 0,0 0,-6 0,-15 0,-4 0,-7 0,-10 -3,-3 -6,-6 -6,-12 -3,-3 -6,-10 -6,-13 -3,0 -3,0 -3,0 0,0 -3,-3 -3,-3 -4,3 -4,3 -7,3 -3,3 -9,10 -9,10l0 0 0 0 0 0 3 3 0 -3c0,0 3,0 6,-4 0,0 3,-3 3,-3 4,0 4,0 4,0l0 0 0 0c3,3 6,7 6,13 3,3 6,9 9,12 0,3 0,7 0,7 0,6 0,9 0,9 0,3 0,3 0,3 -3,3 -3,3 -3,3l0 0 3 0 0 -3c0,0 0,0 -3,3 -6,0 -16,3 -25,3 -3,0 -6,-3 -6,-3 -6,-3 -10,-3 -13,-3 0,0 -3,0 -3,0 -3,0 -3,-3 -3,-3 -3,0 -3,-3 -3,-6 0,0 0,-3 0,-7 0,-3 0,-6 0,-9 0,-3 0,-3 0,-3l0 0 0 0 28 -6 0 0 -3 -3 0 0z"/>
   <path class="fil2" d="M408 1653l-6 15 -10 6c0,0 0,4 0,4 0,0 0,3 3,3 0,3 0,3 4,3 0,3 3,3 3,3l0 0c3,0 6,0 9,0 3,0 6,0 9,0 4,0 7,0 7,0 0,0 0,0 0,0l6 -13c0,-3 0,-3 0,-3 0,0 -3,0 -3,0l-6 13 3 0 0 0c0,0 -3,0 -7,0 -3,0 -6,0 -9,0 -3,0 -6,0 -9,0l0 0c0,0 0,0 0,-3 -3,0 -3,0 -3,-3 0,0 0,0 0,0l0 0 0 0 -4 0 0 0 10 -7 3 -3 3 -15c0,0 0,0 0,0 -3,-4 -3,0 -3,0z"/>
   <path class="fil2" d="M395 1674l-6 -12c0,0 -3,0 -3,0 0,0 0,0 0,3l6 13c3,0 3,0 3,0 4,0 4,0 0,-4z"/>
   <path class="fil3" d="M127 1399c0,0 -25,13 -19,22 3,10 6,16 9,16 3,3 16,9 22,6 3,-3 13,-9 16,-22 0,-9 3,-12 0,-18 -3,-4 -28,-4 -28,-4z"/>
   <path class="fil2" d="M127 1399l-3 -3c0,0 -4,3 -10,7 -3,3 -3,6 -6,9 -3,3 -3,3 -3,6 0,3 0,3 0,3l0 0c3,7 3,10 6,13 0,3 3,3 6,6l0 0c0,0 3,3 7,3 3,0 9,3 12,3 0,0 3,0 3,-3l0 0c3,0 6,-3 10,-6 3,-3 6,-9 6,-16 0,-3 3,-6 3,-6 0,-3 0,-6 0,-6 0,-3 0,-3 0,-6l0 0c-3,0 -3,-4 -3,-4 -3,0 -6,0 -10,-3 -9,0 -18,0 -18,0 0,0 0,0 -3,0l3 3 0 0c0,0 0,0 3,0 3,0 9,0 12,4 3,0 7,0 10,0 0,0 0,3 3,3l0 0c0,0 0,0 0,3 0,0 0,0 0,3 -3,3 -3,6 -3,9 0,7 -3,10 -7,13 -3,3 -6,6 -9,6l0 0c0,0 0,0 0,0 -3,0 -6,0 -9,0 -3,0 -7,-3 -7,-3l0 0c-3,-3 -6,-3 -6,-6 -3,-3 -3,-7 -6,-10l0 0c0,0 0,0 0,-3 0,0 0,-3 3,-3 3,-6 6,-9 9,-12 4,0 4,0 7,-4 0,0 0,0 0,0l0 0 0 0 0 0 0 0 0 0z"/>
   <path class="fil2" d="M105 1424l19 10c0,0 0,0 0,0l12 0c3,0 3,0 3,-3l6 -13 0 -3c0,0 0,-3 -3,-3 0,-3 0,-3 -3,-6 0,0 -3,0 -6,0 -6,0 -13,3 -13,3 0,3 0,3 0,3l4 9c0,0 0,0 3,0 0,0 0,0 0,-3l-3 -6 -4 0 4 0 0 0c0,0 3,-3 9,-3 3,0 3,0 6,3 0,0 0,0 0,3 0,0 0,0 0,0l0 0 0 0 0 0 3 0 0 0 -6 16 -12 0 -16 -10c0,-3 -3,-3 -3,0 0,0 0,0 0,3l0 0z"/>
   <path class="fil3" d="M230 1378c0,0 -22,21 -19,34 3,12 28,25 28,25l31 -19 -9 -25 -19 -9 -12 -6 0 0z"/>
   <path class="fil2" d="M230 1378l-3 0c0,0 -3,3 -10,9 -3,6 -9,16 -9,22 0,0 0,3 0,3l0 0c0,3 3,9 6,12 10,10 25,16 25,16 0,0 0,0 3,0l32 -19c0,0 0,-3 0,-3l-10 -25c0,0 0,0 0,0l-22 -12 0 0 -12 -3c0,0 -3,0 -3,0l3 0 -3 3 12 3 22 12 9 22 -31 16 0 3 0 -3c0,0 0,0 0,0 -3,0 -9,-3 -15,-6 -4,-4 -4,-7 -7,-10 -3,-3 -3,-3 -3,-6l0 0c-3,0 -3,-3 -3,-3 0,-6 6,-13 9,-19 4,-3 7,-6 7,-6 0,-3 3,-3 3,-3 0,0 0,0 0,0l0 -3 -3 3 3 -3 0 0z"/>
   <path class="fil2" d="M211 1415l22 6c0,0 0,0 0,0l25 -6c0,0 0,-3 3,-3 0,0 0,0 0,0l-12 -22c0,-3 0,-3 0,-3 -4,0 -4,3 -4,3l10 22 -22 6 -22 -9c0,0 -3,0 -3,3 0,0 0,0 3,3l0 0z"/>
   <path class="fil2" d="M227 1378l0 31c0,0 0,0 0,0l15 6c3,0 3,0 3,0 0,-3 0,-3 0,-3l-15 -6 0 -28c0,0 0,0 0,0 -3,0 -3,0 -3,0l0 0z"/>
   <path class="fil3" d="M292 1640c0,0 -22,19 -18,31 3,16 28,25 28,25l31 -15 -9 -25 -19 -13 -13 -3z"/>
   <path class="fil2" d="M292 1640l-3 -3c0,0 -3,6 -9,12 -3,7 -10,13 -10,22 0,0 0,0 0,3 0,4 4,7 7,10 9,9 25,15 25,15 0,0 0,0 0,0l34 -18c0,0 0,0 0,-3l-9 -25c0,0 0,0 0,0l-22 -13 0 0 -13 -3c0,0 -3,0 -3,0l3 3 -3 0 13 6 22 10 9 22 -31 18 0 0 0 0c0,0 0,0 0,0 -3,-3 -10,-6 -16,-9 -3,-3 -3,-3 -6,-6 -3,-3 -3,-7 -6,-10 0,0 0,0 0,0 0,-6 6,-15 9,-22 3,-3 6,-3 6,-6 0,0 3,0 3,-3 0,0 0,0 0,0l0 0 -3 0 3 0 0 0z"/>
   <path class="fil2" d="M274 1674l21 10c0,0 0,0 0,0l25 -10c0,0 0,0 4,0 0,-3 0,-3 0,-3l-13 -22c0,0 0,0 0,0 -3,0 -3,0 -3,4l9 18 -22 7 -21 -7c0,0 -4,0 -4,0 0,0 0,3 4,3l0 0z"/>
   <path class="fil2" d="M289 1640l0 28c-3,0 0,3 0,3l16 3c3,4 3,0 3,0 0,0 0,-3 0,-3l-16 -3 0 -28c0,-3 0,-3 0,-3 -3,0 -3,0 -3,3z"/>
   <path class="fil3" d="M152 1359c0,0 -19,19 -19,31 3,16 31,25 31,25l31 -16 -9 -25 -22 -12 -12 -3 0 0z"/>
   <path class="fil2" d="M152 1359l0 -3c0,0 -7,6 -10,12 -6,3 -9,13 -9,19 0,3 0,3 0,3 0,6 3,9 6,13 10,9 22,15 25,15 0,0 0,0 0,0l31 -19c4,0 4,0 4,-3l-10 -25c-3,0 -3,0 -3,0l-19 -12 -3 0 -12 -3c0,0 0,0 0,0l0 3 0 0 12 6 19 9 9 22 -31 19 3 0 0 0c0,0 0,0 0,0 -3,-3 -9,-6 -15,-9 -4,-3 -7,-7 -10,-7 0,-3 -3,-6 -3,-9 0,0 0,0 0,-3 0,-3 3,-13 9,-19 4,-3 4,-3 7,-6 0,0 0,0 0,-3 3,0 3,0 3,0l-3 0 0 0 0 0 0 0z"/>
   <path class="fil2" d="M133 1393l22 10c0,0 3,0 3,0l25 -10c0,0 0,0 0,0 0,-3 0,-3 0,-3l-9 -22c0,0 0,-3 -4,0 0,0 0,0 0,0l10 22 -22 6 -22 -6c-3,0 -3,0 -3,0 0,0 0,3 0,3z"/>
   <path class="fil2" d="M152 1359l-3 28c0,0 0,3 3,3l15 3c0,0 3,0 3,0 0,0 0,-3 -3,-3l-15 -3 3 -28c0,-3 0,-3 -3,-3 0,0 0,0 0,3z"/>
   <polygon class="fil2" points="267,1699 105,1699 80,1428 292,1428 "/>
   <path class="fil2" d="M267 1699l0 -3 -162 0 -22 -268 209 0 -25 271 0 0 0 -3 0 3 3 0 25 -271c0,0 0,-4 0,-4 0,0 0,0 -3,0l-212 0c0,0 0,0 -3,0 0,0 0,4 0,4l25 271c0,4 0,4 3,4l162 0c3,0 3,0 3,-4l-3 0z"/>
   <path class="fil3" d="M158 1656c0,0 -22,15 -19,22 6,9 6,15 13,15 3,3 15,10 18,6 7,-3 16,-9 16,-21 3,-10 6,-13 3,-19 -6,-3 -31,-3 -31,-3z"/>
   <path class="fil2" d="M158 1656l0 -3c0,0 -6,3 -9,9 -4,0 -7,3 -7,6 -3,3 -6,6 -6,6 0,4 0,4 3,4 0,6 3,9 3,12 3,3 7,6 7,6l0 0c3,0 6,3 9,3 3,4 6,4 9,4 3,0 3,0 7,-4 0,0 6,-3 9,-6 3,-3 6,-9 6,-15 0,-4 0,-7 3,-7 0,-3 0,-6 0,-6 0,-3 0,-3 -3,-6 0,0 0,-3 -3,-3 0,0 -3,0 -6,-3 -10,0 -22,0 -22,0 0,0 0,0 0,0l0 3 0 0c0,0 3,0 6,0 3,0 10,0 13,3 3,0 6,0 6,0 3,0 3,3 3,3 3,0 3,3 3,3 0,0 0,3 -3,3 0,3 0,6 0,10 -3,6 -3,9 -6,12 -3,3 -6,6 -10,6 0,0 0,0 -3,0 -3,0 -6,0 -9,0 -3,0 -3,-3 -6,-3l0 0c0,0 -3,-3 -3,-6 -4,-3 -7,-6 -7,-9 0,0 0,0 0,-4 0,0 0,-3 3,-3 0,-3 7,-9 10,-9 0,-3 3,-3 3,-3 0,-3 3,-3 3,-3l0 0 -3 0 0 0 0 0 0 0z"/>
   <path class="fil2" d="M139 1681l16 9c0,0 0,0 3,0l12 0c0,0 4,0 4,-3l3 -13 0 -3c0,0 0,0 0,-3 0,-3 0,-3 -3,-3 0,-3 -4,-3 -7,-3 -9,0 -12,6 -12,6 -3,0 -3,0 -3,0l3 10c3,0 3,0 3,0 3,0 3,0 3,0l-3 -10 -3 0 3 3 0 0c0,-3 3,-6 9,-6 3,0 3,3 3,3 4,0 4,0 4,3 0,0 0,0 0,0l0 0 0 0 0 0 3 0 -3 0 -4 16 -12 0 -16 -9c-3,-4 -3,-4 -3,0 -3,0 0,3 0,3l0 0z"/>
   <path class="fil9" d="M595 884c0,3 -3,6 -9,6 -3,0 -9,-3 -9,-6 0,-6 6,-10 9,-10 6,0 9,4 9,10z"/>
   <path class="fil2" d="M595 884l-3 0c0,0 0,0 0,3 -3,0 -3,0 -6,0 0,0 -3,0 -3,0 -3,-3 -3,-3 -3,-3 0,-3 0,-3 3,-6 0,0 3,0 3,0 3,0 3,0 6,0 0,3 0,3 0,6l3 0 4 0c0,-3 -4,-6 -4,-10 -3,0 -6,-3 -9,-3 -3,0 -6,3 -6,3 -3,4 -3,7 -3,10 0,0 0,3 3,6 0,0 3,3 6,3 3,0 6,-3 9,-3 0,-3 4,-6 4,-6l-4 0z"/>
   <path class="fil9" d="M605 906c0,6 -3,9 -10,9 -6,0 -9,-3 -9,-9 0,-3 3,-7 9,-7 7,0 10,4 10,7z"/>
   <path class="fil2" d="M605 906l-3 0c0,3 0,3 0,3 -3,3 -3,3 -7,3 -3,0 -3,0 -6,-3 0,0 0,0 0,-3 0,0 0,-3 0,-3 3,0 3,-4 6,-4 4,0 4,4 7,4 0,0 0,3 0,3l3 0 3 0c0,-3 -3,-7 -6,-7 0,-3 -3,-3 -7,-3 -3,0 -6,0 -9,3 0,0 -3,4 -3,7 0,3 3,6 3,6 3,3 6,3 9,3 4,0 7,0 7,-3 3,0 6,-3 6,-6l-3 0z"/>
   <path class="fil9" d="M614 931c0,3 -6,6 -9,6 -6,0 -10,-3 -10,-6 0,-7 4,-10 10,-10 3,0 9,3 9,10z"/>
   <path class="fil2" d="M614 931l-3 0c0,0 0,3 -3,3 0,0 -3,3 -3,3 -3,0 -3,-3 -6,-3 0,0 0,-3 0,-3 0,-3 0,-3 0,-3 3,-4 3,-4 6,-4 0,0 3,0 3,4 3,0 3,0 3,3l3 0 0 0c0,-3 0,-7 -3,-7 0,-3 -3,-3 -6,-3 -3,0 -6,0 -10,3 0,0 -3,4 -3,7 0,3 3,3 3,6 4,3 7,3 10,3 3,0 6,0 6,-3 3,-3 3,-3 3,-6l0 0z"/>
   <path class="fil9" d="M624 953c0,6 -7,9 -10,9 -6,0 -9,-3 -9,-9 0,-4 3,-7 9,-7 3,0 10,3 10,7z"/>
   <path class="fil2" d="M624 953l-4 0c0,3 0,3 -3,6 0,0 -3,0 -3,0 -3,0 -6,0 -6,0 0,-3 -3,-3 -3,-6 0,0 3,-4 3,-4 0,0 3,0 6,0 0,0 3,0 3,0 3,0 3,4 3,4l4 0 0 0c0,-4 0,-4 -4,-7 -3,0 -3,-3 -6,-3 -3,0 -6,3 -9,3 -3,3 -3,3 -3,7 0,3 0,6 3,9 3,0 6,3 9,3 3,0 3,-3 6,-3 4,-3 4,-6 4,-9l0 0z"/>
   <polygon class="fil2" points="499,1068 436,1068 427,965 508,965 "/>
   <path class="fil2" d="M499 1068l0 0 -60 0 -9 -100 75 0 -10 100 4 0 0 0 0 0 3 3 9 -106c0,0 0,0 -3,0 0,0 0,0 0,0l-81 0c0,0 0,0 -3,0 0,0 0,0 0,0l9 106c0,0 3,0 3,0l63 0c0,0 3,0 3,0l-3 -3z"/>
   <polygon class="fil0" points="505,999 433,1037 436,1068 470,1068 502,1034 "/>
   <path class="fil2" d="M505 999l0 0 -72 35c-3,0 -3,3 -3,3l3 34c0,0 3,0 3,0l34 0c0,0 0,0 0,0l35 -37c0,0 0,0 0,0l3 -35c0,0 0,0 -3,0 0,0 0,-3 0,0l0 0 -3 0 -3 32 -32 37 -28 0 -3 -31 69 -34 0 -4 -3 0 3 0 0 0z"/>
   <polygon class="fil0" points="514,978 420,978 420,953 514,953 "/>
   <path class="fil2" d="M514 978l0 -4 -94 0 0 -18 94 0 0 22 0 0 0 -4 0 4 3 0 0 -25c0,0 0,0 0,0 0,0 -3,0 -3,0l-94 0c-3,0 -3,0 -3,0 0,0 0,0 0,0l0 25c0,0 0,0 0,0 0,0 0,0 3,0l94 0c0,0 3,0 3,0 0,0 0,0 0,0l-3 0z"/>
   <path class="fil2" d="M683 1071l-113 0c-6,0 -12,-6 -12,-15 0,-7 6,-13 12,-13l113 0c9,0 16,6 16,13 0,9 -7,15 -16,15z"/>
   <path class="fil2" d="M683 1071l0 -3 -113 0c-6,0 -12,-6 -12,-12 0,-7 6,-13 12,-13l113 0c6,0 12,6 12,13 0,6 -6,12 -12,12l0 3 0 0c9,0 16,-6 16,-15 0,-10 -7,-16 -16,-16l-113 0c-9,0 -15,6 -15,16 0,9 6,15 15,15l113 0 0 0z"/>
   <polygon class="fil2" points="983,1071 636,1071 555,846 899,846 "/>
   <path class="fil2" d="M983 1071l0 -3 -344 0 -81 -219 341 0 81 222 3 0 0 -3 0 3 0 0 -81 -225c0,0 0,-3 -3,-3l-344 0c-3,0 -3,0 -3,3 0,0 0,0 0,0l81 225c3,0 3,3 3,3l347 0c0,0 0,-3 0,-3 3,0 3,0 0,0l0 0 0 0z"/>
   <polygon class="fil9" points="961,1046 664,1046 595,856 889,856 "/>
   <path class="fil2" d="M961 1046l0 0 -294 0 -68 -187 290 0 69 190 3 -3 0 0 0 0 0 0 -69 -190c0,0 0,-3 -3,-3l-294 0c-3,0 -3,0 -3,3 0,0 0,0 0,0l72 193c0,0 0,0 0,0l297 0c0,0 0,0 0,0 0,0 3,-3 0,-3l0 0 0 0z"/>
   <path class="fil2" d="M1017 1153c0,0 -12,21 -25,31 -12,12 -50,47 -81,100 -31,53 -53,106 -75,153 -19,47 -56,131 -75,156 -19,28 -31,41 -31,41 0,0 -31,0 -66,-3 -37,-3 -53,-10 -53,0 0,9 25,37 44,40 15,7 40,13 44,19 6,3 15,9 21,6 10,-3 38,-40 69,-68 31,-25 66,-54 100,-113 31,-62 35,-97 56,-119 25,-25 47,-59 79,-78 28,-22 115,-56 143,-94 28,-34 16,-81 -12,-96 -28,-16 -116,-22 -138,25l0 0z"/>
   <path class="fil2" d="M1017 1153l0 -4c0,0 0,4 -3,4 -3,9 -15,21 -25,31 -12,9 -50,44 -81,97 -31,53 -53,109 -72,153 -9,25 -25,56 -41,87 -12,32 -28,60 -37,72 -9,13 -16,22 -22,31 -3,4 -3,4 -6,7 0,3 -3,3 -3,3l3 0 0 0c0,0 -3,0 -10,0 -9,0 -31,0 -56,-3 -12,-3 -22,-3 -28,-3 -9,-4 -12,-4 -19,-4 -3,0 -3,0 -6,4 0,0 0,0 -3,0 0,3 0,3 0,3l0 0c0,3 0,6 3,6 3,6 9,16 16,22 9,6 18,12 25,15 9,4 22,4 28,7 6,3 9,3 12,6 3,0 7,3 7,3 3,3 6,3 6,6 3,3 6,3 12,3 0,0 3,0 7,0 0,-3 3,-3 3,-3 6,-6 15,-18 25,-28 12,-12 25,-28 37,-37 31,-28 69,-53 100,-116 19,-31 25,-56 35,-75 6,-19 12,-31 25,-44 21,-22 46,-59 75,-78 15,-9 43,-22 75,-37 28,-16 56,-35 71,-53 10,-16 16,-32 16,-44 0,-25 -12,-47 -31,-56 -6,-4 -13,-7 -25,-10 -10,-3 -22,-3 -31,-3 -19,0 -35,3 -50,6 -13,7 -25,16 -32,28l0 4 0 -4 0 4 3 0c7,-13 16,-22 32,-25 12,-7 28,-10 47,-10 9,0 21,3 31,3 9,3 19,7 25,10 15,9 28,28 28,53 0,12 -6,28 -16,40 -12,19 -43,38 -72,54 -28,15 -59,28 -75,37 -28,19 -53,56 -75,78 -12,13 -18,28 -25,47 -9,19 -18,44 -34,72 -31,62 -69,87 -100,116 -16,12 -28,28 -41,40 -6,6 -12,13 -15,19 -3,3 -3,3 -6,6 0,0 -4,0 -4,0 0,3 -3,3 -3,3 -3,0 -6,-3 -9,-3 -3,-3 -3,-3 -6,-6 -3,0 -3,-3 -10,-3 -9,-6 -25,-10 -37,-13 -10,-3 -19,-9 -28,-18 -3,-4 -7,-10 -10,-13 -3,0 -3,-3 -3,-3 0,-3 0,-3 0,-6l0 0c0,0 0,0 0,0 0,0 0,0 0,0 0,0 3,-3 3,-3 3,0 10,3 19,3 6,0 16,3 25,3 28,3 50,3 59,3 7,0 10,0 10,0 0,0 0,0 0,0 3,0 12,-16 34,-41 10,-12 22,-40 38,-72 12,-31 28,-65 37,-87 22,-47 44,-100 72,-153 31,-53 69,-88 81,-97 7,-6 13,-16 19,-22 6,-6 9,-12 9,-12l0 0 -3 0 0 0z"/>
   <path class="fil3" d="M783 1556c-9,15 -16,31 -22,37 -19,28 -31,41 -31,41 0,0 -31,0 -66,-3 -37,-3 -53,-10 -53,0 0,9 25,37 44,40 15,7 40,13 44,19 6,3 15,9 21,6 10,-3 38,-40 69,-68 13,-13 28,-25 44,-41 -25,-6 -41,-19 -50,-31l0 0z"/>
   <path class="fil2" d="M783 1556l-3 0c-6,15 -16,28 -22,37 -9,13 -16,22 -22,31 -3,4 -3,4 -6,7 0,3 -3,3 -3,3l3 0 0 0c0,0 -3,0 -10,0 -9,0 -31,0 -56,-3 -12,-3 -22,-3 -28,-3 -9,-4 -12,-4 -19,-4 -3,0 -3,0 -6,4 0,0 0,0 -3,0 0,3 0,3 0,3l0 0c0,3 0,6 3,6 3,6 9,16 16,22 9,6 18,12 25,15 9,4 22,4 28,7 6,3 9,3 12,6 3,0 7,3 7,3 3,3 6,3 6,6 3,3 6,3 12,3 0,0 3,0 7,0 0,-3 3,-3 3,-3 6,-6 15,-18 25,-28 12,-12 25,-28 37,-37 16,-13 31,-25 47,-41 0,0 0,-3 0,-3 0,0 0,0 0,0 -25,-6 -44,-22 -53,-31 0,-3 0,-3 0,-3 0,0 -3,3 -3,3l3 0 -3 0c12,12 28,28 53,34l0 -3 0 0c-16,16 -31,28 -47,41 -16,12 -28,28 -41,40 -6,6 -12,13 -15,19 -3,3 -3,3 -6,6 0,0 -4,0 -4,0 0,3 -3,3 -3,3 -3,0 -6,-3 -9,-3 -3,-3 -3,-3 -6,-6 -3,0 -3,-3 -10,-3 -9,-6 -25,-10 -37,-13 -10,-3 -19,-9 -28,-18 -3,-4 -7,-10 -10,-13 -3,0 -3,-3 -3,-3 0,-3 0,-3 0,-6l0 0c0,0 0,0 0,0 0,0 0,0 0,0 0,0 3,-3 3,-3 3,0 10,3 19,3 6,0 16,3 25,3 28,3 50,3 59,3 7,0 10,0 10,0 0,0 0,0 0,0 3,0 12,-16 34,-41 3,-9 13,-22 22,-40l-3 0 -3 0 3 0 0 0z"/>
   <path class="fil0" d="M720 1696c4,0 10,-6 16,-12 -25,-3 -37,-16 -50,-19 -16,-6 -28,-16 -28,-16l12 -15c-3,0 -6,0 -6,-3 -37,-3 -53,-10 -53,0 0,9 25,37 44,40 15,7 40,13 44,19 6,3 15,9 21,6l0 0z"/>
   <path class="fil2" d="M720 1696l4 3c0,-3 3,-3 6,-6 0,0 3,-3 6,-6 0,-3 0,-3 0,-3 0,0 0,0 0,0 -12,-3 -22,-10 -31,-13 -6,-3 -13,-6 -19,-9 -6,-3 -16,-6 -19,-9 -3,0 -6,0 -6,-4 -3,0 -3,0 -3,0 0,0 0,0 0,0l0 0 0 4 12 -19c0,0 0,0 0,-3 0,0 0,0 0,0 -3,0 -6,0 -6,0l0 0c-12,-3 -22,-3 -28,-3 -9,-4 -12,-4 -19,-4 -3,0 -3,0 -6,4 0,0 0,0 -3,0 0,3 0,3 0,3l0 0c0,3 0,6 3,6 3,6 9,16 16,22 9,6 18,12 25,15 9,4 22,4 28,7 6,3 9,3 12,6 3,0 7,3 7,3 3,3 6,3 6,6 3,3 6,3 12,3 0,0 3,0 7,0l-4 -3 0 -3c0,3 -3,3 -3,3 -3,0 -6,-3 -9,-3 -3,-3 -3,-3 -6,-6 -3,0 -3,-3 -10,-3 -9,-6 -25,-10 -37,-13 -10,-3 -19,-9 -28,-18 -3,-4 -7,-10 -10,-13 -3,0 -3,-3 -3,-3 0,-3 0,-3 0,-6l0 0c0,0 0,0 0,0 0,0 0,0 0,0 0,0 3,-3 3,-3 3,0 10,3 19,3 6,0 16,3 25,3l0 0c3,0 6,0 6,0l3 0 -3 -3 -12 18c0,0 0,0 0,4 0,0 0,0 0,0 0,0 15,9 31,12 3,3 9,6 19,9 6,7 15,10 28,13l3 -3 -3 0c-3,3 -6,6 -6,6 -3,3 -7,3 -7,3l0 3 0 0z"/>
   <path class="fil2" d="M764 1268c0,0 6,31 22,60 16,28 47,59 69,78 25,15 100,84 137,137 3,6 -12,28 -34,50 -22,19 -31,25 -22,28 13,7 41,3 69,-18 28,-25 44,-41 53,-60 6,-9 -19,-22 -34,-34 -13,-13 -69,-94 -85,-131 -15,-38 -59,-91 -90,-110l-85 0 0 0z"/>
   <path class="fil2" d="M761 1268c0,0 9,31 22,60 16,31 47,62 72,78 22,18 97,84 134,137 0,0 0,3 0,3 0,0 0,3 0,7 -6,9 -19,25 -34,37 -6,6 -13,13 -19,16 0,3 -3,6 -3,6 -3,3 -3,3 -3,6 0,0 0,3 3,3 0,3 0,3 3,3 3,0 6,4 13,4 15,0 34,-7 56,-25 28,-22 47,-38 56,-60 0,0 0,0 0,-3 0,-3 0,-3 -3,-6 -3,-6 -9,-10 -16,-13 -6,-3 -12,-9 -15,-12 -3,-3 -10,-10 -19,-22 -22,-28 -53,-81 -66,-109 -9,-19 -25,-44 -40,-63 -19,-22 -38,-41 -53,-50 0,0 0,0 -4,0 0,3 0,3 4,3 15,10 31,28 50,47 15,22 31,44 37,63 9,21 28,50 44,78 9,12 19,25 25,34 9,9 15,19 19,22 6,6 15,12 21,16 4,3 7,6 10,9 0,0 3,3 3,3 0,3 0,3 0,3 -9,19 -28,35 -56,56 -19,19 -41,22 -53,22 -4,0 -10,0 -13,0 0,0 0,-3 -3,-3 0,0 0,0 0,0 0,0 0,0 3,-3 0,-3 3,-6 6,-9 7,-3 10,-7 16,-13 9,-9 19,-19 25,-25 3,-6 6,-9 9,-12 0,-3 3,-7 3,-10 0,-3 0,-3 -3,-3 -37,-56 -112,-122 -134,-140 -25,-16 -56,-47 -72,-75 -6,-16 -12,-32 -16,-41 0,-6 -3,-13 -3,-16 0,0 0,-3 0,-3 0,0 0,0 0,0 0,-3 -3,-3 -3,-3 0,0 -3,3 -3,3l0 0z"/>
   <path class="fil3" d="M1058 1543c6,-9 -19,-22 -34,-34 -13,-10 -50,-69 -75,-110l-50 44c31,28 68,66 93,100 3,6 -12,28 -34,50 -22,19 -31,25 -22,28 13,7 41,3 69,-18 28,-25 44,-41 53,-60l0 0z"/>
   <path class="fil2" d="M1058 1543l3 0c0,0 0,0 0,-3 0,-3 0,-3 -3,-6 -3,-6 -9,-10 -16,-13 -6,-3 -12,-9 -15,-12 -3,-3 -10,-10 -16,-16 -16,-22 -44,-65 -59,-94 0,-3 0,-3 -3,-3 0,0 0,0 0,0l-50 44c0,3 0,3 0,3 0,0 0,0 0,0 31,31 68,69 90,100 0,0 0,3 0,3 0,0 0,3 0,7 -6,9 -19,25 -34,37 -6,6 -13,13 -19,16 0,3 -3,6 -3,6 -3,3 -3,3 -3,6 0,0 0,3 3,3 0,3 0,3 3,3 3,0 6,4 13,4 15,0 34,-7 56,-25 28,-22 47,-38 56,-60l-3 0 0 0c-9,19 -28,35 -56,56 -19,19 -41,22 -53,22 -4,0 -10,0 -13,0 0,0 0,-3 -3,-3 0,0 0,0 0,0 0,0 0,0 3,-3 0,-3 3,-6 6,-9 7,-3 10,-7 16,-13 9,-9 19,-19 25,-25 3,-6 6,-9 9,-12 0,-3 3,-7 3,-10 0,-3 0,-3 -3,-3 -22,-34 -59,-72 -90,-103l-3 3 3 0 50 -44 -3 0 0 0c9,22 25,47 40,69 6,10 13,19 19,28 6,7 12,13 16,16 6,6 15,12 21,16 4,3 7,6 10,9 0,0 3,3 3,3 0,3 0,3 0,3l0 0 0 0z"/>
   <path class="fil0" d="M1042 1524c-3,7 -6,13 -12,25 -16,22 -53,54 -60,47 0,-3 -3,-9 -6,-12 -3,3 -6,6 -6,9 -22,19 -31,25 -22,28 13,7 41,3 69,-18 28,-25 44,-41 53,-60 3,-6 -3,-12 -16,-19l0 0z"/>
   <path class="fil2" d="M1042 1524l0 0c-3,4 -9,13 -15,22 -7,13 -19,22 -28,32 -7,6 -10,9 -16,12 -3,3 -3,3 -6,3 0,0 -3,3 -3,3l0 -3 0 3 0 -3 0 0 0 3 0 -3 0 3 0 0 0 -3 0 3 0 0c-4,-3 -7,-9 -7,-12 -3,0 -3,0 -3,0 0,0 0,0 0,0 -3,3 -6,3 -9,6 -6,6 -13,13 -19,16 0,3 -3,6 -3,6 -3,3 -3,3 -3,6 0,0 0,3 3,3 0,3 0,3 3,3 3,0 6,4 13,4 15,0 34,-7 56,-25 28,-22 47,-38 56,-60 0,0 0,0 0,-3 0,0 0,-3 0,-3 -3,-6 -9,-9 -16,-16 0,0 0,0 -3,0 0,0 0,0 0,3l0 0 0 0c3,4 10,7 13,10 0,3 0,3 0,3 3,3 3,3 3,3 0,3 0,3 0,3 -9,19 -28,35 -56,56 -19,19 -41,22 -53,22 -4,0 -10,0 -13,0 0,0 0,-3 -3,-3 0,0 0,0 0,0 0,0 0,0 3,-3 0,-3 3,-6 6,-9 7,-3 10,-7 16,-13 3,-3 6,-3 6,-6l0 -3 -3 3c3,3 6,6 9,9 0,3 4,3 4,3 3,0 3,0 6,-3 6,-3 15,-9 25,-18 9,-10 19,-19 25,-29 6,-9 12,-18 15,-25l-3 0 0 0 0 0 0 0z"/>
   <polygon class="fil3" points="1242,1603 992,1603 992,1590 1242,1590 "/>
   <path class="fil2" d="M1242 1603l0 -4 -247 0 0 -6 244 0 0 10 3 0 0 -4 0 4 3 0 0 -13c0,0 0,0 -3,0 0,0 0,0 0,0l-250 0c0,0 0,0 0,0 0,0 0,0 0,0l0 13c0,0 0,0 0,3 0,0 0,0 0,0l250 0c0,0 0,0 0,0 3,-3 3,-3 3,-3l-3 0z"/>
   <path class="fil3" d="M1017 1278l-43 415c0,3 0,3 3,3 0,0 3,0 3,-3l65 -415 -28 0z"/>
   <path class="fil2" d="M1017 1278l-3 0 -44 415 0 0 0 0c0,3 4,6 7,6 3,0 3,-3 6,-6l0 0 62 -415c0,0 0,0 0,0 0,0 0,-4 0,-4l-28 0c-3,0 -3,4 -3,4l3 0 0 3 25 0 -65 412 0 0c0,0 0,3 0,3 0,0 -3,-3 -3,-3l0 0 0 0 43 -415 0 0 0 3 0 -3z"/>
   <path class="fil3" d="M1214 1278l44 415c0,3 0,3 -3,3 0,0 -3,0 -3,-3l-66 -415 28 0z"/>
   <path class="fil2" d="M1214 1278l0 0 44 415 0 0 0 0c0,0 -3,3 -3,3 0,0 0,-3 0,-3l0 0 -66 -412 25 0 0 -3 0 0 0 0 0 -4 -28 0c0,0 0,4 0,4 0,0 0,0 0,0l63 415 3 0 -3 0c3,3 3,6 6,6 3,0 6,-3 6,-6l0 0 0 0 -44 -415c0,0 0,-4 -3,-4l0 4z"/>
   <path class="fil3" d="M1136 1278l3 415c0,3 -3,3 -3,3l0 0c-3,0 -3,0 -3,-3l-25 -415 28 0z"/>
   <path class="fil2" d="M1136 1278l-3 0 3 415 0 0 0 0c0,0 0,3 0,3l0 0c-3,0 -3,-3 -3,-3l0 0 -22 -412 25 0 0 -3 -3 0 3 0 0 -4 -28 0c0,0 0,0 0,4 0,0 -3,0 0,0l22 415 0 0c0,3 3,6 6,6l0 0c3,0 3,-3 3,-6l0 0 0 0 0 -415c0,0 -3,-4 -3,-4l0 4z"/>
   <path class="fil0" d="M1230 1281l-231 0c-10,0 -19,-7 -19,-19l0 -25c0,-13 9,-22 19,-22l231 0c9,0 19,9 19,22l0 25c0,12 -10,19 -19,19z"/>
   <path class="fil10" d="M1230 1281l-13 0 -3 0 -25 0 -3 0 -47 0 -6 0 -22 0 -3 0 -16 0 -9 0 -38 0 -3 0 -25 0 -3 0 -12 0 -13 0c-3,-3 -3,-3 -6,-7 41,0 153,-3 184,-3 41,0 38,-15 38,-28 0,-6 -63,-9 -119,-12 19,0 38,0 56,0 22,-3 41,-7 53,-10 7,-3 10,-3 16,-6l19 0 0 0 0 0 0 0 0 0 0 0c0,0 0,0 0,0l0 0 0 0 0 0c3,0 3,0 6,0l0 0c0,0 0,0 0,0l0 0c0,3 0,3 3,3l0 0c0,0 0,0 3,0l0 0 0 0 0 0c0,0 0,0 0,3l0 0 0 0 0 0 0 0 0 0c0,0 0,0 0,0l0 0 3 0 0 0 0 0 0 0 0 0 0 0 0 0 0 0c0,3 0,3 0,3l0 0 0 0 0 0 0 0 0 0 0 0 0 0 0 0 0 0 0 0 0 0 4 4 0 0 0 0 0 0 0 0 0 0 0 0 0 0 0 0 0 0 0 0 0 0c0,0 0,0 0,0l0 0 0 0 0 3 0 0 0 0 0 0 0 0 0 0 0 0 0 0 0 0 0 0 0 0 0 0 0 3 0 0 0 0 0 0 0 0 0 0 0 0 0 0 0 0 0 0 0 0 0 0 0 3 0 25c0,12 -10,19 -19,19l0 0zm-225 -50c-6,-3 -6,-3 -6,-3l0 0c0,0 3,0 6,3z"/>
   <path class="fil2" d="M1230 1281l0 0 -231 0c-7,0 -10,-3 -13,-7 -3,-3 -6,-6 -6,-12l0 -25c0,-6 3,-13 6,-16 3,-3 6,-3 13,-3l231 0c3,0 9,0 12,3 3,3 7,10 7,16l0 25c0,6 -4,9 -7,12 -3,4 -9,7 -12,7l0 0 0 3c12,0 22,-10 22,-22l0 -25c0,-13 -10,-25 -22,-25l-231 0c-13,0 -22,12 -22,25l0 25c0,12 9,22 22,22l231 0 0 -3z"/>
   <path class="fil2" d="M770 1293c-6,-15 -25,-50 75,-119 54,-37 169,-65 169,-65l13 -13c0,0 31,32 93,28 60,0 97,-28 107,-25 6,4 6,22 3,57 -3,37 -6,53 -35,62 -28,10 -90,13 -134,13 -47,-3 -69,-7 -69,-7 0,0 -97,63 -156,69l-66 0 0 0z"/>
   <path class="fil2" d="M774 1293c-4,-6 -7,-12 -7,-22 0,-9 3,-22 16,-37 9,-16 31,-35 62,-60 29,-18 69,-34 107,-46 18,-7 34,-10 47,-13 3,-3 9,-3 12,-3 3,-3 6,-3 6,-3 0,0 0,0 0,0l10 -13 0 0 0 0c0,0 28,32 87,32 0,0 3,0 6,0 29,0 54,-7 72,-16 10,-3 16,-6 22,-6 3,-3 6,-3 6,-3 4,0 4,-4 4,-4l3 0c0,4 0,4 0,4 3,0 3,3 3,6 0,6 0,9 0,15 0,10 0,19 0,32 -3,18 -3,31 -10,40 -3,10 -12,16 -25,22 -12,3 -31,6 -53,6 -22,4 -47,4 -68,4 -7,0 -10,0 -13,0 -25,0 -41,0 -53,-4 -3,0 -9,0 -13,0 0,0 0,0 -3,0 0,0 0,0 0,0 0,0 0,0 0,0 0,0 -3,0 -6,4 -9,6 -34,18 -62,34 -32,12 -63,25 -91,28 0,0 0,0 0,3 0,0 0,0 3,0 28,-3 69,-19 100,-34 34,-16 56,-31 56,-31l0 -4 0 4c0,0 22,3 66,3 6,0 9,0 16,0 21,0 46,0 68,0 22,-3 41,-7 53,-10 16,-6 25,-12 29,-22 6,-12 9,-25 9,-43 0,-13 3,-22 3,-32 0,-9 -3,-15 -3,-18 0,-3 0,-3 -3,-7 0,0 0,-3 -3,-3 0,0 0,0 -3,0 0,0 -4,0 -4,3 -9,0 -21,7 -37,13 -16,6 -38,12 -63,12 -3,0 -6,0 -6,0 -28,0 -50,-9 -65,-15 -7,-3 -13,-6 -16,-10 0,-3 -3,-3 -3,-3 0,-3 0,-3 0,-3l-3 0 0 0c0,0 0,0 0,0 0,0 0,0 -3,0l-10 13 0 3 0 -3c0,0 -28,6 -62,18 -38,13 -82,29 -107,47 -34,25 -56,44 -65,60 -13,15 -16,28 -16,40 0,10 3,19 3,22 0,3 3,3 3,3 0,0 4,-3 4,-3l0 0z"/>
   <path class="fil3" d="M995 890c-3,3 -137,28 -150,28 -12,-3 -43,-28 -53,-28 -12,0 -34,3 -34,9 -3,7 3,25 3,25 0,0 -6,13 -3,16 3,6 25,-6 25,-6 0,0 25,19 34,12 13,-3 25,-6 25,-6 0,0 172,9 172,9 3,4 25,7 25,-25 3,-31 -19,-40 -44,-34l0 0z"/>
   <path class="fil2" d="M995 890l0 0c0,0 -3,0 -3,0 -9,3 -40,9 -72,13 -15,3 -31,6 -43,9 -16,3 -25,3 -28,3 -4,0 -4,0 -4,0 -3,0 -6,-3 -9,-6 -9,-3 -16,-10 -25,-13 -3,-3 -6,-6 -9,-6 -3,-3 -7,-3 -10,-3l0 0c-6,0 -15,3 -22,3 -3,0 -6,3 -9,3 0,0 -3,3 -3,3 0,0 -3,0 -3,3 0,0 0,4 0,4 0,3 0,9 3,15 0,3 3,6 3,6l0 0 0 0c0,0 -3,0 -3,4 0,3 -3,6 -3,9 0,3 0,3 3,6 0,0 0,0 0,0 3,0 3,0 3,0 3,0 6,0 6,0 10,-3 16,-6 16,-6l0 -3 0 3c0,0 3,3 9,6 7,0 10,3 13,3 3,3 6,3 9,3 3,0 3,0 6,0 10,-3 22,-9 22,-9l0 0 0 3c0,0 0,0 7,0 15,0 56,3 93,6 19,0 38,0 50,4 7,0 13,0 16,0 3,0 3,0 6,0 0,0 0,0 0,0l0 0 0 0 0 0 0 0 0 0 0 0 0 0c0,0 3,0 6,0 4,0 10,0 13,-4 6,-6 9,-12 9,-25 0,0 0,-3 0,-3 0,-12 -3,-18 -9,-25 -6,-6 -13,-9 -22,-9 -6,0 -9,0 -16,3l0 0 0 3c7,0 10,-3 16,-3 9,0 16,3 19,9 6,4 9,13 9,22 0,0 0,3 0,3 0,13 -6,19 -9,22 -3,3 -6,3 -10,3 -3,0 -3,0 -6,0l0 0c0,0 -3,0 -9,-3 -38,0 -163,-9 -163,-9l-3 0c0,0 -3,3 -6,3 -3,3 -9,3 -16,6 0,0 0,0 -3,0 -3,0 -6,0 -9,-3 -3,0 -10,-3 -13,-6 -3,-3 -3,-3 -6,-3 0,0 0,0 0,0l0 -3c-3,0 -3,0 -3,0 0,0 0,0 0,3 -3,0 -6,0 -9,3 -4,0 -7,3 -7,3 -3,0 -3,0 -6,0 0,0 0,0 0,0l0 0c0,0 0,0 0,-3 0,-3 0,-3 0,-6 0,-3 3,-3 3,-3l0 0 0 0c0,-4 0,-4 0,-4 0,0 0,0 0,-3 -3,-3 -3,-6 -3,-9 0,-3 -3,-6 -3,-9 0,0 0,-4 0,-4 0,0 0,0 3,0 0,0 3,-3 6,-3 7,-3 19,-3 25,-6l0 0 0 0c3,0 7,3 10,6 9,3 15,10 25,13 3,3 6,6 9,6 3,3 6,3 9,3 0,0 0,0 4,0 3,0 15,0 31,-3 22,-3 50,-9 72,-12 12,-4 22,-4 31,-7 3,0 6,0 9,-3 0,0 0,0 3,0 0,0 0,0 0,0l0 -3 0 0z"/>
   <path class="fil2" d="M764 928l28 -25c3,0 3,-4 0,-4 0,0 0,0 0,0l-31 25c0,0 0,0 0,4 0,0 3,0 3,0l0 0z"/>
   <polygon class="fil2" points="774,915 789,865 795,865 789,903 "/>
   <path class="fil3" d="M892 946c0,0 -178,47 -206,44 -31,-3 -37,-16 -44,-16 -9,0 -25,10 -34,7 -9,0 -19,-3 -19,3 0,6 10,12 13,12 6,0 22,0 22,0 0,0 -35,10 -35,16 -3,9 3,12 10,16 6,0 9,3 9,3 0,0 3,12 6,15 6,7 19,10 31,7 16,-4 41,-16 47,-19 7,-6 185,-22 197,-25 13,-3 28,-3 35,-10 6,-9 -32,-53 -32,-53l0 0z"/>
   <path class="fil0" d="M677 1024c-32,0 -25,-28 -35,-25 -9,7 -43,10 -53,22 0,3 3,3 6,7l0 0 0 0 0 0 0 0 0 0 0 0 0 0 0 0 4 0 0 0 0 0 0 0 0 0 0 0 0 0 0 0c6,0 9,3 9,3 0,0 3,12 6,15 6,7 19,10 31,7 16,-4 41,-16 47,-19 7,-6 185,-22 197,-25l0 0 0 0 0 0 0 0 3 0 0 0 0 0 0 0 0 0 0 0 0 0 0 0 0 0 0 0 0 0 3 0 0 0 0 0 0 0 0 0 0 0 0 0 0 0 0 0 0 0 0 0 4 0 0 0 0 0 0 0 0 0 0 0 0 0 0 0 0 0 0 0 3 0 0 0 0 0 0 0 0 0 0 0 0 0 0 0 0 0 0 0 0 0c6,-3 12,-3 18,-6 4,-4 4,-4 4,-4l-19 -18c0,0 -197,43 -228,43l0 0z"/>
   <g>
    <path class="fil11" d="M633 1053l0 0 0 0 0 0 0 0 0 0 0 0 0 0 0 0 0 0 0 0 0 0 0 0 0 0 0 0 0 0 0 0 0 0 0 0 0 0 0 0 0 0 0 0 0 0 0 0 0 0 0 0 0 0 0 0 0 0 0 0 0 0 0 0 0 0 0 0 0 0 0 0 0 0 0 0 0 0 0 0 0 0 0 0 0 0 0 0 0 0 0 0 0 0 0 0 0 0 0 0 0 0 0 0 0 0 0 0 0 0 0 0 0 0 0 0 0 0 0 0 0 0 0 0 0 0 0 0 0 0 0 0 0 0 -3 0 0 0 0 0 0 0 0 0 0 0 0 0 0 0 0 0 0 0 0 0 0 0 0 0 0 0 0 0 0 0 0 0 0 0 0 0 0 0 0 0 0 0 0 0 0 0 0 0 0 0 0 0 0 0 0 0 0 0 0 0 -3 0 0 0 0 0 0 0 0 0 0 0 0 0 0 0 0 0 0 0 0 0 0 0 0 0 0 0 0 0 0 0 0 0 0 0 0 0 0 0 0 0 0 0 0 0 -3 0 0 0 0 0 0 0 0 0 0 0 0 0 0 0 0 0 0 0 0 0 0 0 0 0 0 0 0 0 0 0 -4 0 0 0 0 0 0 0 0 0 0 0 0 0 0 0 0 0 0 0 0 0 0 0 0 0 0 0 0 0 0 0 0 -4 0 0 0 0 0 0 0 0 -3 0 0 0 0 0 0 0 0 0 0 0 0 0 0 0 0 0 0 0 0 0 0 0 0 0 0 0 0 0 0 0 0 0 0 0 0 0 0 0 0 0 0 0 0 0 0 0 0 0 0 0 0 0 0 0 0 0 -3 0 0 0 0 0 0 0 0 0 0 0 0 0 0 0 0 0 0 0 0 0 0 -3 0 0 0 0 0 0 0 0 0 0 0 0 0 0 0 0 0 0 0 0 0 0 0 0 0 0 0 0 0 0 0 0 0 0 0 0 0 0 0 0 0 0 0 0 0 0 0 0 0 0 0 0 0 0 0 0 0 0 0 0 0 0 0 0 0 0 0 0 0 0 0 0 0 0 0 0 0 0 0 0 0 0 0 0 0 0 0 0 0 0 0 0 0 0 0 0 0 0 0 0 0 0 0 0 0 0 0 0 0 0 0 0 0 0 0 0 0 -3 -3 0 0 0 0 0 0 0 0 0 0 0 0 0 0 0 0 0 0 0 0 0 0 0 0 0 0 0 0 0 0 0 0 0 0 0 0 0 0 0 0 0 0 0 0 0 0 0 0 0 0 0 0 0 0 0 0 0 0 0 0 0 0 0 0 0 0 0 0 0 0 0 0 0 0 0 0 0 0 0 0 0 0 0 0 0 0 0 0 0 0 0 0 -3 0 0 0 0 0 0 0 0 0 0 0 0 0 0 0 0 0 0 0 0 0 0 0 0 0 0c0,0 0,-3 -3,-3l0 0 0 0 0 0 0 0 0 0 0 0 0 0 0 0 0 0 0 0 0 -3 0 0 0 0 0 0 0 0 0 0 0 0 0 0 0 0 0 0 0 0 0 0 0 0 0 0 0 0 0 0 0 0 0 0 0 0 0 0 0 0 0 0 0 0 0 0 0 0 0 0 0 0 0 -3 0 0 0 0 0 0 0 0 0 0 0 0 0 0 0 0 0 0 0 0 0 0 0 0 0 0 0 0 0 0 0 0 0 0 0 0 0 0 0 0 0 0 0 0c0,0 -3,-3 -9,-3l0 0 0 0 0 0 0 0 -4 0 0 0 0 0 0 0 0 0 0 0c-3,-4 -6,-4 -6,-7 10,-12 44,-15 53,-22 0,0 0,0 3,0 7,0 4,25 32,25 31,0 228,-43 228,-43l19 18c0,0 0,0 -4,4 -3,3 -9,3 -15,3l0 0 0 0 -3 3 0 0 0 0 0 0 0 0 0 0 0 0 0 0 0 0 0 0 0 0 0 0 -3 0 0 0 0 0 0 0 0 0 0 0 0 0 0 0 0 0 0 0 -4 0 0 0 0 0 0 0 0 0 0 0 0 0 0 0 0 0 0 0 0 0 0 0 -3 0 0 0 0 0 0 0 0 0 0 0 0 0 0 0 0 0 0 0 0 0 0 0 0 0 0 0 0 0 0 0 0 0 0 0 0 0 0 0 0 0 0 0 0 0 0 0 0 0 0 0 0 0 0 0 0 0 0 0 -3 0 0 0 0 0 0 0 0 0 0 0 0 0 0 0 0 0 0 0 0 0 0 0 0 0 0 0 0 0 0 0 0 0 0 0 0 0 0 0 0 0 0 0 0 0 0 0 0 0 0 0 0 0 0 0 0 0 0 0 0 0 0 0 0 0 0 0 0 0 0 0 0 0 0 0 0 0 0 0 0 0 0 0 0 0 0 0 0 0 0 0 0 0 0 0 0 0c0,0 0,0 0,0l0 0 0 0 0 0 -3 0 0 0 0 3 0 0 -3 0 0 0 0 0 0 0 -3 0 0 0 -3 0 0 0 -3 0 0 0 0 0 -4 0 0 0 -3 0 0 0 -3 0 0 0 -3 0 -3 3 0 0 -3 0 0 0 -3 0 0 0 -7 0 0 0 -3 0 -3 0 -3 0 -6 0 -3 3 0 0 -3 0 0 0 -7 0 -3 0 -3 0 -6 0 -3 0 0 0 -3 3 -7 0 -3 0 0 0 -6 0 -3 0 -3 0 -7 0 -3 3 0 0 -6 0 -3 0 -3 0 -6 0 -4 0 0 0 -3 0 -3 4 -3 0 -6 0 -3 0 -3 0 -4 0 -3 0 -3 0 -3 3 -3 0 0 0 -3 0 -3 0 0 0 -3 0c0,0 0,0 0,0 -4,0 -4,0 -4,0 0,0 0,0 0,0 0,0 0,0 0,0 -3,0 -3,0 -3,0 0,3 0,3 0,3l0 0 0 0 0 0 0 0 0 0 0 0 0 0 0 0 0 0 0 0 -3 0 0 0 0 0 0 0 0 0 0 0 0 0 0 0 0 0 0 0 0 0 0 0 0 0 0 0 -3 3 0 0 0 0 0 0 0 0 0 0 0 0 0 0 -3 0 0 0 0 0 0 0 0 0 0 0 0 0 -3 3 0 0 0 0 0 0 0 0 0 0 0 0 -3 0 0 0 0 0 0 0 -3 3 0 0 0 0 0 0 0 0 0 0 -4 0 0 0 0 0 0 0 0 0 -3 0 0 3 0 0 0 0 0 0c-3,0 -6,3 -9,3l0 0 0 0 -3 0 0 0c0,0 0,0 -3,0l0 0c0,0 0,4 -3,4l0 0c0,0 0,0 0,0l0 0 0 0 0 0 0 0 0 0 0 0 0 0 0 0 0 0 0 0 -4 0 0 0 0 0 0 0 0 0 0 0 0 0 0 0 0 0 0 0 0 0 0 0 0 0 0 0 0 0 0 0 0 0 0 0 0 0 0 0 0 0 0 0 0 0 0 0 0 0 0 0 0 0 -3 0 0 0 0 0 0 0 0 0 0 0 0 0 0 0 0 0 0 0 0 0 0 0 0 0 0 0 0 0 0 0 0 0 0 0 -3 0 0 0 0 0 0 0 0 0 0 0 0 0 0 0 0 0 0 0 0 0 0 0 0 0 0 0 0 0 0 0 0 0 0 0 0 0 0 0 -3 0 0 0 0 0 0 0 0 0 0 0 0 0 0 0 0 0 0 0 0 0 0 0 0 0 0 0 0 0 0 0 0 0 0 0 0 0 0 0 0 0 -3 0 0 0 0 0 0 0 0 0zm256 -44l0 0 0 0zm-197 25l0 0 0 0z"/>
   </g>
   <path class="fil2" d="M892 946l-3 -3c0,0 0,0 -6,0 -16,6 -56,16 -97,25 -22,6 -41,13 -59,16 -16,3 -32,3 -38,3 -3,0 -3,0 -3,0 -16,0 -25,-3 -31,-9 -3,0 -6,-4 -6,-4 -4,0 -7,-3 -7,-3 -3,0 -6,0 -9,3 -3,0 -6,4 -13,4 -3,0 -9,3 -12,3l0 0c-3,0 -9,-3 -13,-3 0,0 -3,0 -3,3 -3,0 -3,0 -3,0 0,3 0,3 0,3 0,3 0,3 0,6 3,3 3,3 6,6 4,3 4,3 7,3 6,0 22,0 22,0l0 -3 0 -3c0,0 -10,3 -19,6 -3,4 -6,7 -13,7 0,0 -3,3 -3,3 0,0 -3,3 -3,3 0,3 0,3 0,3 0,6 6,13 13,16l0 0c3,0 3,0 6,0 0,0 0,3 0,3l0 0 0 0 0 0 0 0 0 0 0 0 0 0 3 -3 -3 0c0,3 0,3 3,9 0,3 3,6 6,9 0,4 3,4 6,4 7,3 10,3 13,3 6,0 9,0 16,0 6,-3 15,-7 25,-13 9,-3 18,-6 21,-9l-3 0 3 0 0 0 -3 0 3 0c0,0 0,0 0,0 0,0 7,0 13,-3 22,-3 66,-7 103,-10 19,-3 38,-3 50,-6 9,0 16,0 19,-3 6,0 9,0 9,0 6,-3 16,-3 22,-3 3,0 6,-3 9,-3 0,-3 4,-3 7,-7 0,0 0,-3 0,-3 0,-3 0,-3 -3,-6 -4,-9 -10,-19 -19,-28 -6,-13 -13,-19 -13,-19 0,0 0,0 -3,0l3 3 -3 0c0,0 0,0 0,0 3,7 13,16 19,25 3,7 9,10 9,16 3,0 3,3 3,6 0,0 4,3 4,3 0,0 -4,0 -4,0 0,3 0,3 -3,7 -3,0 -9,3 -12,3 -6,0 -10,0 -16,3 -3,0 -6,0 -12,0 -22,3 -66,6 -107,12 -18,0 -37,3 -53,7 -6,0 -12,0 -15,0 -3,0 -7,3 -7,3 0,0 -3,0 -3,0 0,0 0,0 0,0 -3,3 -12,6 -18,9 -10,3 -19,9 -29,9 -3,0 -6,4 -12,4 -3,0 -6,-4 -9,-4 -4,0 -7,-3 -7,-3 -3,-3 -6,-6 -6,-9 0,0 0,-3 0,-3 0,0 0,-3 0,-3l-3 0 0 0c0,0 -3,-3 -9,-7l0 0c-7,0 -10,-3 -10,-9 0,0 0,0 0,0 0,0 3,-3 3,-3 0,0 3,-3 7,-3 6,-3 12,-6 18,-6 0,-4 3,-4 7,-4 0,0 0,0 0,0 3,0 3,-3 3,-3 0,0 0,-3 -3,-3 0,0 -4,0 -10,3 -3,0 -9,0 -12,0 0,0 0,0 -3,-3 0,0 -4,-3 -4,-3 -3,-3 -3,-3 -3,-6l0 0c0,0 0,0 0,0 3,0 3,0 3,0 4,0 10,0 13,0 0,0 0,0 0,0 6,0 12,-3 19,-3 3,-3 6,-3 9,-3 3,0 3,0 6,0 0,0 0,0 3,0 4,3 7,6 13,6 6,3 16,6 28,9 0,0 0,0 3,0 10,0 25,-3 47,-9 63,-13 156,-38 156,-38l0 0 -3 0 3 0 0 0z"/>
   <path class="fil0" d="M1039 765c0,0 -15,44 -34,75 -22,28 -31,59 -16,91 13,34 41,40 41,40 0,0 -10,97 -6,122 3,25 40,56 100,60 59,0 109,-19 109,-41 0,-22 -41,-128 -41,-153 0,-22 3,-94 -15,-156 -19,-63 -91,-85 -138,-38z"/>
   <path class="fil10" d="M1133 1149c0,0 0,0 0,0 -3,0 -6,0 -9,0 -19,0 -38,-3 -54,-9 25,-3 60,-3 79,-9 31,-7 -69,-66 -91,-103 -3,-10 -3,-13 -3,-13 9,0 47,38 56,38 13,0 -25,-44 -37,-72 -4,-3 -4,-7 -4,-7 7,0 47,38 66,44 0,0 0,0 0,0 16,0 -59,-72 -75,-90 -3,-4 -3,-4 0,-4 3,0 13,4 22,7 9,3 19,6 25,6 0,0 0,0 3,0 3,-3 -31,-13 -72,-22 3,-3 3,-3 6,-3 4,0 10,0 16,0 9,0 22,0 34,-3 4,0 4,0 4,0 0,-3 0,-3 -4,-3 0,0 0,0 0,0 -12,0 -25,3 -34,3 -6,0 -9,0 -12,-3 0,0 3,0 3,-3 0,0 0,0 0,0 0,3 3,3 3,3 0,0 0,0 0,0 0,0 12,-7 28,-13 12,-6 31,-15 41,-22 0,-3 0,-3 0,-3 0,-3 0,-3 0,-3 0,0 -4,0 -4,0 -9,9 -25,16 -40,25 -6,3 -13,6 -19,6 0,3 -3,3 -3,3 12,-12 25,-21 28,-25 9,-12 16,-28 16,-40l0 0c0,-3 0,-6 0,-6l-63 -50c0,-7 3,-10 3,-10 7,-6 10,-9 16,-12 12,-3 34,-10 50,-13 28,3 56,25 66,60 15,46 15,96 15,131 0,9 0,19 0,25 0,3 3,9 3,12 3,19 13,50 22,78 6,16 10,29 13,38 3,6 3,12 3,16 3,3 3,6 3,9 0,3 -3,9 -9,12 -7,7 -19,13 -35,19 -15,3 -37,6 -56,6l0 0z"/>
   <path class="fil2" d="M1039 765l0 0c0,0 0,0 0,3 -3,6 -19,44 -37,69 -13,22 -22,41 -22,62 0,13 3,22 6,35 6,15 19,25 25,31 9,6 19,9 19,9l0 -3 -3 0c0,0 -7,75 -7,110 0,6 0,9 0,12 0,16 13,28 32,41 15,9 40,19 72,19 3,0 6,0 9,0 28,0 53,-4 72,-13 9,-3 15,-6 22,-12 6,-4 9,-10 9,-16 0,-3 0,-6 -3,-13 -3,-15 -13,-46 -22,-75 -3,-15 -9,-28 -12,-40 -4,-10 -4,-19 -4,-25 0,-6 0,-16 0,-25 0,-35 -3,-85 -15,-131 -13,-41 -47,-66 -81,-66 -22,0 -41,9 -60,28l0 0 0 0 3 3c16,-19 38,-25 57,-25 31,0 62,22 75,60 15,46 15,96 15,131 0,9 0,19 0,25 0,3 3,9 3,12 3,19 13,50 22,78 6,16 10,29 13,38 3,6 3,12 3,16 3,3 3,6 3,9 0,3 -3,9 -9,12 -7,7 -19,13 -35,19 -15,3 -37,6 -56,6 -3,0 -6,0 -9,0 -29,0 -54,-9 -72,-18 -16,-13 -25,-25 -28,-38 0,-3 0,-6 0,-12 0,-16 3,-44 3,-69 3,-9 3,-22 3,-28 0,-6 3,-13 3,-13 0,0 -3,0 -3,0l0 -3c0,0 -10,0 -16,-6 -9,-6 -19,-16 -25,-31 -3,-10 -6,-22 -6,-32 0,-18 9,-40 22,-59 22,-28 37,-75 37,-75l-3 0 3 3 -3 -3 0 0z"/>
   <path class="fil2" d="M1049 943c0,0 12,22 37,47 22,25 56,53 94,66 3,0 3,0 3,0 0,-3 0,-3 0,-3 -41,-13 -72,-41 -94,-66 -12,-13 -22,-22 -28,-31 -3,-3 -6,-7 -6,-10 -3,-3 -3,-3 -3,-3 0,0 0,0 0,0 0,-3 -3,-3 -3,-3 0,3 0,3 0,3l0 0z"/>
   <path class="fil2" d="M1042 959c0,0 3,15 16,37 12,22 31,47 59,63 0,3 0,3 3,0 0,0 0,0 -3,-3 -25,-16 -43,-41 -56,-63 -6,-9 -9,-19 -12,-25 0,-3 -4,-6 -4,-9 0,0 0,0 0,0 0,-3 0,-3 0,-3 0,0 -3,0 -3,0 0,0 0,0 0,3l0 0z"/>
   <path class="fil2" d="M1055 906c0,0 12,-7 28,-13 12,-6 31,-15 41,-22 0,-3 0,-3 0,-3 0,-3 0,-3 -4,-3 -9,9 -25,16 -40,25 -6,3 -13,6 -19,6 -3,3 -6,7 -6,7 -3,0 -3,0 -3,0 0,3 3,3 3,3l0 0z"/>
   <path class="fil2" d="M1033 909c0,0 9,3 28,3 9,0 22,0 34,-3 4,0 4,0 4,0 0,-3 0,-3 -4,-3 -12,0 -25,3 -34,3 -9,0 -16,-3 -19,-3 -3,0 -6,0 -6,0 0,0 0,0 0,0l0 0c-3,0 -3,0 -3,3 0,0 0,0 0,0l0 0z"/>
   <path class="fil0" d="M1036 778c0,0 -12,6 -31,25 -16,18 -97,140 -97,140 0,0 25,50 31,50 6,3 135,-106 147,-119 9,-12 19,-37 16,-46l-66 -50 0 0z"/>
   <path class="fil12" d="M939 993l0 0 0 0c0,0 0,0 0,0l0 0 -3 0 0 0 0 0 0 0 0 0 0 0 0 0 0 0c0,0 0,0 0,-3 -3,-6 -3,-16 -3,-19 0,-12 16,-15 34,-18 22,-4 3,-10 10,-35 3,-28 18,-28 53,-47 31,-18 31,-56 31,-56l9 -9 32 22c0,0 0,0 0,0l0 0 0 0c0,0 0,0 0,0l0 0 0 0 0 0 0 0 0 0 0 3 0 0 0 0 0 0 0 0 0 0 0 0 0 0 0 0 0 0 0 0 0 0 0 0 0 0 0 0 0 0 0 0 0 0 0 0 0 0 0 0 0 0 0 0 0 3 0 0 0 0 0 0 0 0 0 0 0 0c0,0 0,0 0,0l0 0c0,3 0,3 0,3l0 0 0 0 0 0 0 0 0 0 0 0 0 3 0 0 0 0c0,0 0,0 0,0l0 0 0 0 0 0 0 3 0 0 0 0 0 0 -3 0 0 0 0 0 0 0 0 3 0 0 0 0c0,0 0,0 0,0l0 0c0,3 0,3 0,3l0 0c-4,7 -7,13 -10,16l0 0c0,3 0,3 0,3l0 0 0 0 0 0 0 3 0 0 0 0 0 0c-3,0 -3,0 -3,0l0 0 0 0 0 0 0 3 0 0 0 0 0 0m-3 0l0 0c0,4 0,4 0,4l0 0 0 0 -3 0 0 0 0 0 0 3 0 0 -3 0 0 0 0 0 0 3 0 0 0 0 -3 0 0 0 0 3 0 0 0 0 -4 0 0 0 0 0 0 0 0 3 0 0 -3 0 0 0 0 0 0 0 0 0 0 3 -3 0 0 0 0 0 0 0 0 0 0 0 0 0 -3 3 0 0 0 0 0 0 0 0 0 0 -3 0 0 3 0 0 0 0 0 0 0 0 0 0 0 0 0 0 0 0 0 0 0 0 0 0 0 0 0 0 -3 0 0 0 0 0 0 0 0 0 0 0 0 0 0 0 0 0 0 0 0 0 0 4 0 0 -3 3 0 0 0 0 0 0 0 0 0 0 0 0 0 0 0 0 0 0 0 0 0 0 0 0 0 0 0 0 0 0 0 0 0 0 0 0 0 0 0 0 0 0 0 0 0 0 0 0 -3 0 0 0 0 0 0 0 0 0 0 0 0 0 0 0 0 0 0 0 0 0 0 0 0 0 0 0 0 0 0 0 0 0 0 0 0 0 0 0 0 0 0 0 0 0 0 0 0 0 0 0 0 3 0 0 0 0 0 0 0 0 0 0 0 0 0 0 0 0 0 0 0 0 0 0 0 0 0 0 0 0 0 0 0 0 0 0 0 0 -4 0 0 0 0 0 0 0 0 0 0 0 0 0 0 0 0 0 0 0 0 0 0 0 0 0 0 0 0 0 0 0 0 0 0 0 0 0 0 0 0 0 0 0 0 0 0 0 0 0 0 3 0 0 0 0 0 0 0 0 -3 0 0 0 0 0 0 0 0 0 0 0 0 0 0 0 0 0 0 0 0 0 0 0 0 0 0 0 0 0 0 0 0 0 0 0 0 0 0 0 0 0 0 0 0 0 0 0 0 0 0 0 0 0 0 0 0 0 0 0 0 0 0 0 0 0 0 0 0 0 0 0 0 0 0 0 0 0 0 0 0 0 0 0 0 0 0 0 0 0 0 0 0 0 0 0 0 0 0 0 0 3 0 0 0 0 0 0 0 0 0 0 0 0 -3 0 0 0 0 0 0 0 0 0 0 0 0 0 0 0 0 0 0 0 -3 3 0 0 -6 3 0 0 -6 7 0 0 0 0 0 0 0 0 0 3 -4 0 0 0 0 0 0 0 0 3 -3 0 0 0 0 0 0 0 0 0 0 0 -3 3 0 0 0 0 0 0 -3 0 0 3 0 0 0 0 0 0 0 0 -3 0 0 0 0 3 0 0 0 0 -3 0 0 0 0 0 0 0 0 3 0 0 -3 0 0 0 0 0 0 0 0 0 0 3 -3 0 0 0 0 0 0 0 0 0 0 0 0 0 0 0 0 0 0 0 0 0 0 0 0 0 0 0 0 0 0 0 0 0 0 0 0 0 0 0 0 0 0 0 0 0 0 0 0 0 0 0 0 0 0 0 0 0 0 0 0 0 0 0 0 0 0 0 0 0 0 0 0 0 0 0 0 0 0 0 0 0 0 0 0 0 0 0 0 0 0 0 0 0 0 0 0 0 0 0 0 0 0 0 0 0 -4 0 0 0 0 4 0 0 0 0 0 0 0 0 0 0 0 0 0 0 0 0 0 0 0 0 0 0c-3,0 -3,3 -6,6l0 0 -3 0 0 3 0 0 -3 0 0 0 -3 3 0 0 0 0 -3 3 0 0 0 0 -3 0 0 3m-16 13l-3 0 0 0 0 0 0 0 -3 3 0 0 0 0 0 0 0 0 0 0 0 0 0 0 0 0 0 0 0 0 0 0 0 0 0 0 0 0 0 0 -3 0 0 0 0 3 0 0 0 0 0 0 0 0 -4 0 0 0 0 0 0 0 0 0 0 0 0 0 0 3 0 0c-3,0 -3,0 -3,0l0 0 0 0c0,0 0,0 0,0l0 0 0 0c0,0 0,0 0,0l0 0c-3,0 -3,0 -3,0l0 0m0 0c0,0 0,0 0,0"/>
   <path class="fil2" d="M1036 774c0,0 -16,10 -31,25 -6,7 -13,16 -22,32 -31,40 -78,109 -78,109 0,3 0,3 0,3 0,0 6,13 12,25 7,6 10,13 13,19 0,3 3,3 3,6 3,0 3,0 3,3 0,0 3,0 3,0l0 0c0,0 0,0 3,0 0,0 3,-3 10,-6 15,-12 47,-37 75,-62 15,-13 28,-25 40,-35 3,-3 10,-6 13,-9 3,-3 6,-6 6,-10 6,-6 9,-12 13,-18 3,-10 6,-16 6,-22 0,-3 -3,-6 -3,-10 0,0 0,0 -3,0 0,0 0,4 0,4 0,0 0,3 0,6 0,6 0,12 -4,19 -3,6 -6,15 -12,18 0,3 -3,7 -9,10 -16,15 -47,43 -75,68 -16,10 -32,22 -41,32 -6,3 -9,6 -13,9 -3,0 -3,0 -6,3 0,0 0,0 0,0l0 0 0 0 0 0 0 0 0 0 0 0 0 0 0 0 0 0 0 0 0 0 0 0 0 0c0,0 0,-3 -3,-3 -3,-3 -3,-6 -6,-12 -6,-7 -10,-16 -16,-25 0,-4 -3,-7 -3,-7 0,-3 -3,-3 -3,-3l0 0 0 0c0,0 3,0 6,-6 6,-9 25,-41 47,-69 9,-15 19,-28 28,-40 6,-13 16,-19 19,-25 6,-7 16,-13 22,-19 0,0 3,-3 6,-3 0,0 0,0 0,-3 0,0 0,0 0,0 3,0 3,0 3,-4 -3,0 -3,0 -3,0l0 0z"/>
   <path class="fil3" d="M880 949c0,0 22,54 28,60 6,6 31,3 41,-3 9,-7 6,-19 6,-19 0,0 -31,-59 -38,-63 -3,-3 -3,4 -18,10 -16,3 -22,6 -19,15l0 0z"/>
   <path class="fil2" d="M880 949l-3 0c0,0 6,16 12,29 3,9 6,15 10,21 3,4 3,7 3,7 3,3 3,3 3,6 3,0 3,0 6,3 3,0 6,0 9,0 4,0 10,0 16,-3 6,0 9,-3 13,-6 6,0 6,-7 9,-10 0,-3 0,-6 0,-9 0,0 0,0 0,0l0 -3c0,0 -9,-13 -19,-28 -3,-10 -9,-16 -12,-22 0,-3 -3,-6 -3,-10 0,0 -4,0 -4,0 0,-3 0,-3 0,-3 0,0 -3,0 -3,0 -3,0 -3,0 -3,0 -3,3 -3,3 -6,3 -3,4 -6,4 -9,7 -7,3 -13,3 -16,6 -3,0 -3,3 -3,3 -3,0 -3,3 -3,6 0,0 0,3 0,3l0 0 3 0 3 0c0,-3 -3,-3 -3,-3 0,-3 3,-3 3,-3 0,-3 3,-3 3,-6 3,0 9,0 13,-3 6,-3 12,-3 12,-6 3,0 3,-4 3,-4 3,0 3,0 3,0 0,0 0,0 0,0l0 0 0 0 0 0 0 0 0 0 0 0c0,0 0,4 3,4 4,9 13,21 19,34 6,6 10,12 10,19 3,3 6,6 6,6l0 0 0 0 0 0c0,0 0,0 0,0 0,3 0,6 -3,9 0,3 -3,7 -3,7 -4,3 -10,6 -13,6 -6,0 -12,3 -16,3 -3,0 -6,0 -9,-3 0,0 0,0 -3,0 0,0 0,-3 0,-3 -6,-10 -13,-22 -16,-35 -3,-6 -6,-12 -6,-15 -3,-3 -3,-7 -3,-7l-3 0 3 0 -3 0z"/>
   <path class="fil3" d="M917 628c0,0 -3,21 0,28 7,6 16,12 16,22 0,9 -6,21 -6,28 3,6 15,6 15,6 0,0 22,28 28,37 7,10 10,7 19,4 10,-4 31,-22 44,-38 12,-16 -6,-59 -34,-91 -29,-28 -66,-28 -75,-18 -10,9 -7,22 -7,22l0 0z"/>
   <path class="fil0" d="M974 609c-4,15 -7,44 3,62 15,28 28,44 18,69 0,3 -3,6 -3,9 7,0 13,-6 22,-15l0 0 0 0 0 0 0 0 0 0 3 0 0 0 0 -3 0 0 0 0 0 0 0 0 0 0 3 0 0 0 0 0 0 -3 0 0 0 0 0 0 0 0 0 0 4 0 0 0 0 0 0 0 0 -4 0 0 0 0 0 0 3 0 0 0 0 0 0 0 0 -3 0 0 0 0 0 0 0 0 0 0 3 0 0 0 0 -3 0 0 0 0 0 0 0 0 0 0 3 0 0 0 0 0 0 0 0 -3 0 0 0 0 0 0 0 0c12,-16 -6,-59 -34,-91 0,0 0,0 0,0l0 0c0,0 -4,0 -4,0l0 -3 0 0 0 0 0 0 0 0c-6,-6 -15,-9 -21,-12l0 0z"/>
   <g>
    <path class="fil11" d="M992 749c0,-3 3,-6 3,-9 4,-6 4,-12 4,-16 0,-15 -10,-31 -22,-53 -3,-9 -7,-22 -7,-34 0,-9 4,-22 4,-28 6,3 15,6 21,12l0 0 0 0 0 0 0 0 0 3c0,0 4,0 4,0l0 0c0,0 0,0 0,0l0 0 0 0c0,4 0,4 0,4l3 0 0 0 0 0 0 3 0 0 3 0 0 0 0 0 0 0 0 3 0 0 0 0 3 0 0 3 0 0c0,0 0,0 3,3l0 0 0 0 0 0 0 3 0 0 3 0 0 0 0 0 0 3 0 0 0 0 0 0 3 3 0 0 0 0 0 0 0 0 0 4 0 0 3 0 0 0 0 3 0 0 0 0 0 0 0 0 4 3 0 0 0 0 0 0c0,3 0,3 0,3l3 0 0 3 0 0 0 0 0 0 0 3 0 0 3 0 0 3 0 0 0 0 0 0 0 0 0 3 0 0 0 0 0 0 3 4 0 0 0 0 0 0 0 3 0 0c0,0 0,0 0,0l0 0 0 0 0 0 0 3 0 0 0 0 0 0 3 0 0 0 0 3 0 0 0 0 0 0 0 0 0 3 0 0 0 0 0 0c0,0 0,3 0,3l0 0 0 0 0 0 0 0 0 3 0 0 0 0 0 0 0 3 0 0 0 0 0 0 3 0 0 0c0,4 0,4 0,4l0 0 0 0c0,0 0,0 0,0l0 0c0,0 -3,3 -3,3l0 0c0,0 0,0 0,0l0 0c0,0 0,0 0,0l0 0c0,3 0,3 0,3l0 0 0 0c0,0 0,0 0,0l0 0 0 0 0 0 -44 40 0 0zm7 -125l0 0c0,0 0,0 0,0 0,0 0,0 0,0 0,0 0,0 0,0 0,0 0,0 0,0l0 0zm0 0l0 0zm37 85l0 0c0,3 0,3 0,3l0 0c0,0 0,0 0,0l0 0c0,0 0,0 0,0l0 0c0,3 0,3 0,3l0 0 0 0c-3,0 -3,0 -3,0l0 0 0 0 0 0 0 0 0 0 0 0 0 0 0 0 0 0 0 0 0 0 0 0 0 0 0 3 0 0 0 0 0 0 0 0 0 0 0 0 0 0 -3 0 0 0 0 0 0 0 0 0 0 0 0 0 0 0 0 0 0 0 0 0 0 0 0 0 0 3 0 0 0 0 0 0 0 0 0 0 0 0 -3 0 0 0 0 0 0 0 0 0 0 0 0 0 0 0 0 0 0 0 0 0 0 0 0 0 0 3 0 0 0 0 0 0 0 0 0 0 0 0 0 0 0 0 0 0 -3 0 0 0 0 0 0 0 0 0 0 0 0 0 0 0 0 0 0 0 0 0 0 0 0 0 0 0 0 4 0 0 0 0 0 0 0 0 0 0 -4 0 0 0 0 0 0 0 0 0 0 0 0 0 0 3 0 0 0 0 -3 0 0 0 0 0 0 0 0 0 0 0 0 0 0 3 0 0 0 0 -3 0 0 0 0 0 0 0 0 0 0 0 0 0 0 0 -3 3 0 0 0 0 0 0c-9,6 -16,12 -19,12l44 -40 0 0z"/>
   </g>
   <path class="fil2" d="M936 659l0 0c-3,0 0,0 0,-3 0,0 0,0 0,0 0,0 0,0 3,0 0,0 3,0 6,3 0,0 0,0 4,-3 0,0 0,0 -4,-3 -3,0 -6,-4 -6,-4 -3,0 -3,4 -6,4 0,0 -3,3 -3,3 0,3 0,3 0,3 0,0 0,3 3,3 0,0 3,-3 3,-3z"/>
   <path class="fil2" d="M939 668l3 13c0,0 0,0 0,0 0,0 3,0 3,0 4,0 4,0 7,0 3,-3 6,-3 6,-10 3,0 0,0 0,0 0,-3 -3,0 -3,0 0,3 -3,3 -3,7 -3,0 -3,0 -7,0 0,0 0,0 0,0l0 0 0 0 0 0 0 0 0 0 0 0 0 0 -3 3 3 -3 -3 -10c0,0 0,0 0,0 -3,0 -3,0 -3,0l0 0z"/>
   <path class="fil2" d="M917 628l-3 0c0,0 0,3 0,9 0,3 0,6 0,9 0,7 0,10 3,10 0,3 7,9 10,12 0,0 0,3 3,3 0,3 0,3 0,7 0,3 0,6 -3,12 0,3 -3,6 -3,13 0,0 0,0 3,3 0,3 0,3 3,3 3,3 6,3 6,3 3,3 6,3 6,3l0 -3 -3 0c0,0 3,3 3,6 7,6 22,25 25,31 3,4 3,4 7,7 0,0 3,0 3,0 6,0 9,0 12,-3 3,0 6,-4 10,-4 12,-9 28,-21 37,-34 3,-3 3,-6 3,-12 0,-10 -3,-25 -12,-38 -7,-16 -16,-28 -25,-41 -19,-18 -41,-28 -60,-28 -3,0 -9,3 -12,3 -3,0 -6,4 -10,4 -6,6 -6,15 -6,21 0,4 0,4 0,4l3 0 -3 0 3 0 0 0 0 0c0,0 0,-4 0,-4 0,-6 3,-12 7,-18 3,0 3,0 6,-3 3,0 9,0 12,0 16,0 38,6 57,25 9,12 18,25 25,37 9,16 12,28 12,38 0,3 0,9 -3,9 -6,9 -16,16 -22,25 -6,3 -9,6 -12,6 -4,3 -7,6 -10,6 -6,0 -9,4 -12,4 0,0 0,0 0,0 -3,-4 -3,-4 -7,-7 -3,-3 -9,-12 -15,-22 -6,-6 -13,-12 -13,-12 0,-3 0,-3 0,-3l0 0c-3,0 -6,0 -6,0 -3,0 -3,-3 -6,-3 0,0 0,0 0,-3 0,0 0,0 0,0 0,-4 0,-7 3,-13 0,-3 0,-9 3,-12 0,-4 -3,-7 -3,-7 -3,-3 -3,-6 -6,-9 -3,-3 -7,-6 -7,-6 0,-3 0,-7 -3,-10 0,-3 0,-6 0,-9 0,-3 0,-3 0,-6 0,-3 0,-3 0,-3l0 0 0 0 0 0z"/>
   <path class="fil2" d="M892 596l0 3 0 35 41 6 6 -16 0 16c0,0 19,0 38,6 18,7 43,60 40,82 0,18 -18,25 -15,56 0,31 50,65 87,44 38,-19 44,-47 60,-41 12,3 37,34 53,-9 12,-44 6,-72 -28,-110 -35,-37 -60,-34 -66,-62 -3,-28 -13,-69 -44,-91 -31,-22 -78,-22 -115,-6 -41,15 -57,69 -57,87l0 0z"/>
   <path class="fil13" d="M914 612l0 0c-3,0 -3,-9 -3,-25 0,-6 -3,-9 -3,-13 0,-3 0,-3 0,-3 -3,7 -9,22 -16,38l0 -10 0 -3c0,0 0,0 0,-3 13,-28 16,-25 19,-25 3,0 3,3 3,3 0,7 0,10 0,16 0,6 0,19 3,22 0,0 0,-3 3,-10 4,-6 10,-12 13,-9 3,0 6,6 9,9 0,4 0,4 0,4 3,0 10,-7 13,-10 0,0 3,0 3,-3 3,0 3,-3 6,-3 3,0 3,3 3,6 3,0 3,3 7,6 0,0 0,0 3,0 3,0 6,-9 9,-18 0,0 3,-3 3,-7 0,-3 3,-6 6,-6 4,0 7,6 10,16 0,9 3,15 6,22 3,0 3,3 3,0 3,0 10,-10 10,-16 3,-3 3,-6 3,-6 3,-3 3,-3 3,-3 3,0 6,3 9,9 3,3 6,9 6,13 4,0 4,0 4,0 0,-4 3,-7 3,-13 0,-3 3,-9 6,-12 0,-4 3,-4 3,-4 6,-3 13,4 16,7 0,-3 0,-7 0,-7 -3,-15 -3,-21 0,-25 3,0 3,0 6,4 3,3 6,6 9,9 3,3 7,6 10,9 0,3 0,7 0,10 -3,-7 -7,-10 -13,-16 -3,-3 -6,-6 -9,-9 0,0 0,0 0,0 0,0 0,12 0,15 3,10 3,13 0,16 0,0 0,0 -3,0 0,-3 0,-3 0,-3 -3,-3 -10,-6 -13,-6 -3,0 -3,0 -3,3 -3,3 -3,6 -6,12 0,6 -3,10 -6,13 0,0 0,0 -4,0 -3,-3 -6,-7 -9,-13 -3,-3 -3,-6 -6,-9l0 0c0,3 0,6 -3,9 -3,6 -7,16 -10,19 -3,0 -6,-3 -9,-3 -3,-6 -6,-16 -9,-22 0,-6 -4,-13 -4,-13 0,0 0,0 -3,4 0,0 0,3 -3,6 -3,12 -9,19 -12,19 -3,3 -3,0 -7,0 -3,-4 -3,-7 -6,-10 0,0 0,0 0,0 0,0 -3,0 -3,0 0,0 -3,3 -3,3 -6,7 -13,13 -16,13 0,0 -3,-3 -3,-3 0,0 0,-3 0,-3 -3,-4 -6,-10 -6,-10 0,0 -3,0 -9,10 -4,6 -7,9 -10,9l0 0z"/>
   <path class="fil13" d="M1002 778c0,-4 0,-10 3,-16 3,-3 3,-6 6,-6 0,-3 0,-3 0,-3 3,0 3,0 3,0 0,0 0,0 3,0 3,3 7,6 10,9 0,3 3,3 6,3 3,0 3,0 3,-3 3,0 3,-3 3,-3 0,-3 0,-10 0,-13 0,0 0,-3 0,-3l3 0 -3 0 3 0 0 0 -3 0 3 0 -3 0 0 0 3 0 -3 0 0 0 0 0 0 0 0 0 0 0 0 0c0,0 3,0 3,0 0,3 3,3 3,3 4,7 10,10 13,16 6,3 12,3 16,3 3,0 6,0 9,-3 3,0 3,-3 3,-9 0,-10 3,-19 3,-25 0,-4 3,-7 3,-10 0,0 0,0 0,-3 3,0 3,0 3,0 0,0 0,0 0,0 4,3 4,3 4,3 6,6 9,13 12,16 3,3 3,3 6,3 0,3 3,3 7,3 0,0 0,0 0,0 3,-3 3,-3 3,-3 0,-3 0,-6 3,-6 0,-3 0,-3 3,-3 0,0 0,0 0,0 0,0 3,3 3,3 0,3 0,6 3,6 0,3 0,3 0,3 0,0 0,0 3,0 0,3 0,3 0,3 0,0 0,0 3,0 0,-3 0,-3 0,-3 0,-3 4,-6 4,-12 0,-4 0,-7 0,-7 0,-6 0,-12 0,-18 -4,-4 -4,-10 -4,-10 0,-3 0,-3 0,-3l0 0 0 0c4,0 4,0 4,0 6,3 9,6 12,9 3,4 3,4 6,7 0,0 0,0 0,0 0,0 0,0 3,0 0,0 0,0 0,0 4,0 4,0 4,0 0,-3 0,-3 0,-3 0,-7 -4,-10 -7,-13 0,0 0,-3 -3,-3 0,0 0,-3 0,-3l0 0 0 0 0 0 0 0 0 0 0 0 0 0 0 0 0 0 0 0 0 0 0 0 0 0 0 0 0 0 0 0 0 0 0 0 0 0 0 0 0 0 0 0 0 0c0,0 3,0 3,3 7,0 10,3 13,3 0,3 3,3 3,3 0,0 0,0 0,0 3,0 3,0 3,0 0,0 0,0 0,0 3,0 3,0 3,0 0,0 0,0 0,-3 0,0 0,0 0,0 0,-3 0,-3 0,-3 -3,-3 -3,-6 -6,-9 0,3 0,6 0,6 3,3 3,3 3,6 0,0 0,0 0,0l0 0 0 0 0 0 0 0 0 0 0 0 0 0 0 3 0 -3 0 0 0 3 0 -3 0 0 0 0 0 0 0 0 0 0 0 0 0 0 0 0 0 0c0,0 0,0 0,0 -3,-3 -9,-6 -16,-9 -3,0 -3,0 -6,0 0,0 0,0 -3,0 0,0 0,0 0,3 0,0 0,0 0,0 0,0 0,3 0,3 0,0 3,3 3,6 3,3 3,6 3,10 0,0 0,0 0,0l0 0 3 3 -3 -3 0 0 3 3 -3 -3 3 3 0 -3 -3 0 3 3 0 -3 0 0 0 0 0 0 0 0 0 0 0 0c0,0 0,0 -3,-4 -3,-3 -9,-9 -15,-12 -3,0 -3,-3 -7,-3 0,0 0,0 0,3 -3,0 -3,0 -3,0 0,3 0,3 0,6 0,3 0,6 0,13 3,3 3,9 3,15 0,0 0,3 0,7 -3,3 -3,6 -3,9 0,0 0,0 0,0l0 0 0 3 0 -3 0 0 0 3 0 -3 0 3 0 -3 0 0 0 3 0 -3 0 3 0 -3 0 0 0 3 0 -3 0 0 0 0 0 0 0 0 0 0c0,0 0,0 0,0 0,0 -3,-3 -3,-6 0,-3 -3,-7 -3,-7 0,0 -3,0 -3,0 -3,0 -6,0 -6,4 -3,3 -3,3 -3,6 0,3 -4,3 -4,3l4 0 -4 0 0 0 4 0 -4 0 4 0 0 0 -4 0 4 0 0 0 0 0 0 0 0 0 0 0 0 0c-4,0 -4,0 -4,-3 -6,0 -12,-10 -18,-19 0,0 -3,0 -3,-3 0,0 -4,0 -4,0 -3,0 -3,0 -3,0 -3,3 -3,6 -6,9 -3,7 -3,19 -3,32 0,3 -3,6 -3,6 -3,3 -3,3 -6,3 -4,0 -7,-3 -13,-6 -6,-3 -9,-7 -12,-10 0,-3 -4,-3 -4,-6 -3,0 -3,0 -6,0 0,0 0,0 0,0 -3,0 -3,3 -3,3 0,3 0,3 0,6 0,4 0,7 0,10 0,0 -3,3 -3,3 0,0 0,0 0,0 0,0 -3,0 -6,-3 0,-3 -3,-3 -7,-10 -3,0 -3,-3 -6,-3 -3,0 -3,3 -3,3 -3,0 -3,0 -3,4 -3,6 -6,12 -6,25l0 0z"/>
   <path class="fil2" d="M892 596l0 0 0 3 0 0 -3 35c0,0 3,3 3,3l41 3c0,0 0,0 0,0l6 -9 0 9c0,0 0,3 0,3 0,0 0,0 0,0l3 0c0,0 3,0 3,0 7,0 19,0 32,6 3,0 6,4 12,10 6,9 13,22 19,34 6,13 9,25 9,31 0,0 0,0 0,4 -3,9 -6,12 -9,21 -6,7 -9,16 -9,29 0,3 0,6 0,6 0,12 9,28 21,37 13,10 29,16 44,16 10,0 16,-3 25,-6 19,-10 28,-22 38,-28 3,-7 6,-10 9,-13 3,0 6,-3 6,-3 3,0 3,0 3,0 7,3 10,6 16,9 6,3 13,7 19,7 3,0 9,0 12,-4 3,-6 7,-12 10,-21 6,-13 9,-25 9,-38 0,-28 -12,-47 -34,-72 -19,-19 -35,-28 -47,-34 -3,-6 -10,-10 -13,-13 -3,-3 -6,-9 -6,-15 -3,-16 -6,-32 -12,-50 -7,-16 -19,-32 -35,-41 -19,-12 -40,-19 -62,-19 -19,0 -38,3 -57,10 -18,9 -31,28 -40,43 -10,19 -13,38 -13,47l0 0 0 0 0 0 3 0c0,-9 4,-28 13,-43 9,-19 22,-35 41,-41 15,-9 34,-13 53,-13 22,0 43,7 59,19 16,10 25,25 34,41 7,15 10,34 13,47 0,9 3,12 6,18 6,7 16,13 25,19 10,6 22,13 35,28 21,22 31,44 31,69 0,9 0,22 -6,38 -4,9 -7,15 -10,18 -3,3 -6,3 -9,3 -6,0 -10,-3 -16,-6 -6,-3 -12,-6 -15,-9 -4,0 -4,0 -7,0 -3,0 -6,0 -9,3 -6,6 -9,12 -16,19 -9,6 -15,12 -28,22 -9,3 -19,6 -25,6 -15,0 -31,-6 -40,-16 -13,-9 -22,-22 -22,-34 0,-3 0,-3 0,-6 0,-13 3,-19 9,-29 3,-6 9,-12 9,-21 0,-4 0,-4 0,-4 0,-6 -3,-12 -3,-21 -6,-13 -12,-25 -18,-35 -4,-6 -7,-12 -10,-15 -3,-4 -9,-7 -12,-10 -13,-3 -22,-3 -32,-3 -3,0 -6,0 -6,0l0 0 3 0 0 -16c0,0 0,-3 0,-3 -3,0 -3,0 -3,3l-9 13 -35 -3 0 -35 0 0 0 -3 0 0 -3 0 0 0z"/>
   <polygon class="fil2" points="42,1703 1552,1703 1552,1696 42,1696 "/>
  </g>
 </g>
</svg>
