<?xml version="1.0" encoding="UTF-8"?>
<!DOCTYPE svg PUBLIC "-//W3C//DTD SVG 1.1//EN" "http://www.w3.org/Graphics/SVG/1.1/DTD/svg11.dtd">
<!-- Creator: CorelDRAW X7 -->
<svg xmlns="http://www.w3.org/2000/svg" xml:space="preserve" width="530px" height="775px" version="1.1" style="shape-rendering:geometricPrecision; text-rendering:geometricPrecision; image-rendering:optimizeQuality; fill-rule:evenodd; clip-rule:evenodd"
viewBox="0 0 530 775"
 xmlns:xlink="http://www.w3.org/1999/xlink">
 <defs>
  <style type="text/css">
   <![CDATA[
    .fil241 {fill:#0A0F47}
    .fil8 {fill:#0A114E}
    .fil9 {fill:#142184}
    .fil7 {fill:#17237F}
    .fil12 {fill:#231F20}
    .fil3 {fill:#2897D8}
    .fil1 {fill:#35A8E0}
    .fil0 {fill:#35A8E0}
    .fil242 {fill:#3D00C7}
    .fil2 {fill:#42B8E8}
    .fil230 {fill:#6F10C2}
    .fil229 {fill:#7110C2}
    .fil228 {fill:#7311C1}
    .fil227 {fill:#7411C1}
    .fil226 {fill:#7611C1}
    .fil225 {fill:#7712C1}
    .fil224 {fill:#7912C1}
    .fil223 {fill:#7A13C1}
    .fil222 {fill:#7C13C1}
    .fil221 {fill:#7E14C0}
    .fil220 {fill:#7F14C0}
    .fil219 {fill:#8115C0}
    .fil218 {fill:#8215C0}
    .fil217 {fill:#8416C0}
    .fil216 {fill:#8516C0}
    .fil215 {fill:#8717C0}
    .fil214 {fill:#8817BF}
    .fil213 {fill:#8A18BF}
    .fil212 {fill:#8C18BF}
    .fil211 {fill:#8D19BF}
    .fil210 {fill:#8F19BF}
    .fil209 {fill:#901ABF}
    .fil208 {fill:#921ABF}
    .fil207 {fill:#931BBE}
    .fil206 {fill:#951BBE}
    .fil205 {fill:#961CBE}
    .fil204 {fill:#981CBE}
    .fil203 {fill:#991DBE}
    .fil202 {fill:#9B1DBE}
    .fil201 {fill:#9C1EBE}
    .fil200 {fill:#9E1EBD}
    .fil199 {fill:#9F1FBD}
    .fil198 {fill:#A11FBD}
    .fil197 {fill:#A320BD}
    .fil196 {fill:#A420BD}
    .fil195 {fill:#A621BD}
    .fil11 {fill:#A6A8A8}
    .fil194 {fill:#A721BD}
    .fil193 {fill:#A921BC}
    .fil192 {fill:#AA22BC}
    .fil191 {fill:#AC22BC}
    .fil190 {fill:#AD23BC}
    .fil189 {fill:#AF23BC}
    .fil188 {fill:#B024BC}
    .fil187 {fill:#B224BC}
    .fil186 {fill:#B325BB}
    .fil185 {fill:#B525BB}
    .fil184 {fill:#B626BB}
    .fil183 {fill:#B826BB}
    .fil182 {fill:#B927BB}
    .fil181 {fill:#BB27BB}
    .fil180 {fill:#BC28BB}
    .fil179 {fill:#BE28BB}
    .fil178 {fill:#BF29BA}
    .fil177 {fill:#C129BA}
    .fil176 {fill:#C229BA}
    .fil175 {fill:#C32ABA}
    .fil174 {fill:#C52ABA}
    .fil173 {fill:#C62BBA}
    .fil172 {fill:#C82BBA}
    .fil171 {fill:#C92CB9}
    .fil170 {fill:#CB2CB9}
    .fil169 {fill:#CC2DB9}
    .fil168 {fill:#CE2DB9}
    .fil167 {fill:#CF2EB9}
    .fil166 {fill:#D12EB9}
    .fil165 {fill:#D22FB9}
    .fil164 {fill:#D32FB8}
    .fil163 {fill:#D52FB8}
    .fil162 {fill:#D630B8}
    .fil161 {fill:#D830B8}
    .fil160 {fill:#D931B8}
    .fil234 {fill:#DB067A}
    .fil159 {fill:#DB31B8}
    .fil158 {fill:#DC32B8}
    .fil157 {fill:#DD32B8}
    .fil156 {fill:#DF33B7}
    .fil155 {fill:#E033B7}
    .fil154 {fill:#E233B7}
    .fil153 {fill:#E334B7}
    .fil152 {fill:#E434B7}
    .fil151 {fill:#E635B7}
    .fil150 {fill:#E735B7}
    .fil149 {fill:#E836B7}
    .fil148 {fill:#EA36B6}
    .fil147 {fill:#EB36B6}
    .fil146 {fill:#ED37B6}
    .fil240 {fill:#ED87B3}
    .fil145 {fill:#EE37B6}
    .fil144 {fill:#EF38B6}
    .fil239 {fill:#F093BC}
    .fil143 {fill:#F138B6}
    .fil142 {fill:#F239B6}
    .fil235 {fill:#F29FC5}
    .fil141 {fill:#F339B6}
    .fil140 {fill:#F439B5}
    .fil139 {fill:#F63AB5}
    .fil138 {fill:#F73AB5}
    .fil137 {fill:#F83BB5}
    .fil136 {fill:#F93BB5}
    .fil135 {fill:#FB3BB5}
    .fil134 {fill:#FC3CB5}
    .fil133 {fill:#FD3CB5}
    .fil236 {fill:#FDFEFF}
    .fil132 {fill:#FE3CB5}
    .fil10 {fill:#FEFEFE}
    .fil131 {fill:#FF3DB4}
    .fil243 {fill:#FF3DB5}
    .fil129 {fill:#FF3EB2}
    .fil130 {fill:#FF3EB3}
    .fil128 {fill:#FF3FB1}
    .fil127 {fill:#FF40B0}
    .fil126 {fill:#FF41AF}
    .fil125 {fill:#FF42AE}
    .fil232 {fill:#FF43AC}
    .fil124 {fill:#FF43AD}
    .fil122 {fill:#FF44AB}
    .fil123 {fill:#FF44AC}
    .fil121 {fill:#FF45AA}
    .fil120 {fill:#FF46A9}
    .fil118 {fill:#FF47A7}
    .fil119 {fill:#FF47A8}
    .fil117 {fill:#FF48A6}
    .fil231 {fill:#FF48A7}
    .fil116 {fill:#FF49A5}
    .fil114 {fill:#FF4AA3}
    .fil115 {fill:#FF4AA4}
    .fil113 {fill:#FF4BA3}
    .fil112 {fill:#FF4CA2}
    .fil110 {fill:#FF4DA0}
    .fil111 {fill:#FF4DA1}
    .fil109 {fill:#FF4E9F}
    .fil108 {fill:#FF4F9E}
    .fil106 {fill:#FF509C}
    .fil107 {fill:#FF509D}
    .fil105 {fill:#FF519B}
    .fil104 {fill:#FF529A}
    .fil102 {fill:#FF5398}
    .fil103 {fill:#FF5399}
    .fil101 {fill:#FF5497}
    .fil100 {fill:#FF5597}
    .fil98 {fill:#FF5695}
    .fil99 {fill:#FF5696}
    .fil97 {fill:#FF5794}
    .fil96 {fill:#FF5893}
    .fil94 {fill:#FF5991}
    .fil95 {fill:#FF5992}
    .fil93 {fill:#FF5A90}
    .fil92 {fill:#FF5B8F}
    .fil90 {fill:#FF5C8D}
    .fil91 {fill:#FF5C8E}
    .fil89 {fill:#FF5D8C}
    .fil88 {fill:#FF5E8B}
    .fil86 {fill:#FF5F8A}
    .fil87 {fill:#FF5F8B}
    .fil85 {fill:#FF6089}
    .fil84 {fill:#FF6188}
    .fil82 {fill:#FF6286}
    .fil83 {fill:#FF6287}
    .fil81 {fill:#FF6385}
    .fil80 {fill:#FF6484}
    .fil78 {fill:#FF6582}
    .fil79 {fill:#FF6583}
    .fil77 {fill:#FF6681}
    .fil76 {fill:#FF6780}
    .fil74 {fill:#FF687F}
    .fil75 {fill:#FF6880}
    .fil73 {fill:#FF697E}
    .fil72 {fill:#FF6A7D}
    .fil70 {fill:#FF6B7B}
    .fil71 {fill:#FF6B7C}
    .fil69 {fill:#FF6C7A}
    .fil68 {fill:#FF6D79}
    .fil66 {fill:#FF6E77}
    .fil67 {fill:#FF6E78}
    .fil65 {fill:#FF6F76}
    .fil64 {fill:#FF7075}
    .fil63 {fill:#FF7174}
    .fil62 {fill:#FF7273}
    .fil61 {fill:#FF7372}
    .fil59 {fill:#FF7470}
    .fil60 {fill:#FF7471}
    .fil58 {fill:#FF756F}
    .fil57 {fill:#FF766E}
    .fil55 {fill:#FF776C}
    .fil56 {fill:#FF776D}
    .fil54 {fill:#FF786B}
    .fil53 {fill:#FF796A}
    .fil51 {fill:#FF7A68}
    .fil52 {fill:#FF7A69}
    .fil50 {fill:#FF7B68}
    .fil49 {fill:#FF7C67}
    .fil47 {fill:#FF7D65}
    .fil48 {fill:#FF7D66}
    .fil46 {fill:#FF7E64}
    .fil45 {fill:#FF7F63}
    .fil43 {fill:#FF8061}
    .fil44 {fill:#FF8062}
    .fil42 {fill:#FF8160}
    .fil41 {fill:#FF825F}
    .fil39 {fill:#FF835D}
    .fil40 {fill:#FF835E}
    .fil38 {fill:#FF845C}
    .fil37 {fill:#FF855C}
    .fil35 {fill:#FF865A}
    .fil36 {fill:#FF865B}
    .fil34 {fill:#FF8759}
    .fil33 {fill:#FF8858}
    .fil31 {fill:#FF8956}
    .fil32 {fill:#FF8957}
    .fil30 {fill:#FF8A55}
    .fil29 {fill:#FF8B54}
    .fil27 {fill:#FF8C52}
    .fil28 {fill:#FF8C53}
    .fil26 {fill:#FF8D51}
    .fil25 {fill:#FF8E50}
    .fil23 {fill:#FF8F4F}
    .fil24 {fill:#FF8F50}
    .fil22 {fill:#FF904E}
    .fil21 {fill:#FF914D}
    .fil19 {fill:#FF924B}
    .fil20 {fill:#FF924C}
    .fil18 {fill:#FF934A}
    .fil17 {fill:#FF9449}
    .fil15 {fill:#FF9547}
    .fil16 {fill:#FF9548}
    .fil14 {fill:#FF9646}
    .fil13 {fill:#FF9745}
    .fil4 {fill:#FF9845}
    .fil5 {fill:#FFB070}
    .fil6 {fill:#FFC291}
    .fil237 {fill:#FFFCFD}
    .fil238 {fill:#FFFEFE}
    .fil233 {fill:white}
   ]]>
  </style>
 </defs>
 <g id="Capa_x0020_1">
  <metadata id="CorelCorpID_0Corel-Layer"/>
  <rect class="fil0" width="530" height="775"/>
  <g id="trjt-marketing.eps">
   <polygon class="fil1" points="530,775 0,775 0,245 530,245 "/>
   <path class="fil2" d="M426 645c-2,-2 -3,-6 -1,-8 1,-1 3,-1 5,-2 1,0 3,0 4,-1 -3,4 -5,8 -8,11zm-205 -28c0,-1 -1,-3 -2,-4 -1,-4 -2,-8 -2,-12 -1,-4 -2,-7 -3,-11 -1,-3 -2,-6 -5,-8 -1,0 -2,-1 -4,-1 -2,0 -5,2 -7,3 -3,-1 -5,-2 -8,-2 -2,0 -4,1 -6,2 -2,1 -4,4 -7,5 -1,1 -3,1 -4,1 -2,0 -4,0 -5,-2 -1,-1 -1,-3 -1,-5 0,-10 -1,-20 -4,-29 -2,-5 -4,-11 -9,-12 -1,-1 -2,-1 -3,-1 -3,0 -6,2 -9,4 -3,3 -6,6 -10,8 -2,0 -4,1 -5,1 -4,0 -8,-2 -11,-4 1,0 1,0 2,0 4,-1 7,-2 11,-4 2,0 4,-1 6,-1l2 -1 3 -2 3 -2 2 -3 1 -3c1,-2 2,-3 3,-5 1,-2 2,-4 2,-5l6 13 20 -3 16 -2 1 -26 0 -13c0,-6 -3,-12 -8,-13 -1,0 -4,0 -7,0 3,-4 5,-7 7,-10 0,-1 1,-2 1,-2 2,-3 3,-5 4,-8 1,-1 1,-1 2,-1 1,-1 1,-2 2,-4 0,-1 0,-1 0,-2 0,-1 -1,-2 -1,-3 0,0 -1,-1 -1,-1 0,-4 -1,-7 -2,-10 -3,-12 -11,-22 -23,-24 -2,0 -3,0 -4,0 -9,0 -20,5 -23,14 -1,-1 -2,-1 -3,-1 -6,0 -11,7 -12,13 -1,6 3,12 -1,17 -5,6 -11,9 -19,9 -9,1 -19,3 -20,14 -2,11 6,24 16,28 5,2 10,3 16,3 6,0 12,-1 17,-2 2,-1 4,-1 5,-2 0,2 0,3 -1,5 -1,3 -2,7 -3,11 -1,1 -1,3 -2,5l-1 2 0 1 0 0 -3 2c-2,1 -3,1 -5,2 -4,2 -7,4 -10,5 -1,1 -2,1 -3,1 -1,1 -2,1 -3,1 0,0 0,0 0,0 -4,-4 -6,-10 -9,-15 -3,-6 -7,-12 -10,-17 -4,-5 -8,-10 -14,-11 -1,0 -1,0 -2,0 -6,0 -12,4 -15,9 5,-105 95,-189 206,-189 18,0 35,3 52,7l-70 0c-14,0 -26,11 -26,25l0 265zm-145 -17c-4,-9 -8,-18 -10,-28 0,1 1,2 1,3 4,4 7,9 9,14 1,3 1,7 0,11zm379 -2c-1,-1 -2,-3 -3,-4 -4,-6 -2,-15 2,-21 4,-5 9,-9 13,-13 -2,13 -6,26 -12,38zm-43 -56l0 -162c35,34 57,80 60,131 -3,0 -5,0 -7,0 -7,0 -15,2 -21,5 -11,4 -19,11 -27,20 -1,2 -3,4 -5,6z"/>
   <path class="fil1" d="M444 690c0,11 -80,19 -179,19 -99,0 -179,-8 -179,-19 0,-10 80,-18 179,-18 99,0 179,8 179,18z"/>
   <path class="fil3" d="M265 709c-99,0 -179,-8 -179,-19 0,-3 10,-7 27,-10 12,6 25,8 37,8 4,0 8,0 12,0 4,-1 8,-2 11,-4 4,-2 7,-6 7,-10l1 3c0,0 1,0 2,0 2,0 3,-1 5,-2 1,1 1,2 2,3 7,9 18,16 30,19 2,0 3,0 5,0 0,0 1,0 2,0 2,-1 4,-2 5,-4l0 2c1,0 1,0 2,0 1,0 2,0 4,-1 0,0 1,-1 2,-1 2,0 4,1 7,1l140 0c8,0 14,-4 19,-9 3,-1 5,-1 8,-2 2,-1 4,-1 5,-2 16,3 25,6 25,9 0,11 -80,19 -179,19z"/>
   <path class="fil4" d="M180 674c0,4 -3,8 -7,10 -3,2 -7,3 -11,4 -22,2 -44,-3 -62,-15 -18,-12 -32,-31 -37,-52 -2,-4 -2,-10 1,-13 2,-2 5,-2 8,-4 5,-3 6,-10 4,-15 -2,-5 -5,-10 -9,-14 -6,-9 -11,-19 -14,-30 -2,-11 -1,-22 4,-32 3,-8 11,-14 19,-13 6,1 10,6 14,11 3,5 7,11 10,17 4,6 7,13 12,19 5,5 13,9 20,6 4,-2 7,-5 10,-8 3,-2 8,-4 12,-3 5,1 7,7 9,12 3,9 4,19 4,29 0,2 0,4 1,5 2,3 6,3 9,1 3,-1 5,-4 7,-5 7,-4 15,-1 20,5 4,5 6,13 6,20 2,23 -5,46 -20,64 -3,3 -6,5 -9,4l-1 -3z"/>
   <path class="fil5" d="M160 668c-1,0 -1,0 -1,-1 -2,-1 -3,-2 -5,-4 0,0 1,1 1,1 0,0 0,-1 1,-1 0,0 1,0 1,-1 1,1 2,2 4,3 1,1 0,3 -1,3zm-6 -5c-5,-5 -11,-10 -16,-16 1,0 1,0 1,0 1,-1 0,-3 -1,-3 0,0 0,1 0,1 -1,0 -1,0 -1,1 -6,-7 -11,-13 -17,-20 1,1 1,1 1,1 1,0 1,0 1,-1 0,0 1,0 1,-1 10,13 20,25 32,35 0,1 0,1 -1,1 0,1 0,2 0,2zm-34 -37c-24,-31 -42,-66 -53,-104 0,-1 1,-2 2,-2 0,0 1,0 1,1 10,37 28,72 51,102 0,1 0,1 -1,1 0,1 0,1 0,2z"/>
   <path class="fil5" d="M120 626c0,0 0,0 0,0 0,0 0,0 0,0zm3 -1c-1,0 -1,-1 -2,-2 14,-14 22,-35 22,-55 0,0 1,-1 2,-1 0,0 1,1 1,1 0,21 -9,42 -23,57z"/>
   <path class="fil6" d="M121 627c0,0 0,0 -1,-1 0,0 0,0 0,0 0,-1 0,-1 0,-2 1,0 1,0 1,-1 1,1 1,2 2,2 0,1 -1,1 -1,1 0,1 0,1 -1,1z"/>
   <path class="fil5" d="M154 663c0,0 0,0 0,0 0,0 0,0 0,0zm3 -1c-1,0 -1,-1 -2,-2 15,-11 26,-27 31,-46 1,0 1,0 2,0 1,0 1,0 1,1 -6,19 -16,35 -32,47z"/>
   <path class="fil6" d="M155 664c0,0 -1,-1 -1,-1 0,0 0,0 0,0 0,0 0,-1 0,-2 1,0 1,0 1,-1 1,1 1,2 2,2 0,1 -1,1 -1,1 -1,0 -1,1 -1,1z"/>
   <path class="fil5" d="M126 651c-4,0 -8,-1 -11,-2 -12,-2 -22,-7 -29,-17 -1,-1 0,-1 1,-1 0,0 1,0 1,0 6,9 15,13 26,15 3,1 8,2 12,2 4,0 8,-1 11,-2 0,0 1,1 1,1 -3,3 -7,4 -12,4z"/>
   <path class="fil6" d="M138 647c0,0 -1,-1 -1,-1 0,-1 0,-1 1,-1 0,0 0,-1 0,-1 1,0 2,2 1,3 0,0 0,0 -1,0z"/>
   <path class="fil4" d="M343 667c-4,0 -8,-2 -10,-5 -3,-3 -5,-7 -6,-10 -7,-21 -7,-44 1,-64 8,-20 23,-37 43,-47 4,-2 9,-4 13,-1 2,1 3,4 6,6 4,4 10,4 15,1 5,-3 9,-7 12,-11 8,-9 16,-16 27,-20 10,-5 21,-7 32,-4 8,2 16,8 16,17 0,5 -3,11 -7,15 -5,5 -10,10 -15,14 -5,5 -12,9 -16,15 -4,6 -6,15 -2,21 3,4 6,6 10,9 3,2 6,6 6,10 -1,5 -5,9 -10,12 -9,4 -18,8 -28,10 -2,1 -4,1 -5,2 -2,3 -1,6 1,9 2,2 5,4 7,6 5,6 3,14 -1,20 -4,6 -11,9 -18,11 -22,6 -47,4 -67,-7 -3,-2 -7,-4 -6,-8l2 -1z"/>
   <path class="fil5" d="M412 567l0 -3c18,-15 37,-29 57,-39 0,-1 1,-1 1,-1 1,0 2,2 1,3 -21,11 -41,25 -59,40z"/>
   <path class="fil5" d="M424 613c-4,0 -8,0 -12,-1l0 -3c4,1 8,1 12,1 6,0 11,0 15,-1 1,0 1,0 1,0 1,0 2,2 0,2 -5,1 -10,2 -16,2z"/>
   <path class="fil7" d="M219 453l5 0c1,0 2,0 2,-1l0 -62c0,0 -1,-1 -2,-1l-5 0c-1,0 -1,1 -1,1l0 62c0,1 0,1 1,1z"/>
   <path class="fil7" d="M219 487l5 0c1,0 2,0 2,-1l0 -24c0,0 -1,-1 -2,-1l-5 0c-1,0 -1,1 -1,1l0 24c0,1 0,1 1,1z"/>
   <path class="fil8" d="M247 694l140 0c14,0 25,-12 25,-26l0 -316c0,-14 -11,-25 -25,-25l-140 0c-14,0 -26,11 -26,25l0 316c0,14 12,26 26,26z"/>
   <path class="fil9" d="M410 358c0,-14 -11,-26 -25,-26l-136 0c-14,0 -25,12 -25,26l0 -4c0,-14 11,-25 25,-25l136 0c14,0 25,11 25,25l0 4z"/>
   <path class="fil9" d="M385 692l-136 0c-2,0 -5,-1 -7,-1 2,-1 3,-2 4,-3 1,0 2,0 3,0l136 0c14,0 25,-11 25,-25l0 3c0,14 -11,26 -25,26z"/>
   <path class="fil10" d="M245 681c-8,0 -15,-7 -15,-15l0 -312c0,-7 6,-13 13,-14l0 -1 0 0c1,0 1,0 2,0l24 0c0,0 1,1 1,1 0,6 4,10 9,10l75 0c5,0 10,-4 10,-10 0,0 0,-1 1,-1l23 0c9,0 15,7 15,15l0 312c0,8 -6,15 -15,15l-143 0z"/>
   <path class="fil11" d="M260 353l-3 0 -1 -2c0,0 0,0 0,0l-6 0c-1,0 -1,0 -1,0l0 2 -3 0c0,0 -1,0 -1,1l0 8c0,0 1,0 1,0l14 0c0,0 1,0 1,0l0 -8c0,-1 -1,-1 -1,-1z"/>
   <path class="fil10" d="M255 358c0,1 -1,2 -2,2 -1,0 -3,-1 -3,-2 0,-1 2,-2 3,-2 1,0 2,1 2,2z"/>
   <path class="fil11" d="M254 358c0,1 -1,1 -1,1 -1,0 -1,0 -1,-1 0,-1 0,-1 1,-1 0,0 1,0 1,1z"/>
   <polygon class="fil11" points="230,370 403,370 "/>
   <polygon class="fil12" points="230,370 403,370 403,369 230,369 "/>
   <polygon class="fil11" points="230,645 403,645 "/>
   <polygon class="fil12" points="230,645 403,645 403,645 230,645 "/>
   <path class="fil11" d="M316 658l-1 0 0 -1c0,-1 -1,-1 -1,-1l-4 0c-1,0 -2,0 -2,1l0 1 0 0c-2,0 -3,1 -3,3l0 5c0,1 1,3 3,3l8 0c1,0 2,-2 2,-3l0 -5c0,-2 -1,-3 -2,-3z"/>
   <path class="fil11" d="M352 659c0,-3 -2,-4 -4,-4 -1,0 -3,0 -3,1 -1,-1 -2,-1 -4,-1 -2,0 -4,1 -4,4 0,1 1,3 2,3l0 0 6 6 5 -6 0 0c1,0 2,-2 2,-3z"/>
   <path class="fil11" d="M256 665l5 -4 -12 0 5 4c1,0 1,0 2,0z"/>
   <path class="fil11" d="M256 655l5 5 -12 0 5 -5c1,0 1,0 2,0z"/>
   <polygon class="fil11" points="261,668 261,661 257,665 "/>
   <polygon class="fil11" points="253,665 249,661 249,668 "/>
   <path class="fil11" d="M261 669l-4 -4 -1 0c0,1 -1,1 -1,1 0,0 -1,0 -1,-1l-1 0 -4 4 12 0z"/>
   <polygon class="fil11" points="248,660 248,660 "/>
   <polygon class="fil11" points="262,660 262,660 "/>
   <path class="fil11" d="M262 660l0 0 -1 1 0 8 1 0 0 0c0,0 0,0 -1,0l-13 0c0,0 0,0 0,0l0 0 0 0 0 -8 0 -1 0 0 0 0 0 9c0,0 0,0 0,0l13 0c1,0 1,0 1,0l0 -9 0 0z"/>
   <polygon class="fil11" points="249,661 248,661 248,669 249,668 "/>
   <polygon class="fil11" points="261,668 261,669 261,661 261,661 "/>
   <polygon class="fil11" points="261,660 262,660 "/>
   <polygon class="fil11" points="262,660 262,660 262,660 "/>
   <polygon class="fil11" points="248,660 248,660 "/>
   <polygon class="fil11" points="248,660 248,660 248,660 "/>
   <path class="fil11" d="M253 665l0 0c1,0 1,0 0,0l0 0 1 0c0,1 1,1 1,1 0,0 1,0 1,-1l1 0 -1 0c0,0 0,0 0,0 1,-1 1,-1 1,0l0 0 4 -4 0 0 0 0 -5 4c-1,0 -1,0 -2,0l-5 -4 0 0 0 0 4 4 0 0z"/>
   <polygon class="fil11" points="248,660 248,661 248,660 261,660 261,661 262,660 262,660 262,660 262,660 261,660 248,660 248,660 248,660 248,660 "/>
   <polygon class="fil11" points="248,660 248,661 249,661 249,661 249,661 261,661 261,661 261,661 261,661 261,660 "/>
   <polygon class="fil11" points="257,665 261,669 249,669 253,665 253,665 249,668 249,669 261,669 261,668 257,665 "/>
   <path class="fil11" d="M248 669l0 0 0 0 0 0c0,0 0,0 0,0l13 0c1,0 1,0 1,0l0 0 -1 0 0 0 -13 0z"/>
   <polygon class="fil11" points="261,669 249,669 249,668 248,669 248,669 261,669 261,669 261,668 "/>
   <path class="fil11" d="M257 665c0,-1 0,-1 -1,0 0,0 0,0 0,0l1 0 0 0 0 0z"/>
   <path class="fil11" d="M253 665c1,0 1,0 0,0l0 0 0 0 0 0 0 0z"/>
   <path class="fil11" d="M288 660c0,3 -3,6 -6,6 -4,0 -6,-3 -6,-6 0,-3 2,-6 6,-6 3,0 6,3 6,6z"/>
   <polygon class="fil11" points="287,669 281,662 282,661 288,669 "/>
   <path class="fil11" d="M379 669l0 -1c0,-3 -2,-5 -5,-5 -3,0 -6,2 -6,5l0 1 11 0z"/>
   <path class="fil11" d="M377 658c0,2 -2,3 -3,3 -2,0 -3,-1 -3,-3 0,-2 1,-3 3,-3 1,0 3,1 3,3z"/>
   <polygon class="fil4" points="230,539 235,547 230,547 "/>
   <polygon class="fil4" points="230,537 236,547 235,547 230,539 "/>
   <polygon class="fil4" points="230,535 238,547 236,547 230,537 "/>
   <polygon class="fil4" points="230,533 239,547 238,547 230,535 "/>
   <polygon class="fil13" points="230,531 240,547 239,547 230,533 "/>
   <polygon class="fil14" points="230,529 242,547 240,547 230,531 "/>
   <polygon class="fil15" points="230,527 243,547 242,547 230,529 "/>
   <polygon class="fil16" points="230,525 244,547 243,547 230,527 "/>
   <polygon class="fil17" points="230,523 245,547 244,547 230,525 "/>
   <polygon class="fil18" points="230,521 247,547 245,547 230,523 "/>
   <polygon class="fil19" points="230,519 248,547 247,547 230,521 "/>
   <polygon class="fil20" points="230,517 249,547 248,547 230,519 "/>
   <polygon class="fil21" points="230,515 250,547 249,547 230,517 "/>
   <polygon class="fil22" points="230,513 252,547 250,547 230,515 "/>
   <polygon class="fil23" points="230,511 253,547 252,547 230,513 "/>
   <polygon class="fil24" points="230,509 254,547 253,547 230,511 "/>
   <polygon class="fil25" points="230,507 256,547 254,547 230,509 "/>
   <polygon class="fil26" points="230,505 257,547 256,547 230,507 "/>
   <polygon class="fil27" points="230,503 247,529 247,530 247,530 258,547 257,547 230,505 "/>
   <path class="fil28" d="M230 501l17 26 0 2 -17 -26 0 -2zm19 29l10 17 -1 0 -11 -17 2 0z"/>
   <path class="fil29" d="M230 499l17 26 0 2 -17 -26 0 -2zm20 31l11 17 -2 0 -10 -17 1 0z"/>
   <path class="fil30" d="M230 497l17 26 0 2 -17 -26 0 -2zm21 33l11 17 -1 0 -11 -17 1 0z"/>
   <path class="fil31" d="M230 495l17 26 0 2 -17 -26 0 -2zm23 35l10 17 -1 0 -11 -17 2 0z"/>
   <path class="fil32" d="M230 493l17 26 0 2 -17 -26 0 -2zm24 37l10 17 -1 0 -10 -17 1 0z"/>
   <path class="fil33" d="M230 491l17 26 0 2 -17 -26 0 -2zm25 39l11 17 -2 0 -10 -17 1 0z"/>
   <path class="fil34" d="M230 489l17 26 0 2 -17 -26 0 -2zm26 41l11 17 -1 0 -11 -17 1 0 0 0z"/>
   <path class="fil35" d="M230 487l17 26 0 2 -17 -26 0 -2zm28 43l10 17 -1 0 -11 -17 2 0z"/>
   <path class="fil36" d="M230 485l17 26 0 2 -17 -26 0 -2zm29 45l11 17 -2 0 -10 -17 1 0z"/>
   <path class="fil37" d="M230 483l17 26 0 2 -17 -26 0 -2zm30 47l11 17 -1 0 -11 -17 1 0z"/>
   <path class="fil38" d="M230 481l17 26 0 2 -17 -26 0 -2zm31 49l11 17 -1 0 -11 -17 1 0z"/>
   <path class="fil39" d="M230 479l17 26 0 2 -17 -26 0 -2zm33 51l10 17 -1 0 -11 -17 2 0z"/>
   <path class="fil40" d="M230 477l17 26 0 2 -17 -26 0 -2zm34 53l11 17 -2 0 -10 -17 1 0z"/>
   <path class="fil41" d="M230 475l17 26 0 2 -17 -26 0 -2zm35 55l11 17 -1 0 -11 -17 1 0z"/>
   <path class="fil42" d="M230 473l17 27 0 0 0 1 -17 -26 0 -2zm37 57l10 17 -1 0 -11 -17 2 0z"/>
   <path class="fil43" d="M230 471l18 29 -1 0 -17 -27 0 -2zm38 59l11 17 -2 0 -10 -17 1 0z"/>
   <path class="fil44" d="M230 469l20 31 -2 0 -18 -29 0 -2zm39 61l11 17 -1 0 -11 -17 1 0z"/>
   <path class="fil45" d="M230 467l21 33 -1 0 -20 -31 0 -2zm40 63l11 17 -1 0 -11 -17 1 0 0 0z"/>
   <path class="fil46" d="M230 465l22 35 -1 0 -21 -33 0 -2zm40 63l12 19 -1 0 -11 -17 0 -2z"/>
   <path class="fil47" d="M230 463l24 37 -2 0 -22 -35 0 -2zm40 63l14 21 -2 0 -12 -19 0 -2z"/>
   <path class="fil48" d="M230 461l25 39 -1 0 -24 -37 0 -2zm40 63l15 23 -1 0 -14 -21 0 -2z"/>
   <path class="fil49" d="M230 459l26 41 -1 0 -25 -39 0 -2zm40 63l16 25 -1 0 -15 -23 0 -2z"/>
   <path class="fil50" d="M230 457l27 43 -1 0 -26 -41 0 -2zm40 63l17 27 -1 0 -16 -25 0 -2z"/>
   <path class="fil51" d="M230 455l29 45 -2 0 -27 -43 0 -2zm40 63l19 29 -2 0 -17 -27 0 -2z"/>
   <path class="fil52" d="M230 453l30 47 -1 0 -29 -45 0 -2zm40 63l20 31 -1 0 -19 -29 0 -2z"/>
   <path class="fil53" d="M230 451l31 49 -1 0 -30 -47 0 -2zm40 63l21 33 -1 0 -20 -31 0 -2z"/>
   <path class="fil54" d="M230 449l32 51 -1 0 -31 -49 0 -2zm40 63l12 18 0 0 0 0 11 17 -2 0 -21 -33 0 -2z"/>
   <path class="fil55" d="M230 447l34 53 -2 0 -32 -51 0 -2zm40 63l12 18 0 2 -12 -18 0 -2zm13 20l11 17 -1 0 -11 -17 1 0z"/>
   <path class="fil56" d="M230 445l35 55 -1 0 -34 -53 0 -2zm40 63l12 18 0 2 -12 -18 0 -2zm14 22l11 17 -1 0 -11 -17 1 0z"/>
   <path class="fil57" d="M230 443l36 57 -1 0 -35 -55 0 -2zm40 63l12 18 0 2 -12 -18 0 -2zm16 24l10 17 -1 0 -11 -17 2 0z"/>
   <path class="fil58" d="M230 441l38 59 -2 0 -36 -57 0 -2zm40 63l12 18 0 2 -12 -18 0 -2zm17 26l11 17 -2 0 -10 -17 1 0z"/>
   <path class="fil59" d="M230 439l39 61 -1 0 -38 -59 0 -2zm40 63l12 18 0 2 -12 -18 0 -2zm18 28l11 17 -1 0 -11 -17 1 0z"/>
   <path class="fil60" d="M230 437l40 63 -1 0 -39 -61 0 -2zm40 63l12 18 0 2 -12 -18 0 -2zm19 30l11 17 -1 0 -11 -17 1 0z"/>
   <path class="fil61" d="M230 435l52 81 0 2 -12 -18 0 0 0 0 -40 -63 0 -2zm61 95l10 17 -1 0 -11 -17 2 0 0 0z"/>
   <path class="fil62" d="M230 433l52 81 0 2 -52 -81 0 -2zm62 97l11 17 -2 0 -10 -17 1 0z"/>
   <path class="fil63" d="M230 431l52 81 0 2 -52 -81 0 -2zm63 99l11 17 -1 0 -11 -17 1 0z"/>
   <path class="fil63" d="M230 429l52 81 0 2 -52 -81 0 -2zm65 101l10 17 -1 0 -11 -17 2 0z"/>
   <path class="fil64" d="M230 427l52 81 0 2 -52 -81 0 -2zm66 103l11 17 -2 0 -10 -17 1 0z"/>
   <path class="fil65" d="M230 425l52 81 0 2 -52 -81 0 -2zm67 105l11 17 -1 0 -11 -17 1 0z"/>
   <path class="fil66" d="M230 423l52 81 0 2 -52 -81 0 -2zm68 107l11 17 -1 0 -11 -17 1 0z"/>
   <path class="fil67" d="M230 421l52 81 0 2 -52 -81 0 -2zm70 109l10 17 -1 0 -11 -17 2 0z"/>
   <path class="fil68" d="M230 419l52 81 0 2 -52 -81 0 -2zm71 111l11 17 -2 0 -10 -17 1 0z"/>
   <path class="fil69" d="M230 417l52 81 0 2 -52 -81 0 -2zm72 113l11 17 -1 0 -11 -17 1 0z"/>
   <path class="fil70" d="M230 415l52 81 0 2 -52 -81 0 -2zm73 115l11 17 -1 0 -11 -17 1 0z"/>
   <path class="fil71" d="M230 413l52 81 0 2 -52 -81 0 -2zm75 117l10 17 -1 0 -11 -17 2 0z"/>
   <path class="fil72" d="M230 411l52 81 0 2 -52 -81 0 -2zm75 118l12 18 -2 0 -10 -17 0 0 0 -1z"/>
   <path class="fil73" d="M230 409l52 81 0 2 -52 -81 0 -2zm75 118l13 20 -1 0 -12 -18 0 -2z"/>
   <path class="fil74" d="M230 407l52 81 0 2 -52 -81 0 -2zm75 118l14 22 -1 0 -13 -20 0 -2z"/>
   <path class="fil75" d="M230 405l52 81 0 2 -52 -81 0 -2zm75 118l16 24 -2 0 -14 -22 0 -2z"/>
   <path class="fil76" d="M230 403l52 81 0 2 -52 -81 0 -2zm75 118l17 26 -1 0 -16 -24 0 -2z"/>
   <path class="fil77" d="M230 401l52 81 0 2 -52 -81 0 -2zm75 118l18 28 -1 0 -17 -26 0 -2z"/>
   <path class="fil78" d="M230 399l52 81 0 2 -52 -81 0 -2zm75 118l19 30 -1 0 -18 -28 0 -2z"/>
   <path class="fil79" d="M230 397l53 82 -1 0 0 1 -52 -81 0 -2zm75 118l21 32 -2 0 -19 -30 0 -2z"/>
   <path class="fil80" d="M230 395l54 84 -1 0 -53 -82 0 -2zm75 118l22 34 -1 0 -21 -32 0 -2z"/>
   <path class="fil81" d="M230 393l55 86 -1 0 -54 -84 0 -2zm75 117l11 19 0 1 1 0 11 17 -1 0 -22 -34 0 -3z"/>
   <path class="fil82" d="M230 391l57 88 -2 0 -55 -86 0 -2zm75 117l11 19 0 2 -11 -19 0 -2zm14 22l10 17 -1 0 -11 -17 2 0z"/>
   <path class="fil83" d="M230 388l58 91 -1 0 -57 -88 0 -3zm75 118l11 19 0 2 -11 -19 0 -2zm15 24l11 17 -2 0 -10 -17 1 0z"/>
   <path class="fil84" d="M230 386l59 93 -1 0 -58 -91 0 -2zm75 118l11 19 0 2 -11 -19 0 -2zm16 26l11 17 -1 0 -11 -17 1 0z"/>
   <path class="fil85" d="M230 384l60 95 -1 0 -59 -93 0 -2zm75 118l11 19 0 2 -11 -19 0 -2zm18 28l10 17 -1 0 -11 -17 2 0z"/>
   <path class="fil86" d="M230 382l62 97 -2 0 -60 -95 0 -2zm75 118l11 19 0 2 -11 -19 0 -2zm19 30l11 17 -2 0 -10 -17 1 0z"/>
   <path class="fil87" d="M230 380l63 99 -1 0 -62 -97 0 -2zm75 118l11 19 0 2 -11 -19 0 -2zm20 32l11 17 -1 0 -11 -17 1 0z"/>
   <path class="fil88" d="M230 378l64 101 -1 0 -63 -99 0 -2zm75 118l11 19 0 2 -11 -19 0 -2zm21 34l11 17 -1 0 -11 -17 0 0 1 0z"/>
   <path class="fil89" d="M230 376l65 103 -1 0 -64 -101 0 -2zm75 118l11 19 0 2 -11 -19 0 -2zm23 36l10 17 -1 0 -11 -17 2 0z"/>
   <path class="fil90" d="M230 374l67 105 -2 0 -65 -103 0 -2zm75 118l11 18 0 3 -11 -19 0 -2zm24 38l11 17 -2 0 -10 -17 1 0z"/>
   <path class="fil91" d="M230 372l68 107 -1 0 -67 -105 0 -2zm75 118l11 18 0 2 -11 -18 0 -2zm25 40l11 17 -1 0 -11 -17 1 0z"/>
   <path class="fil92" d="M230 370l69 109 -1 0 -68 -107 0 -2zm75 118l11 18 0 2 -11 -18 0 -2zm26 42l11 17 -1 0 -11 -17 1 0z"/>
   <path class="fil93" d="M231 370l70 109 -2 0 -69 -109 0 0 1 0zm74 116l11 18 0 2 -11 -18 0 -2zm28 44l10 17 -1 0 -11 -17 2 0z"/>
   <path class="fil94" d="M232 370l70 109 -1 0 -70 -109 1 0zm73 114l11 18 0 2 -11 -18 0 -2zm29 46l11 17 -2 0 -10 -17 1 0z"/>
   <path class="fil95" d="M234 370l69 109 -1 0 -70 -109 2 0zm71 112l11 18 0 2 -11 -18 0 -2zm30 48l11 17 -1 0 -11 -17 1 0z"/>
   <path class="fil96" d="M235 370l69 109 -1 0 -69 -109 1 0zm70 110l11 18 0 2 -11 -18 0 -2zm32 50l10 17 -1 0 -11 -17 2 0z"/>
   <path class="fil97" d="M236 370l80 126 0 2 -11 -18 0 -1 -1 0 -69 -109 1 0zm102 160l11 17 -2 0 -10 -17 1 0z"/>
   <path class="fil98" d="M237 370l79 124 0 2 -80 -126 1 0zm102 160l11 17 -1 0 -11 -17 1 0z"/>
   <path class="fil99" d="M239 370l77 122 0 2 -79 -124 2 0zm101 159l11 18 -1 0 -11 -17 1 0 0 -1z"/>
   <path class="fil100" d="M240 370l76 120 0 2 -77 -122 1 0zm100 157l12 20 -1 0 -11 -18 0 -2z"/>
   <path class="fil101" d="M241 370l75 118 0 2 -76 -120 1 0zm99 155l14 22 -2 0 -12 -20 0 -2z"/>
   <path class="fil102" d="M243 370l73 116 0 2 -75 -118 2 0zm97 153l15 24 -1 0 -14 -22 0 -2z"/>
   <path class="fil103" d="M244 370l72 114 0 2 -73 -116 1 0zm96 151l16 26 -1 0 -15 -24 0 -2z"/>
   <path class="fil104" d="M245 370l71 112 0 2 -72 -114 1 0zm95 149l17 28 -1 0 -16 -26 0 -2z"/>
   <path class="fil105" d="M246 370l70 110 0 2 -71 -112 1 0zm94 147l19 30 -2 0 -17 -28 0 -2z"/>
   <path class="fil106" d="M248 370l68 108 0 2 -70 -110 2 0zm92 145l20 32 -1 0 -19 -30 0 -2z"/>
   <path class="fil107" d="M249 370l67 106 0 2 -68 -108 1 0zm91 143l21 34 -1 0 -20 -32 0 -2z"/>
   <path class="fil108" d="M250 370l66 104 0 2 -67 -106 1 0zm90 141l11 18 0 1 1 0 11 17 -2 0 -21 -34 0 -2z"/>
   <path class="fil109" d="M251 370l65 102 0 2 -66 -104 1 0zm89 139l11 18 0 2 -11 -18 0 -2zm13 21l11 17 -1 0 -11 -17 1 0z"/>
   <path class="fil110" d="M253 370l63 100 0 2 -65 -102 2 0zm87 137l11 18 0 2 -11 -18 0 -2zm14 23l11 17 -1 0 -11 -17 1 0z"/>
   <path class="fil111" d="M254 370l62 98 0 2 -63 -100 1 0zm86 135l11 18 0 2 -11 -18 0 -2zm16 25l10 17 -1 0 -11 -17 2 0z"/>
   <path class="fil112" d="M255 370l61 96 0 2 -62 -98 1 0zm85 133l11 18 0 2 -11 -18 0 -2zm17 27l11 17 -2 0 -10 -17 1 0z"/>
   <path class="fil113" d="M257 370l59 94 0 2 -61 -96 2 0zm83 131l11 18 0 2 -11 -18 0 -2zm18 29l11 17 -1 0 -11 -17 1 0z"/>
   <path class="fil114" d="M258 370l58 92 0 2 -59 -94 1 0zm82 129l11 18 0 2 -11 -18 0 -2zm19 31l11 17 -1 0 -11 -17 1 0z"/>
   <path class="fil115" d="M259 370l57 90 0 2 -58 -92 1 0zm81 127l11 18 0 2 -11 -18 0 -2zm21 33l10 17 -1 0 -11 -17 1 0 1 0z"/>
   <path class="fil116" d="M260 370l56 88 0 2 -57 -90 1 0zm80 125l11 18 0 2 -11 -18 0 -2zm22 35l11 17 -2 0 -10 -17 1 0z"/>
   <path class="fil117" d="M262 370l54 86 0 2 -56 -88 2 0zm78 123l11 18 0 2 -11 -18 0 -2zm23 37l11 17 -1 0 -11 -17 1 0z"/>
   <path class="fil118" d="M263 370l53 84 0 0 0 2 -54 -86 1 0zm77 121l11 18 0 2 -11 -18 0 -2zm25 39l10 17 -1 0 -11 -17 2 0z"/>
   <path class="fil119" d="M264 370l54 84 -2 0 -53 -84 1 0zm76 119l11 18 0 2 -11 -18 0 -2zm26 41l11 17 -2 0 -10 -17 1 0z"/>
   <path class="fil120" d="M265 370l54 84 -1 0 -54 -84 1 0zm75 117l11 18 0 2 -11 -18 0 -2zm27 43l11 17 -1 0 -11 -17 1 0z"/>
   <path class="fil121" d="M267 370l53 84 -1 0 -54 -84 2 0zm73 115l11 18 0 2 -11 -18 0 -2zm28 45l11 17 -1 0 -11 -17 1 0z"/>
   <path class="fil122" d="M268 370l54 84 -2 0 -53 -84 1 0zm72 113l11 18 0 2 -11 -18 0 -2zm30 47l10 17 -1 0 -11 -17 2 0z"/>
   <path class="fil123" d="M269 370l54 84 -1 0 -54 -84 1 0zm71 111l11 18 0 2 -11 -18 0 -2zm31 49l11 17 -2 0 -10 -17 1 0z"/>
   <path class="fil124" d="M271 370l53 84 -1 0 -54 -84 2 0zm69 109l11 18 0 2 -11 -18 0 -2zm32 51l11 17 -1 0 -11 -17 1 0z"/>
   <path class="fil125" d="M272 370l53 84 -1 0 -53 -84 1 0zm68 107l11 18 0 2 -11 -18 0 -2zm33 53l11 17 -1 0 -11 -17 1 0z"/>
   <path class="fil126" d="M273 370l54 84 -2 0 0 0 -53 -84 1 0zm67 105l11 18 0 2 -11 -18 0 -2zm34 55l11 17 -1 0 -11 -17 1 0 0 0z"/>
   <path class="fil126" d="M274 370l54 84 -1 0 -54 -84 1 0zm66 103l11 18 0 2 -11 -18 0 -2zm34 55l13 19 -2 0 -11 -17 0 -2z"/>
   <path class="fil127" d="M276 370l53 84 -1 0 -54 -84 2 0zm64 101l11 18 0 2 -11 -18 0 -2zm34 55l14 21 -1 0 -13 -19 0 -2z"/>
   <path class="fil128" d="M277 370l53 84 -1 0 -53 -84 1 0zm63 99l11 18 0 2 -11 -18 0 -2zm34 55l15 23 -1 0 -14 -21 0 -2z"/>
   <path class="fil129" d="M278 370l54 84 -2 0 -53 -84 1 0zm62 97l11 18 0 2 -11 -18 0 -2zm34 55l17 25 -2 0 -15 -23 0 -2z"/>
   <path class="fil130" d="M279 370l54 84 -1 0 -54 -84 1 0zm61 95l11 18 0 2 -11 -18 0 -2zm34 55l18 27 -1 0 -17 -25 0 -2z"/>
   <path class="fil131" d="M281 370l53 84 -1 0 -54 -84 2 0zm59 93l11 18 0 2 -11 -18 0 -2zm34 55l19 29 -1 0 -18 -27 0 -2z"/>
   <path class="fil132" d="M282 370l54 84 -2 0 -53 -84 1 0zm58 91l11 18 0 2 -11 -18 0 -2zm34 55l20 31 -1 0 -19 -29 0 -2z"/>
   <path class="fil133" d="M283 370l54 84 -1 0 -54 -84 1 0zm57 89l11 18 0 2 -11 -18 0 -2zm34 55l22 33 -2 0 -20 -31 0 -2z"/>
   <path class="fil134" d="M285 370l53 84 -1 0 -54 -84 2 0zm55 87l11 18 0 2 -11 -18 0 -2zm34 55l23 35 -1 0 -22 -33 0 -2z"/>
   <path class="fil135" d="M286 370l53 84 -1 0 -53 -84 1 0zm54 85l11 18 0 2 -11 -18 0 -2zm34 55l24 37 -1 0 -23 -35 0 -2z"/>
   <path class="fil136" d="M287 370l64 101 0 2 -11 -18 0 -1 -1 0 -53 -84 1 0zm87 138l25 39 -1 0 -24 -37 0 -2z"/>
   <path class="fil137" d="M288 370l63 99 0 2 -64 -101 1 0zm86 136l27 41 -2 0 -25 -39 0 -2z"/>
   <path class="fil138" d="M290 370l61 97 0 2 -63 -99 2 0zm84 134l28 43 -1 0 -27 -41 0 -2z"/>
   <path class="fil139" d="M291 370l60 95 0 2 -61 -97 1 0zm83 132l29 45 0 0 0 0 -1 0 -28 -43 0 -2z"/>
   <path class="fil140" d="M292 370l59 93 0 2 -60 -95 1 0zm82 130l29 45 0 2 -29 -45 0 -2z"/>
   <path class="fil141" d="M293 370l58 91 0 2 -59 -93 1 0zm81 128l29 45 0 2 -29 -45 0 -2z"/>
   <path class="fil142" d="M295 370l56 89 0 2 -58 -91 2 0zm79 126l29 45 0 2 -29 -45 0 -2z"/>
   <path class="fil143" d="M296 370l55 87 0 2 -56 -89 1 0zm78 124l29 45 0 2 -29 -45 0 -2z"/>
   <path class="fil144" d="M297 370l54 85 0 2 -55 -87 1 0zm77 122l29 45 0 2 -29 -45 0 -2z"/>
   <path class="fil145" d="M299 370l52 83 0 2 -54 -85 2 0zm75 119l29 46 0 2 -29 -45 0 -3z"/>
   <path class="fil146" d="M300 370l51 81 0 2 -52 -83 1 0zm74 117l29 46 0 2 -29 -46 0 -2z"/>
   <path class="fil147" d="M301 370l50 79 0 2 -51 -81 1 0zm73 115l29 46 0 2 -29 -46 0 -2z"/>
   <path class="fil148" d="M302 370l49 77 0 2 -50 -79 1 0zm72 113l29 46 0 2 -29 -46 0 -2z"/>
   <path class="fil149" d="M304 370l47 75 0 2 -49 -77 2 0zm70 111l29 46 0 2 -29 -46 0 -2z"/>
   <path class="fil150" d="M305 370l46 73 0 2 -47 -75 1 0zm69 109l29 46 0 2 -29 -46 0 -2z"/>
   <path class="fil151" d="M306 370l45 71 0 2 -46 -73 1 0zm68 107l29 46 0 2 -29 -46 0 -2z"/>
   <path class="fil152" d="M307 370l44 69 0 2 -45 -71 1 0zm67 105l29 46 0 2 -29 -46 0 -2z"/>
   <path class="fil153" d="M309 370l42 67 0 2 -44 -69 2 0zm65 103l29 46 0 2 -29 -46 0 -2z"/>
   <path class="fil154" d="M310 370l41 65 0 2 -42 -67 1 0zm64 101l29 46 0 2 -29 -46 0 -2z"/>
   <path class="fil155" d="M311 370l40 63 0 2 -41 -65 1 0zm63 99l29 46 0 2 -29 -46 0 -2z"/>
   <path class="fil156" d="M313 370l38 61 0 2 -40 -63 2 0zm61 97l29 46 0 2 -29 -46 0 -2z"/>
   <path class="fil157" d="M314 370l37 59 0 2 -38 -61 1 0zm60 95l29 46 0 2 -29 -46 0 -2z"/>
   <path class="fil158" d="M315 370l36 57 0 2 -37 -59 1 0zm59 93l29 46 0 2 -29 -46 0 -2z"/>
   <path class="fil159" d="M316 370l35 55 0 2 -36 -57 1 0zm58 91l29 46 0 2 -29 -46 0 -2z"/>
   <path class="fil160" d="M318 370l33 53 0 2 -35 -55 2 0zm56 89l29 46 0 2 -29 -46 0 -2z"/>
   <path class="fil161" d="M319 370l32 51 0 2 -33 -53 1 0zm55 87l29 46 0 2 -29 -46 0 -2z"/>
   <path class="fil162" d="M320 370l31 49 0 2 -32 -51 1 0zm54 85l29 46 0 2 -29 -46 0 -2z"/>
   <path class="fil163" d="M322 370l29 47 0 2 -31 -49 2 0zm52 83l29 46 0 2 -29 -46 0 -2z"/>
   <path class="fil164" d="M323 370l28 45 0 2 -29 -47 1 0zm51 81l29 46 0 2 -29 -46 0 -2z"/>
   <path class="fil165" d="M324 370l27 43 0 2 -28 -45 1 0zm50 79l29 46 0 2 -29 -46 0 -2z"/>
   <path class="fil166" d="M325 370l26 40 0 3 -27 -43 1 0zm49 77l29 46 0 2 -29 -46 0 -2z"/>
   <path class="fil167" d="M327 370l24 38 0 2 -26 -40 2 0zm47 75l29 46 0 2 -29 -46 0 -2z"/>
   <path class="fil168" d="M328 370l23 36 0 2 -24 -38 1 0zm46 73l29 46 0 2 -29 -46 0 -2z"/>
   <path class="fil169" d="M329 370l22 34 0 2 -23 -36 1 0zm45 71l29 46 0 2 -29 -46 0 -2z"/>
   <path class="fil170" d="M330 370l21 32 0 2 -22 -34 1 0zm44 69l29 46 0 2 -29 -46 0 -2z"/>
   <path class="fil171" d="M332 370l19 30 0 2 -21 -32 2 0zm42 67l29 46 0 2 -29 -46 0 -2z"/>
   <path class="fil172" d="M333 370l19 30 -1 0 0 0 -19 -30 1 0zm41 65l29 46 0 2 -29 -46 0 -2z"/>
   <path class="fil173" d="M334 370l19 30 -1 0 -19 -30 1 0zm40 63l29 46 0 2 -29 -46 0 -2z"/>
   <path class="fil174" d="M336 370l18 30 -1 0 -19 -30 2 0zm38 61l29 46 0 2 -29 -46 0 -2z"/>
   <path class="fil175" d="M337 370l19 30 -2 0 -18 -30 1 0zm37 59l29 46 0 2 -29 -46 0 -2z"/>
   <path class="fil176" d="M338 370l19 30 -1 0 -19 -30 1 0zm36 57l29 46 0 2 -29 -46 0 -2z"/>
   <path class="fil177" d="M339 370l19 30 -1 0 -19 -30 1 0zm35 55l29 46 0 2 -29 -46 0 -2z"/>
   <path class="fil178" d="M341 370l19 30 -2 0 -19 -30 2 0zm33 53l29 46 0 2 -29 -46 0 -2z"/>
   <path class="fil179" d="M342 370l19 30 -1 0 -19 -30 1 0zm32 51l29 46 0 2 -29 -46 0 -2z"/>
   <path class="fil180" d="M343 370l19 30 -1 0 -19 -30 1 0zm31 49l29 46 0 2 -29 -46 0 -2z"/>
   <path class="fil181" d="M344 370l19 30 -1 0 -19 -30 1 0zm30 47l29 46 0 2 -29 -46 0 -2z"/>
   <path class="fil182" d="M346 370l19 30 -2 0 -19 -30 2 0zm28 45l29 46 0 2 -29 -46 0 -2z"/>
   <path class="fil183" d="M347 370l19 30 -1 0 -19 -30 1 0zm27 43l29 46 0 2 -29 -46 0 -2z"/>
   <path class="fil184" d="M348 370l19 30 -1 0 -19 -30 1 0zm26 41l29 46 0 2 -29 -46 0 -2z"/>
   <path class="fil185" d="M350 370l18 30 -1 0 -19 -30 2 0zm24 39l29 46 0 2 -29 -46 0 -2z"/>
   <path class="fil186" d="M351 370l19 30 -2 0 -18 -30 1 0zm23 37l29 45 0 3 -29 -46 0 -2z"/>
   <path class="fil187" d="M352 370l19 30 -1 0 -19 -30 1 0zm22 35l29 45 0 2 -29 -45 0 -2z"/>
   <path class="fil188" d="M353 370l19 30 -1 0 -19 -30 1 0zm21 33l29 45 0 2 -29 -45 0 -2z"/>
   <path class="fil189" d="M355 370l19 30 -2 0 -19 -30 2 0zm19 31l29 45 0 2 -29 -45 0 -2z"/>
   <polygon class="fil190" points="356,370 403,444 403,446 374,401 374,400 374,400 355,370 "/>
   <polygon class="fil191" points="357,370 403,442 403,444 356,370 "/>
   <polygon class="fil192" points="358,370 403,440 403,442 357,370 "/>
   <polygon class="fil193" points="360,370 403,438 403,440 358,370 "/>
   <polygon class="fil194" points="361,370 403,436 403,438 360,370 "/>
   <polygon class="fil195" points="362,370 403,434 403,436 361,370 "/>
   <polygon class="fil196" points="364,370 403,432 403,434 362,370 "/>
   <polygon class="fil197" points="365,370 403,430 403,432 364,370 "/>
   <polygon class="fil198" points="366,370 403,428 403,430 365,370 "/>
   <polygon class="fil199" points="367,370 403,426 403,428 366,370 "/>
   <polygon class="fil200" points="369,370 403,424 403,426 367,370 "/>
   <polygon class="fil201" points="370,370 403,422 403,424 369,370 "/>
   <polygon class="fil202" points="371,370 403,420 403,422 370,370 "/>
   <polygon class="fil203" points="372,370 403,418 403,420 371,370 "/>
   <polygon class="fil204" points="374,370 403,416 403,418 372,370 "/>
   <polygon class="fil205" points="375,370 403,414 403,416 374,370 "/>
   <polygon class="fil206" points="376,370 403,412 403,414 375,370 "/>
   <polygon class="fil207" points="378,370 403,410 403,412 376,370 "/>
   <polygon class="fil208" points="379,370 403,408 403,410 378,370 "/>
   <polygon class="fil209" points="380,370 403,406 403,408 379,370 "/>
   <polygon class="fil210" points="381,370 403,404 403,406 380,370 "/>
   <polygon class="fil211" points="383,370 403,402 403,404 381,370 "/>
   <polygon class="fil212" points="384,370 403,400 403,402 383,370 "/>
   <polygon class="fil213" points="385,370 403,398 403,400 384,370 "/>
   <polygon class="fil214" points="386,370 403,396 403,398 385,370 "/>
   <polygon class="fil215" points="388,370 403,394 403,396 386,370 "/>
   <polygon class="fil216" points="389,370 403,392 403,394 388,370 "/>
   <polygon class="fil217" points="390,370 403,390 403,392 389,370 "/>
   <polygon class="fil218" points="392,370 403,388 403,390 390,370 "/>
   <polygon class="fil219" points="393,370 403,386 403,388 392,370 "/>
   <polygon class="fil220" points="394,370 403,384 403,386 393,370 "/>
   <polygon class="fil221" points="395,370 403,382 403,384 394,370 "/>
   <polygon class="fil222" points="397,370 403,380 403,382 395,370 "/>
   <polygon class="fil223" points="398,370 403,378 403,380 397,370 "/>
   <polygon class="fil224" points="399,370 403,376 403,378 398,370 "/>
   <polygon class="fil225" points="400,370 403,374 403,376 399,370 "/>
   <polygon class="fil226" points="402,370 403,372 403,374 400,370 "/>
   <polygon class="fil227" points="403,370 403,370 403,372 402,370 "/>
   <polygon class="fil228" points="403,370 403,370 403,370 "/>
   <path class="fil11" d="M300 558l1 0 -8 -5 0 4 1 0 0 -1c-4,1 -6,4 -6,8l0 0 0 2 1 -2c1,-2 3,-4 5,-4l0 0 -1 0 0 4 8 -6 0 0 -1 0 0 0 -6 4 0 -3 0 0c-3,0 -5,2 -6,5l0 0 1 0 0 0c0,-4 2,-6 5,-7l0 0 0 -2 6 4 0 -1 0 0 0 0z"/>
   <path class="fil11" d="M273 554l0 0c-3,0 -5,2 -5,5 0,1 0,2 1,3l0 0 0 0 -2 3 4 -2 0 0 -1 0c1,1 2,1 3,1 3,0 5,-2 5,-5 0,-3 -2,-5 -5,-5l0 0 0 1c2,0 4,2 4,4 0,1 -1,2 -1,3 -1,0 -2,1 -3,1 -1,0 -2,0 -2,-1l0 0 -1 1 0 -1 0 0 0 -1c-1,0 -1,-1 -1,-2 0,-1 0,-2 1,-3 1,-1 2,-1 3,-1l0 -1z"/>
   <path class="fil11" d="M258 557l0 0c0,-2 -2,-3 -3,-3 -2,0 -3,0 -3,1l0 0 1 0c-1,-1 -2,-1 -3,-1 -2,0 -4,1 -4,3 0,2 1,3 2,3l0 0 0 -1 0 0 -1 1 5 5 5 -5 -1 -1 0 1 0 0c1,0 2,-1 2,-3l0 0 -1 0c0,1 0,2 -1,2l-1 1 0 0 -3 3 -3 -4 -1 1 1 0 0 0 0 0 0 -1c-1,0 -2,-1 -2,-2 0,-1 1,-2 3,-2 1,0 1,0 2,1l0 0 1 0c0,-1 1,-1 2,-1 1,0 2,1 2,2l1 0z"/>
   <path class="fil11" d="M253 573c0,-1 -1,-2 -2,-2 0,0 -1,0 -1,1 0,-1 -1,-1 -1,-1 -1,0 -2,1 -2,2 0,1 0,1 1,1l0 1 2 2 2 -2 0 -1c1,0 1,0 1,-1z"/>
   <polygon class="fil11" points="257,572 257,573 258,573 258,577 259,577 259,572 "/>
   <polygon class="fil11" points="263,572 261,575 261,576 263,576 263,577 264,577 264,576 265,576 265,575 264,575 264,574 263,574 263,575 262,575 263,572 "/>
   <path class="fil11" d="M266 576c-1,0 -1,0 -1,0 0,1 0,1 0,1l0 0 1 0 0 0c0,0 0,0 0,-1 0,0 0,0 0,0l0 0z"/>
   <path class="fil11" d="M269 574l-2 2 0 1 3 0 0 -1 -2 0 1 -1c1,-1 1,-1 1,-2 0,0 -1,-1 -2,-1 0,0 -1,0 -1,1l0 0c0,0 1,0 1,0 1,0 1,0 1,0 0,1 0,1 0,1l0 0z"/>
   <polygon class="fil11" points="271,572 271,573 272,573 272,573 274,573 272,577 273,577 275,573 275,572 "/>
   <path class="fil11" d="M277 572c-1,0 -2,1 -2,1 0,1 1,1 1,1 -1,1 -1,1 -1,2 0,0 1,1 2,1 1,0 2,-1 2,-1 0,-1 -1,-1 -1,-2 0,0 0,0 0,-1 0,0 0,-1 -1,-1l0 0zm0 1c0,0 1,0 1,0 0,1 -1,1 -1,1 -1,0 -1,0 -1,-1 0,0 0,0 1,0l0 0zm0 2c1,0 1,0 1,0 0,1 0,1 -1,1 -1,0 -1,0 -1,-1 0,0 0,0 1,0l0 0z"/>
   <polygon class="fil11" points="282,572 282,577 282,577 282,572 "/>
   <path class="fil11" d="M284 572c0,0 -1,0 -1,0 0,0 1,1 1,1 0,0 0,-1 0,-1 0,0 0,0 0,0l0 0zm0 1l0 4 0 0 0 -4 0 0z"/>
   <polygon class="fil11" points="288,577 289,577 287,575 289,573 288,573 286,575 286,572 286,572 286,577 286,577 286,576 287,575 "/>
   <path class="fil11" d="M291 573c-1,0 -2,1 -2,2 0,1 1,2 2,2 0,0 1,0 1,-1l0 0c0,0 -1,0 -1,0 -1,0 -1,0 -1,-1l3 0c0,-1 -1,-2 -2,-2l0 0zm-1 2c0,-1 0,-1 1,-1 0,0 1,0 1,1l-2 0z"/>
   <path class="fil11" d="M295 574l1 0c-1,-1 -1,-1 -2,-1 0,0 -1,1 -1,1 0,2 2,1 2,2 0,0 0,0 -1,0 0,0 0,0 -1,0l0 0c0,1 1,1 1,1 1,0 2,0 2,-1 0,-1 -2,-1 -2,-2 0,0 0,0 0,0 1,0 1,0 1,0l0 0z"/>
   <path class="fil69" d="M242 644l0 1 0 0c0,0 0,-1 0,-1z"/>
   <path class="fil70" d="M242 643l1 2 -1 0 0 -1c0,0 0,-1 0,-1z"/>
   <path class="fil71" d="M242 641l3 4 -2 0 -1 -2 0 0c0,-1 0,-1 0,-2z"/>
   <path class="fil72" d="M243 640l3 5 -1 0 -3 -4c1,0 1,0 1,-1z"/>
   <path class="fil73" d="M230 619l1 1c0,0 0,0 -1,0l0 -1zm13 20l4 6 -1 0 -3 -5c0,0 0,-1 0,-1z"/>
   <path class="fil74" d="M230 617l2 2c0,1 -1,1 -1,1l-1 -1 0 -2zm13 20l5 8 -1 0 -4 -6c0,-1 0,-1 0,-2z"/>
   <path class="fil75" d="M230 615l3 4c0,0 -1,0 -1,0l-2 -2 0 -2zm14 21l5 9 -1 0 -5 -8c1,0 1,-1 1,-1z"/>
   <path class="fil76" d="M230 613l4 6c0,0 -1,0 -1,0l-3 -4 0 -2zm14 22l7 10 -2 0 -5 -9c0,0 0,-1 0,-1z"/>
   <path class="fil77" d="M230 611l5 7c0,0 -1,1 -1,1l-4 -6 0 -2zm14 22l8 12 -1 0 -7 -10c0,-1 0,-1 0,-2z"/>
   <path class="fil78" d="M230 609l6 9c0,0 0,0 -1,0 0,0 0,0 0,0l-5 -7 0 -2zm15 22l8 14 -1 0 -8 -12c0,0 0,-1 1,-2z"/>
   <path class="fil79" d="M230 607l7 11c0,0 -1,0 -1,0l-6 -9 0 -2zm15 23l9 15 -1 0 -8 -14c0,0 0,-1 0,-1z"/>
   <path class="fil80" d="M230 605l8 12c0,1 -1,1 -1,1l-7 -11 0 -2zm15 23l10 17 -1 0 -9 -15c0,-1 0,-1 0,-2z"/>
   <path class="fil81" d="M230 603l9 14 0 0c0,0 -1,0 -1,0l-8 -12 0 -2zm15 23l12 19 -2 0 -10 -17c0,0 0,-1 0,-2z"/>
   <path class="fil82" d="M230 601l11 17c-1,-1 -1,-1 -2,-1l-9 -14 0 -2zm15 24l13 20 -1 0 -12 -19 0 0c0,0 0,-1 0,-1z"/>
   <path class="fil83" d="M230 599l12 19c0,0 -1,0 -1,0l-11 -17 0 -2zm15 23l14 23 -1 0 -13 -20c0,-1 0,-2 0,-3z"/>
   <path class="fil84" d="M230 597l30 48 -1 0 -14 -23c-1,-1 -1,-3 -3,-4 0,0 0,0 0,0l-12 -19 0 -2z"/>
   <polygon class="fil85" points="230,596 261,645 260,645 230,597 "/>
   <polygon class="fil86" points="230,594 263,645 261,645 230,596 "/>
   <polygon class="fil87" points="230,592 264,645 263,645 230,594 "/>
   <polygon class="fil88" points="230,590 230,590 230,590 265,645 264,645 230,592 "/>
   <polygon class="fil89" points="232,590 266,645 265,645 230,590 "/>
   <polygon class="fil90" points="233,590 268,645 266,645 232,590 "/>
   <polygon class="fil91" points="234,590 269,645 268,645 233,590 "/>
   <polygon class="fil92" points="235,590 270,645 269,645 234,590 "/>
   <polygon class="fil93" points="237,590 271,645 270,645 235,590 "/>
   <polygon class="fil94" points="238,590 272,645 271,645 237,590 "/>
   <polygon class="fil95" points="239,590 274,645 272,645 238,590 "/>
   <polygon class="fil96" points="240,590 275,645 274,645 239,590 "/>
   <polygon class="fil97" points="241,590 276,645 275,645 240,590 "/>
   <polygon class="fil98" points="243,590 277,645 276,645 241,590 "/>
   <polygon class="fil99" points="244,590 278,645 277,645 243,590 "/>
   <polygon class="fil100" points="245,590 280,645 278,645 244,590 "/>
   <polygon class="fil101" points="246,590 281,645 280,645 245,590 "/>
   <polygon class="fil102" points="247,590 282,645 281,645 246,590 "/>
   <polygon class="fil103" points="249,590 283,645 282,645 247,590 "/>
   <polygon class="fil104" points="250,590 284,645 283,645 249,590 "/>
   <polygon class="fil105" points="251,590 286,645 284,645 250,590 "/>
   <polygon class="fil106" points="252,590 287,645 286,645 251,590 "/>
   <polygon class="fil107" points="253,590 288,645 287,645 252,590 "/>
   <polygon class="fil108" points="255,590 289,645 288,645 253,590 "/>
   <polygon class="fil109" points="256,590 291,645 289,645 255,590 "/>
   <polygon class="fil110" points="257,590 292,645 291,645 256,590 "/>
   <polygon class="fil111" points="258,590 293,645 292,645 257,590 "/>
   <polygon class="fil112" points="260,590 294,645 293,645 258,590 "/>
   <polygon class="fil113" points="261,590 295,645 294,645 260,590 "/>
   <polygon class="fil114" points="262,590 297,645 295,645 261,590 "/>
   <polygon class="fil115" points="263,590 298,645 297,645 262,590 "/>
   <polygon class="fil116" points="264,590 299,645 298,645 263,590 "/>
   <polygon class="fil117" points="266,590 300,645 299,645 264,590 "/>
   <polygon class="fil118" points="267,590 301,645 300,645 266,590 "/>
   <polygon class="fil119" points="268,590 303,645 301,645 267,590 "/>
   <polygon class="fil120" points="269,590 304,645 303,645 268,590 "/>
   <polygon class="fil121" points="270,590 305,645 304,645 269,590 "/>
   <polygon class="fil122" points="272,590 306,645 305,645 270,590 "/>
   <polygon class="fil123" points="273,590 307,645 306,645 272,590 "/>
   <polygon class="fil124" points="274,590 309,645 307,645 273,590 "/>
   <polygon class="fil125" points="275,590 310,645 309,645 274,590 "/>
   <polygon class="fil126" points="276,590 311,645 310,645 275,590 "/>
   <polygon class="fil126" points="278,590 312,645 311,645 276,590 "/>
   <polygon class="fil127" points="279,590 314,645 312,645 278,590 "/>
   <polygon class="fil128" points="280,590 315,645 314,645 279,590 "/>
   <polygon class="fil129" points="281,590 316,645 315,645 280,590 "/>
   <polygon class="fil130" points="283,590 317,645 316,645 281,590 "/>
   <polygon class="fil131" points="284,590 318,645 317,645 283,590 "/>
   <polygon class="fil132" points="285,590 320,645 318,645 284,590 "/>
   <polygon class="fil133" points="286,590 321,645 320,645 285,590 "/>
   <polygon class="fil134" points="287,590 322,645 321,645 286,590 "/>
   <polygon class="fil135" points="289,590 323,645 322,645 287,590 "/>
   <polygon class="fil136" points="290,590 324,645 323,645 289,590 "/>
   <polygon class="fil137" points="291,590 326,645 324,645 290,590 "/>
   <polygon class="fil138" points="292,590 327,645 326,645 291,590 "/>
   <polygon class="fil139" points="293,590 328,645 327,645 292,590 "/>
   <polygon class="fil140" points="295,590 329,645 328,645 293,590 "/>
   <polygon class="fil141" points="296,590 331,645 329,645 295,590 "/>
   <polygon class="fil142" points="297,590 332,645 331,645 296,590 "/>
   <polygon class="fil143" points="298,590 333,645 332,645 297,590 "/>
   <polygon class="fil144" points="299,590 334,645 333,645 298,590 "/>
   <polygon class="fil145" points="301,590 335,645 334,645 299,590 "/>
   <polygon class="fil146" points="302,590 337,645 335,645 301,590 "/>
   <polygon class="fil147" points="303,590 338,645 337,645 302,590 "/>
   <polygon class="fil148" points="304,590 339,645 338,645 303,590 "/>
   <polygon class="fil149" points="306,590 340,645 339,645 304,590 "/>
   <polygon class="fil150" points="307,590 341,645 340,645 306,590 "/>
   <polygon class="fil151" points="308,590 343,645 341,645 307,590 "/>
   <polygon class="fil152" points="309,590 344,645 343,645 308,590 "/>
   <polygon class="fil153" points="310,590 345,645 344,645 309,590 "/>
   <polygon class="fil154" points="312,590 346,645 345,645 310,590 "/>
   <polygon class="fil155" points="313,590 347,645 346,645 312,590 "/>
   <polygon class="fil156" points="314,590 349,645 347,645 313,590 "/>
   <polygon class="fil157" points="315,590 350,645 349,645 314,590 "/>
   <polygon class="fil158" points="316,590 351,645 350,645 315,590 "/>
   <polygon class="fil159" points="318,590 352,645 351,645 316,590 "/>
   <polygon class="fil160" points="319,590 354,645 352,645 318,590 "/>
   <polygon class="fil161" points="320,590 355,645 354,645 319,590 "/>
   <polygon class="fil162" points="321,590 356,645 355,645 320,590 "/>
   <polygon class="fil163" points="322,590 357,645 356,645 321,590 "/>
   <polygon class="fil164" points="324,590 358,645 357,645 322,590 "/>
   <polygon class="fil165" points="325,590 360,645 358,645 324,590 "/>
   <polygon class="fil166" points="326,590 361,645 360,645 325,590 "/>
   <polygon class="fil167" points="327,590 362,645 361,645 326,590 "/>
   <polygon class="fil168" points="329,590 363,645 362,645 327,590 "/>
   <polygon class="fil169" points="330,590 364,645 363,645 329,590 "/>
   <polygon class="fil170" points="331,590 366,645 364,645 330,590 "/>
   <polygon class="fil171" points="332,590 367,645 366,645 331,590 "/>
   <polygon class="fil172" points="333,590 368,645 367,645 332,590 "/>
   <polygon class="fil173" points="335,590 369,645 368,645 333,590 "/>
   <polygon class="fil174" points="336,590 370,645 369,645 335,590 "/>
   <polygon class="fil175" points="337,590 372,645 370,645 336,590 "/>
   <polygon class="fil176" points="338,590 373,645 372,645 337,590 "/>
   <polygon class="fil177" points="339,590 374,645 373,645 338,590 "/>
   <polygon class="fil178" points="341,590 375,645 374,645 339,590 "/>
   <polygon class="fil179" points="342,590 377,645 375,645 341,590 "/>
   <polygon class="fil180" points="343,590 378,645 377,645 342,590 "/>
   <polygon class="fil181" points="344,590 379,645 378,645 343,590 "/>
   <polygon class="fil182" points="346,590 380,645 379,645 344,590 "/>
   <polygon class="fil183" points="347,590 381,645 380,645 346,590 "/>
   <polygon class="fil184" points="348,590 383,645 381,645 347,590 "/>
   <polygon class="fil185" points="349,590 384,645 383,645 348,590 "/>
   <polygon class="fil186" points="350,590 385,645 384,645 349,590 "/>
   <polygon class="fil187" points="352,590 386,645 385,645 350,590 "/>
   <polygon class="fil188" points="353,590 387,645 386,645 352,590 "/>
   <polygon class="fil189" points="354,590 389,645 387,645 353,590 "/>
   <polygon class="fil190" points="355,590 390,645 389,645 354,590 "/>
   <polygon class="fil191" points="356,590 391,645 390,645 355,590 "/>
   <polygon class="fil192" points="358,590 392,645 391,645 356,590 "/>
   <polygon class="fil193" points="359,590 393,645 392,645 358,590 "/>
   <polygon class="fil194" points="360,590 395,645 393,645 359,590 "/>
   <polygon class="fil195" points="361,590 396,645 395,645 360,590 "/>
   <polygon class="fil196" points="362,590 397,645 396,645 361,590 "/>
   <polygon class="fil197" points="364,590 398,645 397,645 362,590 "/>
   <polygon class="fil198" points="365,590 400,645 398,645 364,590 "/>
   <polygon class="fil199" points="366,590 401,645 400,645 365,590 "/>
   <polygon class="fil200" points="367,590 402,645 401,645 366,590 "/>
   <polygon class="fil201" points="369,590 403,645 402,645 367,590 "/>
   <polygon class="fil202" points="370,590 403,643 403,645 403,645 369,590 "/>
   <polygon class="fil203" points="371,590 403,641 403,643 370,590 "/>
   <polygon class="fil204" points="372,590 403,639 403,641 371,590 "/>
   <polygon class="fil205" points="373,590 403,637 403,639 372,590 "/>
   <polygon class="fil206" points="375,590 403,635 403,637 373,590 "/>
   <polygon class="fil207" points="376,590 403,633 403,635 375,590 "/>
   <polygon class="fil208" points="377,590 403,632 403,633 376,590 "/>
   <polygon class="fil209" points="378,590 403,630 403,632 377,590 "/>
   <polygon class="fil210" points="379,590 403,628 403,630 378,590 "/>
   <polygon class="fil211" points="381,590 403,626 403,628 379,590 "/>
   <polygon class="fil212" points="382,590 403,624 403,626 381,590 "/>
   <polygon class="fil213" points="383,590 403,622 403,624 382,590 "/>
   <polygon class="fil214" points="384,590 403,620 403,622 383,590 "/>
   <polygon class="fil215" points="385,590 403,618 403,620 384,590 "/>
   <polygon class="fil216" points="387,590 403,616 403,618 385,590 "/>
   <polygon class="fil217" points="388,590 403,614 403,616 387,590 "/>
   <polygon class="fil218" points="389,590 403,612 403,614 388,590 "/>
   <polygon class="fil219" points="390,590 403,610 403,612 389,590 "/>
   <polygon class="fil220" points="392,590 403,609 403,610 390,590 "/>
   <polygon class="fil221" points="393,590 403,607 403,609 392,590 "/>
   <polygon class="fil222" points="394,590 403,605 403,607 393,590 "/>
   <polygon class="fil223" points="395,590 403,603 403,605 394,590 "/>
   <polygon class="fil224" points="396,590 403,601 403,603 395,590 "/>
   <polygon class="fil225" points="398,590 403,599 403,601 396,590 "/>
   <polygon class="fil226" points="399,590 403,597 403,599 398,590 "/>
   <polygon class="fil227" points="400,590 403,595 403,597 399,590 "/>
   <polygon class="fil228" points="401,590 403,593 403,595 400,590 "/>
   <polygon class="fil229" points="402,590 403,591 403,593 401,590 "/>
   <polygon class="fil230" points="403,591 402,590 403,590 "/>
   <polygon class="fil1" points="351,400 374,400 374,530 351,530 "/>
   <polygon class="fil1" points="360,530 351,530 351,400 360,400 "/>
   <polygon class="fil1" points="316,454 340,454 340,530 316,530 "/>
   <polygon class="fil231" points="316,454 316,454 "/>
   <polygon class="fil120" points="318,454 316,454 "/>
   <polygon class="fil120" points="319,454 318,454 "/>
   <polygon class="fil121" points="320,454 319,454 "/>
   <polygon class="fil122" points="322,454 320,454 "/>
   <polygon class="fil232" points="323,454 322,454 "/>
   <polygon class="fil124" points="324,454 323,454 "/>
   <polygon class="fil125" points="325,454 324,454 "/>
   <polygon class="fil126" points="325,454 325,454 "/>
   <polygon class="fil1" points="325,530 316,530 316,454 325,454 "/>
   <polygon class="fil1" points="282,479 305,479 305,530 282,530 "/>
   <polygon class="fil1" points="291,530 282,530 282,479 291,479 "/>
   <polygon class="fil1" points="247,500 270,500 270,530 247,530 "/>
   <polygon class="fil1" points="256,530 247,530 247,500 256,500 "/>
   <polygon class="fil233" points="260,490 287,513 303,483 323,506 395,411 392,409 323,501 302,478 286,508 262,487 "/>
   <path class="fil233" d="M393 434c-1,0 -2,0 -2,-1l2 -23 -21 8c-1,1 -1,0 -2,-1 0,0 0,-1 1,-1l23 -9c1,0 1,0 2,0 0,0 0,1 0,1l-2 25c0,0 0,1 0,1 0,0 -1,0 -1,0z"/>
   <path class="fil233" d="M290 511c0,2 -2,3 -4,3 -2,0 -3,-1 -3,-3 0,-2 1,-4 3,-4 2,0 4,2 4,4z"/>
   <path class="fil233" d="M290 511l-2 0c0,1 -1,2 -2,2 -1,0 -2,-1 -2,-2 0,-1 1,-2 2,-2 1,0 2,1 2,2l2 0 2 0c0,-3 -3,-5 -6,-5 -2,0 -5,2 -5,5 0,3 3,5 5,5 3,0 6,-2 6,-5l-2 0z"/>
   <path class="fil233" d="M306 481c0,1 -2,3 -4,3 -2,0 -3,-2 -3,-3 0,-2 1,-4 3,-4 2,0 4,2 4,4z"/>
   <path class="fil233" d="M306 481l-2 0c0,1 -1,1 -2,1 -1,0 -2,0 -2,-1 0,-2 1,-2 2,-2 1,0 2,0 2,2l2 0 1 0c0,-3 -2,-6 -5,-6 -3,0 -5,3 -5,6 0,2 2,5 5,5 3,0 5,-3 5,-5l-1 0z"/>
   <path class="fil233" d="M327 504c0,2 -2,3 -4,3 -2,0 -3,-1 -3,-3 0,-2 1,-4 3,-4 2,0 4,2 4,4z"/>
   <path class="fil233" d="M327 504l-2 0c0,1 -1,2 -2,2 -1,0 -2,-1 -2,-2 0,-1 1,-2 2,-2 1,0 2,1 2,2l2 0 1 0c0,-3 -2,-6 -5,-6 -3,0 -5,3 -5,6 0,2 2,5 5,5 3,0 5,-3 5,-5l-1 0z"/>
   <path class="fil7" d="M342 340l-51 0c0,0 -1,0 -1,-1 0,0 1,-1 1,-1l51 0c1,0 1,1 1,1 0,1 0,1 -1,1z"/>
   <path class="fil7" d="M283 341c1,0 2,-1 2,-2 0,-1 -1,-2 -2,-2 -1,0 -2,1 -2,2 0,1 1,2 2,2z"/>
   <path class="fil7" d="M350 341c2,0 2,-1 2,-2 0,-1 0,-2 -2,-2 -1,0 -2,1 -2,2 0,1 1,2 2,2z"/>
   <path class="fil4" d="M232 693c-1,2 -3,3 -5,4 -2,0 -5,0 -7,0 -12,-3 -23,-10 -30,-19 -7,-10 -11,-22 -10,-34 0,-3 1,-6 3,-7 2,-1 3,0 5,-1 3,0 5,-4 5,-7 0,-3 -1,-6 -2,-9 -2,-6 -3,-12 -2,-18 0,-6 3,-12 7,-17 4,-3 9,-5 13,-3 3,2 4,5 5,8 1,4 2,7 3,11 0,4 1,8 2,12 2,4 6,7 10,7 2,0 4,-1 6,-2 3,-1 5,-1 7,0 3,2 3,5 3,8 0,6 -1,11 -3,17 0,1 -1,2 0,2 0,2 2,3 4,2 2,0 3,-1 5,-1 4,-1 8,2 9,6 2,4 1,8 0,12 -3,12 -11,24 -22,30 -2,1 -4,2 -6,1l0 -2z"/>
   <path class="fil5" d="M223 686c-1,0 -1,0 -1,0 -3,-5 -5,-9 -7,-14 0,0 0,0 1,0 1,-1 1,-3 0,-3 -1,0 -1,0 -1,0 0,0 -1,0 -1,0 -2,-4 -4,-8 -5,-12 0,1 1,1 1,1 0,0 1,0 1,0 0,-1 0,-1 1,-1 3,8 6,16 10,23 0,1 -1,1 -1,1 -2,0 -1,2 0,2 0,0 0,0 1,0 0,0 1,0 1,0 0,0 1,1 1,1 1,1 0,2 -1,2zm-14 -30c-7,-20 -10,-42 -9,-64 0,-1 1,-1 1,-1 1,0 1,0 1,1 -1,21 2,43 9,63 -1,0 -1,0 -2,0 0,1 0,1 0,1z"/>
   <path class="fil5" d="M209 657c0,0 0,0 0,-1 0,1 0,1 0,1zm3 0c-1,-1 -1,-2 -1,-2 9,-6 17,-15 21,-25 0,0 0,-1 1,-1 1,0 1,1 1,2 -4,11 -12,20 -22,26z"/>
   <path class="fil6" d="M210 658c0,0 -1,0 -1,-1 0,0 0,0 0,-1 0,0 0,0 0,-1 1,0 1,0 2,0 0,0 0,1 1,2 -1,0 -1,0 -1,1 0,0 -1,0 -1,0z"/>
   <path class="fil5" d="M223 683c0,-1 -1,-2 -1,-3 10,-3 18,-9 24,-18 0,0 1,0 1,0 1,0 2,1 1,2 -6,8 -15,15 -25,19z"/>
   <path class="fil6" d="M221 683c-1,0 -2,-2 0,-2 0,0 1,0 1,-1 0,1 1,2 1,3 0,0 -1,0 -1,0 -1,0 -1,0 -1,0z"/>
   <path class="fil5" d="M213 672c-4,0 -8,-2 -12,-4 -5,-3 -10,-8 -12,-14 0,-1 1,-2 2,-2 0,0 1,1 1,1 2,6 6,10 11,13 2,1 6,3 10,3 0,0 0,0 1,0 0,1 0,2 1,3 -1,0 -1,0 -2,0z"/>
   <path class="fil6" d="M215 672c-1,-1 -1,-2 -1,-3 0,0 1,0 1,0 0,0 0,0 1,0 1,0 1,2 0,3 -1,0 -1,0 -1,0z"/>
   <path class="fil234" d="M143 431c-1,-2 -3,-2 -5,-2 -3,0 -4,1 -6,3 -3,2 -4,5 -5,9 -1,4 1,9 1,13 -1,4 -6,8 -9,11 -7,6 -18,1 -26,6 -4,3 -6,7 -6,12 -1,4 1,9 3,13 2,4 4,7 8,10 4,3 10,4 16,5 25,1 51,-12 65,-33 4,-6 13,-16 13,-32 -1,-10 -7,-22 -15,-27 -9,-5 -21,-4 -29,2 -3,3 -6,6 -6,10l1 0z"/>
   <path class="fil234" d="M144 430c-8,-7 -16,3 -18,11 -1,6 3,12 -1,17 -5,6 -11,9 -19,9 -9,1 -19,3 -20,14 -2,11 6,24 16,28 10,4 23,3 33,1 12,-3 23,-9 32,-17 7,-6 14,-15 19,-23 6,-10 8,-21 5,-31 -3,-12 -11,-22 -23,-24 -11,-1 -26,4 -27,16 0,1 1,1 2,0 1,-12 18,-16 28,-13 11,3 17,14 19,24 2,10 -1,20 -6,28 -5,7 -10,14 -16,19 -14,14 -34,22 -54,21 -6,-1 -13,-2 -17,-6 -4,-4 -8,-10 -9,-15 -1,-7 0,-15 7,-18 4,-2 10,-1 15,-2 7,-1 15,-6 18,-12 2,-3 1,-7 0,-10 0,-4 0,-7 1,-10 2,-4 8,-10 13,-5 1,1 3,-1 2,-2z"/>
   <path class="fil235" d="M215 480c0,-2 -4,-15 -2,-16 2,0 2,5 3,5 2,1 2,-5 3,-6 0,-2 1,-5 4,-5 3,1 5,3 5,5 1,6 -2,16 -7,19l-6 -2z"/>
   <path class="fil235" d="M221 476l0 3 1 3c0,2 0,4 0,6 0,2 0,4 -1,6 0,2 0,4 0,5 0,2 0,4 -1,6 0,2 0,4 -1,6 0,4 -1,8 -2,12l-11 2c-2,-3 -5,-5 -7,-8l-8 -8c-2,-2 -5,-5 -8,-8 -1,-1 -2,-3 -3,-4 -1,-1 -2,-2 -2,-2 -1,-1 -1,-2 -2,-3l15 -10c0,1 1,2 1,2 1,1 1,2 2,3 0,1 1,2 2,4 2,3 4,5 7,8l6 9c2,3 5,6 7,9l-11 2c1,-4 3,-7 4,-11 0,-1 1,-3 1,-5 1,-2 1,-3 2,-5 0,-2 1,-4 1,-5 0,-2 1,-4 1,-6 0,-2 0,-3 1,-5l0 -3 0 -3 6 0z"/>
   <polygon class="fil234" points="221,454 226,481 221,483 211,457 "/>
   <path class="fil235" d="M217 449c1,5 -2,11 -7,12 -6,1 -11,-2 -13,-7 -1,-5 2,-11 7,-12 6,-2 11,1 13,7z"/>
   <path class="fil1" d="M264 436c1,3 -1,6 -4,7 -3,1 -6,-1 -7,-4 -1,-3 1,-6 4,-7 3,-1 6,1 7,4z"/>
   <path class="fil8" d="M213 460c6,-2 34,-4 53,4l-14 -53c-13,16 -38,28 -44,30l5 19z"/>
   <polygon class="fil234" points="211,438 204,440 210,463 217,461 "/>
   <path class="fil235" d="M222 465c-1,2 -1,4 1,5 1,1 3,1 4,-1 1,-2 0,-8 -3,-9 -1,0 -2,0 -3,1 -1,2 -1,4 0,6 0,2 1,5 2,6 2,1 4,-1 4,-3 1,-3 1,-11 -4,-11 -5,0 -2,8 -1,11 2,3 6,0 5,-3 -1,-1 -1,-2 -1,-3 -1,0 -1,-1 -1,-1 0,-1 0,-1 -1,0 -2,0 -2,0 -2,1 0,1 0,2 0,3 0,1 0,2 0,3 1,0 3,-1 4,-2 1,1 1,1 0,0 0,-1 0,-1 0,-2 0,-1 0,-2 0,-3 -1,1 -1,1 -1,2l0 0c-1,0 -2,0 -2,0 -1,0 -1,0 -1,1 0,0 0,1 0,1 1,-1 3,-1 4,-1l0 0c0,0 0,1 1,1 0,0 0,-1 0,-2 0,-3 -5,-3 -5,0z"/>
   <path class="fil235" d="M106 552c-1,1 -11,11 -13,9 -1,-2 3,-4 3,-4 0,-3 -5,-1 -6,0 -3,0 -6,1 -7,-2 -1,-2 1,-6 3,-7 4,-4 15,-5 20,-2l0 6z"/>
   <path class="fil235" d="M93 549l3 -1c1,0 2,-1 3,-1 1,0 1,0 2,-1 1,0 2,0 3,-1 2,0 4,-1 5,-2 1,0 2,0 3,-1 1,0 2,0 3,-1 3,-1 6,-3 10,-5 2,-1 3,-1 5,-2l3 -2 2 -1 -3 3 1 -3 1 -2c1,-2 1,-4 2,-5 1,-4 2,-8 3,-11 1,-4 2,-7 2,-10 1,-1 1,-2 1,-3 0,-1 0,-2 0,-2 0,-1 0,-2 0,-2l0 -1 0 -1 17 -2 0 2 0 2c0,1 0,2 0,3 0,1 0,3 -1,4 0,1 0,2 0,3 -1,4 -3,8 -4,12 -2,4 -3,7 -5,11 -1,2 -2,3 -3,5l-1 3 -2 3 -3 2 -3 2 -2 1c-2,0 -4,1 -6,1 -4,2 -7,3 -11,4 -1,0 -2,0 -3,1 -1,0 -2,0 -3,0 -2,1 -4,1 -6,2 -1,0 -2,0 -3,0 -1,1 -2,1 -3,1 -1,0 -2,0 -3,0l-3 1 -1 -6z"/>
   <path class="fil236" d="M157 537l-6 -13c1,-2 2,-4 3,-6 1,-4 3,-8 4,-12 0,-1 0,-2 0,-3 1,-1 1,-3 1,-4 0,0 0,0 0,0 3,-2 5,-3 8,-6 1,-1 3,-3 5,-4l5 45 -20 3z"/>
   <path class="fil237" d="M159 497c0,-1 0,-1 0,-1l0 -2 0 -2 -17 2c0,-4 3,-7 7,-9 3,-1 10,-3 15,-4l0 2c1,3 3,5 6,5 -1,0 -1,1 -2,1 -3,3 -5,5 -9,8z"/>
   <path class="fil237" d="M159 499c0,-1 0,-1 0,-2 4,-3 6,-5 9,-8 1,0 1,-1 2,-1 0,0 0,0 1,0 0,0 0,0 0,0l1 1c-2,1 -4,3 -5,4 -3,3 -5,4 -8,6z"/>
   <path class="fil237" d="M142 499c-1,-2 -1,-4 0,-5l0 1 0 1c0,0 0,1 0,2 0,0 0,1 0,1z"/>
   <path class="fil238" d="M151 524l-4 -12 -5 -13c0,0 0,0 0,0 0,0 0,-1 0,-1 0,-1 0,-2 0,-2l0 -1 0 -1c0,0 0,0 0,0l17 -2 0 2 0 2c0,0 0,0 0,1 0,1 0,1 0,2 0,0 0,0 0,0 0,1 0,3 -1,4 0,1 0,2 0,3 -1,4 -3,8 -4,12 -1,2 -2,4 -3,6z"/>
   <path class="fil8" d="M156 532c0,0 -3,2 -4,5 -4,6 -10,16 -10,33 0,23 35,0 35,0l0 -38 -21 0z"/>
   <path class="fil233" d="M170 479c0,0 12,1 16,1 5,1 8,7 8,13l0 13 -1 26 -16 2 -7 -55z"/>
   <path class="fil8" d="M193 532c0,0 2,2 3,5 2,6 7,16 7,33 0,23 -26,0 -26,0l0 -38 16 0z"/>
   <polygon class="fil235" points="173,684 177,669 167,666 163,681 "/>
   <path class="fil8" d="M164 675l1 -4 0 -4c1,-3 2,-5 2,-8 2,-5 3,-10 5,-15 1,-6 2,-11 4,-16l4 -15 -1 4 0 -3 0 -4c0,-2 -1,-4 -1,-6 0,-5 -1,-9 -2,-13 -1,-4 -1,-8 -3,-12 0,-2 -1,-3 -1,-5 -1,0 -1,-1 -1,-1 -1,0 -1,0 -1,0l28 -20c2,3 3,5 3,6 1,2 2,4 2,5 1,4 1,6 1,9 1,6 1,11 1,16 0,5 0,9 -1,14 0,3 0,5 0,7l-1 4 0 4 -1 4 -7 14c-2,4 -5,9 -7,14 -2,5 -5,9 -7,14 -1,2 -2,5 -3,7l-2 4 -1 3 -11 -3z"/>
   <path class="fil234" d="M174 681c0,0 9,7 14,13 0,0 1,1 0,1 0,1 -1,0 -1,0 -7,-2 -14,-4 -21,-6 1,-2 0,-4 -1,-5 -1,1 -1,2 -2,3 -1,0 -1,1 -1,1l-4 -2c0,0 0,-2 1,-4 1,-1 3,-4 4,-4 0,0 0,0 1,0 3,1 10,3 10,3z"/>
   <polygon class="fil235" points="78,585 92,592 97,583 83,576 "/>
   <path class="fil8" d="M89 578l4 1 3 2c3,1 5,2 8,3 5,2 9,5 14,7 5,2 10,4 15,7l14 7 -17 5 2 -7c1,-2 2,-4 3,-6 1,-4 2,-8 3,-13 2,-4 3,-8 3,-12 1,-1 1,-2 1,-3 0,-1 0,-2 0,-2 0,-1 0,-2 0,-3 0,0 0,0 0,0 0,0 0,0 0,-1l0 0 34 0 0 2c0,0 0,1 0,1 0,1 0,2 0,3 -1,2 -1,3 -2,4 0,2 0,3 -1,5 0,1 -1,2 -1,3 -2,5 -4,10 -7,14 -2,4 -4,9 -6,13 -2,2 -3,4 -4,6l-2 3 -2 3 -16 5 -13 -10c-4,-3 -9,-6 -13,-9 -4,-3 -8,-6 -13,-9 -2,-2 -4,-3 -6,-5l-3 -2 -3 -2 5 -10z"/>
   <path class="fil234" d="M81 587c0,0 -9,7 -15,11 0,0 -1,1 -2,0 0,0 0,-1 1,-1 3,-6 6,-13 9,-19 2,1 4,1 6,0 -1,-1 -2,-2 -3,-3 0,-1 -1,-1 -1,-1l2 -4c0,0 3,1 4,2 1,1 4,4 4,4 0,1 0,1 0,1 -2,3 -5,10 -5,10z"/>
   <path class="fil1" d="M174 532c1,8 1,15 1,23 0,0 1,1 1,0 2,-3 4,-4 4,-7 1,-5 0,-11 -1,-16 0,-1 -1,-1 -1,0 1,4 1,9 1,13 0,3 -1,4 -2,7 -1,1 -2,1 -2,2 0,0 1,1 1,1 0,-8 0,-15 0,-23 0,0 -2,0 -2,0z"/>
   <path class="fil1" d="M164 532c-1,8 -8,16 -17,14 -1,-1 -1,1 0,1 10,3 17,-6 19,-15 0,-1 -1,-1 -2,0z"/>
   <path class="fil1" d="M189 532c0,5 3,19 11,15 1,-1 0,-2 -1,-1 -6,3 -9,-10 -9,-14 0,-1 -1,-1 -1,0z"/>
   <path class="fil234" d="M172 477l-4 1c-14,3 -27,-6 -30,-20l-1 -5c-3,-15 7,-29 22,-32l0 0c14,-3 29,7 32,22l1 4c3,14 -6,28 -20,30z"/>
   <path class="fil235" d="M181 452l0 0c1,-1 2,-2 2,-3l0 0c2,-1 3,-1 5,-2l0 0c-1,0 -2,0 -3,1 -1,0 -1,0 -2,1 -1,1 -2,3 -2,5 0,1 1,3 2,5 1,1 3,2 5,2 0,-1 1,-1 2,-1 1,0 2,-1 3,-1 1,-1 1,-2 2,-4 0,-1 0,-1 0,-2 0,-1 -1,-2 -1,-3 -1,-1 -3,-3 -4,-3 -2,0 -4,0 -5,1 -1,0 -1,0 -2,1 -1,1 -1,2 -2,3z"/>
   <path class="fil8" d="M192 452c-1,-3 -6,-3 -7,1 0,0 1,1 2,1 0,-1 1,0 1,0 0,1 0,2 -1,2 -1,0 -1,2 0,2 2,-1 3,-2 3,-4 -1,-2 -2,-3 -4,-2 0,0 1,1 1,1 0,-2 3,-2 4,-1 0,1 2,1 1,0z"/>
   <path class="fil235" d="M137 464l0 0c0,2 2,4 3,4 2,1 4,2 5,1 2,0 4,-1 4,-3 1,-2 2,-3 1,-5l0 0c0,-2 -2,-4 -3,-4 -1,-1 -4,-2 -5,-1 -2,0 -4,1 -4,3 -1,2 -1,3 -1,5z"/>
   <path class="fil8" d="M141 462c0,-1 2,-2 3,-1 0,0 1,-1 1,-1 -2,0 -3,2 -3,3 1,2 2,3 4,3 1,0 1,-2 0,-2 -1,0 -2,0 -2,-1 0,-1 0,-1 1,-1 1,0 1,-1 1,-2 -2,-3 -7,-1 -7,2 0,1 2,1 2,0z"/>
   <path class="fil235" d="M162 473l2 10c1,3 4,5 8,5 3,-1 5,-4 5,-8l-2 -9c-1,-4 -4,-6 -8,-5 -3,1 -5,4 -5,7z"/>
   <path class="fil239" d="M171 488c-3,0 -6,-2 -7,-5l0 -4 -1 -2c1,0 2,0 3,0 1,0 2,0 4,0l0 0c2,-1 4,-1 6,-2l1 5c0,1 0,1 0,2 0,3 -2,5 -5,6 0,0 0,0 -1,0 0,0 0,0 0,0z"/>
   <path class="fil235" d="M170 477l0 0c11,-2 18,-13 16,-24l-3 -13c-2,-11 -13,-18 -24,-16 -11,2 -18,13 -16,24l2 13c3,11 13,18 25,16z"/>
   <path class="fil8" d="M169 455c0,2 0,5 2,7 0,1 2,0 1,-1 -1,-2 -2,-4 -1,-6 0,-1 -2,-1 -2,0z"/>
   <path class="fil8" d="M172 462c0,-1 1,-2 2,-1 0,1 0,2 -1,2 -1,1 -1,2 0,2 2,-1 4,-3 2,-5 -2,-2 -5,-1 -4,2 0,1 1,1 1,0z"/>
   <path class="fil8" d="M168 471c1,0 4,-2 3,-3 -2,-2 -4,0 -5,1 1,0 1,0 2,0 0,-2 -2,-3 -4,-3 -1,0 -1,0 -1,1 0,1 0,2 1,3 1,1 3,2 4,1 0,-1 -1,-2 -2,-1 1,-1 0,-1 -1,-1 0,-1 -1,-1 0,-2 -1,0 -1,1 -1,1 1,0 2,0 2,1 0,1 1,2 2,1 0,0 1,-2 1,-1 0,0 -1,0 -2,1 -1,0 0,1 1,1z"/>
   <path class="fil8" d="M168 468c0,1 0,1 0,1 0,0 1,1 1,1 0,0 0,0 1,0 0,-1 0,-2 -1,-2 -1,1 -3,1 -3,0 -1,-1 -2,0 -2,1 1,0 1,1 2,1 1,0 2,-1 1,-1 -1,-1 -1,-1 -1,-1 0,-1 -2,0 -1,1 0,0 0,0 1,1 0,-1 0,-1 1,-2 -1,0 -1,0 -1,0 -1,0 -1,0 -2,1 2,1 4,2 6,1 -1,-1 -1,-1 -1,-2 -1,0 -1,1 -1,1 -1,1 0,2 1,1 1,0 1,-1 1,-1 0,-1 -1,-2 -2,-1z"/>
   <path class="fil240" d="M186 460c0,-1 0,-2 0,-3 0,0 0,0 0,0 0,0 1,1 1,1 0,0 0,0 0,0 0,0 0,1 -1,2z"/>
   <path class="fil241" d="M187 458c0,0 -1,-1 -1,-1 1,0 1,0 1,1 0,0 0,0 0,0 0,0 0,0 0,0z"/>
   <path class="fil240" d="M180 462c-1,0 -2,0 -2,-1 -1,-1 1,-3 4,-4 1,0 2,0 3,0 0,0 1,0 1,0 0,1 0,2 0,3 -1,1 -1,1 -3,2 -1,0 -2,0 -3,0z"/>
   <path class="fil8" d="M181 459c1,-1 2,-2 1,-3 0,-1 -1,-2 -2,-2 -1,0 -1,1 -1,3 0,1 1,2 2,2z"/>
   <path class="fil234" d="M182 451c0,-1 -1,-2 -3,-2 -1,0 -2,1 -2,2 -1,0 0,1 0,1 1,0 1,0 1,-1 1,0 2,0 2,0 1,1 3,1 2,0z"/>
   <path class="fil240" d="M160 466c-3,0 -5,-1 -5,-2 0,-1 2,-2 5,-2 0,0 0,0 0,0 3,0 5,1 5,2 0,1 -3,2 -5,2 0,0 0,0 0,0z"/>
   <path class="fil8" d="M161 463c-1,0 -2,-1 -3,-2 0,-2 1,-3 2,-3 1,0 2,1 2,2 0,1 0,2 -1,3z"/>
   <path class="fil234" d="M159 456c-1,-1 1,-2 2,-1 0,1 2,0 1,-1 -2,-2 -6,-1 -5,2 0,1 2,1 2,0z"/>
   <path class="fil234" d="M144 457l0 1c13,-3 22,-16 19,-30l-1 0c-13,4 -21,16 -18,29z"/>
   <path class="fil234" d="M174 426l-11 2 4 20c8,-1 14,-8 16,-16l-9 -6z"/>
   <path class="fil234" d="M144 457c0,0 9,-13 10,-14 0,-1 9,-15 9,-15l13 1 -1 -5 -15 -2 -14 7 -3 7 -2 11 3 10z"/>
   <path class="fil242" d="M457 635l2 4c1,1 1,1 2,1l4 1c2,0 2,2 1,3l-3 3c0,1 -1,2 0,2l0 5c1,1 -1,2 -2,2l-4 -2c-1,-1 -2,-1 -2,0l-4 2c-2,0 -3,-1 -3,-2l1 -5c0,0 0,-1 -1,-2l-3 -3c-1,-1 -1,-3 1,-3l4 -1c1,0 2,0 2,-1l2 -4c1,-1 3,-1 3,0z"/>
   <path class="fil4" d="M76 444c0,1 1,2 2,2 2,0 3,-1 3,-2 0,-8 -7,-14 -14,-14 -2,0 -3,1 -3,2 0,1 1,2 3,2 5,0 9,5 9,10z"/>
   <path class="fil4" d="M87 446c1,0 2,-1 2,-2 0,-13 -10,-23 -22,-23 -2,0 -3,1 -3,2 0,1 1,2 3,2 10,0 18,9 18,19 0,1 1,2 2,2z"/>
   <path class="fil4" d="M64 442c0,3 2,5 4,5 2,0 4,-2 4,-5 0,-2 -2,-4 -4,-4 -2,0 -4,2 -4,4z"/>
   <path class="fil242" d="M306 361l-26 0c-7,0 -12,6 -12,13l0 18c0,7 5,13 12,13l8 0 5 9 5 -9 8 0c7,0 13,-6 13,-13l0 -18c0,-7 -6,-13 -13,-13z"/>
   <path class="fil233" d="M287 388c0,-1 0,-1 1,-2 0,0 0,0 1,0 1,0 1,0 1,0 1,1 1,1 1,2 0,0 0,1 -1,1 0,1 0,1 -1,1 -1,0 -1,0 -1,-1 -1,0 -1,-1 -1,-1zm0 -10c0,0 0,-1 1,-1 0,0 0,-1 1,-1 1,0 1,1 1,1 1,0 1,1 1,1 0,1 0,1 -1,2 0,0 0,0 -1,0 -1,0 -1,0 -1,0 -1,-1 -1,-1 -1,-2z"/>
   <path class="fil233" d="M299 383c0,2 0,4 -1,6 0,1 -1,3 -2,4l-3 0c1,-1 2,-3 2,-5 1,-1 1,-3 1,-5 0,-2 0,-4 -1,-5 0,-2 -1,-4 -2,-5l3 0c1,1 2,3 2,4 1,2 1,4 1,6z"/>
   <polygon class="fil242" points="185,317 197,332 210,317 202,317 202,309 192,309 192,317 "/>
   <path class="fil8" d="M407 554l-37 0c-10,0 -19,8 -19,19l0 26c0,10 9,18 19,18l11 0 8 13 7 -13 11 0c11,0 19,-8 19,-18l0 -26c0,-11 -8,-19 -19,-19z"/>
   <path class="fil233" d="M390 597c0,1 1,3 2,3 2,0 3,-2 3,-3 0,-10 -8,-18 -18,-18 -1,0 -2,1 -2,3 0,1 1,3 2,3 7,0 13,5 13,12z"/>
   <path class="fil233" d="M404 600c1,0 2,-2 2,-3 0,-16 -13,-29 -29,-29 -1,0 -2,1 -2,3 0,1 1,3 2,3 13,0 24,10 24,23 0,1 1,3 3,3z"/>
   <path class="fil233" d="M374 595c0,3 2,6 5,6 3,0 6,-3 6,-6 0,-3 -3,-5 -6,-5 -3,0 -5,2 -5,5z"/>
   <path class="fil235" d="M366 299c0,-1 0,-2 0,-3 0,-5 -4,-9 -9,-9 -4,0 -7,2 -8,5 -1,0 -2,0 -3,0 -4,0 -7,3 -7,6 0,0 0,1 0,1 -4,0 -7,3 -7,7 0,4 4,8 8,8l25 0c4,0 8,-4 8,-8 0,-4 -3,-7 -7,-7z"/>
   <path class="fil243" d="M455 428l-21 0c-5,0 -10,4 -10,10l0 14c0,6 5,10 10,10l6 0 4 7 4 -7 7 0c5,0 10,-4 10,-10l0 -14c0,-6 -5,-10 -10,-10z"/>
   <path class="fil233" d="M455 438c-1,-1 -2,-2 -4,-3 -2,-1 -3,-1 -5,-1 -3,0 -5,0 -7,1 -2,1 -3,3 -4,5 -1,2 -2,4 -2,6 0,3 1,6 3,8 2,1 5,2 9,2 2,0 4,0 6,-1l0 -3c-1,1 -2,1 -3,1 -2,1 -3,1 -4,1 -2,0 -4,-1 -6,-2 -1,-2 -2,-4 -2,-6 0,-2 1,-4 2,-5 0,-2 1,-3 3,-4 1,0 3,-1 5,-1 1,0 2,1 3,1 2,1 2,2 3,3 1,1 1,2 1,4 0,1 0,2 -1,3 0,1 0,1 -1,1 -1,0 -1,0 -1,-1l0 -7c0,0 -1,-1 -2,-1 -1,0 -2,0 -3,0 -2,0 -3,1 -5,2 -1,1 -1,3 -1,4 0,2 0,4 1,4 1,1 2,2 4,2 1,0 3,-1 4,-2l0 0c0,1 1,1 1,1 1,1 1,1 2,1 1,0 2,0 3,-1 0,-1 1,-1 1,-3 1,-1 1,-2 1,-3 0,-2 0,-4 -1,-6l0 0zm-12 5c0,-1 1,-2 2,-2 1,0 2,1 2,1l0 3c0,1 -1,2 -1,3 0,0 -1,0 -2,0 -1,0 -2,-1 -2,-2 0,-2 0,-3 1,-3l0 0z"/>
   <path class="fil243" d="M138 667c0,11 -8,19 -18,19 -10,0 -19,-8 -19,-19 0,-10 9,-18 19,-18 10,0 18,8 18,18z"/>
   <path class="fil233" d="M114 672c1,3 3,5 6,5 3,0 5,-2 6,-5l-12 0z"/>
   <path class="fil233" d="M115 666c0,1 -1,2 -2,2 -1,0 -2,-1 -2,-2 0,-1 1,-2 2,-2 1,0 2,1 2,2z"/>
   <path class="fil233" d="M129 666c0,1 -1,2 -2,2 -1,0 -2,-1 -2,-2 0,-1 1,-2 2,-2 1,0 2,1 2,2z"/>
   <path class="fil235" d="M156 354l-43 0c-6,0 -12,6 -12,12l0 17c0,7 6,13 12,13l18 0 5 8 4 -8 16 0c7,0 13,-6 13,-13l0 -17c0,-6 -6,-12 -13,-12z"/>
   <path class="fil233" d="M144 368l-2 0 -5 3 2 2c1,-1 2,-2 2,-2 0,0 0,0 0,-1 0,1 0,2 0,3l0 9 3 0 0 -14z"/>
   <path class="fil233" d="M157 370c-1,-2 -2,-2 -4,-2 -1,0 -3,0 -3,2 -1,1 -2,3 -2,5 0,3 1,4 2,6 0,1 2,2 3,2 2,0 3,-1 4,-2 1,-1 1,-3 1,-6 0,-2 0,-4 -1,-5l0 0zm-6 1c1,-1 1,-1 2,-1 1,0 2,0 2,1 1,1 1,2 1,4 0,2 0,4 -1,4 0,1 -1,2 -2,2 -1,0 -1,-1 -2,-2 0,0 0,-2 0,-4 0,-2 0,-3 0,-4l0 0z"/>
   <path class="fil233" d="M130 369c0,3 -3,6 -7,6 -3,0 -6,-3 -6,-6 0,-4 3,-7 6,-7 4,0 7,3 7,7z"/>
   <path class="fil233" d="M123 378c-4,0 -8,2 -10,4 -1,2 0,3 1,3l18 0c1,0 2,-1 2,-3 -2,-2 -6,-4 -11,-4z"/>
   <polygon class="fil233" points="193,392 193,405 195,405 195,392 "/>
   <polygon class="fil233" points="201,398 188,398 188,400 201,400 "/>
   <polygon class="fil233" points="339,618 339,632 341,632 341,618 "/>
   <polygon class="fil233" points="346,624 333,624 333,626 346,626 "/>
   <polygon class="fil233" points="436,489 436,502 438,502 438,489 "/>
   <polygon class="fil233" points="444,494 431,494 431,496 444,496 "/>
   <polygon class="fil233" points="212,719 212,732 215,732 215,719 "/>
   <polygon class="fil233" points="220,724 207,724 207,726 220,726 "/>
   <polygon class="fil233" points="312,625 251,625 251,607 312,607 "/>
   <polygon class="fil8" points="267,625 251,625 251,607 267,607 "/>
   <path class="fil233" d="M256 616c0,-2 1,-3 3,-3 2,0 3,1 3,3 0,1 -1,2 -3,2 -2,0 -3,-1 -3,-2zm8 5l-2 -2c1,-1 2,-2 2,-3 0,-3 -2,-5 -5,-5 -3,0 -5,2 -5,5 0,2 2,4 5,4 1,0 1,0 2,0l2 2 1 -1z"/>
   <path class="fil233" d="M333 721c2,0 2,-3 0,-3 -2,0 -2,3 0,3z"/>
   <path class="fil233" d="M48 579c2,0 2,-3 0,-3 -2,0 -2,3 0,3z"/>
   <path class="fil233" d="M482 571c2,0 2,-3 0,-3 -2,0 -2,3 0,3z"/>
   <path class="fil233" d="M448 380c2,0 2,-2 0,-2 -2,0 -2,2 0,2z"/>
   <path class="fil233" d="M144 327c2,0 2,-2 0,-2 -2,0 -2,2 0,2z"/>
   <path class="fil233" d="M286 306c2,0 2,-2 0,-2 -1,0 -1,2 0,2z"/>
   <path class="fil233" d="M45 482c1,0 1,-2 0,-2 -2,0 -2,2 0,2z"/>
   <path class="fil233" d="M290 451c2,0 2,-2 0,-2 -2,0 -2,2 0,2z"/>
   <path class="fil233" d="M320 437c1,-1 2,-1 2,-1 1,-1 1,-1 1,-2 0,0 0,-1 -1,-1 0,-1 -1,-1 -2,-1l0 5zm-2 -14c0,1 -1,1 -1,1 -1,1 -1,1 -1,2 0,0 0,0 1,1 0,0 0,0 1,1l0 -5zm0 13l0 -5c-2,0 -3,-1 -4,-2 -1,-1 -2,-2 -2,-3 0,-2 1,-3 2,-4 1,-1 2,-1 4,-1l0 -1 2 0 0 1c2,0 3,0 4,1 1,1 2,2 2,3l-4 0c0,-1 -1,-1 -2,-2l0 5c3,1 4,2 5,2 1,1 1,2 1,4 0,1 0,2 -1,3 -1,1 -3,2 -5,2l0 3 -2 0 0 -3c-2,0 -3,0 -4,-1 -1,-1 -2,-2 -2,-4l4 0c0,0 0,1 1,1 0,1 1,1 1,1z"/>
  </g>
 </g>
</svg>
